%TF.GenerationSoftware,KiCad,Pcbnew,(6.0.4)*%
%TF.CreationDate,2022-08-07T23:35:56-04:00*%
%TF.ProjectId,pcb,7063622e-6b69-4636-9164-5f7063625858,rev?*%
%TF.SameCoordinates,Original*%
%TF.FileFunction,Legend,Top*%
%TF.FilePolarity,Positive*%
%FSLAX46Y46*%
G04 Gerber Fmt 4.6, Leading zero omitted, Abs format (unit mm)*
G04 Created by KiCad (PCBNEW (6.0.4)) date 2022-08-07 23:35:56*
%MOMM*%
%LPD*%
G01*
G04 APERTURE LIST*
%ADD10C,0.150000*%
%ADD11C,0.254001*%
%ADD12C,0.059995*%
%ADD13C,0.152400*%
%ADD14C,0.300000*%
G04 APERTURE END LIST*
D10*
%TO.C,R31*%
X109367180Y-68308457D02*
X108890990Y-68641790D01*
X109367180Y-68879885D02*
X108367180Y-68879885D01*
X108367180Y-68498933D01*
X108414800Y-68403695D01*
X108462419Y-68356076D01*
X108557657Y-68308457D01*
X108700514Y-68308457D01*
X108795752Y-68356076D01*
X108843371Y-68403695D01*
X108890990Y-68498933D01*
X108890990Y-68879885D01*
X108367180Y-67975123D02*
X108367180Y-67356076D01*
X108748133Y-67689409D01*
X108748133Y-67546552D01*
X108795752Y-67451314D01*
X108843371Y-67403695D01*
X108938609Y-67356076D01*
X109176704Y-67356076D01*
X109271942Y-67403695D01*
X109319561Y-67451314D01*
X109367180Y-67546552D01*
X109367180Y-67832266D01*
X109319561Y-67927504D01*
X109271942Y-67975123D01*
X109367180Y-66403695D02*
X109367180Y-66975123D01*
X109367180Y-66689409D02*
X108367180Y-66689409D01*
X108510038Y-66784647D01*
X108605276Y-66879885D01*
X108652895Y-66975123D01*
%TO.C,R47*%
X120819942Y-120593980D02*
X120486609Y-120117790D01*
X120248514Y-120593980D02*
X120248514Y-119593980D01*
X120629466Y-119593980D01*
X120724704Y-119641600D01*
X120772323Y-119689219D01*
X120819942Y-119784457D01*
X120819942Y-119927314D01*
X120772323Y-120022552D01*
X120724704Y-120070171D01*
X120629466Y-120117790D01*
X120248514Y-120117790D01*
X121677085Y-119927314D02*
X121677085Y-120593980D01*
X121438990Y-119546361D02*
X121200895Y-120260647D01*
X121819942Y-120260647D01*
X122105657Y-119593980D02*
X122772323Y-119593980D01*
X122343752Y-120593980D01*
%TO.C,R6*%
X72934019Y-126893995D02*
X72600686Y-126417805D01*
X72362590Y-126893995D02*
X72362590Y-125893995D01*
X72743543Y-125893995D01*
X72838781Y-125941615D01*
X72886400Y-125989234D01*
X72934019Y-126084472D01*
X72934019Y-126227329D01*
X72886400Y-126322567D01*
X72838781Y-126370186D01*
X72743543Y-126417805D01*
X72362590Y-126417805D01*
X73791162Y-125893995D02*
X73600686Y-125893995D01*
X73505447Y-125941615D01*
X73457828Y-125989234D01*
X73362590Y-126132091D01*
X73314971Y-126322567D01*
X73314971Y-126703519D01*
X73362590Y-126798757D01*
X73410209Y-126846376D01*
X73505447Y-126893995D01*
X73695924Y-126893995D01*
X73791162Y-126846376D01*
X73838781Y-126798757D01*
X73886400Y-126703519D01*
X73886400Y-126465424D01*
X73838781Y-126370186D01*
X73791162Y-126322567D01*
X73695924Y-126274948D01*
X73505447Y-126274948D01*
X73410209Y-126322567D01*
X73362590Y-126370186D01*
X73314971Y-126465424D01*
%TO.C,R14*%
X72364357Y-101620976D02*
X72031024Y-101144786D01*
X71792929Y-101620976D02*
X71792929Y-100620976D01*
X72173881Y-100620976D01*
X72269119Y-100668596D01*
X72316738Y-100716215D01*
X72364357Y-100811453D01*
X72364357Y-100954310D01*
X72316738Y-101049548D01*
X72269119Y-101097167D01*
X72173881Y-101144786D01*
X71792929Y-101144786D01*
X73316738Y-101620976D02*
X72745310Y-101620976D01*
X73031024Y-101620976D02*
X73031024Y-100620976D01*
X72935786Y-100763834D01*
X72840548Y-100859072D01*
X72745310Y-100906691D01*
X74173881Y-100954310D02*
X74173881Y-101620976D01*
X73935786Y-100573357D02*
X73697691Y-101287643D01*
X74316738Y-101287643D01*
%TO.C,R19*%
X72364357Y-86380976D02*
X72031024Y-85904786D01*
X71792929Y-86380976D02*
X71792929Y-85380976D01*
X72173881Y-85380976D01*
X72269119Y-85428596D01*
X72316738Y-85476215D01*
X72364357Y-85571453D01*
X72364357Y-85714310D01*
X72316738Y-85809548D01*
X72269119Y-85857167D01*
X72173881Y-85904786D01*
X71792929Y-85904786D01*
X73316738Y-86380976D02*
X72745310Y-86380976D01*
X73031024Y-86380976D02*
X73031024Y-85380976D01*
X72935786Y-85523834D01*
X72840548Y-85619072D01*
X72745310Y-85666691D01*
X73792929Y-86380976D02*
X73983405Y-86380976D01*
X74078643Y-86333357D01*
X74126262Y-86285738D01*
X74221500Y-86142881D01*
X74269119Y-85952405D01*
X74269119Y-85571453D01*
X74221500Y-85476215D01*
X74173881Y-85428596D01*
X74078643Y-85380976D01*
X73888167Y-85380976D01*
X73792929Y-85428596D01*
X73745310Y-85476215D01*
X73697691Y-85571453D01*
X73697691Y-85809548D01*
X73745310Y-85904786D01*
X73792929Y-85952405D01*
X73888167Y-86000024D01*
X74078643Y-86000024D01*
X74173881Y-85952405D01*
X74221500Y-85904786D01*
X74269119Y-85809548D01*
%TO.C,R20*%
X72364357Y-108224976D02*
X72031024Y-107748786D01*
X71792929Y-108224976D02*
X71792929Y-107224976D01*
X72173881Y-107224976D01*
X72269119Y-107272596D01*
X72316738Y-107320215D01*
X72364357Y-107415453D01*
X72364357Y-107558310D01*
X72316738Y-107653548D01*
X72269119Y-107701167D01*
X72173881Y-107748786D01*
X71792929Y-107748786D01*
X72745310Y-107320215D02*
X72792929Y-107272596D01*
X72888167Y-107224976D01*
X73126262Y-107224976D01*
X73221500Y-107272596D01*
X73269119Y-107320215D01*
X73316738Y-107415453D01*
X73316738Y-107510691D01*
X73269119Y-107653548D01*
X72697691Y-108224976D01*
X73316738Y-108224976D01*
X73935786Y-107224976D02*
X74031024Y-107224976D01*
X74126262Y-107272596D01*
X74173881Y-107320215D01*
X74221500Y-107415453D01*
X74269119Y-107605929D01*
X74269119Y-107844024D01*
X74221500Y-108034500D01*
X74173881Y-108129738D01*
X74126262Y-108177357D01*
X74031024Y-108224976D01*
X73935786Y-108224976D01*
X73840548Y-108177357D01*
X73792929Y-108129738D01*
X73745310Y-108034500D01*
X73697691Y-107844024D01*
X73697691Y-107605929D01*
X73745310Y-107415453D01*
X73792929Y-107320215D01*
X73840548Y-107272596D01*
X73935786Y-107224976D01*
%TO.C,R4*%
X91832133Y-145485980D02*
X91498800Y-145009790D01*
X91260704Y-145485980D02*
X91260704Y-144485980D01*
X91641657Y-144485980D01*
X91736895Y-144533600D01*
X91784514Y-144581219D01*
X91832133Y-144676457D01*
X91832133Y-144819314D01*
X91784514Y-144914552D01*
X91736895Y-144962171D01*
X91641657Y-145009790D01*
X91260704Y-145009790D01*
X92689276Y-144819314D02*
X92689276Y-145485980D01*
X92451180Y-144438361D02*
X92213085Y-145152647D01*
X92832133Y-145152647D01*
%TO.C,U2*%
X89480651Y-122656513D02*
X90290175Y-122656513D01*
X90385413Y-122608894D01*
X90433032Y-122561275D01*
X90480651Y-122466037D01*
X90480651Y-122275561D01*
X90433032Y-122180323D01*
X90385413Y-122132704D01*
X90290175Y-122085085D01*
X89480651Y-122085085D01*
X89575890Y-121656513D02*
X89528271Y-121608894D01*
X89480651Y-121513656D01*
X89480651Y-121275561D01*
X89528271Y-121180323D01*
X89575890Y-121132704D01*
X89671128Y-121085085D01*
X89766366Y-121085085D01*
X89909223Y-121132704D01*
X90480651Y-121704132D01*
X90480651Y-121085085D01*
%TO.C,R23*%
X80411180Y-68308457D02*
X79934990Y-68641790D01*
X80411180Y-68879885D02*
X79411180Y-68879885D01*
X79411180Y-68498933D01*
X79458800Y-68403695D01*
X79506419Y-68356076D01*
X79601657Y-68308457D01*
X79744514Y-68308457D01*
X79839752Y-68356076D01*
X79887371Y-68403695D01*
X79934990Y-68498933D01*
X79934990Y-68879885D01*
X79506419Y-67927504D02*
X79458800Y-67879885D01*
X79411180Y-67784647D01*
X79411180Y-67546552D01*
X79458800Y-67451314D01*
X79506419Y-67403695D01*
X79601657Y-67356076D01*
X79696895Y-67356076D01*
X79839752Y-67403695D01*
X80411180Y-67975123D01*
X80411180Y-67356076D01*
X79411180Y-67022742D02*
X79411180Y-66403695D01*
X79792133Y-66737028D01*
X79792133Y-66594171D01*
X79839752Y-66498933D01*
X79887371Y-66451314D01*
X79982609Y-66403695D01*
X80220704Y-66403695D01*
X80315942Y-66451314D01*
X80363561Y-66498933D01*
X80411180Y-66594171D01*
X80411180Y-66879885D01*
X80363561Y-66975123D01*
X80315942Y-67022742D01*
%TO.C,R40*%
X120819942Y-98241980D02*
X120486609Y-97765790D01*
X120248514Y-98241980D02*
X120248514Y-97241980D01*
X120629466Y-97241980D01*
X120724704Y-97289600D01*
X120772323Y-97337219D01*
X120819942Y-97432457D01*
X120819942Y-97575314D01*
X120772323Y-97670552D01*
X120724704Y-97718171D01*
X120629466Y-97765790D01*
X120248514Y-97765790D01*
X121677085Y-97575314D02*
X121677085Y-98241980D01*
X121438990Y-97194361D02*
X121200895Y-97908647D01*
X121819942Y-97908647D01*
X122391371Y-97241980D02*
X122486609Y-97241980D01*
X122581847Y-97289600D01*
X122629466Y-97337219D01*
X122677085Y-97432457D01*
X122724704Y-97622933D01*
X122724704Y-97861028D01*
X122677085Y-98051504D01*
X122629466Y-98146742D01*
X122581847Y-98194361D01*
X122486609Y-98241980D01*
X122391371Y-98241980D01*
X122296133Y-98194361D01*
X122248514Y-98146742D01*
X122200895Y-98051504D01*
X122153276Y-97861028D01*
X122153276Y-97622933D01*
X122200895Y-97432457D01*
X122248514Y-97337219D01*
X122296133Y-97289600D01*
X122391371Y-97241980D01*
%TO.C,R32*%
X111399180Y-68308457D02*
X110922990Y-68641790D01*
X111399180Y-68879885D02*
X110399180Y-68879885D01*
X110399180Y-68498933D01*
X110446800Y-68403695D01*
X110494419Y-68356076D01*
X110589657Y-68308457D01*
X110732514Y-68308457D01*
X110827752Y-68356076D01*
X110875371Y-68403695D01*
X110922990Y-68498933D01*
X110922990Y-68879885D01*
X110399180Y-67975123D02*
X110399180Y-67356076D01*
X110780133Y-67689409D01*
X110780133Y-67546552D01*
X110827752Y-67451314D01*
X110875371Y-67403695D01*
X110970609Y-67356076D01*
X111208704Y-67356076D01*
X111303942Y-67403695D01*
X111351561Y-67451314D01*
X111399180Y-67546552D01*
X111399180Y-67832266D01*
X111351561Y-67927504D01*
X111303942Y-67975123D01*
X110494419Y-66975123D02*
X110446800Y-66927504D01*
X110399180Y-66832266D01*
X110399180Y-66594171D01*
X110446800Y-66498933D01*
X110494419Y-66451314D01*
X110589657Y-66403695D01*
X110684895Y-66403695D01*
X110827752Y-66451314D01*
X111399180Y-67022742D01*
X111399180Y-66403695D01*
%TO.C,R22*%
X77363180Y-68308457D02*
X76886990Y-68641790D01*
X77363180Y-68879885D02*
X76363180Y-68879885D01*
X76363180Y-68498933D01*
X76410800Y-68403695D01*
X76458419Y-68356076D01*
X76553657Y-68308457D01*
X76696514Y-68308457D01*
X76791752Y-68356076D01*
X76839371Y-68403695D01*
X76886990Y-68498933D01*
X76886990Y-68879885D01*
X76458419Y-67927504D02*
X76410800Y-67879885D01*
X76363180Y-67784647D01*
X76363180Y-67546552D01*
X76410800Y-67451314D01*
X76458419Y-67403695D01*
X76553657Y-67356076D01*
X76648895Y-67356076D01*
X76791752Y-67403695D01*
X77363180Y-67975123D01*
X77363180Y-67356076D01*
X76458419Y-66975123D02*
X76410800Y-66927504D01*
X76363180Y-66832266D01*
X76363180Y-66594171D01*
X76410800Y-66498933D01*
X76458419Y-66451314D01*
X76553657Y-66403695D01*
X76648895Y-66403695D01*
X76791752Y-66451314D01*
X77363180Y-67022742D01*
X77363180Y-66403695D01*
%TO.C,R13*%
X72364357Y-104668976D02*
X72031024Y-104192786D01*
X71792929Y-104668976D02*
X71792929Y-103668976D01*
X72173881Y-103668976D01*
X72269119Y-103716596D01*
X72316738Y-103764215D01*
X72364357Y-103859453D01*
X72364357Y-104002310D01*
X72316738Y-104097548D01*
X72269119Y-104145167D01*
X72173881Y-104192786D01*
X71792929Y-104192786D01*
X73316738Y-104668976D02*
X72745310Y-104668976D01*
X73031024Y-104668976D02*
X73031024Y-103668976D01*
X72935786Y-103811834D01*
X72840548Y-103907072D01*
X72745310Y-103954691D01*
X73650072Y-103668976D02*
X74269119Y-103668976D01*
X73935786Y-104049929D01*
X74078643Y-104049929D01*
X74173881Y-104097548D01*
X74221500Y-104145167D01*
X74269119Y-104240405D01*
X74269119Y-104478500D01*
X74221500Y-104573738D01*
X74173881Y-104621357D01*
X74078643Y-104668976D01*
X73792929Y-104668976D01*
X73697691Y-104621357D01*
X73650072Y-104573738D01*
%TO.C,U5*%
X104952895Y-85594569D02*
X104952895Y-86404093D01*
X105000514Y-86499331D01*
X105048133Y-86546950D01*
X105143371Y-86594569D01*
X105333847Y-86594569D01*
X105429085Y-86546950D01*
X105476704Y-86499331D01*
X105524323Y-86404093D01*
X105524323Y-85594569D01*
X106476704Y-85594569D02*
X106000514Y-85594569D01*
X105952895Y-86070760D01*
X106000514Y-86023141D01*
X106095752Y-85975522D01*
X106333847Y-85975522D01*
X106429085Y-86023141D01*
X106476704Y-86070760D01*
X106524323Y-86165998D01*
X106524323Y-86404093D01*
X106476704Y-86499331D01*
X106429085Y-86546950D01*
X106333847Y-86594569D01*
X106095752Y-86594569D01*
X106000514Y-86546950D01*
X105952895Y-86499331D01*
%TO.C,J7*%
X58670470Y-62608984D02*
X58670470Y-63323270D01*
X58622851Y-63466127D01*
X58527613Y-63561365D01*
X58384756Y-63608984D01*
X58289518Y-63608984D01*
X59051423Y-62608984D02*
X59718089Y-62608984D01*
X59289518Y-63608984D01*
%TO.C,R28*%
X95651180Y-68308457D02*
X95174990Y-68641790D01*
X95651180Y-68879885D02*
X94651180Y-68879885D01*
X94651180Y-68498933D01*
X94698800Y-68403695D01*
X94746419Y-68356076D01*
X94841657Y-68308457D01*
X94984514Y-68308457D01*
X95079752Y-68356076D01*
X95127371Y-68403695D01*
X95174990Y-68498933D01*
X95174990Y-68879885D01*
X94746419Y-67927504D02*
X94698800Y-67879885D01*
X94651180Y-67784647D01*
X94651180Y-67546552D01*
X94698800Y-67451314D01*
X94746419Y-67403695D01*
X94841657Y-67356076D01*
X94936895Y-67356076D01*
X95079752Y-67403695D01*
X95651180Y-67975123D01*
X95651180Y-67356076D01*
X95079752Y-66784647D02*
X95032133Y-66879885D01*
X94984514Y-66927504D01*
X94889276Y-66975123D01*
X94841657Y-66975123D01*
X94746419Y-66927504D01*
X94698800Y-66879885D01*
X94651180Y-66784647D01*
X94651180Y-66594171D01*
X94698800Y-66498933D01*
X94746419Y-66451314D01*
X94841657Y-66403695D01*
X94889276Y-66403695D01*
X94984514Y-66451314D01*
X95032133Y-66498933D01*
X95079752Y-66594171D01*
X95079752Y-66784647D01*
X95127371Y-66879885D01*
X95174990Y-66927504D01*
X95270228Y-66975123D01*
X95460704Y-66975123D01*
X95555942Y-66927504D01*
X95603561Y-66879885D01*
X95651180Y-66784647D01*
X95651180Y-66594171D01*
X95603561Y-66498933D01*
X95555942Y-66451314D01*
X95460704Y-66403695D01*
X95270228Y-66403695D01*
X95174990Y-66451314D01*
X95127371Y-66498933D01*
X95079752Y-66594171D01*
%TO.C,R10*%
X72457828Y-114193995D02*
X72124495Y-113717805D01*
X71886400Y-114193995D02*
X71886400Y-113193995D01*
X72267352Y-113193995D01*
X72362590Y-113241615D01*
X72410209Y-113289234D01*
X72457828Y-113384472D01*
X72457828Y-113527329D01*
X72410209Y-113622567D01*
X72362590Y-113670186D01*
X72267352Y-113717805D01*
X71886400Y-113717805D01*
X73410209Y-114193995D02*
X72838781Y-114193995D01*
X73124495Y-114193995D02*
X73124495Y-113193995D01*
X73029257Y-113336853D01*
X72934019Y-113432091D01*
X72838781Y-113479710D01*
X74029257Y-113193995D02*
X74124495Y-113193995D01*
X74219733Y-113241615D01*
X74267352Y-113289234D01*
X74314971Y-113384472D01*
X74362590Y-113574948D01*
X74362590Y-113813043D01*
X74314971Y-114003519D01*
X74267352Y-114098757D01*
X74219733Y-114146376D01*
X74124495Y-114193995D01*
X74029257Y-114193995D01*
X73934019Y-114146376D01*
X73886400Y-114098757D01*
X73838781Y-114003519D01*
X73791162Y-113813043D01*
X73791162Y-113574948D01*
X73838781Y-113384472D01*
X73886400Y-113289234D01*
X73934019Y-113241615D01*
X74029257Y-113193995D01*
%TO.C,J3*%
X66401595Y-174932935D02*
X67115881Y-174932935D01*
X67258738Y-174980554D01*
X67353976Y-175075792D01*
X67401595Y-175218649D01*
X67401595Y-175313887D01*
X66401595Y-174551982D02*
X66401595Y-173932935D01*
X66782548Y-174266268D01*
X66782548Y-174123411D01*
X66830167Y-174028173D01*
X66877786Y-173980554D01*
X66973024Y-173932935D01*
X67211119Y-173932935D01*
X67306357Y-173980554D01*
X67353976Y-174028173D01*
X67401595Y-174123411D01*
X67401595Y-174409125D01*
X67353976Y-174504363D01*
X67306357Y-174551982D01*
%TO.C,R26*%
X89555180Y-68308457D02*
X89078990Y-68641790D01*
X89555180Y-68879885D02*
X88555180Y-68879885D01*
X88555180Y-68498933D01*
X88602800Y-68403695D01*
X88650419Y-68356076D01*
X88745657Y-68308457D01*
X88888514Y-68308457D01*
X88983752Y-68356076D01*
X89031371Y-68403695D01*
X89078990Y-68498933D01*
X89078990Y-68879885D01*
X88650419Y-67927504D02*
X88602800Y-67879885D01*
X88555180Y-67784647D01*
X88555180Y-67546552D01*
X88602800Y-67451314D01*
X88650419Y-67403695D01*
X88745657Y-67356076D01*
X88840895Y-67356076D01*
X88983752Y-67403695D01*
X89555180Y-67975123D01*
X89555180Y-67356076D01*
X88555180Y-66498933D02*
X88555180Y-66689409D01*
X88602800Y-66784647D01*
X88650419Y-66832266D01*
X88793276Y-66927504D01*
X88983752Y-66975123D01*
X89364704Y-66975123D01*
X89459942Y-66927504D01*
X89507561Y-66879885D01*
X89555180Y-66784647D01*
X89555180Y-66594171D01*
X89507561Y-66498933D01*
X89459942Y-66451314D01*
X89364704Y-66403695D01*
X89126609Y-66403695D01*
X89031371Y-66451314D01*
X88983752Y-66498933D01*
X88936133Y-66594171D01*
X88936133Y-66784647D01*
X88983752Y-66879885D01*
X89031371Y-66927504D01*
X89126609Y-66975123D01*
%TO.C,R9*%
X72934019Y-117241995D02*
X72600686Y-116765805D01*
X72362590Y-117241995D02*
X72362590Y-116241995D01*
X72743543Y-116241995D01*
X72838781Y-116289615D01*
X72886400Y-116337234D01*
X72934019Y-116432472D01*
X72934019Y-116575329D01*
X72886400Y-116670567D01*
X72838781Y-116718186D01*
X72743543Y-116765805D01*
X72362590Y-116765805D01*
X73410209Y-117241995D02*
X73600686Y-117241995D01*
X73695924Y-117194376D01*
X73743543Y-117146757D01*
X73838781Y-117003900D01*
X73886400Y-116813424D01*
X73886400Y-116432472D01*
X73838781Y-116337234D01*
X73791162Y-116289615D01*
X73695924Y-116241995D01*
X73505447Y-116241995D01*
X73410209Y-116289615D01*
X73362590Y-116337234D01*
X73314971Y-116432472D01*
X73314971Y-116670567D01*
X73362590Y-116765805D01*
X73410209Y-116813424D01*
X73505447Y-116861043D01*
X73695924Y-116861043D01*
X73791162Y-116813424D01*
X73838781Y-116765805D01*
X73886400Y-116670567D01*
%TO.C,J13*%
X127481180Y-126895123D02*
X128195466Y-126895123D01*
X128338323Y-126942742D01*
X128433561Y-127037980D01*
X128481180Y-127180838D01*
X128481180Y-127276076D01*
X128481180Y-125895123D02*
X128481180Y-126466552D01*
X128481180Y-126180838D02*
X127481180Y-126180838D01*
X127624038Y-126276076D01*
X127719276Y-126371314D01*
X127766895Y-126466552D01*
X127481180Y-125561790D02*
X127481180Y-124942742D01*
X127862133Y-125276076D01*
X127862133Y-125133219D01*
X127909752Y-125037980D01*
X127957371Y-124990361D01*
X128052609Y-124942742D01*
X128290704Y-124942742D01*
X128385942Y-124990361D01*
X128433561Y-125037980D01*
X128481180Y-125133219D01*
X128481180Y-125418933D01*
X128433561Y-125514171D01*
X128385942Y-125561790D01*
%TO.C,R15*%
X72364357Y-98572976D02*
X72031024Y-98096786D01*
X71792929Y-98572976D02*
X71792929Y-97572976D01*
X72173881Y-97572976D01*
X72269119Y-97620596D01*
X72316738Y-97668215D01*
X72364357Y-97763453D01*
X72364357Y-97906310D01*
X72316738Y-98001548D01*
X72269119Y-98049167D01*
X72173881Y-98096786D01*
X71792929Y-98096786D01*
X73316738Y-98572976D02*
X72745310Y-98572976D01*
X73031024Y-98572976D02*
X73031024Y-97572976D01*
X72935786Y-97715834D01*
X72840548Y-97811072D01*
X72745310Y-97858691D01*
X74221500Y-97572976D02*
X73745310Y-97572976D01*
X73697691Y-98049167D01*
X73745310Y-98001548D01*
X73840548Y-97953929D01*
X74078643Y-97953929D01*
X74173881Y-98001548D01*
X74221500Y-98049167D01*
X74269119Y-98144405D01*
X74269119Y-98382500D01*
X74221500Y-98477738D01*
X74173881Y-98525357D01*
X74078643Y-98572976D01*
X73840548Y-98572976D01*
X73745310Y-98525357D01*
X73697691Y-98477738D01*
%TO.C,U4*%
X87172895Y-85569565D02*
X87172895Y-86379089D01*
X87220514Y-86474327D01*
X87268133Y-86521946D01*
X87363371Y-86569565D01*
X87553847Y-86569565D01*
X87649085Y-86521946D01*
X87696704Y-86474327D01*
X87744323Y-86379089D01*
X87744323Y-85569565D01*
X88649085Y-85902899D02*
X88649085Y-86569565D01*
X88410990Y-85521946D02*
X88172895Y-86236232D01*
X88791942Y-86236232D01*
%TO.C,R16*%
X72364357Y-95524976D02*
X72031024Y-95048786D01*
X71792929Y-95524976D02*
X71792929Y-94524976D01*
X72173881Y-94524976D01*
X72269119Y-94572596D01*
X72316738Y-94620215D01*
X72364357Y-94715453D01*
X72364357Y-94858310D01*
X72316738Y-94953548D01*
X72269119Y-95001167D01*
X72173881Y-95048786D01*
X71792929Y-95048786D01*
X73316738Y-95524976D02*
X72745310Y-95524976D01*
X73031024Y-95524976D02*
X73031024Y-94524976D01*
X72935786Y-94667834D01*
X72840548Y-94763072D01*
X72745310Y-94810691D01*
X74173881Y-94524976D02*
X73983405Y-94524976D01*
X73888167Y-94572596D01*
X73840548Y-94620215D01*
X73745310Y-94763072D01*
X73697691Y-94953548D01*
X73697691Y-95334500D01*
X73745310Y-95429738D01*
X73792929Y-95477357D01*
X73888167Y-95524976D01*
X74078643Y-95524976D01*
X74173881Y-95477357D01*
X74221500Y-95429738D01*
X74269119Y-95334500D01*
X74269119Y-95096405D01*
X74221500Y-95001167D01*
X74173881Y-94953548D01*
X74078643Y-94905929D01*
X73888167Y-94905929D01*
X73792929Y-94953548D01*
X73745310Y-95001167D01*
X73697691Y-95096405D01*
%TO.C,R36*%
X124756946Y-47450395D02*
X124423613Y-46974205D01*
X124185518Y-47450395D02*
X124185518Y-46450395D01*
X124566470Y-46450395D01*
X124661708Y-46498015D01*
X124709327Y-46545634D01*
X124756946Y-46640872D01*
X124756946Y-46783729D01*
X124709327Y-46878967D01*
X124661708Y-46926586D01*
X124566470Y-46974205D01*
X124185518Y-46974205D01*
X125090280Y-46450395D02*
X125709327Y-46450395D01*
X125375994Y-46831348D01*
X125518851Y-46831348D01*
X125614089Y-46878967D01*
X125661708Y-46926586D01*
X125709327Y-47021824D01*
X125709327Y-47259919D01*
X125661708Y-47355157D01*
X125614089Y-47402776D01*
X125518851Y-47450395D01*
X125233137Y-47450395D01*
X125137899Y-47402776D01*
X125090280Y-47355157D01*
X126566470Y-46450395D02*
X126375994Y-46450395D01*
X126280756Y-46498015D01*
X126233137Y-46545634D01*
X126137899Y-46688491D01*
X126090280Y-46878967D01*
X126090280Y-47259919D01*
X126137899Y-47355157D01*
X126185518Y-47402776D01*
X126280756Y-47450395D01*
X126471232Y-47450395D01*
X126566470Y-47402776D01*
X126614089Y-47355157D01*
X126661708Y-47259919D01*
X126661708Y-47021824D01*
X126614089Y-46926586D01*
X126566470Y-46878967D01*
X126471232Y-46831348D01*
X126280756Y-46831348D01*
X126185518Y-46878967D01*
X126137899Y-46926586D01*
X126090280Y-47021824D01*
%TO.C,R48*%
X120819942Y-124149980D02*
X120486609Y-123673790D01*
X120248514Y-124149980D02*
X120248514Y-123149980D01*
X120629466Y-123149980D01*
X120724704Y-123197600D01*
X120772323Y-123245219D01*
X120819942Y-123340457D01*
X120819942Y-123483314D01*
X120772323Y-123578552D01*
X120724704Y-123626171D01*
X120629466Y-123673790D01*
X120248514Y-123673790D01*
X121677085Y-123483314D02*
X121677085Y-124149980D01*
X121438990Y-123102361D02*
X121200895Y-123816647D01*
X121819942Y-123816647D01*
X122343752Y-123578552D02*
X122248514Y-123530933D01*
X122200895Y-123483314D01*
X122153276Y-123388076D01*
X122153276Y-123340457D01*
X122200895Y-123245219D01*
X122248514Y-123197600D01*
X122343752Y-123149980D01*
X122534228Y-123149980D01*
X122629466Y-123197600D01*
X122677085Y-123245219D01*
X122724704Y-123340457D01*
X122724704Y-123388076D01*
X122677085Y-123483314D01*
X122629466Y-123530933D01*
X122534228Y-123578552D01*
X122343752Y-123578552D01*
X122248514Y-123626171D01*
X122200895Y-123673790D01*
X122153276Y-123769028D01*
X122153276Y-123959504D01*
X122200895Y-124054742D01*
X122248514Y-124102361D01*
X122343752Y-124149980D01*
X122534228Y-124149980D01*
X122629466Y-124102361D01*
X122677085Y-124054742D01*
X122724704Y-123959504D01*
X122724704Y-123769028D01*
X122677085Y-123673790D01*
X122629466Y-123626171D01*
X122534228Y-123578552D01*
%TO.C,R17*%
X72364357Y-92476976D02*
X72031024Y-92000786D01*
X71792929Y-92476976D02*
X71792929Y-91476976D01*
X72173881Y-91476976D01*
X72269119Y-91524596D01*
X72316738Y-91572215D01*
X72364357Y-91667453D01*
X72364357Y-91810310D01*
X72316738Y-91905548D01*
X72269119Y-91953167D01*
X72173881Y-92000786D01*
X71792929Y-92000786D01*
X73316738Y-92476976D02*
X72745310Y-92476976D01*
X73031024Y-92476976D02*
X73031024Y-91476976D01*
X72935786Y-91619834D01*
X72840548Y-91715072D01*
X72745310Y-91762691D01*
X73650072Y-91476976D02*
X74316738Y-91476976D01*
X73888167Y-92476976D01*
%TO.C,J12*%
X127481180Y-110639123D02*
X128195466Y-110639123D01*
X128338323Y-110686742D01*
X128433561Y-110781980D01*
X128481180Y-110924838D01*
X128481180Y-111020076D01*
X128481180Y-109639123D02*
X128481180Y-110210552D01*
X128481180Y-109924838D02*
X127481180Y-109924838D01*
X127624038Y-110020076D01*
X127719276Y-110115314D01*
X127766895Y-110210552D01*
X127576419Y-109258171D02*
X127528800Y-109210552D01*
X127481180Y-109115314D01*
X127481180Y-108877219D01*
X127528800Y-108781980D01*
X127576419Y-108734361D01*
X127671657Y-108686742D01*
X127766895Y-108686742D01*
X127909752Y-108734361D01*
X128481180Y-109305790D01*
X128481180Y-108686742D01*
%TO.C,Q1*%
X83267561Y-147163155D02*
X83172323Y-147115536D01*
X83077085Y-147020297D01*
X82934228Y-146877440D01*
X82838990Y-146829821D01*
X82743752Y-146829821D01*
X82791371Y-147067916D02*
X82696133Y-147020297D01*
X82600895Y-146925059D01*
X82553276Y-146734583D01*
X82553276Y-146401250D01*
X82600895Y-146210774D01*
X82696133Y-146115536D01*
X82791371Y-146067916D01*
X82981847Y-146067916D01*
X83077085Y-146115536D01*
X83172323Y-146210774D01*
X83219942Y-146401250D01*
X83219942Y-146734583D01*
X83172323Y-146925059D01*
X83077085Y-147020297D01*
X82981847Y-147067916D01*
X82791371Y-147067916D01*
X84172323Y-147067916D02*
X83600895Y-147067916D01*
X83886609Y-147067916D02*
X83886609Y-146067916D01*
X83791371Y-146210774D01*
X83696133Y-146306012D01*
X83600895Y-146353631D01*
%TO.C,J6*%
X66909595Y-88953929D02*
X67623881Y-88953929D01*
X67766738Y-89001548D01*
X67861976Y-89096786D01*
X67909595Y-89239643D01*
X67909595Y-89334881D01*
X66909595Y-88049167D02*
X66909595Y-88239643D01*
X66957215Y-88334881D01*
X67004834Y-88382500D01*
X67147691Y-88477738D01*
X67338167Y-88525357D01*
X67719119Y-88525357D01*
X67814357Y-88477738D01*
X67861976Y-88430119D01*
X67909595Y-88334881D01*
X67909595Y-88144405D01*
X67861976Y-88049167D01*
X67814357Y-88001548D01*
X67719119Y-87953929D01*
X67481024Y-87953929D01*
X67385786Y-88001548D01*
X67338167Y-88049167D01*
X67290548Y-88144405D01*
X67290548Y-88334881D01*
X67338167Y-88430119D01*
X67385786Y-88477738D01*
X67481024Y-88525357D01*
%TO.C,R42*%
X120819942Y-104845980D02*
X120486609Y-104369790D01*
X120248514Y-104845980D02*
X120248514Y-103845980D01*
X120629466Y-103845980D01*
X120724704Y-103893600D01*
X120772323Y-103941219D01*
X120819942Y-104036457D01*
X120819942Y-104179314D01*
X120772323Y-104274552D01*
X120724704Y-104322171D01*
X120629466Y-104369790D01*
X120248514Y-104369790D01*
X121677085Y-104179314D02*
X121677085Y-104845980D01*
X121438990Y-103798361D02*
X121200895Y-104512647D01*
X121819942Y-104512647D01*
X122153276Y-103941219D02*
X122200895Y-103893600D01*
X122296133Y-103845980D01*
X122534228Y-103845980D01*
X122629466Y-103893600D01*
X122677085Y-103941219D01*
X122724704Y-104036457D01*
X122724704Y-104131695D01*
X122677085Y-104274552D01*
X122105657Y-104845980D01*
X122724704Y-104845980D01*
%TO.C,U1*%
X109394765Y-140563504D02*
X110204289Y-140563504D01*
X110299527Y-140515885D01*
X110347146Y-140468266D01*
X110394765Y-140373028D01*
X110394765Y-140182552D01*
X110347146Y-140087314D01*
X110299527Y-140039695D01*
X110204289Y-139992076D01*
X109394765Y-139992076D01*
X110394765Y-138992076D02*
X110394765Y-139563504D01*
X110394765Y-139277790D02*
X109394765Y-139277790D01*
X109537623Y-139373028D01*
X109632861Y-139468266D01*
X109680480Y-139563504D01*
%TO.C,R41*%
X120819942Y-101797980D02*
X120486609Y-101321790D01*
X120248514Y-101797980D02*
X120248514Y-100797980D01*
X120629466Y-100797980D01*
X120724704Y-100845600D01*
X120772323Y-100893219D01*
X120819942Y-100988457D01*
X120819942Y-101131314D01*
X120772323Y-101226552D01*
X120724704Y-101274171D01*
X120629466Y-101321790D01*
X120248514Y-101321790D01*
X121677085Y-101131314D02*
X121677085Y-101797980D01*
X121438990Y-100750361D02*
X121200895Y-101464647D01*
X121819942Y-101464647D01*
X122724704Y-101797980D02*
X122153276Y-101797980D01*
X122438990Y-101797980D02*
X122438990Y-100797980D01*
X122343752Y-100940838D01*
X122248514Y-101036076D01*
X122153276Y-101083695D01*
%TO.C,R11*%
X72457828Y-111145995D02*
X72124495Y-110669805D01*
X71886400Y-111145995D02*
X71886400Y-110145995D01*
X72267352Y-110145995D01*
X72362590Y-110193615D01*
X72410209Y-110241234D01*
X72457828Y-110336472D01*
X72457828Y-110479329D01*
X72410209Y-110574567D01*
X72362590Y-110622186D01*
X72267352Y-110669805D01*
X71886400Y-110669805D01*
X73410209Y-111145995D02*
X72838781Y-111145995D01*
X73124495Y-111145995D02*
X73124495Y-110145995D01*
X73029257Y-110288853D01*
X72934019Y-110384091D01*
X72838781Y-110431710D01*
X74362590Y-111145995D02*
X73791162Y-111145995D01*
X74076876Y-111145995D02*
X74076876Y-110145995D01*
X73981638Y-110288853D01*
X73886400Y-110384091D01*
X73791162Y-110431710D01*
%TO.C,R49*%
X120819942Y-127197980D02*
X120486609Y-126721790D01*
X120248514Y-127197980D02*
X120248514Y-126197980D01*
X120629466Y-126197980D01*
X120724704Y-126245600D01*
X120772323Y-126293219D01*
X120819942Y-126388457D01*
X120819942Y-126531314D01*
X120772323Y-126626552D01*
X120724704Y-126674171D01*
X120629466Y-126721790D01*
X120248514Y-126721790D01*
X121677085Y-126531314D02*
X121677085Y-127197980D01*
X121438990Y-126150361D02*
X121200895Y-126864647D01*
X121819942Y-126864647D01*
X122248514Y-127197980D02*
X122438990Y-127197980D01*
X122534228Y-127150361D01*
X122581847Y-127102742D01*
X122677085Y-126959885D01*
X122724704Y-126769409D01*
X122724704Y-126388457D01*
X122677085Y-126293219D01*
X122629466Y-126245600D01*
X122534228Y-126197980D01*
X122343752Y-126197980D01*
X122248514Y-126245600D01*
X122200895Y-126293219D01*
X122153276Y-126388457D01*
X122153276Y-126626552D01*
X122200895Y-126721790D01*
X122248514Y-126769409D01*
X122343752Y-126817028D01*
X122534228Y-126817028D01*
X122629466Y-126769409D01*
X122677085Y-126721790D01*
X122724704Y-126626552D01*
%TO.C,R50*%
X120819942Y-130245980D02*
X120486609Y-129769790D01*
X120248514Y-130245980D02*
X120248514Y-129245980D01*
X120629466Y-129245980D01*
X120724704Y-129293600D01*
X120772323Y-129341219D01*
X120819942Y-129436457D01*
X120819942Y-129579314D01*
X120772323Y-129674552D01*
X120724704Y-129722171D01*
X120629466Y-129769790D01*
X120248514Y-129769790D01*
X121724704Y-129245980D02*
X121248514Y-129245980D01*
X121200895Y-129722171D01*
X121248514Y-129674552D01*
X121343752Y-129626933D01*
X121581847Y-129626933D01*
X121677085Y-129674552D01*
X121724704Y-129722171D01*
X121772323Y-129817409D01*
X121772323Y-130055504D01*
X121724704Y-130150742D01*
X121677085Y-130198361D01*
X121581847Y-130245980D01*
X121343752Y-130245980D01*
X121248514Y-130198361D01*
X121200895Y-130150742D01*
X122391371Y-129245980D02*
X122486609Y-129245980D01*
X122581847Y-129293600D01*
X122629466Y-129341219D01*
X122677085Y-129436457D01*
X122724704Y-129626933D01*
X122724704Y-129865028D01*
X122677085Y-130055504D01*
X122629466Y-130150742D01*
X122581847Y-130198361D01*
X122486609Y-130245980D01*
X122391371Y-130245980D01*
X122296133Y-130198361D01*
X122248514Y-130150742D01*
X122200895Y-130055504D01*
X122153276Y-129865028D01*
X122153276Y-129626933D01*
X122200895Y-129436457D01*
X122248514Y-129341219D01*
X122296133Y-129293600D01*
X122391371Y-129245980D01*
%TO.C,J5*%
X67417595Y-107876935D02*
X68131881Y-107876935D01*
X68274738Y-107924554D01*
X68369976Y-108019792D01*
X68417595Y-108162649D01*
X68417595Y-108257887D01*
X67417595Y-106924554D02*
X67417595Y-107400744D01*
X67893786Y-107448363D01*
X67846167Y-107400744D01*
X67798548Y-107305506D01*
X67798548Y-107067411D01*
X67846167Y-106972173D01*
X67893786Y-106924554D01*
X67989024Y-106876935D01*
X68227119Y-106876935D01*
X68322357Y-106924554D01*
X68369976Y-106972173D01*
X68417595Y-107067411D01*
X68417595Y-107305506D01*
X68369976Y-107400744D01*
X68322357Y-107448363D01*
%TO.C,R29*%
X103271180Y-68308457D02*
X102794990Y-68641790D01*
X103271180Y-68879885D02*
X102271180Y-68879885D01*
X102271180Y-68498933D01*
X102318800Y-68403695D01*
X102366419Y-68356076D01*
X102461657Y-68308457D01*
X102604514Y-68308457D01*
X102699752Y-68356076D01*
X102747371Y-68403695D01*
X102794990Y-68498933D01*
X102794990Y-68879885D01*
X102366419Y-67927504D02*
X102318800Y-67879885D01*
X102271180Y-67784647D01*
X102271180Y-67546552D01*
X102318800Y-67451314D01*
X102366419Y-67403695D01*
X102461657Y-67356076D01*
X102556895Y-67356076D01*
X102699752Y-67403695D01*
X103271180Y-67975123D01*
X103271180Y-67356076D01*
X103271180Y-66879885D02*
X103271180Y-66689409D01*
X103223561Y-66594171D01*
X103175942Y-66546552D01*
X103033085Y-66451314D01*
X102842609Y-66403695D01*
X102461657Y-66403695D01*
X102366419Y-66451314D01*
X102318800Y-66498933D01*
X102271180Y-66594171D01*
X102271180Y-66784647D01*
X102318800Y-66879885D01*
X102366419Y-66927504D01*
X102461657Y-66975123D01*
X102699752Y-66975123D01*
X102794990Y-66927504D01*
X102842609Y-66879885D01*
X102890228Y-66784647D01*
X102890228Y-66594171D01*
X102842609Y-66498933D01*
X102794990Y-66451314D01*
X102699752Y-66403695D01*
%TO.C,R7*%
X72934019Y-123845995D02*
X72600686Y-123369805D01*
X72362590Y-123845995D02*
X72362590Y-122845995D01*
X72743543Y-122845995D01*
X72838781Y-122893615D01*
X72886400Y-122941234D01*
X72934019Y-123036472D01*
X72934019Y-123179329D01*
X72886400Y-123274567D01*
X72838781Y-123322186D01*
X72743543Y-123369805D01*
X72362590Y-123369805D01*
X73267352Y-122845995D02*
X73934019Y-122845995D01*
X73505447Y-123845995D01*
%TO.C,R46*%
X120819942Y-117545980D02*
X120486609Y-117069790D01*
X120248514Y-117545980D02*
X120248514Y-116545980D01*
X120629466Y-116545980D01*
X120724704Y-116593600D01*
X120772323Y-116641219D01*
X120819942Y-116736457D01*
X120819942Y-116879314D01*
X120772323Y-116974552D01*
X120724704Y-117022171D01*
X120629466Y-117069790D01*
X120248514Y-117069790D01*
X121677085Y-116879314D02*
X121677085Y-117545980D01*
X121438990Y-116498361D02*
X121200895Y-117212647D01*
X121819942Y-117212647D01*
X122629466Y-116545980D02*
X122438990Y-116545980D01*
X122343752Y-116593600D01*
X122296133Y-116641219D01*
X122200895Y-116784076D01*
X122153276Y-116974552D01*
X122153276Y-117355504D01*
X122200895Y-117450742D01*
X122248514Y-117498361D01*
X122343752Y-117545980D01*
X122534228Y-117545980D01*
X122629466Y-117498361D01*
X122677085Y-117450742D01*
X122724704Y-117355504D01*
X122724704Y-117117409D01*
X122677085Y-117022171D01*
X122629466Y-116974552D01*
X122534228Y-116926933D01*
X122343752Y-116926933D01*
X122248514Y-116974552D01*
X122200895Y-117022171D01*
X122153276Y-117117409D01*
%TO.C,J11*%
X127481180Y-94891123D02*
X128195466Y-94891123D01*
X128338323Y-94938742D01*
X128433561Y-95033980D01*
X128481180Y-95176838D01*
X128481180Y-95272076D01*
X128481180Y-93891123D02*
X128481180Y-94462552D01*
X128481180Y-94176838D02*
X127481180Y-94176838D01*
X127624038Y-94272076D01*
X127719276Y-94367314D01*
X127766895Y-94462552D01*
X128481180Y-92938742D02*
X128481180Y-93510171D01*
X128481180Y-93224457D02*
X127481180Y-93224457D01*
X127624038Y-93319695D01*
X127719276Y-93414933D01*
X127766895Y-93510171D01*
%TO.C,J4*%
X66401595Y-135816935D02*
X67115881Y-135816935D01*
X67258738Y-135864554D01*
X67353976Y-135959792D01*
X67401595Y-136102649D01*
X67401595Y-136197887D01*
X66734929Y-134912173D02*
X67401595Y-134912173D01*
X66353976Y-135150268D02*
X67068262Y-135388363D01*
X67068262Y-134769316D01*
%TO.C,R43*%
X120819942Y-107893980D02*
X120486609Y-107417790D01*
X120248514Y-107893980D02*
X120248514Y-106893980D01*
X120629466Y-106893980D01*
X120724704Y-106941600D01*
X120772323Y-106989219D01*
X120819942Y-107084457D01*
X120819942Y-107227314D01*
X120772323Y-107322552D01*
X120724704Y-107370171D01*
X120629466Y-107417790D01*
X120248514Y-107417790D01*
X121677085Y-107227314D02*
X121677085Y-107893980D01*
X121438990Y-106846361D02*
X121200895Y-107560647D01*
X121819942Y-107560647D01*
X122105657Y-106893980D02*
X122724704Y-106893980D01*
X122391371Y-107274933D01*
X122534228Y-107274933D01*
X122629466Y-107322552D01*
X122677085Y-107370171D01*
X122724704Y-107465409D01*
X122724704Y-107703504D01*
X122677085Y-107798742D01*
X122629466Y-107846361D01*
X122534228Y-107893980D01*
X122248514Y-107893980D01*
X122153276Y-107846361D01*
X122105657Y-107798742D01*
%TO.C,R51*%
X120819942Y-133293980D02*
X120486609Y-132817790D01*
X120248514Y-133293980D02*
X120248514Y-132293980D01*
X120629466Y-132293980D01*
X120724704Y-132341600D01*
X120772323Y-132389219D01*
X120819942Y-132484457D01*
X120819942Y-132627314D01*
X120772323Y-132722552D01*
X120724704Y-132770171D01*
X120629466Y-132817790D01*
X120248514Y-132817790D01*
X121724704Y-132293980D02*
X121248514Y-132293980D01*
X121200895Y-132770171D01*
X121248514Y-132722552D01*
X121343752Y-132674933D01*
X121581847Y-132674933D01*
X121677085Y-132722552D01*
X121724704Y-132770171D01*
X121772323Y-132865409D01*
X121772323Y-133103504D01*
X121724704Y-133198742D01*
X121677085Y-133246361D01*
X121581847Y-133293980D01*
X121343752Y-133293980D01*
X121248514Y-133246361D01*
X121200895Y-133198742D01*
X122724704Y-133293980D02*
X122153276Y-133293980D01*
X122438990Y-133293980D02*
X122438990Y-132293980D01*
X122343752Y-132436838D01*
X122248514Y-132532076D01*
X122153276Y-132579695D01*
%TO.C,J14*%
X127481180Y-148231123D02*
X128195466Y-148231123D01*
X128338323Y-148278742D01*
X128433561Y-148373980D01*
X128481180Y-148516838D01*
X128481180Y-148612076D01*
X128481180Y-147231123D02*
X128481180Y-147802552D01*
X128481180Y-147516838D02*
X127481180Y-147516838D01*
X127624038Y-147612076D01*
X127719276Y-147707314D01*
X127766895Y-147802552D01*
X127814514Y-146373980D02*
X128481180Y-146373980D01*
X127433561Y-146612076D02*
X128147847Y-146850171D01*
X128147847Y-146231123D01*
%TO.C,R52*%
X120819942Y-136341980D02*
X120486609Y-135865790D01*
X120248514Y-136341980D02*
X120248514Y-135341980D01*
X120629466Y-135341980D01*
X120724704Y-135389600D01*
X120772323Y-135437219D01*
X120819942Y-135532457D01*
X120819942Y-135675314D01*
X120772323Y-135770552D01*
X120724704Y-135818171D01*
X120629466Y-135865790D01*
X120248514Y-135865790D01*
X121724704Y-135341980D02*
X121248514Y-135341980D01*
X121200895Y-135818171D01*
X121248514Y-135770552D01*
X121343752Y-135722933D01*
X121581847Y-135722933D01*
X121677085Y-135770552D01*
X121724704Y-135818171D01*
X121772323Y-135913409D01*
X121772323Y-136151504D01*
X121724704Y-136246742D01*
X121677085Y-136294361D01*
X121581847Y-136341980D01*
X121343752Y-136341980D01*
X121248514Y-136294361D01*
X121200895Y-136246742D01*
X122153276Y-135437219D02*
X122200895Y-135389600D01*
X122296133Y-135341980D01*
X122534228Y-135341980D01*
X122629466Y-135389600D01*
X122677085Y-135437219D01*
X122724704Y-135532457D01*
X122724704Y-135627695D01*
X122677085Y-135770552D01*
X122105657Y-136341980D01*
X122724704Y-136341980D01*
%TO.C,Q2*%
X78695561Y-147163155D02*
X78600323Y-147115536D01*
X78505085Y-147020297D01*
X78362228Y-146877440D01*
X78266990Y-146829821D01*
X78171752Y-146829821D01*
X78219371Y-147067916D02*
X78124133Y-147020297D01*
X78028895Y-146925059D01*
X77981276Y-146734583D01*
X77981276Y-146401250D01*
X78028895Y-146210774D01*
X78124133Y-146115536D01*
X78219371Y-146067916D01*
X78409847Y-146067916D01*
X78505085Y-146115536D01*
X78600323Y-146210774D01*
X78647942Y-146401250D01*
X78647942Y-146734583D01*
X78600323Y-146925059D01*
X78505085Y-147020297D01*
X78409847Y-147067916D01*
X78219371Y-147067916D01*
X79028895Y-146163155D02*
X79076514Y-146115536D01*
X79171752Y-146067916D01*
X79409847Y-146067916D01*
X79505085Y-146115536D01*
X79552704Y-146163155D01*
X79600323Y-146258393D01*
X79600323Y-146353631D01*
X79552704Y-146496488D01*
X78981276Y-147067916D01*
X79600323Y-147067916D01*
%TO.C,J8*%
X86077466Y-59027980D02*
X86077466Y-59742266D01*
X86029847Y-59885123D01*
X85934609Y-59980361D01*
X85791752Y-60027980D01*
X85696514Y-60027980D01*
X86696514Y-59456552D02*
X86601276Y-59408933D01*
X86553657Y-59361314D01*
X86506038Y-59266076D01*
X86506038Y-59218457D01*
X86553657Y-59123219D01*
X86601276Y-59075600D01*
X86696514Y-59027980D01*
X86886990Y-59027980D01*
X86982228Y-59075600D01*
X87029847Y-59123219D01*
X87077466Y-59218457D01*
X87077466Y-59266076D01*
X87029847Y-59361314D01*
X86982228Y-59408933D01*
X86886990Y-59456552D01*
X86696514Y-59456552D01*
X86601276Y-59504171D01*
X86553657Y-59551790D01*
X86506038Y-59647028D01*
X86506038Y-59837504D01*
X86553657Y-59932742D01*
X86601276Y-59980361D01*
X86696514Y-60027980D01*
X86886990Y-60027980D01*
X86982228Y-59980361D01*
X87029847Y-59932742D01*
X87077466Y-59837504D01*
X87077466Y-59647028D01*
X87029847Y-59551790D01*
X86982228Y-59504171D01*
X86886990Y-59456552D01*
%TO.C,U7*%
X101447595Y-122783504D02*
X102257119Y-122783504D01*
X102352357Y-122735885D01*
X102399976Y-122688266D01*
X102447595Y-122593028D01*
X102447595Y-122402552D01*
X102399976Y-122307314D01*
X102352357Y-122259695D01*
X102257119Y-122212076D01*
X101447595Y-122212076D01*
X101447595Y-121831123D02*
X101447595Y-121164457D01*
X102447595Y-121593028D01*
%TO.C,R30*%
X106319180Y-68308457D02*
X105842990Y-68641790D01*
X106319180Y-68879885D02*
X105319180Y-68879885D01*
X105319180Y-68498933D01*
X105366800Y-68403695D01*
X105414419Y-68356076D01*
X105509657Y-68308457D01*
X105652514Y-68308457D01*
X105747752Y-68356076D01*
X105795371Y-68403695D01*
X105842990Y-68498933D01*
X105842990Y-68879885D01*
X105319180Y-67975123D02*
X105319180Y-67356076D01*
X105700133Y-67689409D01*
X105700133Y-67546552D01*
X105747752Y-67451314D01*
X105795371Y-67403695D01*
X105890609Y-67356076D01*
X106128704Y-67356076D01*
X106223942Y-67403695D01*
X106271561Y-67451314D01*
X106319180Y-67546552D01*
X106319180Y-67832266D01*
X106271561Y-67927504D01*
X106223942Y-67975123D01*
X105319180Y-66737028D02*
X105319180Y-66641790D01*
X105366800Y-66546552D01*
X105414419Y-66498933D01*
X105509657Y-66451314D01*
X105700133Y-66403695D01*
X105938228Y-66403695D01*
X106128704Y-66451314D01*
X106223942Y-66498933D01*
X106271561Y-66546552D01*
X106319180Y-66641790D01*
X106319180Y-66737028D01*
X106271561Y-66832266D01*
X106223942Y-66879885D01*
X106128704Y-66927504D01*
X105938228Y-66975123D01*
X105700133Y-66975123D01*
X105509657Y-66927504D01*
X105414419Y-66879885D01*
X105366800Y-66832266D01*
X105319180Y-66737028D01*
%TO.C,R27*%
X92603180Y-68308457D02*
X92126990Y-68641790D01*
X92603180Y-68879885D02*
X91603180Y-68879885D01*
X91603180Y-68498933D01*
X91650800Y-68403695D01*
X91698419Y-68356076D01*
X91793657Y-68308457D01*
X91936514Y-68308457D01*
X92031752Y-68356076D01*
X92079371Y-68403695D01*
X92126990Y-68498933D01*
X92126990Y-68879885D01*
X91698419Y-67927504D02*
X91650800Y-67879885D01*
X91603180Y-67784647D01*
X91603180Y-67546552D01*
X91650800Y-67451314D01*
X91698419Y-67403695D01*
X91793657Y-67356076D01*
X91888895Y-67356076D01*
X92031752Y-67403695D01*
X92603180Y-67975123D01*
X92603180Y-67356076D01*
X91603180Y-67022742D02*
X91603180Y-66356076D01*
X92603180Y-66784647D01*
%TO.C,R18*%
X72364357Y-89428976D02*
X72031024Y-88952786D01*
X71792929Y-89428976D02*
X71792929Y-88428976D01*
X72173881Y-88428976D01*
X72269119Y-88476596D01*
X72316738Y-88524215D01*
X72364357Y-88619453D01*
X72364357Y-88762310D01*
X72316738Y-88857548D01*
X72269119Y-88905167D01*
X72173881Y-88952786D01*
X71792929Y-88952786D01*
X73316738Y-89428976D02*
X72745310Y-89428976D01*
X73031024Y-89428976D02*
X73031024Y-88428976D01*
X72935786Y-88571834D01*
X72840548Y-88667072D01*
X72745310Y-88714691D01*
X73888167Y-88857548D02*
X73792929Y-88809929D01*
X73745310Y-88762310D01*
X73697691Y-88667072D01*
X73697691Y-88619453D01*
X73745310Y-88524215D01*
X73792929Y-88476596D01*
X73888167Y-88428976D01*
X74078643Y-88428976D01*
X74173881Y-88476596D01*
X74221500Y-88524215D01*
X74269119Y-88619453D01*
X74269119Y-88667072D01*
X74221500Y-88762310D01*
X74173881Y-88809929D01*
X74078643Y-88857548D01*
X73888167Y-88857548D01*
X73792929Y-88905167D01*
X73745310Y-88952786D01*
X73697691Y-89048024D01*
X73697691Y-89238500D01*
X73745310Y-89333738D01*
X73792929Y-89381357D01*
X73888167Y-89428976D01*
X74078643Y-89428976D01*
X74173881Y-89381357D01*
X74221500Y-89333738D01*
X74269119Y-89238500D01*
X74269119Y-89048024D01*
X74221500Y-88952786D01*
X74173881Y-88905167D01*
X74078643Y-88857548D01*
%TO.C,R33*%
X115463180Y-68308457D02*
X114986990Y-68641790D01*
X115463180Y-68879885D02*
X114463180Y-68879885D01*
X114463180Y-68498933D01*
X114510800Y-68403695D01*
X114558419Y-68356076D01*
X114653657Y-68308457D01*
X114796514Y-68308457D01*
X114891752Y-68356076D01*
X114939371Y-68403695D01*
X114986990Y-68498933D01*
X114986990Y-68879885D01*
X114463180Y-67975123D02*
X114463180Y-67356076D01*
X114844133Y-67689409D01*
X114844133Y-67546552D01*
X114891752Y-67451314D01*
X114939371Y-67403695D01*
X115034609Y-67356076D01*
X115272704Y-67356076D01*
X115367942Y-67403695D01*
X115415561Y-67451314D01*
X115463180Y-67546552D01*
X115463180Y-67832266D01*
X115415561Y-67927504D01*
X115367942Y-67975123D01*
X114463180Y-67022742D02*
X114463180Y-66403695D01*
X114844133Y-66737028D01*
X114844133Y-66594171D01*
X114891752Y-66498933D01*
X114939371Y-66451314D01*
X115034609Y-66403695D01*
X115272704Y-66403695D01*
X115367942Y-66451314D01*
X115415561Y-66498933D01*
X115463180Y-66594171D01*
X115463180Y-66879885D01*
X115415561Y-66975123D01*
X115367942Y-67022742D01*
%TO.C,R21*%
X74315180Y-68308457D02*
X73838990Y-68641790D01*
X74315180Y-68879885D02*
X73315180Y-68879885D01*
X73315180Y-68498933D01*
X73362800Y-68403695D01*
X73410419Y-68356076D01*
X73505657Y-68308457D01*
X73648514Y-68308457D01*
X73743752Y-68356076D01*
X73791371Y-68403695D01*
X73838990Y-68498933D01*
X73838990Y-68879885D01*
X73410419Y-67927504D02*
X73362800Y-67879885D01*
X73315180Y-67784647D01*
X73315180Y-67546552D01*
X73362800Y-67451314D01*
X73410419Y-67403695D01*
X73505657Y-67356076D01*
X73600895Y-67356076D01*
X73743752Y-67403695D01*
X74315180Y-67975123D01*
X74315180Y-67356076D01*
X74315180Y-66403695D02*
X74315180Y-66975123D01*
X74315180Y-66689409D02*
X73315180Y-66689409D01*
X73458038Y-66784647D01*
X73553276Y-66879885D01*
X73600895Y-66975123D01*
%TO.C,R1*%
X91832133Y-136341980D02*
X91498800Y-135865790D01*
X91260704Y-136341980D02*
X91260704Y-135341980D01*
X91641657Y-135341980D01*
X91736895Y-135389600D01*
X91784514Y-135437219D01*
X91832133Y-135532457D01*
X91832133Y-135675314D01*
X91784514Y-135770552D01*
X91736895Y-135818171D01*
X91641657Y-135865790D01*
X91260704Y-135865790D01*
X92784514Y-136341980D02*
X92213085Y-136341980D01*
X92498800Y-136341980D02*
X92498800Y-135341980D01*
X92403561Y-135484838D01*
X92308323Y-135580076D01*
X92213085Y-135627695D01*
%TO.C,J9*%
X108225466Y-59027980D02*
X108225466Y-59742266D01*
X108177847Y-59885123D01*
X108082609Y-59980361D01*
X107939752Y-60027980D01*
X107844514Y-60027980D01*
X108749276Y-60027980D02*
X108939752Y-60027980D01*
X109034990Y-59980361D01*
X109082609Y-59932742D01*
X109177847Y-59789885D01*
X109225466Y-59599409D01*
X109225466Y-59218457D01*
X109177847Y-59123219D01*
X109130228Y-59075600D01*
X109034990Y-59027980D01*
X108844514Y-59027980D01*
X108749276Y-59075600D01*
X108701657Y-59123219D01*
X108654038Y-59218457D01*
X108654038Y-59456552D01*
X108701657Y-59551790D01*
X108749276Y-59599409D01*
X108844514Y-59647028D01*
X109034990Y-59647028D01*
X109130228Y-59599409D01*
X109177847Y-59551790D01*
X109225466Y-59456552D01*
%TO.C,R45*%
X120819942Y-114497980D02*
X120486609Y-114021790D01*
X120248514Y-114497980D02*
X120248514Y-113497980D01*
X120629466Y-113497980D01*
X120724704Y-113545600D01*
X120772323Y-113593219D01*
X120819942Y-113688457D01*
X120819942Y-113831314D01*
X120772323Y-113926552D01*
X120724704Y-113974171D01*
X120629466Y-114021790D01*
X120248514Y-114021790D01*
X121677085Y-113831314D02*
X121677085Y-114497980D01*
X121438990Y-113450361D02*
X121200895Y-114164647D01*
X121819942Y-114164647D01*
X122677085Y-113497980D02*
X122200895Y-113497980D01*
X122153276Y-113974171D01*
X122200895Y-113926552D01*
X122296133Y-113878933D01*
X122534228Y-113878933D01*
X122629466Y-113926552D01*
X122677085Y-113974171D01*
X122724704Y-114069409D01*
X122724704Y-114307504D01*
X122677085Y-114402742D01*
X122629466Y-114450361D01*
X122534228Y-114497980D01*
X122296133Y-114497980D01*
X122200895Y-114450361D01*
X122153276Y-114402742D01*
%TO.C,R12*%
X72457828Y-134513995D02*
X72124495Y-134037805D01*
X71886400Y-134513995D02*
X71886400Y-133513995D01*
X72267352Y-133513995D01*
X72362590Y-133561615D01*
X72410209Y-133609234D01*
X72457828Y-133704472D01*
X72457828Y-133847329D01*
X72410209Y-133942567D01*
X72362590Y-133990186D01*
X72267352Y-134037805D01*
X71886400Y-134037805D01*
X73410209Y-134513995D02*
X72838781Y-134513995D01*
X73124495Y-134513995D02*
X73124495Y-133513995D01*
X73029257Y-133656853D01*
X72934019Y-133752091D01*
X72838781Y-133799710D01*
X73791162Y-133609234D02*
X73838781Y-133561615D01*
X73934019Y-133513995D01*
X74172114Y-133513995D01*
X74267352Y-133561615D01*
X74314971Y-133609234D01*
X74362590Y-133704472D01*
X74362590Y-133799710D01*
X74314971Y-133942567D01*
X73743543Y-134513995D01*
X74362590Y-134513995D01*
%TO.C,Q4*%
X69551561Y-147163155D02*
X69456323Y-147115536D01*
X69361085Y-147020297D01*
X69218228Y-146877440D01*
X69122990Y-146829821D01*
X69027752Y-146829821D01*
X69075371Y-147067916D02*
X68980133Y-147020297D01*
X68884895Y-146925059D01*
X68837276Y-146734583D01*
X68837276Y-146401250D01*
X68884895Y-146210774D01*
X68980133Y-146115536D01*
X69075371Y-146067916D01*
X69265847Y-146067916D01*
X69361085Y-146115536D01*
X69456323Y-146210774D01*
X69503942Y-146401250D01*
X69503942Y-146734583D01*
X69456323Y-146925059D01*
X69361085Y-147020297D01*
X69265847Y-147067916D01*
X69075371Y-147067916D01*
X70361085Y-146401250D02*
X70361085Y-147067916D01*
X70122990Y-146020297D02*
X69884895Y-146734583D01*
X70503942Y-146734583D01*
%TO.C,J1*%
X75917466Y-145819980D02*
X75917466Y-146534266D01*
X75869847Y-146677123D01*
X75774609Y-146772361D01*
X75631752Y-146819980D01*
X75536514Y-146819980D01*
X76917466Y-146819980D02*
X76346038Y-146819980D01*
X76631752Y-146819980D02*
X76631752Y-145819980D01*
X76536514Y-145962838D01*
X76441276Y-146058076D01*
X76346038Y-146105695D01*
%TO.C,R2*%
X91832133Y-139389980D02*
X91498800Y-138913790D01*
X91260704Y-139389980D02*
X91260704Y-138389980D01*
X91641657Y-138389980D01*
X91736895Y-138437600D01*
X91784514Y-138485219D01*
X91832133Y-138580457D01*
X91832133Y-138723314D01*
X91784514Y-138818552D01*
X91736895Y-138866171D01*
X91641657Y-138913790D01*
X91260704Y-138913790D01*
X92213085Y-138485219D02*
X92260704Y-138437600D01*
X92355942Y-138389980D01*
X92594038Y-138389980D01*
X92689276Y-138437600D01*
X92736895Y-138485219D01*
X92784514Y-138580457D01*
X92784514Y-138675695D01*
X92736895Y-138818552D01*
X92165466Y-139389980D01*
X92784514Y-139389980D01*
%TO.C,R37*%
X120819942Y-89097980D02*
X120486609Y-88621790D01*
X120248514Y-89097980D02*
X120248514Y-88097980D01*
X120629466Y-88097980D01*
X120724704Y-88145600D01*
X120772323Y-88193219D01*
X120819942Y-88288457D01*
X120819942Y-88431314D01*
X120772323Y-88526552D01*
X120724704Y-88574171D01*
X120629466Y-88621790D01*
X120248514Y-88621790D01*
X121153276Y-88097980D02*
X121772323Y-88097980D01*
X121438990Y-88478933D01*
X121581847Y-88478933D01*
X121677085Y-88526552D01*
X121724704Y-88574171D01*
X121772323Y-88669409D01*
X121772323Y-88907504D01*
X121724704Y-89002742D01*
X121677085Y-89050361D01*
X121581847Y-89097980D01*
X121296133Y-89097980D01*
X121200895Y-89050361D01*
X121153276Y-89002742D01*
X122105657Y-88097980D02*
X122772323Y-88097980D01*
X122343752Y-89097980D01*
%TO.C,R5*%
X72934019Y-129941995D02*
X72600686Y-129465805D01*
X72362590Y-129941995D02*
X72362590Y-128941995D01*
X72743543Y-128941995D01*
X72838781Y-128989615D01*
X72886400Y-129037234D01*
X72934019Y-129132472D01*
X72934019Y-129275329D01*
X72886400Y-129370567D01*
X72838781Y-129418186D01*
X72743543Y-129465805D01*
X72362590Y-129465805D01*
X73838781Y-128941995D02*
X73362590Y-128941995D01*
X73314971Y-129418186D01*
X73362590Y-129370567D01*
X73457828Y-129322948D01*
X73695924Y-129322948D01*
X73791162Y-129370567D01*
X73838781Y-129418186D01*
X73886400Y-129513424D01*
X73886400Y-129751519D01*
X73838781Y-129846757D01*
X73791162Y-129894376D01*
X73695924Y-129941995D01*
X73457828Y-129941995D01*
X73362590Y-129894376D01*
X73314971Y-129846757D01*
%TO.C,J10*%
X135868272Y-62608984D02*
X135868272Y-63323270D01*
X135820653Y-63466127D01*
X135725415Y-63561365D01*
X135582557Y-63608984D01*
X135487319Y-63608984D01*
X136868272Y-63608984D02*
X136296843Y-63608984D01*
X136582557Y-63608984D02*
X136582557Y-62608984D01*
X136487319Y-62751842D01*
X136392081Y-62847080D01*
X136296843Y-62894699D01*
X137487319Y-62608984D02*
X137582557Y-62608984D01*
X137677796Y-62656604D01*
X137725415Y-62704223D01*
X137773034Y-62799461D01*
X137820653Y-62989937D01*
X137820653Y-63228032D01*
X137773034Y-63418508D01*
X137725415Y-63513746D01*
X137677796Y-63561365D01*
X137582557Y-63608984D01*
X137487319Y-63608984D01*
X137392081Y-63561365D01*
X137344462Y-63513746D01*
X137296843Y-63418508D01*
X137249224Y-63228032D01*
X137249224Y-62989937D01*
X137296843Y-62799461D01*
X137344462Y-62704223D01*
X137392081Y-62656604D01*
X137487319Y-62608984D01*
%TO.C,R39*%
X120819942Y-95193980D02*
X120486609Y-94717790D01*
X120248514Y-95193980D02*
X120248514Y-94193980D01*
X120629466Y-94193980D01*
X120724704Y-94241600D01*
X120772323Y-94289219D01*
X120819942Y-94384457D01*
X120819942Y-94527314D01*
X120772323Y-94622552D01*
X120724704Y-94670171D01*
X120629466Y-94717790D01*
X120248514Y-94717790D01*
X121153276Y-94193980D02*
X121772323Y-94193980D01*
X121438990Y-94574933D01*
X121581847Y-94574933D01*
X121677085Y-94622552D01*
X121724704Y-94670171D01*
X121772323Y-94765409D01*
X121772323Y-95003504D01*
X121724704Y-95098742D01*
X121677085Y-95146361D01*
X121581847Y-95193980D01*
X121296133Y-95193980D01*
X121200895Y-95146361D01*
X121153276Y-95098742D01*
X122248514Y-95193980D02*
X122438990Y-95193980D01*
X122534228Y-95146361D01*
X122581847Y-95098742D01*
X122677085Y-94955885D01*
X122724704Y-94765409D01*
X122724704Y-94384457D01*
X122677085Y-94289219D01*
X122629466Y-94241600D01*
X122534228Y-94193980D01*
X122343752Y-94193980D01*
X122248514Y-94241600D01*
X122200895Y-94289219D01*
X122153276Y-94384457D01*
X122153276Y-94622552D01*
X122200895Y-94717790D01*
X122248514Y-94765409D01*
X122343752Y-94813028D01*
X122534228Y-94813028D01*
X122629466Y-94765409D01*
X122677085Y-94717790D01*
X122724704Y-94622552D01*
%TO.C,R3*%
X91451133Y-143358980D02*
X91117800Y-142882790D01*
X90879704Y-143358980D02*
X90879704Y-142358980D01*
X91260657Y-142358980D01*
X91355895Y-142406600D01*
X91403514Y-142454219D01*
X91451133Y-142549457D01*
X91451133Y-142692314D01*
X91403514Y-142787552D01*
X91355895Y-142835171D01*
X91260657Y-142882790D01*
X90879704Y-142882790D01*
X91784466Y-142358980D02*
X92403514Y-142358980D01*
X92070180Y-142739933D01*
X92213038Y-142739933D01*
X92308276Y-142787552D01*
X92355895Y-142835171D01*
X92403514Y-142930409D01*
X92403514Y-143168504D01*
X92355895Y-143263742D01*
X92308276Y-143311361D01*
X92213038Y-143358980D01*
X91927323Y-143358980D01*
X91832085Y-143311361D01*
X91784466Y-143263742D01*
%TO.C,U6*%
X101447595Y-97383504D02*
X102257119Y-97383504D01*
X102352357Y-97335885D01*
X102399976Y-97288266D01*
X102447595Y-97193028D01*
X102447595Y-97002552D01*
X102399976Y-96907314D01*
X102352357Y-96859695D01*
X102257119Y-96812076D01*
X101447595Y-96812076D01*
X101447595Y-95907314D02*
X101447595Y-96097790D01*
X101495215Y-96193028D01*
X101542834Y-96240647D01*
X101685691Y-96335885D01*
X101876167Y-96383504D01*
X102257119Y-96383504D01*
X102352357Y-96335885D01*
X102399976Y-96288266D01*
X102447595Y-96193028D01*
X102447595Y-96002552D01*
X102399976Y-95907314D01*
X102352357Y-95859695D01*
X102257119Y-95812076D01*
X102019024Y-95812076D01*
X101923786Y-95859695D01*
X101876167Y-95907314D01*
X101828548Y-96002552D01*
X101828548Y-96193028D01*
X101876167Y-96288266D01*
X101923786Y-96335885D01*
X102019024Y-96383504D01*
%TO.C,U3*%
X89895180Y-97510500D02*
X90704704Y-97510500D01*
X90799942Y-97462881D01*
X90847561Y-97415262D01*
X90895180Y-97320024D01*
X90895180Y-97129548D01*
X90847561Y-97034310D01*
X90799942Y-96986691D01*
X90704704Y-96939072D01*
X89895180Y-96939072D01*
X89895180Y-96558119D02*
X89895180Y-95939072D01*
X90276133Y-96272405D01*
X90276133Y-96129548D01*
X90323752Y-96034310D01*
X90371371Y-95986691D01*
X90466609Y-95939072D01*
X90704704Y-95939072D01*
X90799942Y-95986691D01*
X90847561Y-96034310D01*
X90895180Y-96129548D01*
X90895180Y-96415262D01*
X90847561Y-96510500D01*
X90799942Y-96558119D01*
%TO.C,Q3*%
X74123561Y-147163155D02*
X74028323Y-147115536D01*
X73933085Y-147020297D01*
X73790228Y-146877440D01*
X73694990Y-146829821D01*
X73599752Y-146829821D01*
X73647371Y-147067916D02*
X73552133Y-147020297D01*
X73456895Y-146925059D01*
X73409276Y-146734583D01*
X73409276Y-146401250D01*
X73456895Y-146210774D01*
X73552133Y-146115536D01*
X73647371Y-146067916D01*
X73837847Y-146067916D01*
X73933085Y-146115536D01*
X74028323Y-146210774D01*
X74075942Y-146401250D01*
X74075942Y-146734583D01*
X74028323Y-146925059D01*
X73933085Y-147020297D01*
X73837847Y-147067916D01*
X73647371Y-147067916D01*
X74409276Y-146067916D02*
X75028323Y-146067916D01*
X74694990Y-146448869D01*
X74837847Y-146448869D01*
X74933085Y-146496488D01*
X74980704Y-146544107D01*
X75028323Y-146639345D01*
X75028323Y-146877440D01*
X74980704Y-146972678D01*
X74933085Y-147020297D01*
X74837847Y-147067916D01*
X74552133Y-147067916D01*
X74456895Y-147020297D01*
X74409276Y-146972678D01*
%TO.C,R25*%
X86507180Y-68308457D02*
X86030990Y-68641790D01*
X86507180Y-68879885D02*
X85507180Y-68879885D01*
X85507180Y-68498933D01*
X85554800Y-68403695D01*
X85602419Y-68356076D01*
X85697657Y-68308457D01*
X85840514Y-68308457D01*
X85935752Y-68356076D01*
X85983371Y-68403695D01*
X86030990Y-68498933D01*
X86030990Y-68879885D01*
X85602419Y-67927504D02*
X85554800Y-67879885D01*
X85507180Y-67784647D01*
X85507180Y-67546552D01*
X85554800Y-67451314D01*
X85602419Y-67403695D01*
X85697657Y-67356076D01*
X85792895Y-67356076D01*
X85935752Y-67403695D01*
X86507180Y-67975123D01*
X86507180Y-67356076D01*
X85507180Y-66451314D02*
X85507180Y-66927504D01*
X85983371Y-66975123D01*
X85935752Y-66927504D01*
X85888133Y-66832266D01*
X85888133Y-66594171D01*
X85935752Y-66498933D01*
X85983371Y-66451314D01*
X86078609Y-66403695D01*
X86316704Y-66403695D01*
X86411942Y-66451314D01*
X86459561Y-66498933D01*
X86507180Y-66594171D01*
X86507180Y-66832266D01*
X86459561Y-66927504D01*
X86411942Y-66975123D01*
%TO.C,R35*%
X121559180Y-68308457D02*
X121082990Y-68641790D01*
X121559180Y-68879885D02*
X120559180Y-68879885D01*
X120559180Y-68498933D01*
X120606800Y-68403695D01*
X120654419Y-68356076D01*
X120749657Y-68308457D01*
X120892514Y-68308457D01*
X120987752Y-68356076D01*
X121035371Y-68403695D01*
X121082990Y-68498933D01*
X121082990Y-68879885D01*
X120559180Y-67975123D02*
X120559180Y-67356076D01*
X120940133Y-67689409D01*
X120940133Y-67546552D01*
X120987752Y-67451314D01*
X121035371Y-67403695D01*
X121130609Y-67356076D01*
X121368704Y-67356076D01*
X121463942Y-67403695D01*
X121511561Y-67451314D01*
X121559180Y-67546552D01*
X121559180Y-67832266D01*
X121511561Y-67927504D01*
X121463942Y-67975123D01*
X120559180Y-66451314D02*
X120559180Y-66927504D01*
X121035371Y-66975123D01*
X120987752Y-66927504D01*
X120940133Y-66832266D01*
X120940133Y-66594171D01*
X120987752Y-66498933D01*
X121035371Y-66451314D01*
X121130609Y-66403695D01*
X121368704Y-66403695D01*
X121463942Y-66451314D01*
X121511561Y-66498933D01*
X121559180Y-66594171D01*
X121559180Y-66832266D01*
X121511561Y-66927504D01*
X121463942Y-66975123D01*
%TO.C,J2*%
X107413466Y-145769967D02*
X107413466Y-146484253D01*
X107365847Y-146627110D01*
X107270609Y-146722348D01*
X107127752Y-146769967D01*
X107032514Y-146769967D01*
X107842038Y-145865206D02*
X107889657Y-145817587D01*
X107984895Y-145769967D01*
X108222990Y-145769967D01*
X108318228Y-145817587D01*
X108365847Y-145865206D01*
X108413466Y-145960444D01*
X108413466Y-146055682D01*
X108365847Y-146198539D01*
X107794419Y-146769967D01*
X108413466Y-146769967D01*
%TO.C,R44*%
X120819942Y-124657980D02*
X120486609Y-124181790D01*
X120248514Y-124657980D02*
X120248514Y-123657980D01*
X120629466Y-123657980D01*
X120724704Y-123705600D01*
X120772323Y-123753219D01*
X120819942Y-123848457D01*
X120819942Y-123991314D01*
X120772323Y-124086552D01*
X120724704Y-124134171D01*
X120629466Y-124181790D01*
X120248514Y-124181790D01*
X121677085Y-123991314D02*
X121677085Y-124657980D01*
X121438990Y-123610361D02*
X121200895Y-124324647D01*
X121819942Y-124324647D01*
X122629466Y-123991314D02*
X122629466Y-124657980D01*
X122391371Y-123610361D02*
X122153276Y-124324647D01*
X122772323Y-124324647D01*
%TO.C,R8*%
X72934019Y-120797995D02*
X72600686Y-120321805D01*
X72362590Y-120797995D02*
X72362590Y-119797995D01*
X72743543Y-119797995D01*
X72838781Y-119845615D01*
X72886400Y-119893234D01*
X72934019Y-119988472D01*
X72934019Y-120131329D01*
X72886400Y-120226567D01*
X72838781Y-120274186D01*
X72743543Y-120321805D01*
X72362590Y-120321805D01*
X73505447Y-120226567D02*
X73410209Y-120178948D01*
X73362590Y-120131329D01*
X73314971Y-120036091D01*
X73314971Y-119988472D01*
X73362590Y-119893234D01*
X73410209Y-119845615D01*
X73505447Y-119797995D01*
X73695924Y-119797995D01*
X73791162Y-119845615D01*
X73838781Y-119893234D01*
X73886400Y-119988472D01*
X73886400Y-120036091D01*
X73838781Y-120131329D01*
X73791162Y-120178948D01*
X73695924Y-120226567D01*
X73505447Y-120226567D01*
X73410209Y-120274186D01*
X73362590Y-120321805D01*
X73314971Y-120417043D01*
X73314971Y-120607519D01*
X73362590Y-120702757D01*
X73410209Y-120750376D01*
X73505447Y-120797995D01*
X73695924Y-120797995D01*
X73791162Y-120750376D01*
X73838781Y-120702757D01*
X73886400Y-120607519D01*
X73886400Y-120417043D01*
X73838781Y-120321805D01*
X73791162Y-120274186D01*
X73695924Y-120226567D01*
%TO.C,R38*%
X120819942Y-92145980D02*
X120486609Y-91669790D01*
X120248514Y-92145980D02*
X120248514Y-91145980D01*
X120629466Y-91145980D01*
X120724704Y-91193600D01*
X120772323Y-91241219D01*
X120819942Y-91336457D01*
X120819942Y-91479314D01*
X120772323Y-91574552D01*
X120724704Y-91622171D01*
X120629466Y-91669790D01*
X120248514Y-91669790D01*
X121153276Y-91145980D02*
X121772323Y-91145980D01*
X121438990Y-91526933D01*
X121581847Y-91526933D01*
X121677085Y-91574552D01*
X121724704Y-91622171D01*
X121772323Y-91717409D01*
X121772323Y-91955504D01*
X121724704Y-92050742D01*
X121677085Y-92098361D01*
X121581847Y-92145980D01*
X121296133Y-92145980D01*
X121200895Y-92098361D01*
X121153276Y-92050742D01*
X122343752Y-91574552D02*
X122248514Y-91526933D01*
X122200895Y-91479314D01*
X122153276Y-91384076D01*
X122153276Y-91336457D01*
X122200895Y-91241219D01*
X122248514Y-91193600D01*
X122343752Y-91145980D01*
X122534228Y-91145980D01*
X122629466Y-91193600D01*
X122677085Y-91241219D01*
X122724704Y-91336457D01*
X122724704Y-91384076D01*
X122677085Y-91479314D01*
X122629466Y-91526933D01*
X122534228Y-91574552D01*
X122343752Y-91574552D01*
X122248514Y-91622171D01*
X122200895Y-91669790D01*
X122153276Y-91765028D01*
X122153276Y-91955504D01*
X122200895Y-92050742D01*
X122248514Y-92098361D01*
X122343752Y-92145980D01*
X122534228Y-92145980D01*
X122629466Y-92098361D01*
X122677085Y-92050742D01*
X122724704Y-91955504D01*
X122724704Y-91765028D01*
X122677085Y-91669790D01*
X122629466Y-91622171D01*
X122534228Y-91574552D01*
%TO.C,R24*%
X82951180Y-68308457D02*
X82474990Y-68641790D01*
X82951180Y-68879885D02*
X81951180Y-68879885D01*
X81951180Y-68498933D01*
X81998800Y-68403695D01*
X82046419Y-68356076D01*
X82141657Y-68308457D01*
X82284514Y-68308457D01*
X82379752Y-68356076D01*
X82427371Y-68403695D01*
X82474990Y-68498933D01*
X82474990Y-68879885D01*
X82046419Y-67927504D02*
X81998800Y-67879885D01*
X81951180Y-67784647D01*
X81951180Y-67546552D01*
X81998800Y-67451314D01*
X82046419Y-67403695D01*
X82141657Y-67356076D01*
X82236895Y-67356076D01*
X82379752Y-67403695D01*
X82951180Y-67975123D01*
X82951180Y-67356076D01*
X82284514Y-66498933D02*
X82951180Y-66498933D01*
X81903561Y-66737028D02*
X82617847Y-66975123D01*
X82617847Y-66356076D01*
%TO.C,R34*%
X118511180Y-68308457D02*
X118034990Y-68641790D01*
X118511180Y-68879885D02*
X117511180Y-68879885D01*
X117511180Y-68498933D01*
X117558800Y-68403695D01*
X117606419Y-68356076D01*
X117701657Y-68308457D01*
X117844514Y-68308457D01*
X117939752Y-68356076D01*
X117987371Y-68403695D01*
X118034990Y-68498933D01*
X118034990Y-68879885D01*
X117511180Y-67975123D02*
X117511180Y-67356076D01*
X117892133Y-67689409D01*
X117892133Y-67546552D01*
X117939752Y-67451314D01*
X117987371Y-67403695D01*
X118082609Y-67356076D01*
X118320704Y-67356076D01*
X118415942Y-67403695D01*
X118463561Y-67451314D01*
X118511180Y-67546552D01*
X118511180Y-67832266D01*
X118463561Y-67927504D01*
X118415942Y-67975123D01*
X117844514Y-66498933D02*
X118511180Y-66498933D01*
X117463561Y-66737028D02*
X118177847Y-66975123D01*
X118177847Y-66356076D01*
D11*
%TO.C,R31*%
X104514800Y-64515587D02*
X106914800Y-64515587D01*
X106914800Y-64515587D02*
X106914800Y-70815613D01*
X104514800Y-70815613D02*
X104514800Y-64515587D01*
X106914800Y-70815613D02*
X104514800Y-70815613D01*
D12*
X104544874Y-62240403D02*
G75*
G03*
X104544874Y-62240403I-29972J0D01*
G01*
D11*
%TO.C,R47*%
X118312787Y-115741600D02*
X124612813Y-115741600D01*
X124612813Y-115741600D02*
X124612813Y-118141600D01*
X118312787Y-118141600D02*
X118312787Y-115741600D01*
X124612813Y-118141600D02*
X118312787Y-118141600D01*
D12*
X126917969Y-115741702D02*
G75*
G03*
X126917969Y-115741702I-29972J0D01*
G01*
D11*
%TO.C,R6*%
X76250699Y-130841615D02*
X69950673Y-130841615D01*
X69950673Y-130841615D02*
X69950673Y-128441615D01*
X69950673Y-128441615D02*
X76250699Y-128441615D01*
X76250699Y-128441615D02*
X76250699Y-130841615D01*
D12*
X67705461Y-130841513D02*
G75*
G03*
X67705461Y-130841513I-29972J0D01*
G01*
D11*
%TO.C,R14*%
X76157228Y-105568596D02*
X69857202Y-105568596D01*
X76157228Y-103168596D02*
X76157228Y-105568596D01*
X69857202Y-105568596D02*
X69857202Y-103168596D01*
X69857202Y-103168596D02*
X76157228Y-103168596D01*
D12*
X67611990Y-105568494D02*
G75*
G03*
X67611990Y-105568494I-29972J0D01*
G01*
D11*
%TO.C,R19*%
X76157228Y-87928596D02*
X76157228Y-90328596D01*
X69857202Y-90328596D02*
X69857202Y-87928596D01*
X76157228Y-90328596D02*
X69857202Y-90328596D01*
X69857202Y-87928596D02*
X76157228Y-87928596D01*
D12*
X67611990Y-90328494D02*
G75*
G03*
X67611990Y-90328494I-29972J0D01*
G01*
D11*
%TO.C,R20*%
X76157228Y-84880596D02*
X76157228Y-87280596D01*
X69857202Y-87280596D02*
X69857202Y-84880596D01*
X76157228Y-87280596D02*
X69857202Y-87280596D01*
X69857202Y-84880596D02*
X76157228Y-84880596D01*
D12*
X67611990Y-87280494D02*
G75*
G03*
X67611990Y-87280494I-29972J0D01*
G01*
D11*
%TO.C,R4*%
X88848787Y-140633600D02*
X95148813Y-140633600D01*
X95148813Y-140633600D02*
X95148813Y-143033600D01*
X95148813Y-143033600D02*
X88848787Y-143033600D01*
X88848787Y-143033600D02*
X88848787Y-140633600D01*
D12*
X97453969Y-140633702D02*
G75*
G03*
X97453969Y-140633702I-29972J0D01*
G01*
D13*
%TO.C,U2*%
X86814098Y-126920822D02*
X83771274Y-126920822D01*
X83771274Y-116868396D02*
X86814098Y-116868396D01*
X86814098Y-116868396D02*
X86814098Y-126920822D01*
X83771274Y-126920822D02*
X83771274Y-116868396D01*
D12*
X82322658Y-116944647D02*
G75*
G03*
X82322658Y-116944647I-29972J0D01*
G01*
D14*
X82775795Y-116687599D02*
G75*
G03*
X82775795Y-116687599I-150114J0D01*
G01*
X84673686Y-117449600D02*
G75*
G03*
X84673686Y-117449600I-150114J0D01*
G01*
D11*
%TO.C,R23*%
X77958800Y-70815613D02*
X75558800Y-70815613D01*
X77958800Y-64515587D02*
X77958800Y-70815613D01*
X75558800Y-70815613D02*
X75558800Y-64515587D01*
X75558800Y-64515587D02*
X77958800Y-64515587D01*
D12*
X75588874Y-62240403D02*
G75*
G03*
X75588874Y-62240403I-29972J0D01*
G01*
D11*
%TO.C,R40*%
X124612813Y-93389600D02*
X124612813Y-95789600D01*
X118312787Y-93389600D02*
X124612813Y-93389600D01*
X118312787Y-95789600D02*
X118312787Y-93389600D01*
X124612813Y-95789600D02*
X118312787Y-95789600D01*
D12*
X126917969Y-93389702D02*
G75*
G03*
X126917969Y-93389702I-29972J0D01*
G01*
D11*
%TO.C,R32*%
X109962800Y-70815613D02*
X107562800Y-70815613D01*
X107562800Y-70815613D02*
X107562800Y-64515587D01*
X107562800Y-64515587D02*
X109962800Y-64515587D01*
X109962800Y-64515587D02*
X109962800Y-70815613D01*
D12*
X107592874Y-62240403D02*
G75*
G03*
X107592874Y-62240403I-29972J0D01*
G01*
D11*
%TO.C,R22*%
X72510800Y-64515587D02*
X74910800Y-64515587D01*
X74910800Y-64515587D02*
X74910800Y-70815613D01*
X72510800Y-70815613D02*
X72510800Y-64515587D01*
X74910800Y-70815613D02*
X72510800Y-70815613D01*
D12*
X72540874Y-62240403D02*
G75*
G03*
X72540874Y-62240403I-29972J0D01*
G01*
D11*
%TO.C,R13*%
X69857202Y-108616596D02*
X69857202Y-106216596D01*
X69857202Y-106216596D02*
X76157228Y-106216596D01*
X76157228Y-106216596D02*
X76157228Y-108616596D01*
X76157228Y-108616596D02*
X69857202Y-108616596D01*
D12*
X67611990Y-108616494D02*
G75*
G03*
X67611990Y-108616494I-29972J0D01*
G01*
D13*
%TO.C,U5*%
X100688587Y-79885192D02*
X110741013Y-79885192D01*
X110741013Y-79885192D02*
X110741013Y-82928016D01*
X100688587Y-82928016D02*
X100688587Y-79885192D01*
X110741013Y-82928016D02*
X100688587Y-82928016D01*
D12*
X110694734Y-78406604D02*
G75*
G03*
X110694734Y-78406604I-29972J0D01*
G01*
D14*
X111071924Y-78739599D02*
G75*
G03*
X111071924Y-78739599I-150114J0D01*
G01*
X110309923Y-80637490D02*
G75*
G03*
X110309923Y-80637490I-150114J0D01*
G01*
D11*
%TO.C,J7*%
X75428826Y-59259830D02*
X75428826Y-60448908D01*
X75428826Y-52828893D02*
X74828801Y-52828893D01*
X74800835Y-61156604D02*
X54720774Y-61156604D01*
X73580515Y-60503670D02*
X71110817Y-60503670D01*
X75428826Y-51684595D02*
X75428826Y-52828893D01*
X66031112Y-59812611D02*
X66031112Y-61156604D01*
X54720774Y-61156604D02*
X54720774Y-50856604D01*
X66031112Y-59812611D02*
X66031112Y-61156604D01*
X55911427Y-59812611D02*
X55911427Y-61156604D01*
X74800835Y-58796609D02*
X54720774Y-58796609D01*
X68500810Y-61156604D02*
X68500810Y-59812611D01*
X55911427Y-59812611D02*
X55911427Y-61156604D01*
X68500784Y-61156604D02*
X68500784Y-59812611D01*
X74828801Y-51684595D02*
X75428826Y-51684595D01*
X63460805Y-59812611D02*
X60991132Y-59812611D01*
X58381125Y-60503670D02*
X55911427Y-60503670D01*
X58381125Y-59812611D02*
X55911427Y-59812611D01*
X68500810Y-59812611D02*
X66031112Y-59812611D01*
X63460805Y-61156604D02*
X63460805Y-59812611D01*
X74800835Y-50856604D02*
X54720774Y-50856604D01*
X63460805Y-60503670D02*
X60991132Y-60503670D01*
X73580515Y-59812611D02*
X71110817Y-59812611D01*
X74800835Y-61156604D02*
X74800835Y-50856604D01*
X74800835Y-53714491D02*
X54720774Y-53714491D01*
X73580515Y-61156604D02*
X73580515Y-59812611D01*
X74828801Y-59259830D02*
X75428826Y-59259830D01*
X58381125Y-61156604D02*
X58381125Y-59812611D01*
X58381125Y-61156604D02*
X58381125Y-59812611D01*
X74800835Y-52179693D02*
X54720774Y-52179693D01*
X68500784Y-60503670D02*
X66031112Y-60503670D01*
X60991132Y-59812611D02*
X60991132Y-61156604D01*
X75428826Y-60448908D02*
X74828801Y-60448908D01*
X71110817Y-59812611D02*
X71110817Y-61156604D01*
D12*
X75585823Y-50729604D02*
G75*
G03*
X75585823Y-50729604I-29997J0D01*
G01*
D11*
%TO.C,R28*%
X93198800Y-70815613D02*
X90798800Y-70815613D01*
X90798800Y-70815613D02*
X90798800Y-64515587D01*
X93198800Y-64515587D02*
X93198800Y-70815613D01*
X90798800Y-64515587D02*
X93198800Y-64515587D01*
D12*
X90828874Y-62240403D02*
G75*
G03*
X90828874Y-62240403I-29972J0D01*
G01*
D11*
%TO.C,R10*%
X76250699Y-115741615D02*
X76250699Y-118141615D01*
X76250699Y-118141615D02*
X69950673Y-118141615D01*
X69950673Y-115741615D02*
X76250699Y-115741615D01*
X69950673Y-118141615D02*
X69950673Y-115741615D01*
D12*
X67705461Y-118141513D02*
G75*
G03*
X67705461Y-118141513I-29972J0D01*
G01*
D11*
%TO.C,J3*%
X64296281Y-154877277D02*
X64296281Y-157346975D01*
X54649215Y-138457567D02*
X54649215Y-158537628D01*
X64949215Y-158537628D02*
X54649215Y-158537628D01*
X63605222Y-147227290D02*
X64949215Y-147227290D01*
X63605222Y-142147585D02*
X64949215Y-142147585D01*
X64241519Y-137829576D02*
X64241519Y-138429601D01*
X55972304Y-138457567D02*
X55972304Y-158537628D01*
X64296281Y-149797597D02*
X64296281Y-152267270D01*
X64949215Y-138457567D02*
X64949215Y-158537628D01*
X63052441Y-138429601D02*
X63052441Y-137829576D01*
X64949215Y-139677887D02*
X63605222Y-139677887D01*
X64949215Y-144757592D02*
X63605222Y-144757592D01*
X64296281Y-144757618D02*
X64296281Y-147227290D01*
X64949215Y-154877277D02*
X63605222Y-154877277D01*
X63605222Y-149797597D02*
X63605222Y-152267270D01*
X63605222Y-144757592D02*
X63605222Y-147227290D01*
X63605222Y-154877277D02*
X63605222Y-157346975D01*
X63605222Y-147227290D02*
X64949215Y-147227290D01*
X63605222Y-139677887D02*
X63605222Y-142147585D01*
X63605222Y-157346975D02*
X64949215Y-157346975D01*
X64949215Y-154877277D02*
X63605222Y-154877277D01*
X55477206Y-138429601D02*
X55477206Y-137829576D01*
X56621504Y-137829576D02*
X56621504Y-138429601D01*
X63605222Y-152267270D02*
X64949215Y-152267270D01*
X57507102Y-138457567D02*
X57507102Y-158537628D01*
X62589220Y-138457567D02*
X62589220Y-158537628D01*
X64949215Y-138457567D02*
X54649215Y-138457567D01*
X63605222Y-157346975D02*
X64949215Y-157346975D01*
X55477206Y-137829576D02*
X56621504Y-137829576D01*
X64296281Y-139677887D02*
X64296281Y-142147585D01*
X63052441Y-137829576D02*
X64241519Y-137829576D01*
X64949215Y-144757618D02*
X63605222Y-144757618D01*
X64949215Y-149797597D02*
X63605222Y-149797597D01*
D12*
X54552212Y-137702576D02*
G75*
G03*
X54552212Y-137702576I-29997J0D01*
G01*
D11*
%TO.C,R26*%
X87102800Y-70815613D02*
X84702800Y-70815613D01*
X87102800Y-64515587D02*
X87102800Y-70815613D01*
X84702800Y-70815613D02*
X84702800Y-64515587D01*
X84702800Y-64515587D02*
X87102800Y-64515587D01*
D12*
X84732874Y-62240403D02*
G75*
G03*
X84732874Y-62240403I-29972J0D01*
G01*
D11*
%TO.C,R9*%
X69950673Y-118789615D02*
X76250699Y-118789615D01*
X76250699Y-121189615D02*
X69950673Y-121189615D01*
X69950673Y-121189615D02*
X69950673Y-118789615D01*
X76250699Y-118789615D02*
X76250699Y-121189615D01*
D12*
X67705461Y-121189513D02*
G75*
G03*
X67705461Y-121189513I-29972J0D01*
G01*
D11*
%TO.C,J13*%
X131372793Y-134591315D02*
X131372793Y-132121617D01*
X131372793Y-124471605D02*
X131372793Y-122001932D01*
X139005711Y-135811635D02*
X139005711Y-115731574D01*
X130028800Y-135811635D02*
X130028800Y-115731574D01*
X130681734Y-129511584D02*
X130681734Y-127041912D01*
X131372793Y-132121617D02*
X130028800Y-132121617D01*
X130028800Y-119391925D02*
X131372793Y-119391925D01*
X131372793Y-127041912D02*
X130028800Y-127041912D01*
X139500809Y-136439626D02*
X138356511Y-136439626D01*
X130028800Y-115731574D02*
X140328800Y-115731574D01*
X130028800Y-129511610D02*
X131372793Y-129511610D01*
X131372793Y-116922227D02*
X130028800Y-116922227D01*
X132388795Y-135811635D02*
X132388795Y-115731574D01*
X131372793Y-119391925D02*
X131372793Y-116922227D01*
X137470913Y-135811635D02*
X137470913Y-115731574D01*
X131925574Y-135839601D02*
X131925574Y-136439626D01*
X130736496Y-136439626D02*
X130736496Y-135839601D01*
X130681734Y-134591315D02*
X130681734Y-132121617D01*
X130028800Y-134591315D02*
X131372793Y-134591315D01*
X130681734Y-119391925D02*
X130681734Y-116922227D01*
X131372793Y-127041912D02*
X130028800Y-127041912D01*
X130681734Y-124471605D02*
X130681734Y-122001932D01*
X130028800Y-124471605D02*
X131372793Y-124471605D01*
X131925574Y-136439626D02*
X130736496Y-136439626D01*
X139500809Y-135839601D02*
X139500809Y-136439626D01*
X140328800Y-135811635D02*
X140328800Y-115731574D01*
X131372793Y-116922227D02*
X130028800Y-116922227D01*
X130028800Y-135811635D02*
X140328800Y-135811635D01*
X130028800Y-129511584D02*
X131372793Y-129511584D01*
X131372793Y-129511610D02*
X131372793Y-127041912D01*
X131372793Y-122001932D02*
X130028800Y-122001932D01*
X130028800Y-119391925D02*
X131372793Y-119391925D01*
X138356511Y-136439626D02*
X138356511Y-135839601D01*
D12*
X140485797Y-136566626D02*
G75*
G03*
X140485797Y-136566626I-29997J0D01*
G01*
D11*
%TO.C,R15*%
X76157228Y-102520596D02*
X69857202Y-102520596D01*
X69857202Y-102520596D02*
X69857202Y-100120596D01*
X76157228Y-100120596D02*
X76157228Y-102520596D01*
X69857202Y-100120596D02*
X76157228Y-100120596D01*
D12*
X67611990Y-102520494D02*
G75*
G03*
X67611990Y-102520494I-29972J0D01*
G01*
D13*
%TO.C,U4*%
X82908587Y-79860188D02*
X92961013Y-79860188D01*
X82908587Y-82903012D02*
X82908587Y-79860188D01*
X92961013Y-79860188D02*
X92961013Y-82903012D01*
X92961013Y-82903012D02*
X82908587Y-82903012D01*
D12*
X92914734Y-78381600D02*
G75*
G03*
X92914734Y-78381600I-29972J0D01*
G01*
D14*
X93291924Y-78714595D02*
G75*
G03*
X93291924Y-78714595I-150114J0D01*
G01*
X92529923Y-80612486D02*
G75*
G03*
X92529923Y-80612486I-150114J0D01*
G01*
D11*
%TO.C,R16*%
X69857202Y-97072596D02*
X76157228Y-97072596D01*
X76157228Y-99472596D02*
X69857202Y-99472596D01*
X69857202Y-99472596D02*
X69857202Y-97072596D01*
X76157228Y-97072596D02*
X76157228Y-99472596D01*
D12*
X67611990Y-99472494D02*
G75*
G03*
X67611990Y-99472494I-29972J0D01*
G01*
D11*
%TO.C,R36*%
X122154800Y-64515587D02*
X122154800Y-70815613D01*
X122154800Y-70815613D02*
X119754800Y-70815613D01*
X119754800Y-64515587D02*
X122154800Y-64515587D01*
X119754800Y-70815613D02*
X119754800Y-64515587D01*
D12*
X119784874Y-62240403D02*
G75*
G03*
X119784874Y-62240403I-29972J0D01*
G01*
D11*
%TO.C,R48*%
X118312787Y-118789600D02*
X124612813Y-118789600D01*
X124612813Y-118789600D02*
X124612813Y-121189600D01*
X118312787Y-121189600D02*
X118312787Y-118789600D01*
X124612813Y-121189600D02*
X118312787Y-121189600D01*
D12*
X126917969Y-118789702D02*
G75*
G03*
X126917969Y-118789702I-29972J0D01*
G01*
D11*
%TO.C,R17*%
X69857202Y-94024596D02*
X76157228Y-94024596D01*
X76157228Y-94024596D02*
X76157228Y-96424596D01*
X69857202Y-96424596D02*
X69857202Y-94024596D01*
X76157228Y-96424596D02*
X69857202Y-96424596D01*
D12*
X67611990Y-96424494D02*
G75*
G03*
X67611990Y-96424494I-29972J0D01*
G01*
D11*
%TO.C,J12*%
X130028800Y-96531925D02*
X131372793Y-96531925D01*
X140328800Y-112951635D02*
X140328800Y-92871574D01*
X130028800Y-106651584D02*
X131372793Y-106651584D01*
X131372793Y-96531925D02*
X131372793Y-94062227D01*
X130028800Y-106651610D02*
X131372793Y-106651610D01*
X131372793Y-111731315D02*
X131372793Y-109261617D01*
X131372793Y-94062227D02*
X130028800Y-94062227D01*
X131372793Y-104181912D02*
X130028800Y-104181912D01*
X131372793Y-109261617D02*
X130028800Y-109261617D01*
X130681734Y-96531925D02*
X130681734Y-94062227D01*
X131372793Y-106651610D02*
X131372793Y-104181912D01*
X130681734Y-101611605D02*
X130681734Y-99141932D01*
X130028800Y-112951635D02*
X130028800Y-92871574D01*
X130736496Y-113579626D02*
X130736496Y-112979601D01*
X131372793Y-104181912D02*
X130028800Y-104181912D01*
X139500809Y-113579626D02*
X138356511Y-113579626D01*
X137470913Y-112951635D02*
X137470913Y-92871574D01*
X130028800Y-112951635D02*
X140328800Y-112951635D01*
X131925574Y-112979601D02*
X131925574Y-113579626D01*
X130028800Y-92871574D02*
X140328800Y-92871574D01*
X130028800Y-96531925D02*
X131372793Y-96531925D01*
X130681734Y-111731315D02*
X130681734Y-109261617D01*
X131925574Y-113579626D02*
X130736496Y-113579626D01*
X130028800Y-111731315D02*
X131372793Y-111731315D01*
X138356511Y-113579626D02*
X138356511Y-112979601D01*
X130028800Y-101611605D02*
X131372793Y-101611605D01*
X131372793Y-94062227D02*
X130028800Y-94062227D01*
X131372793Y-99141932D02*
X130028800Y-99141932D01*
X131372793Y-101611605D02*
X131372793Y-99141932D01*
X132388795Y-112951635D02*
X132388795Y-92871574D01*
X139500809Y-112979601D02*
X139500809Y-113579626D01*
X139005711Y-112951635D02*
X139005711Y-92871574D01*
X130681734Y-106651584D02*
X130681734Y-104181912D01*
D12*
X140485797Y-113706626D02*
G75*
G03*
X140485797Y-113706626I-29997J0D01*
G01*
D11*
%TO.C,Q1*%
X81382891Y-143115664D02*
X85342709Y-143115664D01*
X81381596Y-143114393D02*
G75*
G03*
X85344004Y-143114394I1981204J502819D01*
G01*
D12*
X85876897Y-143115664D02*
G75*
G03*
X85876897Y-143115664I-29972J0D01*
G01*
D11*
%TO.C,J6*%
X64949215Y-84265597D02*
X63605222Y-84265597D01*
X64296281Y-89345277D02*
X64296281Y-91814975D01*
X64296281Y-84265597D02*
X64296281Y-86735270D01*
X64949215Y-79225618D02*
X63605222Y-79225618D01*
X62589220Y-72925567D02*
X62589220Y-93005628D01*
X56621504Y-72297576D02*
X56621504Y-72897601D01*
X55972304Y-72925567D02*
X55972304Y-93005628D01*
X63605222Y-79225592D02*
X63605222Y-81695290D01*
X57507102Y-72925567D02*
X57507102Y-93005628D01*
X63605222Y-91814975D02*
X64949215Y-91814975D01*
X64949215Y-89345277D02*
X63605222Y-89345277D01*
X64949215Y-89345277D02*
X63605222Y-89345277D01*
X64949215Y-93005628D02*
X54649215Y-93005628D01*
X63605222Y-84265597D02*
X63605222Y-86735270D01*
X63605222Y-89345277D02*
X63605222Y-91814975D01*
X63605222Y-74145887D02*
X63605222Y-76615585D01*
X54649215Y-72925567D02*
X54649215Y-93005628D01*
X63605222Y-81695290D02*
X64949215Y-81695290D01*
X63605222Y-91814975D02*
X64949215Y-91814975D01*
X63605222Y-86735270D02*
X64949215Y-86735270D01*
X64241519Y-72297576D02*
X64241519Y-72897601D01*
X55477206Y-72297576D02*
X56621504Y-72297576D01*
X64949215Y-79225592D02*
X63605222Y-79225592D01*
X64296281Y-74145887D02*
X64296281Y-76615585D01*
X63052441Y-72297576D02*
X64241519Y-72297576D01*
X63052441Y-72897601D02*
X63052441Y-72297576D01*
X64949215Y-72925567D02*
X64949215Y-93005628D01*
X63605222Y-76615585D02*
X64949215Y-76615585D01*
X63605222Y-81695290D02*
X64949215Y-81695290D01*
X64949215Y-74145887D02*
X63605222Y-74145887D01*
X64296281Y-79225618D02*
X64296281Y-81695290D01*
X64949215Y-72925567D02*
X54649215Y-72925567D01*
X55477206Y-72897601D02*
X55477206Y-72297576D01*
D12*
X54552212Y-72170576D02*
G75*
G03*
X54552212Y-72170576I-29997J0D01*
G01*
D11*
%TO.C,R42*%
X124612813Y-99993600D02*
X124612813Y-102393600D01*
X118312787Y-102393600D02*
X118312787Y-99993600D01*
X118312787Y-99993600D02*
X124612813Y-99993600D01*
X124612813Y-102393600D02*
X118312787Y-102393600D01*
D12*
X126917969Y-99993702D02*
G75*
G03*
X126917969Y-99993702I-29972J0D01*
G01*
D13*
%TO.C,U1*%
X106728212Y-134775387D02*
X106728212Y-144827813D01*
X103685388Y-144827813D02*
X103685388Y-134775387D01*
X103685388Y-134775387D02*
X106728212Y-134775387D01*
X106728212Y-144827813D02*
X103685388Y-144827813D01*
D14*
X102689909Y-134594590D02*
G75*
G03*
X102689909Y-134594590I-150114J0D01*
G01*
X104587800Y-135356591D02*
G75*
G03*
X104587800Y-135356591I-150114J0D01*
G01*
D12*
X102236772Y-134851638D02*
G75*
G03*
X102236772Y-134851638I-29972J0D01*
G01*
D11*
%TO.C,R41*%
X124612813Y-96945600D02*
X124612813Y-99345600D01*
X124612813Y-99345600D02*
X118312787Y-99345600D01*
X118312787Y-96945600D02*
X124612813Y-96945600D01*
X118312787Y-99345600D02*
X118312787Y-96945600D01*
D12*
X126917969Y-96945702D02*
G75*
G03*
X126917969Y-96945702I-29972J0D01*
G01*
D11*
%TO.C,R11*%
X76250699Y-115093615D02*
X69950673Y-115093615D01*
X69950673Y-112693615D02*
X76250699Y-112693615D01*
X69950673Y-115093615D02*
X69950673Y-112693615D01*
X76250699Y-112693615D02*
X76250699Y-115093615D01*
D12*
X67705461Y-115093513D02*
G75*
G03*
X67705461Y-115093513I-29972J0D01*
G01*
D11*
%TO.C,R49*%
X124612813Y-124745600D02*
X118312787Y-124745600D01*
X118312787Y-124745600D02*
X118312787Y-122345600D01*
X118312787Y-122345600D02*
X124612813Y-122345600D01*
X124612813Y-122345600D02*
X124612813Y-124745600D01*
D12*
X126917969Y-122345702D02*
G75*
G03*
X126917969Y-122345702I-29972J0D01*
G01*
D11*
%TO.C,R50*%
X124612813Y-127793600D02*
X118312787Y-127793600D01*
X118312787Y-125393600D02*
X124612813Y-125393600D01*
X124612813Y-125393600D02*
X124612813Y-127793600D01*
X118312787Y-127793600D02*
X118312787Y-125393600D01*
D12*
X126917969Y-125393702D02*
G75*
G03*
X126917969Y-125393702I-29972J0D01*
G01*
D11*
%TO.C,J5*%
X63605222Y-103539290D02*
X64949215Y-103539290D01*
X64296281Y-106109597D02*
X64296281Y-108579270D01*
X55972304Y-94769567D02*
X55972304Y-114849628D01*
X64241519Y-94141576D02*
X64241519Y-94741601D01*
X64949215Y-111189277D02*
X63605222Y-111189277D01*
X57507102Y-94769567D02*
X57507102Y-114849628D01*
X63605222Y-111189277D02*
X63605222Y-113658975D01*
X63052441Y-94141576D02*
X64241519Y-94141576D01*
X63052441Y-94741601D02*
X63052441Y-94141576D01*
X64949215Y-101069618D02*
X63605222Y-101069618D01*
X63605222Y-98459585D02*
X64949215Y-98459585D01*
X62589220Y-94769567D02*
X62589220Y-114849628D01*
X63605222Y-113658975D02*
X64949215Y-113658975D01*
X64949215Y-94769567D02*
X64949215Y-114849628D01*
X64949215Y-101069592D02*
X63605222Y-101069592D01*
X64949215Y-95989887D02*
X63605222Y-95989887D01*
X55477206Y-94141576D02*
X56621504Y-94141576D01*
X63605222Y-95989887D02*
X63605222Y-98459585D01*
X64296281Y-111189277D02*
X64296281Y-113658975D01*
X64949215Y-114849628D02*
X54649215Y-114849628D01*
X64949215Y-111189277D02*
X63605222Y-111189277D01*
X55477206Y-94741601D02*
X55477206Y-94141576D01*
X63605222Y-103539290D02*
X64949215Y-103539290D01*
X54649215Y-94769567D02*
X54649215Y-114849628D01*
X56621504Y-94141576D02*
X56621504Y-94741601D01*
X63605222Y-108579270D02*
X64949215Y-108579270D01*
X64949215Y-94769567D02*
X54649215Y-94769567D01*
X63605222Y-113658975D02*
X64949215Y-113658975D01*
X63605222Y-106109597D02*
X63605222Y-108579270D01*
X64296281Y-101069618D02*
X64296281Y-103539290D01*
X64296281Y-95989887D02*
X64296281Y-98459585D01*
X63605222Y-101069592D02*
X63605222Y-103539290D01*
X64949215Y-106109597D02*
X63605222Y-106109597D01*
D12*
X54552212Y-94014576D02*
G75*
G03*
X54552212Y-94014576I-29997J0D01*
G01*
D11*
%TO.C,R29*%
X100818800Y-70815613D02*
X98418800Y-70815613D01*
X98418800Y-70815613D02*
X98418800Y-64515587D01*
X98418800Y-64515587D02*
X100818800Y-64515587D01*
X100818800Y-64515587D02*
X100818800Y-70815613D01*
D12*
X98448874Y-62240403D02*
G75*
G03*
X98448874Y-62240403I-29972J0D01*
G01*
D11*
%TO.C,R7*%
X76250699Y-127793615D02*
X69950673Y-127793615D01*
X76250699Y-125393615D02*
X76250699Y-127793615D01*
X69950673Y-125393615D02*
X76250699Y-125393615D01*
X69950673Y-127793615D02*
X69950673Y-125393615D01*
D12*
X67705461Y-127793513D02*
G75*
G03*
X67705461Y-127793513I-29972J0D01*
G01*
D11*
%TO.C,R46*%
X124612813Y-112693600D02*
X124612813Y-115093600D01*
X118312787Y-112693600D02*
X124612813Y-112693600D01*
X118312787Y-115093600D02*
X118312787Y-112693600D01*
X124612813Y-115093600D02*
X118312787Y-115093600D01*
D12*
X126917969Y-112693702D02*
G75*
G03*
X126917969Y-112693702I-29972J0D01*
G01*
D11*
%TO.C,J11*%
X131372793Y-72218227D02*
X130028800Y-72218227D01*
X131372793Y-77297932D02*
X130028800Y-77297932D01*
X130028800Y-74687925D02*
X131372793Y-74687925D01*
X139500809Y-91135601D02*
X139500809Y-91735626D01*
X130028800Y-71027574D02*
X140328800Y-71027574D01*
X139500809Y-91735626D02*
X138356511Y-91735626D01*
X130028800Y-84807610D02*
X131372793Y-84807610D01*
X130681734Y-74687925D02*
X130681734Y-72218227D01*
X131925574Y-91135601D02*
X131925574Y-91735626D01*
X132388795Y-91107635D02*
X132388795Y-71027574D01*
X131372793Y-74687925D02*
X131372793Y-72218227D01*
X130028800Y-84807584D02*
X131372793Y-84807584D01*
X131372793Y-72218227D02*
X130028800Y-72218227D01*
X131372793Y-89887315D02*
X131372793Y-87417617D01*
X130028800Y-91107635D02*
X130028800Y-71027574D01*
X130028800Y-91107635D02*
X140328800Y-91107635D01*
X131372793Y-84807610D02*
X131372793Y-82337912D01*
X139005711Y-91107635D02*
X139005711Y-71027574D01*
X137470913Y-91107635D02*
X137470913Y-71027574D01*
X131372793Y-79767605D02*
X131372793Y-77297932D01*
X131372793Y-82337912D02*
X130028800Y-82337912D01*
X138356511Y-91735626D02*
X138356511Y-91135601D01*
X130028800Y-74687925D02*
X131372793Y-74687925D01*
X131372793Y-82337912D02*
X130028800Y-82337912D01*
X130681734Y-84807584D02*
X130681734Y-82337912D01*
X130028800Y-79767605D02*
X131372793Y-79767605D01*
X140328800Y-91107635D02*
X140328800Y-71027574D01*
X131925574Y-91735626D02*
X130736496Y-91735626D01*
X130681734Y-79767605D02*
X130681734Y-77297932D01*
X130028800Y-89887315D02*
X131372793Y-89887315D01*
X130681734Y-89887315D02*
X130681734Y-87417617D01*
X131372793Y-87417617D02*
X130028800Y-87417617D01*
X130736496Y-91735626D02*
X130736496Y-91135601D01*
D12*
X140485797Y-91862626D02*
G75*
G03*
X140485797Y-91862626I-29997J0D01*
G01*
D11*
%TO.C,J4*%
X55477206Y-115985576D02*
X56621504Y-115985576D01*
X64949215Y-122913618D02*
X63605222Y-122913618D01*
X64949215Y-117833887D02*
X63605222Y-117833887D01*
X64296281Y-127953597D02*
X64296281Y-130423270D01*
X54649215Y-116613567D02*
X54649215Y-136693628D01*
X64949215Y-136693628D02*
X54649215Y-136693628D01*
X63605222Y-122913592D02*
X63605222Y-125383290D01*
X64949215Y-122913592D02*
X63605222Y-122913592D01*
X63605222Y-135502975D02*
X64949215Y-135502975D01*
X64949215Y-116613567D02*
X54649215Y-116613567D01*
X63605222Y-125383290D02*
X64949215Y-125383290D01*
X63605222Y-125383290D02*
X64949215Y-125383290D01*
X57507102Y-116613567D02*
X57507102Y-136693628D01*
X64296281Y-117833887D02*
X64296281Y-120303585D01*
X64296281Y-133033277D02*
X64296281Y-135502975D01*
X63605222Y-117833887D02*
X63605222Y-120303585D01*
X64949215Y-133033277D02*
X63605222Y-133033277D01*
X64241519Y-115985576D02*
X64241519Y-116585601D01*
X56621504Y-115985576D02*
X56621504Y-116585601D01*
X55477206Y-116585601D02*
X55477206Y-115985576D01*
X64296281Y-122913618D02*
X64296281Y-125383290D01*
X64949215Y-127953597D02*
X63605222Y-127953597D01*
X63052441Y-115985576D02*
X64241519Y-115985576D01*
X62589220Y-116613567D02*
X62589220Y-136693628D01*
X64949215Y-116613567D02*
X64949215Y-136693628D01*
X55972304Y-116613567D02*
X55972304Y-136693628D01*
X63605222Y-133033277D02*
X63605222Y-135502975D01*
X64949215Y-133033277D02*
X63605222Y-133033277D01*
X63605222Y-130423270D02*
X64949215Y-130423270D01*
X63605222Y-135502975D02*
X64949215Y-135502975D01*
X63605222Y-120303585D02*
X64949215Y-120303585D01*
X63605222Y-127953597D02*
X63605222Y-130423270D01*
X63052441Y-116585601D02*
X63052441Y-115985576D01*
D12*
X54552212Y-115858576D02*
G75*
G03*
X54552212Y-115858576I-29997J0D01*
G01*
D11*
%TO.C,R43*%
X124612813Y-105441600D02*
X118312787Y-105441600D01*
X118312787Y-105441600D02*
X118312787Y-103041600D01*
X118312787Y-103041600D02*
X124612813Y-103041600D01*
X124612813Y-103041600D02*
X124612813Y-105441600D01*
D12*
X126917969Y-103041702D02*
G75*
G03*
X126917969Y-103041702I-29972J0D01*
G01*
D11*
%TO.C,R51*%
X118312787Y-130841600D02*
X118312787Y-128441600D01*
X124612813Y-128441600D02*
X124612813Y-130841600D01*
X124612813Y-130841600D02*
X118312787Y-130841600D01*
X118312787Y-128441600D02*
X124612813Y-128441600D01*
D12*
X126917969Y-128441702D02*
G75*
G03*
X126917969Y-128441702I-29972J0D01*
G01*
D11*
%TO.C,J14*%
X131372793Y-145807605D02*
X131372793Y-143337932D01*
X130736496Y-157775626D02*
X130736496Y-157175601D01*
X131372793Y-140727925D02*
X131372793Y-138258227D01*
X130028800Y-137067574D02*
X140328800Y-137067574D01*
X130681734Y-140727925D02*
X130681734Y-138258227D01*
X130028800Y-157147635D02*
X130028800Y-137067574D01*
X130028800Y-157147635D02*
X140328800Y-157147635D01*
X130028800Y-150847610D02*
X131372793Y-150847610D01*
X131372793Y-153457617D02*
X130028800Y-153457617D01*
X139500809Y-157175601D02*
X139500809Y-157775626D01*
X131372793Y-148377912D02*
X130028800Y-148377912D01*
X131372793Y-155927315D02*
X131372793Y-153457617D01*
X130028800Y-155927315D02*
X131372793Y-155927315D01*
X131925574Y-157175601D02*
X131925574Y-157775626D01*
X131372793Y-138258227D02*
X130028800Y-138258227D01*
X130028800Y-150847584D02*
X131372793Y-150847584D01*
X131925574Y-157775626D02*
X130736496Y-157775626D01*
X130028800Y-140727925D02*
X131372793Y-140727925D01*
X137470913Y-157147635D02*
X137470913Y-137067574D01*
X140328800Y-157147635D02*
X140328800Y-137067574D01*
X131372793Y-148377912D02*
X130028800Y-148377912D01*
X139005711Y-157147635D02*
X139005711Y-137067574D01*
X131372793Y-138258227D02*
X130028800Y-138258227D01*
X138356511Y-157775626D02*
X138356511Y-157175601D01*
X131372793Y-150847610D02*
X131372793Y-148377912D01*
X130681734Y-155927315D02*
X130681734Y-153457617D01*
X130681734Y-150847584D02*
X130681734Y-148377912D01*
X132388795Y-157147635D02*
X132388795Y-137067574D01*
X130028800Y-140727925D02*
X131372793Y-140727925D01*
X130681734Y-145807605D02*
X130681734Y-143337932D01*
X139500809Y-157775626D02*
X138356511Y-157775626D01*
X131372793Y-143337932D02*
X130028800Y-143337932D01*
X130028800Y-145807605D02*
X131372793Y-145807605D01*
D12*
X140485797Y-157902626D02*
G75*
G03*
X140485797Y-157902626I-29997J0D01*
G01*
D11*
%TO.C,R52*%
X118312787Y-133889600D02*
X118312787Y-131489600D01*
X124612813Y-133889600D02*
X118312787Y-133889600D01*
X124612813Y-131489600D02*
X124612813Y-133889600D01*
X118312787Y-131489600D02*
X124612813Y-131489600D01*
D12*
X126917969Y-131489702D02*
G75*
G03*
X126917969Y-131489702I-29972J0D01*
G01*
D11*
%TO.C,Q2*%
X76810891Y-143115664D02*
X80770709Y-143115664D01*
X76809596Y-143114393D02*
G75*
G03*
X80772004Y-143114394I1981204J502819D01*
G01*
D12*
X81304897Y-143115664D02*
G75*
G03*
X81304897Y-143115664I-29972J0D01*
G01*
D11*
%TO.C,J8*%
X84796805Y-59812611D02*
X82327132Y-59812611D01*
X96136835Y-50856604D02*
X76056774Y-50856604D01*
X96136835Y-53714491D02*
X76056774Y-53714491D01*
X94916515Y-61156604D02*
X94916515Y-59812611D01*
X84796805Y-60503670D02*
X82327132Y-60503670D01*
X94916515Y-59812611D02*
X92446817Y-59812611D01*
X89836810Y-61156604D02*
X89836810Y-59812611D01*
X92446817Y-59812611D02*
X92446817Y-61156604D01*
X96764826Y-51684595D02*
X96764826Y-52828893D01*
X84796805Y-61156604D02*
X84796805Y-59812611D01*
X96764826Y-59259830D02*
X96764826Y-60448908D01*
X96164801Y-51684595D02*
X96764826Y-51684595D01*
X89836784Y-61156604D02*
X89836784Y-59812611D01*
X96136835Y-61156604D02*
X76056774Y-61156604D01*
X96164801Y-59259830D02*
X96764826Y-59259830D01*
X76056774Y-61156604D02*
X76056774Y-50856604D01*
X79717125Y-59812611D02*
X77247427Y-59812611D01*
X96764826Y-52828893D02*
X96164801Y-52828893D01*
X96136835Y-52179693D02*
X76056774Y-52179693D01*
X79717125Y-60503670D02*
X77247427Y-60503670D01*
X96764826Y-60448908D02*
X96164801Y-60448908D01*
X82327132Y-59812611D02*
X82327132Y-61156604D01*
X87367112Y-59812611D02*
X87367112Y-61156604D01*
X89836810Y-59812611D02*
X87367112Y-59812611D01*
X77247427Y-59812611D02*
X77247427Y-61156604D01*
X87367112Y-59812611D02*
X87367112Y-61156604D01*
X77247427Y-59812611D02*
X77247427Y-61156604D01*
X96136835Y-61156604D02*
X96136835Y-50856604D01*
X79717125Y-61156604D02*
X79717125Y-59812611D01*
X96136835Y-58796609D02*
X76056774Y-58796609D01*
X94916515Y-60503670D02*
X92446817Y-60503670D01*
X79717125Y-61156604D02*
X79717125Y-59812611D01*
X89836784Y-60503670D02*
X87367112Y-60503670D01*
D12*
X96921823Y-50729604D02*
G75*
G03*
X96921823Y-50729604I-29997J0D01*
G01*
D13*
%TO.C,U7*%
X105209388Y-116995387D02*
X108252212Y-116995387D01*
X108252212Y-127047813D02*
X105209388Y-127047813D01*
X108252212Y-116995387D02*
X108252212Y-127047813D01*
X105209388Y-127047813D02*
X105209388Y-116995387D01*
D12*
X109760772Y-126971562D02*
G75*
G03*
X109760772Y-126971562I-29972J0D01*
G01*
D14*
X107650028Y-126466609D02*
G75*
G03*
X107650028Y-126466609I-150114J0D01*
G01*
X109547919Y-127228610D02*
G75*
G03*
X109547919Y-127228610I-150114J0D01*
G01*
D11*
%TO.C,R30*%
X101466800Y-70815613D02*
X101466800Y-64515587D01*
X101466800Y-64515587D02*
X103866800Y-64515587D01*
X103866800Y-64515587D02*
X103866800Y-70815613D01*
X103866800Y-70815613D02*
X101466800Y-70815613D01*
D12*
X101496874Y-62240403D02*
G75*
G03*
X101496874Y-62240403I-29972J0D01*
G01*
D11*
%TO.C,R27*%
X90150800Y-70815613D02*
X87750800Y-70815613D01*
X87750800Y-70815613D02*
X87750800Y-64515587D01*
X87750800Y-64515587D02*
X90150800Y-64515587D01*
X90150800Y-64515587D02*
X90150800Y-70815613D01*
D12*
X87780874Y-62240403D02*
G75*
G03*
X87780874Y-62240403I-29972J0D01*
G01*
D11*
%TO.C,R18*%
X69857202Y-90976596D02*
X76157228Y-90976596D01*
X76157228Y-90976596D02*
X76157228Y-93376596D01*
X76157228Y-93376596D02*
X69857202Y-93376596D01*
X69857202Y-93376596D02*
X69857202Y-90976596D01*
D12*
X67611990Y-93376494D02*
G75*
G03*
X67611990Y-93376494I-29972J0D01*
G01*
D11*
%TO.C,R33*%
X113010800Y-64515587D02*
X113010800Y-70815613D01*
X113010800Y-70815613D02*
X110610800Y-70815613D01*
X110610800Y-64515587D02*
X113010800Y-64515587D01*
X110610800Y-70815613D02*
X110610800Y-64515587D01*
D12*
X110640874Y-62240403D02*
G75*
G03*
X110640874Y-62240403I-29972J0D01*
G01*
D11*
%TO.C,R21*%
X69462800Y-70815613D02*
X69462800Y-64515587D01*
X69462800Y-64515587D02*
X71862800Y-64515587D01*
X71862800Y-64515587D02*
X71862800Y-70815613D01*
X71862800Y-70815613D02*
X69462800Y-70815613D01*
D12*
X69492874Y-62240403D02*
G75*
G03*
X69492874Y-62240403I-29972J0D01*
G01*
D11*
%TO.C,R1*%
X88848787Y-133889600D02*
X88848787Y-131489600D01*
X88848787Y-131489600D02*
X95148813Y-131489600D01*
X95148813Y-133889600D02*
X88848787Y-133889600D01*
X95148813Y-131489600D02*
X95148813Y-133889600D01*
D12*
X97453969Y-131489702D02*
G75*
G03*
X97453969Y-131489702I-29972J0D01*
G01*
D11*
%TO.C,J9*%
X117268515Y-59812611D02*
X114798817Y-59812611D01*
X109719112Y-59812611D02*
X109719112Y-61156604D01*
X117268515Y-61156604D02*
X117268515Y-59812611D01*
X118488835Y-61156604D02*
X98408774Y-61156604D01*
X107148805Y-61156604D02*
X107148805Y-59812611D01*
X119116826Y-52828893D02*
X118516801Y-52828893D01*
X119116826Y-51684595D02*
X119116826Y-52828893D01*
X118516801Y-59259830D02*
X119116826Y-59259830D01*
X118488835Y-58796609D02*
X98408774Y-58796609D01*
X112188784Y-60503670D02*
X109719112Y-60503670D01*
X112188810Y-61156604D02*
X112188810Y-59812611D01*
X102069125Y-61156604D02*
X102069125Y-59812611D01*
X112188784Y-61156604D02*
X112188784Y-59812611D01*
X117268515Y-60503670D02*
X114798817Y-60503670D01*
X102069125Y-60503670D02*
X99599427Y-60503670D01*
X114798817Y-59812611D02*
X114798817Y-61156604D01*
X109719112Y-59812611D02*
X109719112Y-61156604D01*
X119116826Y-60448908D02*
X118516801Y-60448908D01*
X118488835Y-53714491D02*
X98408774Y-53714491D01*
X118488835Y-52179693D02*
X98408774Y-52179693D01*
X99599427Y-59812611D02*
X99599427Y-61156604D01*
X102069125Y-59812611D02*
X99599427Y-59812611D01*
X102069125Y-61156604D02*
X102069125Y-59812611D01*
X99599427Y-59812611D02*
X99599427Y-61156604D01*
X104679132Y-59812611D02*
X104679132Y-61156604D01*
X118488835Y-61156604D02*
X118488835Y-50856604D01*
X98408774Y-61156604D02*
X98408774Y-50856604D01*
X112188810Y-59812611D02*
X109719112Y-59812611D01*
X107148805Y-59812611D02*
X104679132Y-59812611D01*
X119116826Y-59259830D02*
X119116826Y-60448908D01*
X118488835Y-50856604D02*
X98408774Y-50856604D01*
X107148805Y-60503670D02*
X104679132Y-60503670D01*
X118516801Y-51684595D02*
X119116826Y-51684595D01*
D12*
X119273823Y-50729604D02*
G75*
G03*
X119273823Y-50729604I-29997J0D01*
G01*
D11*
%TO.C,R45*%
X124612813Y-109645600D02*
X124612813Y-112045600D01*
X118312787Y-109645600D02*
X124612813Y-109645600D01*
X118312787Y-112045600D02*
X118312787Y-109645600D01*
X124612813Y-112045600D02*
X118312787Y-112045600D01*
D12*
X126917969Y-109645702D02*
G75*
G03*
X126917969Y-109645702I-29972J0D01*
G01*
D11*
%TO.C,R12*%
X69950673Y-112045615D02*
X69950673Y-109645615D01*
X76250699Y-112045615D02*
X69950673Y-112045615D01*
X76250699Y-109645615D02*
X76250699Y-112045615D01*
X69950673Y-109645615D02*
X76250699Y-109645615D01*
D12*
X67705461Y-112045513D02*
G75*
G03*
X67705461Y-112045513I-29972J0D01*
G01*
D11*
%TO.C,Q4*%
X67666891Y-143115664D02*
X71626709Y-143115664D01*
X67665596Y-143114393D02*
G75*
G03*
X71628004Y-143114394I1981204J502819D01*
G01*
D12*
X72160897Y-143115664D02*
G75*
G03*
X72160897Y-143115664I-29972J0D01*
G01*
D11*
%TO.C,J1*%
X65896774Y-157839609D02*
X65896774Y-156695311D01*
X77864795Y-149711593D02*
X80334468Y-149711593D01*
X70214783Y-149711593D02*
X70214783Y-148367600D01*
X86604826Y-148367600D02*
X86604826Y-158667600D01*
X66496799Y-157839609D02*
X65896774Y-157839609D01*
X65896774Y-156695311D02*
X66496799Y-156695311D01*
X80334468Y-149711593D02*
X80334468Y-148367600D01*
X66524765Y-157344511D02*
X86604826Y-157344511D01*
X82944475Y-148367600D02*
X82944475Y-149711593D01*
X65896774Y-149075296D02*
X66496799Y-149075296D01*
X72824790Y-149711593D02*
X75294488Y-149711593D01*
X66524765Y-148367600D02*
X86604826Y-148367600D01*
X66524765Y-148367600D02*
X66524765Y-158667600D01*
X65896774Y-150264374D02*
X65896774Y-149075296D01*
X75294488Y-149711593D02*
X75294488Y-148367600D01*
X72824790Y-148367600D02*
X72824790Y-149711593D01*
X67745085Y-149711593D02*
X70214783Y-149711593D01*
X72824816Y-149020534D02*
X75294488Y-149020534D01*
X66496799Y-150264374D02*
X65896774Y-150264374D01*
X75294488Y-149711593D02*
X75294488Y-148367600D01*
X82944475Y-149711593D02*
X85414173Y-149711593D01*
X67745085Y-149020534D02*
X70214783Y-149020534D01*
X82944475Y-148367600D02*
X82944475Y-149711593D01*
X77864795Y-148367600D02*
X77864795Y-149711593D01*
X66524765Y-150727595D02*
X86604826Y-150727595D01*
X66524765Y-155809713D02*
X86604826Y-155809713D01*
X82944475Y-149020534D02*
X85414173Y-149020534D01*
X85414173Y-149711593D02*
X85414173Y-148367600D01*
X72824816Y-148367600D02*
X72824816Y-149711593D01*
X77864795Y-149020534D02*
X80334468Y-149020534D01*
X85414173Y-149711593D02*
X85414173Y-148367600D01*
X67745085Y-148367600D02*
X67745085Y-149711593D01*
X66524765Y-158667600D02*
X86604826Y-158667600D01*
D12*
X65799771Y-158794600D02*
G75*
G03*
X65799771Y-158794600I-29997J0D01*
G01*
D11*
%TO.C,R2*%
X88848787Y-136937600D02*
X88848787Y-134537600D01*
X88848787Y-134537600D02*
X95148813Y-134537600D01*
X95148813Y-136937600D02*
X88848787Y-136937600D01*
X95148813Y-134537600D02*
X95148813Y-136937600D01*
D12*
X97453969Y-134537702D02*
G75*
G03*
X97453969Y-134537702I-29972J0D01*
G01*
D11*
%TO.C,R37*%
X124612813Y-86645600D02*
X118312787Y-86645600D01*
X118312787Y-84245600D02*
X124612813Y-84245600D01*
X124612813Y-84245600D02*
X124612813Y-86645600D01*
X118312787Y-86645600D02*
X118312787Y-84245600D01*
D12*
X126917969Y-84245702D02*
G75*
G03*
X126917969Y-84245702I-29972J0D01*
G01*
D11*
%TO.C,R5*%
X69950673Y-133889615D02*
X69950673Y-131489615D01*
X76250699Y-131489615D02*
X76250699Y-133889615D01*
X69950673Y-131489615D02*
X76250699Y-131489615D01*
X76250699Y-133889615D02*
X69950673Y-133889615D01*
D12*
X67705461Y-133889513D02*
G75*
G03*
X67705461Y-133889513I-29972J0D01*
G01*
D11*
%TO.C,J10*%
X140332835Y-61156604D02*
X120252774Y-61156604D01*
X131563112Y-59812611D02*
X131563112Y-61156604D01*
X140332835Y-61156604D02*
X140332835Y-50856604D01*
X120252774Y-61156604D02*
X120252774Y-50856604D01*
X128992805Y-61156604D02*
X128992805Y-59812611D01*
X131563112Y-59812611D02*
X131563112Y-61156604D01*
X121443427Y-59812611D02*
X121443427Y-61156604D01*
X140960826Y-52828893D02*
X140360801Y-52828893D01*
X140332835Y-53714491D02*
X120252774Y-53714491D01*
X140332835Y-58796609D02*
X120252774Y-58796609D01*
X140332835Y-52179693D02*
X120252774Y-52179693D01*
X134032784Y-61156604D02*
X134032784Y-59812611D01*
X126523132Y-59812611D02*
X126523132Y-61156604D01*
X128992805Y-59812611D02*
X126523132Y-59812611D01*
X134032810Y-61156604D02*
X134032810Y-59812611D01*
X139112515Y-59812611D02*
X136642817Y-59812611D01*
X140360801Y-59259830D02*
X140960826Y-59259830D01*
X139112515Y-60503670D02*
X136642817Y-60503670D01*
X140332835Y-50856604D02*
X120252774Y-50856604D01*
X136642817Y-59812611D02*
X136642817Y-61156604D01*
X140960826Y-60448908D02*
X140360801Y-60448908D01*
X140360801Y-51684595D02*
X140960826Y-51684595D01*
X134032784Y-60503670D02*
X131563112Y-60503670D01*
X134032810Y-59812611D02*
X131563112Y-59812611D01*
X123913125Y-60503670D02*
X121443427Y-60503670D01*
X140960826Y-59259830D02*
X140960826Y-60448908D01*
X123913125Y-61156604D02*
X123913125Y-59812611D01*
X121443427Y-59812611D02*
X121443427Y-61156604D01*
X140960826Y-51684595D02*
X140960826Y-52828893D01*
X123913125Y-61156604D02*
X123913125Y-59812611D01*
X123913125Y-59812611D02*
X121443427Y-59812611D01*
X128992805Y-60503670D02*
X126523132Y-60503670D01*
X139112515Y-61156604D02*
X139112515Y-59812611D01*
D12*
X141117823Y-50729604D02*
G75*
G03*
X141117823Y-50729604I-29997J0D01*
G01*
D11*
%TO.C,R39*%
X118312787Y-92741600D02*
X118312787Y-90341600D01*
X124612813Y-90341600D02*
X124612813Y-92741600D01*
X124612813Y-92741600D02*
X118312787Y-92741600D01*
X118312787Y-90341600D02*
X124612813Y-90341600D01*
D12*
X126917969Y-90341702D02*
G75*
G03*
X126917969Y-90341702I-29972J0D01*
G01*
D11*
%TO.C,R3*%
X95148813Y-137585600D02*
X95148813Y-139985600D01*
X88848787Y-139985600D02*
X88848787Y-137585600D01*
X95148813Y-139985600D02*
X88848787Y-139985600D01*
X88848787Y-137585600D02*
X95148813Y-137585600D01*
D12*
X97453969Y-137585702D02*
G75*
G03*
X97453969Y-137585702I-29972J0D01*
G01*
D13*
%TO.C,U6*%
X108252212Y-101647813D02*
X105209388Y-101647813D01*
X105209388Y-101647813D02*
X105209388Y-91595387D01*
X108252212Y-91595387D02*
X108252212Y-101647813D01*
X105209388Y-91595387D02*
X108252212Y-91595387D01*
D14*
X109547919Y-101828610D02*
G75*
G03*
X109547919Y-101828610I-150114J0D01*
G01*
X107650028Y-101066609D02*
G75*
G03*
X107650028Y-101066609I-150114J0D01*
G01*
D12*
X109760772Y-101571562D02*
G75*
G03*
X109760772Y-101571562I-29972J0D01*
G01*
D13*
%TO.C,U3*%
X87228627Y-91722383D02*
X87228627Y-101774809D01*
X84185803Y-101774809D02*
X84185803Y-91722383D01*
X84185803Y-91722383D02*
X87228627Y-91722383D01*
X87228627Y-101774809D02*
X84185803Y-101774809D01*
D14*
X85088215Y-92303587D02*
G75*
G03*
X85088215Y-92303587I-150114J0D01*
G01*
D12*
X82737187Y-91798634D02*
G75*
G03*
X82737187Y-91798634I-29972J0D01*
G01*
D14*
X83190324Y-91541586D02*
G75*
G03*
X83190324Y-91541586I-150114J0D01*
G01*
D11*
%TO.C,Q3*%
X72238891Y-143115664D02*
X76198709Y-143115664D01*
X72237596Y-143114393D02*
G75*
G03*
X76200004Y-143114394I1981204J502819D01*
G01*
D12*
X76732897Y-143115664D02*
G75*
G03*
X76732897Y-143115664I-29972J0D01*
G01*
D11*
%TO.C,R25*%
X81654800Y-70815613D02*
X81654800Y-64515587D01*
X81654800Y-64515587D02*
X84054800Y-64515587D01*
X84054800Y-64515587D02*
X84054800Y-70815613D01*
X84054800Y-70815613D02*
X81654800Y-70815613D01*
D12*
X81684874Y-62240403D02*
G75*
G03*
X81684874Y-62240403I-29972J0D01*
G01*
D11*
%TO.C,R35*%
X116706800Y-64515587D02*
X119106800Y-64515587D01*
X119106800Y-64515587D02*
X119106800Y-70815613D01*
X116706800Y-70815613D02*
X116706800Y-64515587D01*
X119106800Y-70815613D02*
X116706800Y-70815613D01*
D12*
X116736874Y-62240403D02*
G75*
G03*
X116736874Y-62240403I-29972J0D01*
G01*
D11*
%TO.C,J2*%
X114086894Y-148327773D02*
X114086894Y-149797775D01*
X94005995Y-149030897D02*
X96216815Y-149030897D01*
X122746813Y-148317587D02*
X122746813Y-158717613D01*
X104216942Y-149040981D02*
X106427763Y-149040981D01*
X116297714Y-149797775D02*
X116297714Y-148327773D01*
X92926823Y-156317613D02*
X122746813Y-156317613D01*
X119166930Y-149080986D02*
X121377674Y-149080986D01*
X96216815Y-149787615D02*
X96216815Y-148317613D01*
X92746787Y-148317613D02*
X92746787Y-158717613D01*
X92746787Y-157732777D02*
X122746813Y-157732777D01*
X92746787Y-150300899D02*
X122746813Y-150300899D01*
X108826899Y-149081011D02*
X111037745Y-149081011D01*
X119166930Y-148367702D02*
X119166930Y-149837679D01*
X99316993Y-149041032D02*
X101527737Y-149041032D01*
X111037745Y-149837704D02*
X111037745Y-148367778D01*
X121377674Y-149837679D02*
X121377674Y-148367702D01*
X106427763Y-149797674D02*
X106427763Y-148327697D01*
X104216942Y-148327697D02*
X104216942Y-149797674D01*
X92746787Y-158717613D02*
X122746813Y-158717613D01*
X99316993Y-148327747D02*
X99316993Y-149797750D01*
X114086894Y-149041057D02*
X116297714Y-149041057D01*
X94005995Y-149787615D02*
X96216815Y-149787615D01*
X92746787Y-155851268D02*
X122746813Y-155851268D01*
X99316993Y-149797750D02*
X101527737Y-149797750D01*
X104216942Y-149797674D02*
X106427763Y-149797674D01*
X94005995Y-148317613D02*
X94005995Y-149787615D01*
X101527737Y-149797750D02*
X101527737Y-148327747D01*
X108826899Y-148367778D02*
X108826899Y-149837704D01*
X119166930Y-149837679D02*
X121377674Y-149837679D01*
X92746787Y-148317613D02*
X122746813Y-148317587D01*
X92746787Y-150724242D02*
X122746813Y-150724242D01*
X108826899Y-149837704D02*
X111037745Y-149837704D01*
X114086894Y-149797775D02*
X116297714Y-149797775D01*
D12*
X92649785Y-158844613D02*
G75*
G03*
X92649785Y-158844613I-29998J0D01*
G01*
D11*
X112121971Y-153357592D02*
G75*
G03*
X112121971Y-153357592I-1885191J0D01*
G01*
X117061951Y-153407605D02*
G75*
G03*
X117061951Y-153407605I-1885192J0D01*
G01*
X122091974Y-153307580D02*
G75*
G03*
X122091974Y-153307580I-1885192J0D01*
G01*
X102101956Y-153357592D02*
G75*
G03*
X102101956Y-153357592I-1885192J0D01*
G01*
X107081966Y-153307580D02*
G75*
G03*
X107081966Y-153307580I-1885191J0D01*
G01*
X97072010Y-153357618D02*
G75*
G03*
X97072010Y-153357618I-1885192J0D01*
G01*
%TO.C,R44*%
X118312787Y-106089600D02*
X124612813Y-106089600D01*
X124612813Y-108489600D02*
X118312787Y-108489600D01*
X118312787Y-108489600D02*
X118312787Y-106089600D01*
X124612813Y-106089600D02*
X124612813Y-108489600D01*
D12*
X126917969Y-106089702D02*
G75*
G03*
X126917969Y-106089702I-29972J0D01*
G01*
D11*
%TO.C,R8*%
X76250699Y-122345615D02*
X76250699Y-124745615D01*
X76250699Y-124745615D02*
X69950673Y-124745615D01*
X69950673Y-122345615D02*
X76250699Y-122345615D01*
X69950673Y-124745615D02*
X69950673Y-122345615D01*
D12*
X67705461Y-124745513D02*
G75*
G03*
X67705461Y-124745513I-29972J0D01*
G01*
D11*
%TO.C,R38*%
X118312787Y-89693600D02*
X118312787Y-87293600D01*
X124612813Y-87293600D02*
X124612813Y-89693600D01*
X118312787Y-87293600D02*
X124612813Y-87293600D01*
X124612813Y-89693600D02*
X118312787Y-89693600D01*
D12*
X126917969Y-87293702D02*
G75*
G03*
X126917969Y-87293702I-29972J0D01*
G01*
D11*
%TO.C,R24*%
X78606800Y-64515587D02*
X81006800Y-64515587D01*
X81006800Y-64515587D02*
X81006800Y-70815613D01*
X81006800Y-70815613D02*
X78606800Y-70815613D01*
X78606800Y-70815613D02*
X78606800Y-64515587D01*
D12*
X78636874Y-62240403D02*
G75*
G03*
X78636874Y-62240403I-29972J0D01*
G01*
D11*
%TO.C,R34*%
X116058800Y-64515587D02*
X116058800Y-70815613D01*
X116058800Y-70815613D02*
X113658800Y-70815613D01*
X113658800Y-70815613D02*
X113658800Y-64515587D01*
X113658800Y-64515587D02*
X116058800Y-64515587D01*
D12*
X113688874Y-62240403D02*
G75*
G03*
X113688874Y-62240403I-29972J0D01*
G01*
%TD*%
M02*
