%TF.GenerationSoftware,KiCad,Pcbnew,(6.0.0)*%
%TF.CreationDate,2022-08-09T16:56:53-04:00*%
%TF.ProjectId,pcb,7063622e-6b69-4636-9164-5f7063625858,rev?*%
%TF.SameCoordinates,Original*%
%TF.FileFunction,Copper,L1,Top*%
%TF.FilePolarity,Positive*%
%FSLAX46Y46*%
G04 Gerber Fmt 4.6, Leading zero omitted, Abs format (unit mm)*
G04 Created by KiCad (PCBNEW (6.0.0)) date 2022-08-09 16:56:53*
%MOMM*%
%LPD*%
G01*
G04 APERTURE LIST*
%TA.AperFunction,ComponentPad*%
%ADD10C,1.524003*%
%TD*%
%TA.AperFunction,SMDPad,CuDef*%
%ADD11O,1.970993X0.602007*%
%TD*%
%TA.AperFunction,SMDPad,CuDef*%
%ADD12O,0.602007X1.970993*%
%TD*%
%TA.AperFunction,ComponentPad*%
%ADD13C,2.400000*%
%TD*%
%TA.AperFunction,ComponentPad*%
%ADD14R,0.900000X1.600000*%
%TD*%
%TA.AperFunction,ComponentPad*%
%ADD15O,0.900000X1.600000*%
%TD*%
%TA.AperFunction,ComponentPad*%
%ADD16C,2.500000*%
%TD*%
%TA.AperFunction,ViaPad*%
%ADD17C,0.800000*%
%TD*%
%TA.AperFunction,Conductor*%
%ADD18C,0.250000*%
%TD*%
%TA.AperFunction,Conductor*%
%ADD19C,0.600000*%
%TD*%
G04 APERTURE END LIST*
D10*
%TO.P,R31,1,1*%
%TO.N,Net-(J9-Pad2)*%
X105714800Y-62515486D03*
%TO.P,R31,2,2*%
%TO.N,Net-(R31-Pad2)*%
X105714800Y-72815714D03*
%TD*%
%TO.P,R47,1,1*%
%TO.N,Net-(J13-Pad2)*%
X126612914Y-116941600D03*
%TO.P,R47,2,2*%
%TO.N,Net-(R47-Pad2)*%
X116312686Y-116941600D03*
%TD*%
%TO.P,R6,1,1*%
%TO.N,Net-(J3-Pad3)*%
X67950572Y-129641615D03*
%TO.P,R6,2,2*%
%TO.N,Net-(R6-Pad2)*%
X78250800Y-129641615D03*
%TD*%
%TO.P,R14,1,1*%
%TO.N,Net-(J5-Pad3)*%
X67857101Y-104368596D03*
%TO.P,R14,2,2*%
%TO.N,Net-(R14-Pad2)*%
X78157329Y-104368596D03*
%TD*%
%TO.P,R19,1,1*%
%TO.N,Net-(J6-Pad2)*%
X67857101Y-89128596D03*
%TO.P,R19,2,2*%
%TO.N,Net-(R19-Pad2)*%
X78157329Y-89128596D03*
%TD*%
%TO.P,R20,1,1*%
%TO.N,Net-(J6-Pad1)*%
X67857101Y-86080596D03*
%TO.P,R20,2,2*%
%TO.N,Net-(R20-Pad2)*%
X78157329Y-86080596D03*
%TD*%
%TO.P,R4,1,1*%
%TO.N,Net-(R4-Pad1)*%
X97148914Y-141833600D03*
%TO.P,R4,2,2*%
%TO.N,Net-(Q1-Pad2)*%
X86848686Y-141833600D03*
%TD*%
D11*
%TO.P,U2,1,Q1*%
%TO.N,Net-(R11-Pad2)*%
X82557101Y-117449600D03*
%TO.P,U2,2,Q2*%
%TO.N,Net-(R10-Pad2)*%
X82557101Y-118719603D03*
%TO.P,U2,3,Q3*%
%TO.N,Net-(R9-Pad2)*%
X82557101Y-119989605D03*
%TO.P,U2,4,Q4*%
%TO.N,Net-(R8-Pad2)*%
X82557101Y-121259608D03*
%TO.P,U2,5,Q5*%
%TO.N,Net-(R7-Pad2)*%
X82557101Y-122529610D03*
%TO.P,U2,6,Q6*%
%TO.N,Net-(R6-Pad2)*%
X82557101Y-123799613D03*
%TO.P,U2,7,Q7*%
%TO.N,Net-(R5-Pad2)*%
X82557101Y-125069615D03*
%TO.P,U2,8,GND*%
%TO.N,GND*%
X82557101Y-126339618D03*
%TO.P,U2,9,Q7S*%
%TO.N,Net-(U2-Pad9)*%
X88028271Y-126339618D03*
%TO.P,U2,10,MR#*%
%TO.N,Net-(J2-Pad6)*%
X88028271Y-125069615D03*
%TO.P,U2,11,SHCP*%
%TO.N,Net-(J2-Pad2)*%
X88028271Y-123799613D03*
%TO.P,U2,12,STCP*%
%TO.N,Net-(J2-Pad3)*%
X88028271Y-122529610D03*
%TO.P,U2,13,OE#*%
%TO.N,Net-(J2-Pad4)*%
X88028271Y-121259608D03*
%TO.P,U2,14,DS*%
%TO.N,Net-(U1-Pad9)*%
X88028271Y-119989605D03*
%TO.P,U2,15,Q0*%
%TO.N,Net-(R12-Pad2)*%
X88028271Y-118719603D03*
%TO.P,U2,16,VCC*%
%TO.N,Net-(J2-Pad6)*%
X88028271Y-117449600D03*
%TD*%
D10*
%TO.P,R23,1,1*%
%TO.N,Net-(J7-Pad2)*%
X76758800Y-62515486D03*
%TO.P,R23,2,2*%
%TO.N,Net-(R23-Pad2)*%
X76758800Y-72815714D03*
%TD*%
%TO.P,R40,1,1*%
%TO.N,Net-(J11-Pad1)*%
X126612914Y-94589600D03*
%TO.P,R40,2,2*%
%TO.N,Net-(R40-Pad2)*%
X116312686Y-94589600D03*
%TD*%
%TO.P,R32,1,1*%
%TO.N,Net-(J9-Pad1)*%
X108762800Y-62515486D03*
%TO.P,R32,2,2*%
%TO.N,Net-(R32-Pad2)*%
X108762800Y-72815714D03*
%TD*%
%TO.P,R22,1,1*%
%TO.N,Net-(J7-Pad3)*%
X73710800Y-62515486D03*
%TO.P,R22,2,2*%
%TO.N,Net-(R22-Pad2)*%
X73710800Y-72815714D03*
%TD*%
%TO.P,R13,1,1*%
%TO.N,Net-(J5-Pad4)*%
X67857101Y-107416596D03*
%TO.P,R13,2,2*%
%TO.N,Net-(R13-Pad2)*%
X78157329Y-107416596D03*
%TD*%
D12*
%TO.P,U5,1,Q1*%
%TO.N,Net-(R35-Pad2)*%
X110159809Y-78671019D03*
%TO.P,U5,2,Q2*%
%TO.N,Net-(R34-Pad2)*%
X108889806Y-78671019D03*
%TO.P,U5,3,Q3*%
%TO.N,Net-(R33-Pad2)*%
X107619804Y-78671019D03*
%TO.P,U5,4,Q4*%
%TO.N,Net-(R32-Pad2)*%
X106349801Y-78671019D03*
%TO.P,U5,5,Q5*%
%TO.N,Net-(R31-Pad2)*%
X105079799Y-78671019D03*
%TO.P,U5,6,Q6*%
%TO.N,Net-(R30-Pad2)*%
X103809796Y-78671019D03*
%TO.P,U5,7,Q7*%
%TO.N,Net-(R29-Pad2)*%
X102539794Y-78671019D03*
%TO.P,U5,8,GND*%
%TO.N,GND*%
X101269791Y-78671019D03*
%TO.P,U5,9,Q7S*%
%TO.N,Net-(U5-Pad9)*%
X101269791Y-84142189D03*
%TO.P,U5,10,MR#*%
%TO.N,Net-(J2-Pad6)*%
X102539794Y-84142189D03*
%TO.P,U5,11,SHCP*%
%TO.N,Net-(J2-Pad2)*%
X103809796Y-84142189D03*
%TO.P,U5,12,STCP*%
%TO.N,Net-(J2-Pad3)*%
X105079799Y-84142189D03*
%TO.P,U5,13,OE#*%
%TO.N,Net-(J2-Pad4)*%
X106349801Y-84142189D03*
%TO.P,U5,14,DS*%
%TO.N,Net-(U4-Pad9)*%
X107619804Y-84142189D03*
%TO.P,U5,15,Q0*%
%TO.N,Net-(R36-Pad2)*%
X108889806Y-84142189D03*
%TO.P,U5,16,VCC*%
%TO.N,Net-(J2-Pad6)*%
X110159809Y-84142189D03*
%TD*%
D13*
%TO.P,J7,1,1*%
%TO.N,Net-(J7-Pad1)*%
X72380820Y-56256604D03*
%TO.P,J7,2,2*%
%TO.N,Net-(J7-Pad2)*%
X67300810Y-56256604D03*
%TO.P,J7,3,3*%
%TO.N,Net-(J7-Pad3)*%
X62220799Y-56256604D03*
%TO.P,J7,4,4*%
%TO.N,Net-(J7-Pad4)*%
X57140789Y-56256604D03*
%TD*%
D10*
%TO.P,R28,1,1*%
%TO.N,Net-(J8-Pad1)*%
X91998800Y-62515486D03*
%TO.P,R28,2,2*%
%TO.N,Net-(R28-Pad2)*%
X91998800Y-72815714D03*
%TD*%
%TO.P,R10,1,1*%
%TO.N,Net-(J4-Pad3)*%
X67950572Y-116941615D03*
%TO.P,R10,2,2*%
%TO.N,Net-(R10-Pad2)*%
X78250800Y-116941615D03*
%TD*%
D13*
%TO.P,J3,1,1*%
%TO.N,Net-(J3-Pad1)*%
X60049215Y-140877582D03*
%TO.P,J3,2,2*%
%TO.N,Net-(J3-Pad2)*%
X60049215Y-145957592D03*
%TO.P,J3,3,3*%
%TO.N,Net-(J3-Pad3)*%
X60049215Y-151037603D03*
%TO.P,J3,4,4*%
%TO.N,Net-(J3-Pad4)*%
X60049215Y-156117613D03*
%TD*%
D10*
%TO.P,R26,1,1*%
%TO.N,Net-(J8-Pad3)*%
X85902800Y-62515486D03*
%TO.P,R26,2,2*%
%TO.N,Net-(R26-Pad2)*%
X85902800Y-72815714D03*
%TD*%
%TO.P,R9,1,1*%
%TO.N,Net-(J4-Pad4)*%
X67950572Y-119989615D03*
%TO.P,R9,2,2*%
%TO.N,Net-(R9-Pad2)*%
X78250800Y-119989615D03*
%TD*%
D13*
%TO.P,J13,1,1*%
%TO.N,Net-(J13-Pad1)*%
X134928800Y-133391620D03*
%TO.P,J13,2,2*%
%TO.N,Net-(J13-Pad2)*%
X134928800Y-128311610D03*
%TO.P,J13,3,3*%
%TO.N,Net-(J13-Pad3)*%
X134928800Y-123231599D03*
%TO.P,J13,4,4*%
%TO.N,Net-(J13-Pad4)*%
X134928800Y-118151589D03*
%TD*%
D10*
%TO.P,R15,1,1*%
%TO.N,Net-(J5-Pad2)*%
X67857101Y-101320596D03*
%TO.P,R15,2,2*%
%TO.N,Net-(R15-Pad2)*%
X78157329Y-101320596D03*
%TD*%
D12*
%TO.P,U4,1,Q1*%
%TO.N,Net-(R27-Pad2)*%
X92379809Y-78646015D03*
%TO.P,U4,2,Q2*%
%TO.N,Net-(R26-Pad2)*%
X91109806Y-78646015D03*
%TO.P,U4,3,Q3*%
%TO.N,Net-(R25-Pad2)*%
X89839804Y-78646015D03*
%TO.P,U4,4,Q4*%
%TO.N,Net-(R24-Pad2)*%
X88569801Y-78646015D03*
%TO.P,U4,5,Q5*%
%TO.N,Net-(R23-Pad2)*%
X87299799Y-78646015D03*
%TO.P,U4,6,Q6*%
%TO.N,Net-(R22-Pad2)*%
X86029796Y-78646015D03*
%TO.P,U4,7,Q7*%
%TO.N,Net-(R21-Pad2)*%
X84759794Y-78646015D03*
%TO.P,U4,8,GND*%
%TO.N,GND*%
X83489791Y-78646015D03*
%TO.P,U4,9,Q7S*%
%TO.N,Net-(U4-Pad9)*%
X83489791Y-84117185D03*
%TO.P,U4,10,MR#*%
%TO.N,Net-(J2-Pad6)*%
X84759794Y-84117185D03*
%TO.P,U4,11,SHCP*%
%TO.N,Net-(J2-Pad2)*%
X86029796Y-84117185D03*
%TO.P,U4,12,STCP*%
%TO.N,Net-(J2-Pad3)*%
X87299799Y-84117185D03*
%TO.P,U4,13,OE#*%
%TO.N,Net-(J2-Pad4)*%
X88569801Y-84117185D03*
%TO.P,U4,14,DS*%
%TO.N,Net-(U3-Pad9)*%
X89839804Y-84117185D03*
%TO.P,U4,15,Q0*%
%TO.N,Net-(R28-Pad2)*%
X91109806Y-84117185D03*
%TO.P,U4,16,VCC*%
%TO.N,Net-(J2-Pad6)*%
X92379809Y-84117185D03*
%TD*%
D10*
%TO.P,R16,1,1*%
%TO.N,Net-(J5-Pad1)*%
X67857101Y-98272596D03*
%TO.P,R16,2,2*%
%TO.N,Net-(R16-Pad2)*%
X78157329Y-98272596D03*
%TD*%
%TO.P,R36,1,1*%
%TO.N,Net-(J10-Pad1)*%
X120954800Y-62515486D03*
%TO.P,R36,2,2*%
%TO.N,Net-(R36-Pad2)*%
X120954800Y-72815714D03*
%TD*%
%TO.P,R48,1,1*%
%TO.N,Net-(J13-Pad1)*%
X126612914Y-119989600D03*
%TO.P,R48,2,2*%
%TO.N,Net-(R48-Pad2)*%
X116312686Y-119989600D03*
%TD*%
%TO.P,R17,1,1*%
%TO.N,Net-(J6-Pad4)*%
X67857101Y-95224596D03*
%TO.P,R17,2,2*%
%TO.N,Net-(R17-Pad2)*%
X78157329Y-95224596D03*
%TD*%
D13*
%TO.P,J12,1,1*%
%TO.N,Net-(J12-Pad1)*%
X134928800Y-110531620D03*
%TO.P,J12,2,2*%
%TO.N,Net-(J12-Pad2)*%
X134928800Y-105451610D03*
%TO.P,J12,3,3*%
%TO.N,Net-(J12-Pad3)*%
X134928800Y-100371599D03*
%TO.P,J12,4,4*%
%TO.N,Net-(J12-Pad4)*%
X134928800Y-95291589D03*
%TD*%
D14*
%TO.P,Q1,1,E*%
%TO.N,Net-(J1-Pad4)*%
X84632803Y-144615536D03*
D15*
%TO.P,Q1,2,B*%
%TO.N,Net-(Q1-Pad2)*%
X83362800Y-144615536D03*
%TO.P,Q1,3,C*%
%TO.N,GND*%
X82092797Y-144615536D03*
%TD*%
D13*
%TO.P,J6,1,1*%
%TO.N,Net-(J6-Pad1)*%
X60049215Y-75345582D03*
%TO.P,J6,2,2*%
%TO.N,Net-(J6-Pad2)*%
X60049215Y-80425592D03*
%TO.P,J6,3,3*%
%TO.N,Net-(J6-Pad3)*%
X60049215Y-85505603D03*
%TO.P,J6,4,4*%
%TO.N,Net-(J6-Pad4)*%
X60049215Y-90585613D03*
%TD*%
D10*
%TO.P,R42,1,1*%
%TO.N,Net-(J12-Pad3)*%
X126612914Y-101193600D03*
%TO.P,R42,2,2*%
%TO.N,Net-(R42-Pad2)*%
X116312686Y-101193600D03*
%TD*%
D11*
%TO.P,U1,1,Q1*%
%TO.N,Net-(R1-Pad1)*%
X102471215Y-135356591D03*
%TO.P,U1,2,Q2*%
%TO.N,Net-(R2-Pad1)*%
X102471215Y-136626594D03*
%TO.P,U1,3,Q3*%
%TO.N,Net-(R3-Pad1)*%
X102471215Y-137896596D03*
%TO.P,U1,4,Q4*%
%TO.N,Net-(R4-Pad1)*%
X102471215Y-139166599D03*
%TO.P,U1,5,Q5*%
%TO.N,unconnected-(U1-Pad5)*%
X102471215Y-140436601D03*
%TO.P,U1,6,Q6*%
%TO.N,unconnected-(U1-Pad6)*%
X102471215Y-141706604D03*
%TO.P,U1,7,Q7*%
%TO.N,unconnected-(U1-Pad7)*%
X102471215Y-142976606D03*
%TO.P,U1,8,GND*%
%TO.N,GND*%
X102471215Y-144246609D03*
%TO.P,U1,9,Q7S*%
%TO.N,Net-(U1-Pad9)*%
X107942385Y-144246609D03*
%TO.P,U1,10,MR#*%
%TO.N,Net-(J2-Pad6)*%
X107942385Y-142976606D03*
%TO.P,U1,11,SHCP*%
%TO.N,Net-(J2-Pad2)*%
X107942385Y-141706604D03*
%TO.P,U1,12,STCP*%
%TO.N,Net-(J2-Pad3)*%
X107942385Y-140436601D03*
%TO.P,U1,13,OE#*%
%TO.N,Net-(J2-Pad4)*%
X107942385Y-139166599D03*
%TO.P,U1,14,DS*%
%TO.N,Net-(J2-Pad5)*%
X107942385Y-137896596D03*
%TO.P,U1,15,Q0*%
%TO.N,unconnected-(U1-Pad15)*%
X107942385Y-136626594D03*
%TO.P,U1,16,VCC*%
%TO.N,Net-(J2-Pad6)*%
X107942385Y-135356591D03*
%TD*%
D10*
%TO.P,R41,1,1*%
%TO.N,Net-(J12-Pad4)*%
X126612914Y-98145600D03*
%TO.P,R41,2,2*%
%TO.N,Net-(R41-Pad2)*%
X116312686Y-98145600D03*
%TD*%
%TO.P,R11,1,1*%
%TO.N,Net-(J4-Pad2)*%
X67950572Y-113893615D03*
%TO.P,R11,2,2*%
%TO.N,Net-(R11-Pad2)*%
X78250800Y-113893615D03*
%TD*%
%TO.P,R49,1,1*%
%TO.N,Net-(J14-Pad4)*%
X126612914Y-123545600D03*
%TO.P,R49,2,2*%
%TO.N,Net-(R49-Pad2)*%
X116312686Y-123545600D03*
%TD*%
%TO.P,R50,1,1*%
%TO.N,Net-(J14-Pad3)*%
X126612914Y-126593600D03*
%TO.P,R50,2,2*%
%TO.N,Net-(R50-Pad2)*%
X116312686Y-126593600D03*
%TD*%
D13*
%TO.P,J5,1,1*%
%TO.N,Net-(J5-Pad1)*%
X60049215Y-97189582D03*
%TO.P,J5,2,2*%
%TO.N,Net-(J5-Pad2)*%
X60049215Y-102269592D03*
%TO.P,J5,3,3*%
%TO.N,Net-(J5-Pad3)*%
X60049215Y-107349603D03*
%TO.P,J5,4,4*%
%TO.N,Net-(J5-Pad4)*%
X60049215Y-112429613D03*
%TD*%
D10*
%TO.P,R29,1,1*%
%TO.N,Net-(J9-Pad4)*%
X99618800Y-62515486D03*
%TO.P,R29,2,2*%
%TO.N,Net-(R29-Pad2)*%
X99618800Y-72815714D03*
%TD*%
%TO.P,R7,1,1*%
%TO.N,Net-(J3-Pad2)*%
X67950572Y-126593615D03*
%TO.P,R7,2,2*%
%TO.N,Net-(R7-Pad2)*%
X78250800Y-126593615D03*
%TD*%
%TO.P,R46,1,1*%
%TO.N,Net-(J13-Pad3)*%
X126612914Y-113893600D03*
%TO.P,R46,2,2*%
%TO.N,Net-(R46-Pad2)*%
X116312686Y-113893600D03*
%TD*%
D13*
%TO.P,J11,1,1*%
%TO.N,Net-(J11-Pad1)*%
X134928800Y-88687620D03*
%TO.P,J11,2,2*%
%TO.N,Net-(J11-Pad2)*%
X134928800Y-83607610D03*
%TO.P,J11,3,3*%
%TO.N,Net-(J11-Pad3)*%
X134928800Y-78527599D03*
%TO.P,J11,4,4*%
%TO.N,Net-(J11-Pad4)*%
X134928800Y-73447589D03*
%TD*%
%TO.P,J4,1,1*%
%TO.N,Net-(J4-Pad1)*%
X60049215Y-119033582D03*
%TO.P,J4,2,2*%
%TO.N,Net-(J4-Pad2)*%
X60049215Y-124113592D03*
%TO.P,J4,3,3*%
%TO.N,Net-(J4-Pad3)*%
X60049215Y-129193603D03*
%TO.P,J4,4,4*%
%TO.N,Net-(J4-Pad4)*%
X60049215Y-134273613D03*
%TD*%
D10*
%TO.P,R43,1,1*%
%TO.N,Net-(J12-Pad2)*%
X126612914Y-104241600D03*
%TO.P,R43,2,2*%
%TO.N,Net-(R43-Pad2)*%
X116312686Y-104241600D03*
%TD*%
%TO.P,R51,1,1*%
%TO.N,Net-(J14-Pad2)*%
X126612914Y-129641600D03*
%TO.P,R51,2,2*%
%TO.N,Net-(R51-Pad2)*%
X116312686Y-129641600D03*
%TD*%
D13*
%TO.P,J14,1,1*%
%TO.N,Net-(J14-Pad1)*%
X134928800Y-154727620D03*
%TO.P,J14,2,2*%
%TO.N,Net-(J14-Pad2)*%
X134928800Y-149647610D03*
%TO.P,J14,3,3*%
%TO.N,Net-(J14-Pad3)*%
X134928800Y-144567599D03*
%TO.P,J14,4,4*%
%TO.N,Net-(J14-Pad4)*%
X134928800Y-139487589D03*
%TD*%
D10*
%TO.P,R52,1,1*%
%TO.N,Net-(J14-Pad1)*%
X126612914Y-132689600D03*
%TO.P,R52,2,2*%
%TO.N,Net-(R52-Pad2)*%
X116312686Y-132689600D03*
%TD*%
D14*
%TO.P,Q2,1,E*%
%TO.N,Net-(J1-Pad3)*%
X80060803Y-144615536D03*
D15*
%TO.P,Q2,2,B*%
%TO.N,Net-(Q2-Pad2)*%
X78790800Y-144615536D03*
%TO.P,Q2,3,C*%
%TO.N,GND*%
X77520797Y-144615536D03*
%TD*%
D13*
%TO.P,J8,1,1*%
%TO.N,Net-(J8-Pad1)*%
X93716820Y-56256604D03*
%TO.P,J8,2,2*%
%TO.N,Net-(J8-Pad2)*%
X88636810Y-56256604D03*
%TO.P,J8,3,3*%
%TO.N,Net-(J8-Pad3)*%
X83556799Y-56256604D03*
%TO.P,J8,4,4*%
%TO.N,Net-(J8-Pad4)*%
X78476789Y-56256604D03*
%TD*%
D11*
%TO.P,U7,1,Q1*%
%TO.N,Net-(R51-Pad2)*%
X109466385Y-126466609D03*
%TO.P,U7,2,Q2*%
%TO.N,Net-(R50-Pad2)*%
X109466385Y-125196606D03*
%TO.P,U7,3,Q3*%
%TO.N,Net-(R49-Pad2)*%
X109466385Y-123926604D03*
%TO.P,U7,4,Q4*%
%TO.N,Net-(R48-Pad2)*%
X109466385Y-122656601D03*
%TO.P,U7,5,Q5*%
%TO.N,Net-(R47-Pad2)*%
X109466385Y-121386599D03*
%TO.P,U7,6,Q6*%
%TO.N,Net-(R46-Pad2)*%
X109466385Y-120116596D03*
%TO.P,U7,7,Q7*%
%TO.N,Net-(R45-Pad2)*%
X109466385Y-118846594D03*
%TO.P,U7,8,GND*%
%TO.N,GND*%
X109466385Y-117576591D03*
%TO.P,U7,9,Q7S*%
%TO.N,unconnected-(U7-Pad9)*%
X103995215Y-117576591D03*
%TO.P,U7,10,MR#*%
%TO.N,Net-(J2-Pad6)*%
X103995215Y-118846594D03*
%TO.P,U7,11,SHCP*%
%TO.N,Net-(J2-Pad2)*%
X103995215Y-120116596D03*
%TO.P,U7,12,STCP*%
%TO.N,Net-(J2-Pad3)*%
X103995215Y-121386599D03*
%TO.P,U7,13,OE#*%
%TO.N,Net-(J2-Pad4)*%
X103995215Y-122656601D03*
%TO.P,U7,14,DS*%
%TO.N,Net-(U6-Pad9)*%
X103995215Y-123926604D03*
%TO.P,U7,15,Q0*%
%TO.N,Net-(R52-Pad2)*%
X103995215Y-125196606D03*
%TO.P,U7,16,VCC*%
%TO.N,Net-(J2-Pad6)*%
X103995215Y-126466609D03*
%TD*%
D10*
%TO.P,R30,1,1*%
%TO.N,Net-(J9-Pad3)*%
X102666800Y-62515486D03*
%TO.P,R30,2,2*%
%TO.N,Net-(R30-Pad2)*%
X102666800Y-72815714D03*
%TD*%
%TO.P,R27,1,1*%
%TO.N,Net-(J8-Pad2)*%
X88950800Y-62515486D03*
%TO.P,R27,2,2*%
%TO.N,Net-(R27-Pad2)*%
X88950800Y-72815714D03*
%TD*%
%TO.P,R18,1,1*%
%TO.N,Net-(J6-Pad3)*%
X67857101Y-92176596D03*
%TO.P,R18,2,2*%
%TO.N,Net-(R18-Pad2)*%
X78157329Y-92176596D03*
%TD*%
%TO.P,R33,1,1*%
%TO.N,Net-(J10-Pad4)*%
X111810800Y-62515486D03*
%TO.P,R33,2,2*%
%TO.N,Net-(R33-Pad2)*%
X111810800Y-72815714D03*
%TD*%
%TO.P,R21,1,1*%
%TO.N,Net-(J7-Pad4)*%
X70662800Y-62515486D03*
%TO.P,R21,2,2*%
%TO.N,Net-(R21-Pad2)*%
X70662800Y-72815714D03*
%TD*%
%TO.P,R1,1,1*%
%TO.N,Net-(R1-Pad1)*%
X97148914Y-132689600D03*
%TO.P,R1,2,2*%
%TO.N,Net-(Q4-Pad2)*%
X86848686Y-132689600D03*
%TD*%
D13*
%TO.P,J9,1,1*%
%TO.N,Net-(J9-Pad1)*%
X116068820Y-56256604D03*
%TO.P,J9,2,2*%
%TO.N,Net-(J9-Pad2)*%
X110988810Y-56256604D03*
%TO.P,J9,3,3*%
%TO.N,Net-(J9-Pad3)*%
X105908799Y-56256604D03*
%TO.P,J9,4,4*%
%TO.N,Net-(J9-Pad4)*%
X100828789Y-56256604D03*
%TD*%
D10*
%TO.P,R45,1,1*%
%TO.N,Net-(J13-Pad4)*%
X126612914Y-110845600D03*
%TO.P,R45,2,2*%
%TO.N,Net-(R45-Pad2)*%
X116312686Y-110845600D03*
%TD*%
%TO.P,R12,1,1*%
%TO.N,Net-(J4-Pad1)*%
X67950572Y-110845615D03*
%TO.P,R12,2,2*%
%TO.N,Net-(R12-Pad2)*%
X78250800Y-110845615D03*
%TD*%
D14*
%TO.P,Q4,1,E*%
%TO.N,Net-(J1-Pad1)*%
X70916803Y-144615536D03*
D15*
%TO.P,Q4,2,B*%
%TO.N,Net-(Q4-Pad2)*%
X69646800Y-144615536D03*
%TO.P,Q4,3,C*%
%TO.N,GND*%
X68376797Y-144615536D03*
%TD*%
D13*
%TO.P,J1,1,1*%
%TO.N,Net-(J1-Pad1)*%
X68944780Y-153267600D03*
%TO.P,J1,2,2*%
%TO.N,Net-(J1-Pad2)*%
X74024790Y-153267600D03*
%TO.P,J1,3,3*%
%TO.N,Net-(J1-Pad3)*%
X79104801Y-153267600D03*
%TO.P,J1,4,4*%
%TO.N,Net-(J1-Pad4)*%
X84184811Y-153267600D03*
%TD*%
D10*
%TO.P,R2,1,1*%
%TO.N,Net-(R2-Pad1)*%
X97148914Y-135737600D03*
%TO.P,R2,2,2*%
%TO.N,Net-(Q3-Pad2)*%
X86848686Y-135737600D03*
%TD*%
%TO.P,R37,1,1*%
%TO.N,Net-(J11-Pad4)*%
X126612914Y-85445600D03*
%TO.P,R37,2,2*%
%TO.N,Net-(R37-Pad2)*%
X116312686Y-85445600D03*
%TD*%
%TO.P,R5,1,1*%
%TO.N,Net-(J3-Pad4)*%
X67950572Y-132689615D03*
%TO.P,R5,2,2*%
%TO.N,Net-(R5-Pad2)*%
X78250800Y-132689615D03*
%TD*%
D13*
%TO.P,J10,1,1*%
%TO.N,Net-(J10-Pad1)*%
X137912820Y-56256604D03*
%TO.P,J10,2,2*%
%TO.N,Net-(J10-Pad2)*%
X132832810Y-56256604D03*
%TO.P,J10,3,3*%
%TO.N,Net-(J10-Pad3)*%
X127752799Y-56256604D03*
%TO.P,J10,4,4*%
%TO.N,Net-(J10-Pad4)*%
X122672789Y-56256604D03*
%TD*%
D10*
%TO.P,R39,1,1*%
%TO.N,Net-(J11-Pad2)*%
X126612914Y-91541600D03*
%TO.P,R39,2,2*%
%TO.N,Net-(R39-Pad2)*%
X116312686Y-91541600D03*
%TD*%
%TO.P,R3,1,1*%
%TO.N,Net-(R3-Pad1)*%
X97148914Y-138785600D03*
%TO.P,R3,2,2*%
%TO.N,Net-(Q2-Pad2)*%
X86848686Y-138785600D03*
%TD*%
D11*
%TO.P,U6,1,Q1*%
%TO.N,Net-(R43-Pad2)*%
X109466385Y-101066609D03*
%TO.P,U6,2,Q2*%
%TO.N,Net-(R42-Pad2)*%
X109466385Y-99796606D03*
%TO.P,U6,3,Q3*%
%TO.N,Net-(R41-Pad2)*%
X109466385Y-98526604D03*
%TO.P,U6,4,Q4*%
%TO.N,Net-(R40-Pad2)*%
X109466385Y-97256601D03*
%TO.P,U6,5,Q5*%
%TO.N,Net-(R39-Pad2)*%
X109466385Y-95986599D03*
%TO.P,U6,6,Q6*%
%TO.N,Net-(R38-Pad2)*%
X109466385Y-94716596D03*
%TO.P,U6,7,Q7*%
%TO.N,Net-(R37-Pad2)*%
X109466385Y-93446594D03*
%TO.P,U6,8,GND*%
%TO.N,GND*%
X109466385Y-92176591D03*
%TO.P,U6,9,Q7S*%
%TO.N,Net-(U6-Pad9)*%
X103995215Y-92176591D03*
%TO.P,U6,10,MR#*%
%TO.N,Net-(J2-Pad6)*%
X103995215Y-93446594D03*
%TO.P,U6,11,SHCP*%
%TO.N,Net-(J2-Pad2)*%
X103995215Y-94716596D03*
%TO.P,U6,12,STCP*%
%TO.N,Net-(J2-Pad3)*%
X103995215Y-95986599D03*
%TO.P,U6,13,OE#*%
%TO.N,Net-(J2-Pad4)*%
X103995215Y-97256601D03*
%TO.P,U6,14,DS*%
%TO.N,Net-(U5-Pad9)*%
X103995215Y-98526604D03*
%TO.P,U6,15,Q0*%
%TO.N,Net-(R44-Pad2)*%
X103995215Y-99796606D03*
%TO.P,U6,16,VCC*%
%TO.N,Net-(J2-Pad6)*%
X103995215Y-101066609D03*
%TD*%
%TO.P,U3,1,Q1*%
%TO.N,Net-(R19-Pad2)*%
X82971630Y-92303587D03*
%TO.P,U3,2,Q2*%
%TO.N,Net-(R18-Pad2)*%
X82971630Y-93573590D03*
%TO.P,U3,3,Q3*%
%TO.N,Net-(R17-Pad2)*%
X82971630Y-94843592D03*
%TO.P,U3,4,Q4*%
%TO.N,Net-(R16-Pad2)*%
X82971630Y-96113595D03*
%TO.P,U3,5,Q5*%
%TO.N,Net-(R15-Pad2)*%
X82971630Y-97383597D03*
%TO.P,U3,6,Q6*%
%TO.N,Net-(R14-Pad2)*%
X82971630Y-98653600D03*
%TO.P,U3,7,Q7*%
%TO.N,Net-(R13-Pad2)*%
X82971630Y-99923602D03*
%TO.P,U3,8,GND*%
%TO.N,GND*%
X82971630Y-101193605D03*
%TO.P,U3,9,Q7S*%
%TO.N,Net-(U3-Pad9)*%
X88442800Y-101193605D03*
%TO.P,U3,10,MR#*%
%TO.N,Net-(J2-Pad6)*%
X88442800Y-99923602D03*
%TO.P,U3,11,SHCP*%
%TO.N,Net-(J2-Pad2)*%
X88442800Y-98653600D03*
%TO.P,U3,12,STCP*%
%TO.N,Net-(J2-Pad3)*%
X88442800Y-97383597D03*
%TO.P,U3,13,OE#*%
%TO.N,Net-(J2-Pad4)*%
X88442800Y-96113595D03*
%TO.P,U3,14,DS*%
%TO.N,Net-(U2-Pad9)*%
X88442800Y-94843592D03*
%TO.P,U3,15,Q0*%
%TO.N,Net-(R20-Pad2)*%
X88442800Y-93573590D03*
%TO.P,U3,16,VCC*%
%TO.N,Net-(J2-Pad6)*%
X88442800Y-92303587D03*
%TD*%
D14*
%TO.P,Q3,1,E*%
%TO.N,Net-(J1-Pad2)*%
X75488803Y-144615536D03*
D15*
%TO.P,Q3,2,B*%
%TO.N,Net-(Q3-Pad2)*%
X74218800Y-144615536D03*
%TO.P,Q3,3,C*%
%TO.N,GND*%
X72948797Y-144615536D03*
%TD*%
D10*
%TO.P,R25,1,1*%
%TO.N,Net-(J8-Pad4)*%
X82854800Y-62515486D03*
%TO.P,R25,2,2*%
%TO.N,Net-(R25-Pad2)*%
X82854800Y-72815714D03*
%TD*%
%TO.P,R35,1,1*%
%TO.N,Net-(J10-Pad2)*%
X117906800Y-62515486D03*
%TO.P,R35,2,2*%
%TO.N,Net-(R35-Pad2)*%
X117906800Y-72815714D03*
%TD*%
D16*
%TO.P,J2,1,1*%
%TO.N,GND*%
X95246787Y-153317613D03*
%TO.P,J2,2,2*%
%TO.N,Net-(J2-Pad2)*%
X100246787Y-153317613D03*
%TO.P,J2,3,3*%
%TO.N,Net-(J2-Pad3)*%
X105246813Y-153317613D03*
%TO.P,J2,4,4*%
%TO.N,Net-(J2-Pad4)*%
X110246813Y-153317613D03*
%TO.P,J2,5,5*%
%TO.N,Net-(J2-Pad5)*%
X115246838Y-153317613D03*
%TO.P,J2,6,6*%
%TO.N,Net-(J2-Pad6)*%
X120246838Y-153317613D03*
%TD*%
D10*
%TO.P,R44,1,1*%
%TO.N,Net-(J12-Pad1)*%
X126612914Y-107289600D03*
%TO.P,R44,2,2*%
%TO.N,Net-(R44-Pad2)*%
X116312686Y-107289600D03*
%TD*%
%TO.P,R8,1,1*%
%TO.N,Net-(J3-Pad1)*%
X67950572Y-123545615D03*
%TO.P,R8,2,2*%
%TO.N,Net-(R8-Pad2)*%
X78250800Y-123545615D03*
%TD*%
%TO.P,R38,1,1*%
%TO.N,Net-(J11-Pad3)*%
X126612914Y-88493600D03*
%TO.P,R38,2,2*%
%TO.N,Net-(R38-Pad2)*%
X116312686Y-88493600D03*
%TD*%
%TO.P,R24,1,1*%
%TO.N,Net-(J7-Pad1)*%
X79806800Y-62515486D03*
%TO.P,R24,2,2*%
%TO.N,Net-(R24-Pad2)*%
X79806800Y-72815714D03*
%TD*%
%TO.P,R34,1,1*%
%TO.N,Net-(J10-Pad3)*%
X114858800Y-62515486D03*
%TO.P,R34,2,2*%
%TO.N,Net-(R34-Pad2)*%
X114858800Y-72815714D03*
%TD*%
D17*
%TO.N,GND*%
X91490800Y-104241600D03*
X95246787Y-115217613D03*
X90982800Y-80365600D03*
X109397800Y-80365600D03*
X95246787Y-128933613D03*
X99564787Y-90071613D03*
X94665800Y-80365600D03*
X99872800Y-115163600D03*
X95246787Y-94897613D03*
X91490800Y-128879600D03*
X95246787Y-104168613D03*
X114731800Y-80365600D03*
X85902800Y-147421600D03*
%TO.N,Net-(J2-Pad2)*%
X90220800Y-123672600D03*
X92265311Y-98641089D03*
X90474800Y-98653600D03*
X93268800Y-87731600D03*
X92252800Y-146151600D03*
X90577963Y-90422437D03*
X92252800Y-123672600D03*
X97332800Y-148183600D03*
X105968800Y-142087600D03*
X101396800Y-94716600D03*
X99999800Y-150850600D03*
X101904800Y-120243600D03*
%TO.N,Net-(J2-Pad3)*%
X100627800Y-148698600D03*
X92506800Y-90779600D03*
X100507800Y-95605600D03*
X100634800Y-120878600D03*
X93256289Y-122415111D03*
X90474800Y-97256600D03*
X98094800Y-146913600D03*
X90220800Y-122402600D03*
X94284800Y-89001600D03*
X93256289Y-97269111D03*
X93268800Y-145135600D03*
X105460800Y-140817600D03*
%TO.N,Net-(J2-Pad4)*%
X98094800Y-145643600D03*
X90474800Y-96113600D03*
X94284800Y-121259600D03*
X90220800Y-121259600D03*
X94030800Y-144119600D03*
X98983800Y-96113600D03*
X105206800Y-139293600D03*
X102619800Y-145690600D03*
X98856800Y-121259600D03*
X94284800Y-96113600D03*
%TO.N,Net-(J2-Pad6)*%
X110413800Y-142976600D03*
X113080800Y-81889600D03*
X91363800Y-92303600D03*
X91490800Y-99923600D03*
X97840800Y-92303600D03*
X91490800Y-125069600D03*
X90093800Y-81889600D03*
X93395800Y-81889600D03*
X108127800Y-81889600D03*
X91490800Y-117449600D03*
X97840800Y-99923600D03*
X119557800Y-142976600D03*
X97840800Y-125069600D03*
X97840800Y-117449600D03*
%TO.N,Net-(U1-Pad9)*%
X96443800Y-119989600D03*
X90093800Y-119989600D03*
%TO.N,Net-(U2-Pad9)*%
X85140800Y-119862600D03*
X85140800Y-101193600D03*
%TO.N,Net-(U3-Pad9)*%
X86156800Y-98018600D03*
X91490800Y-86207600D03*
%TO.N,Net-(U4-Pad9)*%
X105968800Y-82270600D03*
X82600800Y-82143600D03*
%TO.N,Net-(U5-Pad9)*%
X102285800Y-98526600D03*
X99999800Y-84175600D03*
%TO.N,Net-(U6-Pad9)*%
X106857800Y-123799600D03*
X106857800Y-99161600D03*
%TD*%
D18*
%TO.N,Net-(J1-Pad1)*%
X70916803Y-151295577D02*
X68944780Y-153267600D01*
X70916803Y-144615536D02*
X70916803Y-151295577D01*
%TO.N,Net-(J1-Pad2)*%
X75488803Y-151803587D02*
X74024790Y-153267600D01*
X75488803Y-144615536D02*
X75488803Y-151803587D01*
%TO.N,Net-(J1-Pad3)*%
X80060803Y-144615536D02*
X80060803Y-152311598D01*
X80060803Y-152311598D02*
X79104801Y-153267600D01*
%TO.N,Net-(J1-Pad4)*%
X84632803Y-144615536D02*
X84632803Y-152819608D01*
X84632803Y-152819608D02*
X84184811Y-153267600D01*
D19*
%TO.N,GND*%
X91436787Y-104187587D02*
X85965612Y-104187587D01*
X109831914Y-90071613D02*
X107361407Y-90071613D01*
X83489800Y-80365600D02*
X83489791Y-80365591D01*
X91490800Y-128879600D02*
X85097083Y-128879600D01*
X101269791Y-80365591D02*
X101269791Y-78671019D01*
X101269800Y-80365600D02*
X101269791Y-80365591D01*
X109397791Y-117576591D02*
X106984800Y-115163600D01*
X83489791Y-80365591D02*
X83489791Y-78646015D01*
X95246787Y-104168613D02*
X95246787Y-94897613D01*
X95246787Y-153317613D02*
X95246787Y-151031613D01*
X95246787Y-128933613D02*
X95246787Y-115217613D01*
X85965612Y-104187587D02*
X82971630Y-101193605D01*
X85902800Y-147421600D02*
X85953600Y-147370800D01*
X95246787Y-151031613D02*
X95246787Y-144173613D01*
X85953600Y-147370800D02*
X91585974Y-147370800D01*
X91490800Y-104241600D02*
X91436787Y-104187587D01*
X91585974Y-147370800D02*
X95246787Y-151031613D01*
X95246787Y-115217613D02*
X95246787Y-104187587D01*
X101269800Y-80365600D02*
X94665800Y-80365600D01*
X102471215Y-144246609D02*
X95319783Y-144246609D01*
X107361407Y-90071613D02*
X109466385Y-92176591D01*
X95319783Y-144246609D02*
X95246787Y-144173613D01*
X114731800Y-80365600D02*
X114731800Y-85171727D01*
X95246787Y-104187587D02*
X95246787Y-104168613D01*
X99564787Y-90071613D02*
X107361407Y-90071613D01*
X109466385Y-117576591D02*
X109397791Y-117576591D01*
X85097083Y-128879600D02*
X82557101Y-126339618D01*
X90982800Y-80365600D02*
X83489800Y-80365600D01*
X95246787Y-144173613D02*
X95246787Y-128933613D01*
X109397800Y-80365600D02*
X101269800Y-80365600D01*
X114731800Y-85171727D02*
X109831914Y-90071613D01*
X106984800Y-115163600D02*
X99872800Y-115163600D01*
D18*
%TO.N,Net-(J2-Pad2)*%
X90474800Y-98653600D02*
X88442800Y-98653600D01*
X92265311Y-98641089D02*
X92265311Y-92109786D01*
X100246787Y-151097587D02*
X99999800Y-150850600D01*
X92252800Y-117116275D02*
X92252800Y-104574925D01*
X92252800Y-125402925D02*
X92265311Y-125390414D01*
X90220800Y-123672600D02*
X88155284Y-123672600D01*
X92252800Y-129212925D02*
X92265311Y-129200414D01*
X105968800Y-142087600D02*
X106349800Y-141706600D01*
X106730804Y-141706604D02*
X107942385Y-141706604D01*
X101904800Y-120243600D02*
X103868211Y-120243600D01*
X92265311Y-128558786D02*
X92252800Y-128546275D01*
X86029800Y-85874275D02*
X86029800Y-85826600D01*
X101396804Y-94716596D02*
X103995215Y-94716596D01*
X106349800Y-141706600D02*
X106730800Y-141706600D01*
X88155284Y-123672600D02*
X88028271Y-123799613D01*
X92252800Y-104574925D02*
X92265311Y-104562414D01*
X92252800Y-146151600D02*
X92252800Y-129212925D01*
X103868211Y-120243600D02*
X103995215Y-120116596D01*
X92265311Y-124748786D02*
X92252800Y-124736275D01*
X92265311Y-125390414D02*
X92265311Y-124748786D01*
X103809796Y-84683604D02*
X103809796Y-84142189D01*
X92252800Y-124736275D02*
X92252800Y-123672600D01*
X92265311Y-129200414D02*
X92265311Y-128558786D01*
X92252800Y-128546275D02*
X92252800Y-125402925D01*
X95046800Y-85953600D02*
X102539800Y-85953600D01*
X86029800Y-85826600D02*
X86029796Y-85826596D01*
X93268800Y-87731600D02*
X95046800Y-85953600D01*
X92265311Y-117128786D02*
X92252800Y-117116275D01*
X92265311Y-104562414D02*
X92265311Y-98641089D01*
X92265311Y-117770414D02*
X92265311Y-117128786D01*
X102539800Y-85953600D02*
X103809796Y-84683604D01*
X101396800Y-94716600D02*
X101396804Y-94716596D01*
X92265311Y-92109786D02*
X90577963Y-90422437D01*
X106730800Y-141706600D02*
X106730804Y-141706604D01*
X86029796Y-85826596D02*
X86029796Y-84117185D01*
X99999800Y-150850600D02*
X97332800Y-148183600D01*
X100246787Y-153317613D02*
X100246787Y-151097587D01*
X90577963Y-90422437D02*
X86029800Y-85874275D01*
X92252800Y-123672600D02*
X92252800Y-117782925D01*
X92252800Y-117782925D02*
X92265311Y-117770414D01*
%TO.N,Net-(J2-Pad3)*%
X90220800Y-122402600D02*
X88155281Y-122402600D01*
X100507800Y-95605600D02*
X100888800Y-95986600D01*
X100634800Y-120878600D02*
X101142800Y-121386600D01*
X87299799Y-85572599D02*
X87299799Y-84117185D01*
X88155281Y-122402600D02*
X88028271Y-122529610D01*
X102920800Y-86842600D02*
X105079799Y-84683601D01*
X105460800Y-140817600D02*
X105841799Y-140436601D01*
X93256289Y-91529089D02*
X92506800Y-90779600D01*
X105841799Y-140436601D02*
X107942385Y-140436601D01*
X100888800Y-95986600D02*
X103995215Y-95986599D01*
X105246813Y-153317613D02*
X100627800Y-148698600D01*
X98842800Y-146913600D02*
X98094800Y-146913600D01*
X93256289Y-145123089D02*
X93256289Y-122415111D01*
X93256289Y-97269111D02*
X93256289Y-91529089D01*
X93268800Y-145135600D02*
X93256289Y-145123089D01*
X94665800Y-89001600D02*
X96824800Y-86842600D01*
X93256289Y-122415111D02*
X93256289Y-97269111D01*
X88569797Y-97256600D02*
X88442800Y-97383597D01*
X96824800Y-86842600D02*
X102920800Y-86842600D01*
X94284800Y-89001600D02*
X94665800Y-89001600D01*
X105079799Y-84683601D02*
X105079799Y-84142189D01*
X100627800Y-148698600D02*
X98842800Y-146913600D01*
X92506800Y-90779600D02*
X87299799Y-85572599D01*
X90474800Y-97256600D02*
X88569797Y-97256600D01*
X101142800Y-121386600D02*
X103995215Y-121386599D01*
%TO.N,Net-(J2-Pad4)*%
X88028279Y-121259600D02*
X88028271Y-121259608D01*
X105206800Y-139293600D02*
X105333801Y-139166599D01*
X90220800Y-121259600D02*
X88028279Y-121259600D01*
X98856800Y-121259600D02*
X99688385Y-121259600D01*
X88442805Y-96113600D02*
X88442800Y-96113595D01*
X99688385Y-121259600D02*
X101085386Y-122656601D01*
X101085386Y-122656601D02*
X103995215Y-122656601D01*
X94284800Y-96113600D02*
X94284800Y-90779600D01*
X90474800Y-96113600D02*
X88442805Y-96113600D01*
X94030800Y-144119600D02*
X94284800Y-143865600D01*
X94284800Y-143865600D02*
X94284800Y-121259600D01*
X94284800Y-90779600D02*
X97332800Y-87731600D01*
X88569801Y-85064601D02*
X88569801Y-84117185D01*
X105333801Y-139166599D02*
X107942385Y-139166599D01*
X98983800Y-96113600D02*
X100126801Y-97256601D01*
X97332800Y-87731600D02*
X103555800Y-87731600D01*
X94284800Y-90779600D02*
X88569801Y-85064601D01*
X102572800Y-145643600D02*
X98094800Y-145643600D01*
X94284800Y-121259600D02*
X94284800Y-96113600D01*
X103555800Y-87731600D02*
X106222800Y-85064600D01*
X100126801Y-97256601D02*
X103995215Y-97256601D01*
X110246813Y-153317613D02*
X102619800Y-145690600D01*
X102619800Y-145690600D02*
X102572800Y-145643600D01*
%TO.N,Net-(J2-Pad5)*%
X111429796Y-137896596D02*
X107942385Y-137896596D01*
X115246838Y-141713638D02*
X111429796Y-137896596D01*
X115246838Y-153317613D02*
X115246838Y-141713638D01*
%TO.N,Net-(J3-Pad1)*%
X67950572Y-123545615D02*
X63703200Y-127792987D01*
X63703200Y-127792987D02*
X63703200Y-137223597D01*
X63703200Y-137223597D02*
X60049215Y-140877582D01*
%TO.N,Net-(J3-Pad2)*%
X64211200Y-130332987D02*
X64211200Y-141795607D01*
X64211200Y-141795607D02*
X60049215Y-145957592D01*
X67950572Y-126593615D02*
X64211200Y-130332987D01*
%TO.N,Net-(J3-Pad3)*%
X67950572Y-129641615D02*
X67950572Y-129661428D01*
X64727680Y-132884320D02*
X64727680Y-146359138D01*
X67950572Y-129661428D02*
X64727680Y-132884320D01*
X64727680Y-146359138D02*
X60049215Y-151037603D01*
%TO.N,Net-(J3-Pad4)*%
X65227200Y-150939628D02*
X60049215Y-156117613D01*
X67950572Y-132689615D02*
X65227200Y-135412987D01*
X65227200Y-135412987D02*
X65227200Y-150939628D01*
%TO.N,Net-(J4-Pad1)*%
X67950572Y-110845615D02*
X60049215Y-118746972D01*
X60049215Y-118746972D02*
X60049215Y-119033582D01*
%TO.N,Net-(J4-Pad2)*%
X62179200Y-121983607D02*
X60049215Y-124113592D01*
X62179200Y-119664987D02*
X62179200Y-121983607D01*
X67950572Y-113893615D02*
X62179200Y-119664987D01*
%TO.N,Net-(J4-Pad3)*%
X62636400Y-126606418D02*
X60049215Y-129193603D01*
X62636400Y-122255787D02*
X62636400Y-126606418D01*
X67950572Y-116941615D02*
X62636400Y-122255787D01*
%TO.N,Net-(J4-Pad4)*%
X63144400Y-124795787D02*
X63144400Y-131178428D01*
X63144400Y-131178428D02*
X60049215Y-134273613D01*
X67950572Y-119989615D02*
X63144400Y-124795787D01*
%TO.N,Net-(J5-Pad1)*%
X67857101Y-98272596D02*
X61132229Y-98272596D01*
X61132229Y-98272596D02*
X60049215Y-97189582D01*
%TO.N,Net-(J5-Pad2)*%
X60998211Y-101320596D02*
X60049215Y-102269592D01*
X67857101Y-101320596D02*
X60998211Y-101320596D01*
%TO.N,Net-(J5-Pad3)*%
X64876094Y-107349603D02*
X60049215Y-107349603D01*
X67857101Y-104368596D02*
X64876094Y-107349603D01*
%TO.N,Net-(J5-Pad4)*%
X67857101Y-107416596D02*
X67857101Y-107453699D01*
X67857101Y-107453699D02*
X62881187Y-112429613D01*
X62881187Y-112429613D02*
X60049215Y-112429613D01*
%TO.N,Net-(J6-Pad1)*%
X65176400Y-80472767D02*
X60049215Y-75345582D01*
X67857101Y-86080596D02*
X65176400Y-83399895D01*
X65176400Y-83399895D02*
X65176400Y-80472767D01*
%TO.N,Net-(J6-Pad2)*%
X67792596Y-89128596D02*
X60049215Y-81385215D01*
X67857101Y-89128596D02*
X67792596Y-89128596D01*
X60049215Y-81385215D02*
X60049215Y-80425592D01*
%TO.N,Net-(J6-Pad3)*%
X67857101Y-92139501D02*
X61223203Y-85505603D01*
X61223203Y-85505603D02*
X60049215Y-85505603D01*
X67857101Y-92176596D02*
X67857101Y-92139501D01*
%TO.N,Net-(J6-Pad4)*%
X67857101Y-95187501D02*
X63255213Y-90585613D01*
X63255213Y-90585613D02*
X60049215Y-90585613D01*
X67857101Y-95224596D02*
X67857101Y-95187501D01*
%TO.N,Net-(J7-Pad1)*%
X73547918Y-56256604D02*
X72380820Y-56256604D01*
X79806800Y-62515486D02*
X73547918Y-56256604D01*
%TO.N,Net-(J7-Pad2)*%
X69443600Y-60350400D02*
X67300810Y-58207610D01*
X67300810Y-58207610D02*
X67300810Y-56256604D01*
X76758800Y-62515486D02*
X74593714Y-60350400D01*
X74593714Y-60350400D02*
X69443600Y-60350400D01*
%TO.N,Net-(J7-Pad3)*%
X72053714Y-60858400D02*
X65887600Y-60858400D01*
X62220799Y-57191599D02*
X62220799Y-56256604D01*
X65887600Y-60858400D02*
X62220799Y-57191599D01*
X73710800Y-62515486D02*
X72053714Y-60858400D01*
%TO.N,Net-(J7-Pad4)*%
X69513714Y-61366400D02*
X62250585Y-61366400D01*
X70662800Y-62515486D02*
X69513714Y-61366400D01*
X62250585Y-61366400D02*
X57140789Y-56256604D01*
%TO.N,Net-(J8-Pad1)*%
X93716820Y-60797466D02*
X93716820Y-56256604D01*
X91998800Y-62515486D02*
X93716820Y-60797466D01*
%TO.N,Net-(J8-Pad2)*%
X88950800Y-56570594D02*
X88636810Y-56256604D01*
X88950800Y-62515486D02*
X88950800Y-56570594D01*
%TO.N,Net-(J8-Pad3)*%
X83556799Y-60169485D02*
X83556799Y-56256604D01*
X85902800Y-62515486D02*
X83556799Y-60169485D01*
%TO.N,Net-(J8-Pad4)*%
X82835486Y-62515486D02*
X78476789Y-58156789D01*
X78476789Y-58156789D02*
X78476789Y-56256604D01*
X82854800Y-62515486D02*
X82835486Y-62515486D01*
%TO.N,Net-(J9-Pad1)*%
X114990196Y-56256604D02*
X116068820Y-56256604D01*
X108762800Y-62515486D02*
X108762800Y-62484000D01*
X108762800Y-62484000D02*
X114990196Y-56256604D01*
%TO.N,Net-(J9-Pad2)*%
X110988810Y-57241476D02*
X110988810Y-56256604D01*
X105714800Y-62515486D02*
X110988810Y-57241476D01*
%TO.N,Net-(J9-Pad3)*%
X102666800Y-62515486D02*
X102666800Y-62484000D01*
X105908799Y-59242001D02*
X105908799Y-56256604D01*
X102666800Y-62484000D02*
X105908799Y-59242001D01*
%TO.N,Net-(J9-Pad4)*%
X99618800Y-62515486D02*
X100838000Y-61296286D01*
X100838000Y-61296286D02*
X100838000Y-56265815D01*
X100838000Y-56265815D02*
X100828789Y-56256604D01*
%TO.N,Net-(J10-Pad1)*%
X132752224Y-61417200D02*
X137912820Y-56256604D01*
X120954800Y-62515486D02*
X122053086Y-61417200D01*
X122053086Y-61417200D02*
X132752224Y-61417200D01*
%TO.N,Net-(J10-Pad2)*%
X128171734Y-60917680D02*
X132832810Y-56256604D01*
X117906800Y-62515486D02*
X119504606Y-60917680D01*
X119504606Y-60917680D02*
X128171734Y-60917680D01*
%TO.N,Net-(J10-Pad3)*%
X114858800Y-62515486D02*
X114858800Y-62484000D01*
X114858800Y-62484000D02*
X116924640Y-60418160D01*
X116924640Y-60418160D02*
X123591243Y-60418160D01*
X123591243Y-60418160D02*
X127752799Y-56256604D01*
%TO.N,Net-(J10-Pad4)*%
X111810800Y-62515486D02*
X114407646Y-59918640D01*
X114407646Y-59918640D02*
X119010753Y-59918640D01*
X119010753Y-59918640D02*
X122672789Y-56256604D01*
%TO.N,Net-(J11-Pad1)*%
X126612914Y-94589600D02*
X126695200Y-94589600D01*
X126695200Y-94589600D02*
X132597180Y-88687620D01*
X132597180Y-88687620D02*
X134928800Y-88687620D01*
%TO.N,Net-(J11-Pad2)*%
X126994810Y-91541600D02*
X134928800Y-83607610D01*
X126612914Y-91541600D02*
X126994810Y-91541600D01*
%TO.N,Net-(J11-Pad3)*%
X132952801Y-78527599D02*
X134928800Y-78527599D01*
X128210720Y-83269680D02*
X132952801Y-78527599D01*
X128210720Y-86876480D02*
X128210720Y-83269680D01*
X126612914Y-88493600D02*
X128187714Y-86918800D01*
%TO.N,Net-(J11-Pad4)*%
X126612914Y-85445600D02*
X127711200Y-84347314D01*
X127711200Y-80665189D02*
X134928800Y-73447589D01*
X127711200Y-84347314D02*
X127711200Y-80665189D01*
%TO.N,Net-(J12-Pad1)*%
X129835620Y-110531620D02*
X134928800Y-110531620D01*
X126612914Y-107289600D02*
X126612914Y-107308914D01*
X126612914Y-107308914D02*
X129835620Y-110531620D01*
%TO.N,Net-(J12-Pad2)*%
X126612914Y-104241600D02*
X127832114Y-105460800D01*
X127832114Y-105460800D02*
X134919610Y-105460800D01*
X134919610Y-105460800D02*
X134928800Y-105451610D01*
%TO.N,Net-(J12-Pad3)*%
X134106799Y-101193600D02*
X134928800Y-100371599D01*
X126612914Y-101193600D02*
X134106799Y-101193600D01*
%TO.N,Net-(J12-Pad4)*%
X126612914Y-98145600D02*
X126644400Y-98145600D01*
X126644400Y-98145600D02*
X129498411Y-95291589D01*
X129498411Y-95291589D02*
X134928800Y-95291589D01*
%TO.N,Net-(J13-Pad1)*%
X129819360Y-123196046D02*
X129819360Y-128282180D01*
X126612914Y-119989600D02*
X129819360Y-123196046D01*
X129819360Y-128282180D02*
X134928800Y-133391620D01*
%TO.N,Net-(J13-Pad2)*%
X130318880Y-123701690D02*
X134928800Y-128311610D01*
X126612914Y-116941600D02*
X126612914Y-116960914D01*
X130318880Y-120666880D02*
X130318880Y-123701690D01*
X126612914Y-116960914D02*
X130318880Y-120666880D01*
%TO.N,Net-(J13-Pad3)*%
X126612914Y-113912914D02*
X134928800Y-122228800D01*
X134928800Y-122228800D02*
X134928800Y-123231599D01*
X126612914Y-113893600D02*
X126612914Y-113912914D01*
%TO.N,Net-(J13-Pad4)*%
X126612914Y-110845600D02*
X133918903Y-118151589D01*
X133918903Y-118151589D02*
X134928800Y-118151589D01*
%TO.N,Net-(J14-Pad1)*%
X126612914Y-146411734D02*
X134928800Y-154727620D01*
X126612914Y-132689600D02*
X126612914Y-146411734D01*
%TO.N,Net-(J14-Pad2)*%
X128320800Y-143039610D02*
X134928800Y-149647610D01*
X126612914Y-129641600D02*
X128320800Y-131349486D01*
X128320800Y-131349486D02*
X128320800Y-143039610D01*
%TO.N,Net-(J14-Pad3)*%
X128820320Y-128801006D02*
X128820320Y-138459119D01*
X128820320Y-138459119D02*
X134928800Y-144567599D01*
X126612914Y-126593600D02*
X128820320Y-128801006D01*
%TO.N,Net-(J14-Pad4)*%
X129319840Y-133878629D02*
X134928800Y-139487589D01*
X129319840Y-126252526D02*
X129319840Y-133878629D01*
X126612914Y-123545600D02*
X129319840Y-126252526D01*
D19*
%TO.N,Net-(J2-Pad6)*%
X91490785Y-125069615D02*
X88028271Y-125069615D01*
X84759800Y-81889600D02*
X84759794Y-81889606D01*
X97840800Y-117449600D02*
X97840800Y-100939600D01*
X111683809Y-135356591D02*
X107942385Y-135356591D01*
X93395800Y-81889600D02*
X93395800Y-83101194D01*
X97967809Y-101066609D02*
X97840800Y-100939600D01*
X107942391Y-142976600D02*
X107942385Y-142976606D01*
X102539794Y-81889606D02*
X102539794Y-84142189D01*
X112412398Y-81889600D02*
X110159809Y-84142189D01*
X119557800Y-142976600D02*
X111810800Y-135229600D01*
X113080800Y-81889600D02*
X112412398Y-81889600D01*
X84759794Y-81889606D02*
X84759794Y-84117185D01*
X97967794Y-93446594D02*
X97840800Y-93319600D01*
X103995215Y-126466609D02*
X97967791Y-126466609D01*
X107492800Y-81254600D02*
X108127800Y-81889600D01*
X102539800Y-81889600D02*
X102539794Y-81889606D01*
X105714800Y-129133600D02*
X100380800Y-129133600D01*
X110413800Y-142976600D02*
X107942391Y-142976600D01*
X103995215Y-118846594D02*
X97967806Y-118846594D01*
X97840800Y-118973600D02*
X97840800Y-117449600D01*
X97840800Y-88747600D02*
X109397800Y-88747600D01*
X97840800Y-92303600D02*
X97840800Y-88747600D01*
X91490800Y-99923600D02*
X91490798Y-99923602D01*
X120246838Y-143665638D02*
X120246838Y-153317613D01*
X97967806Y-118846594D02*
X97840800Y-118973600D01*
X91363800Y-92303600D02*
X91363787Y-92303587D01*
X109397800Y-88747600D02*
X113080800Y-85064600D01*
X119557800Y-142976600D02*
X120246838Y-143665638D01*
X91490798Y-99923602D02*
X88442800Y-99923602D01*
X100380800Y-129133600D02*
X97840800Y-126593600D01*
X103995215Y-93446594D02*
X97967794Y-93446594D01*
X90093800Y-81889600D02*
X84759800Y-81889600D01*
X102539800Y-81889600D02*
X103174800Y-81254600D01*
X97967791Y-126466609D02*
X97840800Y-126593600D01*
X103995215Y-101066609D02*
X97967809Y-101066609D01*
X91490800Y-125069600D02*
X91490785Y-125069615D01*
X91490800Y-117449600D02*
X88028271Y-117449600D01*
X97840800Y-99923600D02*
X97840800Y-93319600D01*
X103174800Y-81254600D02*
X107492800Y-81254600D01*
X97840800Y-126593600D02*
X97840800Y-125069600D01*
X113080800Y-85064600D02*
X113080800Y-81889600D01*
X111810800Y-135229600D02*
X105714800Y-129133600D01*
X97840800Y-125069600D02*
X97840800Y-118973600D01*
X111810800Y-135229600D02*
X111683809Y-135356591D01*
X102539800Y-81889600D02*
X93395800Y-81889600D01*
X97840800Y-100939600D02*
X97840800Y-99923600D01*
X97840800Y-93319600D02*
X97840800Y-92303600D01*
X91363787Y-92303587D02*
X88442800Y-92303587D01*
X93395800Y-83101194D02*
X92379809Y-84117185D01*
D18*
%TO.N,Net-(Q1-Pad2)*%
X83362800Y-143154400D02*
X83362800Y-144615536D01*
X84683600Y-141833600D02*
X83362800Y-143154400D01*
X86848686Y-141833600D02*
X84683600Y-141833600D01*
%TO.N,Net-(Q2-Pad2)*%
X83058000Y-138785600D02*
X78790800Y-143052800D01*
X86848686Y-138785600D02*
X83058000Y-138785600D01*
X78790800Y-143052800D02*
X78790800Y-144615536D01*
%TO.N,Net-(Q3-Pad2)*%
X86848686Y-135737600D02*
X84300206Y-138286080D01*
X74218800Y-142849600D02*
X74218800Y-144615536D01*
X84300206Y-138286080D02*
X78782320Y-138286080D01*
X78782320Y-138286080D02*
X74218800Y-142849600D01*
%TO.N,Net-(R1-Pad1)*%
X102471215Y-135356591D02*
X99815905Y-135356591D01*
X99815905Y-135356591D02*
X97148914Y-132689600D01*
%TO.N,Net-(R2-Pad1)*%
X102471215Y-136626594D02*
X98037908Y-136626594D01*
X98037908Y-136626594D02*
X97148914Y-135737600D01*
%TO.N,Net-(R3-Pad1)*%
X102471215Y-137896596D02*
X98037918Y-137896596D01*
X98037918Y-137896596D02*
X97148914Y-138785600D01*
%TO.N,Net-(R4-Pad1)*%
X99815915Y-139166599D02*
X97148914Y-141833600D01*
X102471215Y-139166599D02*
X99815915Y-139166599D01*
%TO.N,Net-(R6-Pad2)*%
X82557101Y-123799613D02*
X81584787Y-123799613D01*
X80069280Y-125315120D02*
X80069280Y-127823135D01*
X81584787Y-123799613D02*
X80069280Y-125315120D01*
X80069280Y-127823135D02*
X78250800Y-129641615D01*
%TO.N,Net-(R7-Pad2)*%
X81940390Y-122529610D02*
X78250800Y-126219200D01*
X82557101Y-122529610D02*
X81940390Y-122529610D01*
X78250800Y-126219200D02*
X78250800Y-126593615D01*
%TO.N,Net-(R8-Pad2)*%
X82557101Y-121259608D02*
X80536807Y-121259608D01*
X80536807Y-121259608D02*
X78250800Y-123545615D01*
%TO.N,Net-(R9-Pad2)*%
X82557101Y-119989605D02*
X78250810Y-119989605D01*
X78250810Y-119989605D02*
X78250800Y-119989615D01*
%TO.N,Net-(R10-Pad2)*%
X80028788Y-118719603D02*
X78250800Y-116941615D01*
X82557101Y-118719603D02*
X80028788Y-118719603D01*
%TO.N,Net-(R11-Pad2)*%
X78250800Y-114115600D02*
X78250800Y-113893615D01*
X82557101Y-117449600D02*
X81584800Y-117449600D01*
X81584800Y-117449600D02*
X78250800Y-114115600D01*
%TO.N,Net-(R12-Pad2)*%
X88028271Y-118719603D02*
X86124788Y-118719603D01*
X86124788Y-118719603D02*
X78250800Y-110845615D01*
%TO.N,Net-(R13-Pad2)*%
X80314800Y-102209600D02*
X80314800Y-105259125D01*
X82600798Y-99923602D02*
X80314800Y-102209600D01*
X80314800Y-105259125D02*
X78157329Y-107416596D01*
X82971630Y-99923602D02*
X82600798Y-99923602D01*
%TO.N,Net-(R14-Pad2)*%
X79815280Y-102759920D02*
X78206604Y-104368596D01*
X82971630Y-98653600D02*
X82346800Y-98653600D01*
X79815280Y-101185120D02*
X79815280Y-102759920D01*
X78206604Y-104368596D02*
X78157329Y-104368596D01*
X82346800Y-98653600D02*
X79815280Y-101185120D01*
%TO.N,Net-(R15-Pad2)*%
X82971630Y-97383597D02*
X82094328Y-97383597D01*
X82094328Y-97383597D02*
X78157329Y-101320596D01*
%TO.N,Net-(R16-Pad2)*%
X79984604Y-98272596D02*
X78157329Y-98272596D01*
X82143605Y-96113595D02*
X79984604Y-98272596D01*
X82971630Y-96113595D02*
X82143605Y-96113595D01*
%TO.N,Net-(R17-Pad2)*%
X78487525Y-94894400D02*
X78157329Y-95224596D01*
X82920822Y-94894400D02*
X78487525Y-94894400D01*
X82971630Y-94843592D02*
X82920822Y-94894400D01*
%TO.N,Net-(R18-Pad2)*%
X82971630Y-93573590D02*
X79554323Y-93573590D01*
X79554323Y-93573590D02*
X78157329Y-92176596D01*
%TO.N,Net-(R19-Pad2)*%
X82971630Y-92303587D02*
X81332320Y-92303587D01*
X81332320Y-92303587D02*
X78157329Y-89128596D01*
%TO.N,Net-(R20-Pad2)*%
X88442800Y-93573590D02*
X86410790Y-93573590D01*
X78917796Y-86080596D02*
X78157329Y-86080596D01*
X86410790Y-93573590D02*
X78917796Y-86080596D01*
%TO.N,Net-(R21-Pad2)*%
X84759794Y-78646015D02*
X84759794Y-77698594D01*
X84759794Y-77698594D02*
X83362800Y-76301600D01*
X83362800Y-76301600D02*
X74148686Y-76301600D01*
X74148686Y-76301600D02*
X70662800Y-72815714D01*
%TO.N,Net-(R22-Pad2)*%
X86029796Y-77444596D02*
X84378800Y-75793600D01*
X86029796Y-78646015D02*
X86029796Y-77444596D01*
X76688686Y-75793600D02*
X73710800Y-72815714D01*
X84378800Y-75793600D02*
X76688686Y-75793600D01*
%TO.N,Net-(R23-Pad2)*%
X79228686Y-75285600D02*
X76758800Y-72815714D01*
X87299799Y-78646015D02*
X87299799Y-77698599D01*
X84886800Y-75285600D02*
X79228686Y-75285600D01*
X87299799Y-77698599D02*
X84886800Y-75285600D01*
%TO.N,Net-(R24-Pad2)*%
X88569801Y-78012525D02*
X85334876Y-74777600D01*
X88569801Y-78646015D02*
X88569801Y-78012525D01*
X85334876Y-74777600D02*
X81768686Y-74777600D01*
X81768686Y-74777600D02*
X79806800Y-72815714D01*
%TO.N,Net-(R25-Pad2)*%
X89839804Y-78646015D02*
X89839804Y-78012525D01*
X89839804Y-78012525D02*
X86096879Y-74269600D01*
X84308686Y-74269600D02*
X82854800Y-72815714D01*
X86096879Y-74269600D02*
X84308686Y-74269600D01*
%TO.N,Net-(R26-Pad2)*%
X91109806Y-78022720D02*
X85902800Y-72815714D01*
X91109806Y-78646015D02*
X91109806Y-78022720D01*
%TO.N,Net-(R27-Pad2)*%
X92379809Y-78646015D02*
X92379809Y-78054209D01*
X88950800Y-74625200D02*
X88950800Y-72815714D01*
X92379809Y-78054209D02*
X88950800Y-74625200D01*
%TO.N,Net-(R28-Pad2)*%
X91998800Y-76403200D02*
X91998800Y-72815714D01*
X93522800Y-80619600D02*
X93522800Y-77927200D01*
X93522800Y-77927200D02*
X91998800Y-76403200D01*
X91109806Y-84117185D02*
X91109806Y-83032594D01*
X91109806Y-83032594D02*
X93522800Y-80619600D01*
%TO.N,Net-(R29-Pad2)*%
X102539794Y-75736708D02*
X99618800Y-72815714D01*
X102539794Y-78671019D02*
X102539794Y-75736708D01*
%TO.N,Net-(R30-Pad2)*%
X103809796Y-78671019D02*
X103809796Y-73958710D01*
X103809796Y-73958710D02*
X102666800Y-72815714D01*
%TO.N,Net-(R31-Pad2)*%
X105079799Y-73450715D02*
X105714800Y-72815714D01*
X105079799Y-78671019D02*
X105079799Y-73450715D01*
%TO.N,Net-(R32-Pad2)*%
X106349801Y-75228713D02*
X108762800Y-72815714D01*
X106349801Y-78671019D02*
X106349801Y-75228713D01*
%TO.N,Net-(R33-Pad2)*%
X107619804Y-78671019D02*
X107619804Y-77006710D01*
X107619804Y-77006710D02*
X111810800Y-72815714D01*
%TO.N,Net-(R34-Pad2)*%
X114111621Y-72815714D02*
X114858800Y-72815714D01*
X108889806Y-78037529D02*
X114111621Y-72815714D01*
X108889806Y-78671019D02*
X108889806Y-78037529D01*
%TO.N,Net-(R35-Pad2)*%
X110159809Y-78671019D02*
X111102038Y-78671019D01*
X111102038Y-78671019D02*
X116957343Y-72815714D01*
X116957343Y-72815714D02*
X117906800Y-72815714D01*
%TO.N,Net-(R36-Pad2)*%
X108889806Y-84142189D02*
X108889806Y-83508699D01*
X108889806Y-83508699D02*
X119582791Y-72815714D01*
X119582791Y-72815714D02*
X120954800Y-72815714D01*
%TO.N,Net-(R37-Pad2)*%
X110150878Y-93446594D02*
X114350800Y-89246672D01*
X116312686Y-85464914D02*
X116312686Y-85445600D01*
X114350800Y-89246672D02*
X114350800Y-87426800D01*
X109466385Y-93446594D02*
X110150878Y-93446594D01*
X114350800Y-87426800D02*
X116312686Y-85464914D01*
%TO.N,Net-(R38-Pad2)*%
X110089690Y-94716596D02*
X116312686Y-88493600D01*
X109466385Y-94716596D02*
X110089690Y-94716596D01*
%TO.N,Net-(R39-Pad2)*%
X111836201Y-95986599D02*
X116281200Y-91541600D01*
X109466385Y-95986599D02*
X111836201Y-95986599D01*
X116281200Y-91541600D02*
X116312686Y-91541600D01*
%TO.N,Net-(R40-Pad2)*%
X109466385Y-97256601D02*
X113645685Y-97256601D01*
X113645685Y-97256601D02*
X116312686Y-94589600D01*
%TO.N,Net-(R41-Pad2)*%
X109466385Y-98526604D02*
X115931682Y-98526604D01*
X115931682Y-98526604D02*
X116312686Y-98145600D01*
%TO.N,Net-(R42-Pad2)*%
X114915692Y-99796606D02*
X116312686Y-101193600D01*
X109466385Y-99796606D02*
X114915692Y-99796606D01*
%TO.N,Net-(R43-Pad2)*%
X109466385Y-101066609D02*
X113137695Y-101066609D01*
X113137695Y-101066609D02*
X116312686Y-104241600D01*
%TO.N,Net-(R44-Pad2)*%
X103995215Y-99796606D02*
X105333806Y-99796606D01*
X105333806Y-99796606D02*
X112826800Y-107289600D01*
X112826800Y-107289600D02*
X116312686Y-107289600D01*
%TO.N,Net-(R45-Pad2)*%
X109466385Y-118846594D02*
X110150878Y-118846594D01*
X113639600Y-115357872D02*
X113639600Y-113518686D01*
X113639600Y-113518686D02*
X116312686Y-110845600D01*
X110150878Y-118846594D02*
X113639600Y-115357872D01*
%TO.N,Net-(R46-Pad2)*%
X116312686Y-113954788D02*
X116312686Y-113893600D01*
X110150878Y-120116596D02*
X116312686Y-113954788D01*
X109466385Y-120116596D02*
X110150878Y-120116596D01*
%TO.N,Net-(R47-Pad2)*%
X109466385Y-121386599D02*
X111867687Y-121386599D01*
X111867687Y-121386599D02*
X116312686Y-116941600D01*
%TO.N,Net-(R48-Pad2)*%
X113645685Y-122656601D02*
X116312686Y-119989600D01*
X109466385Y-122656601D02*
X113645685Y-122656601D01*
%TO.N,Net-(R49-Pad2)*%
X115931682Y-123926604D02*
X116312686Y-123545600D01*
X109466385Y-123926604D02*
X115931682Y-123926604D01*
%TO.N,Net-(R50-Pad2)*%
X116296943Y-126593600D02*
X116312686Y-126593600D01*
X114899949Y-125196606D02*
X116296943Y-126593600D01*
X109466385Y-125196606D02*
X114899949Y-125196606D01*
%TO.N,Net-(R51-Pad2)*%
X109466385Y-126466609D02*
X113137695Y-126466609D01*
X113137695Y-126466609D02*
X116312686Y-129641600D01*
%TO.N,Net-(R52-Pad2)*%
X104679708Y-125196606D02*
X112172702Y-132689600D01*
X112172702Y-132689600D02*
X116312686Y-132689600D01*
X103995215Y-125196606D02*
X104679708Y-125196606D01*
%TO.N,Net-(R5-Pad2)*%
X81889585Y-125069615D02*
X80568800Y-126390400D01*
X82557101Y-125069615D02*
X81889585Y-125069615D01*
X80568800Y-130708400D02*
X78587585Y-132689615D01*
X78587585Y-132689615D02*
X78250800Y-132689615D01*
X80568800Y-126390400D02*
X80568800Y-130708400D01*
%TO.N,Net-(U1-Pad9)*%
X103831231Y-134807947D02*
X96443800Y-127420516D01*
X106603809Y-144246609D02*
X103831231Y-141474031D01*
X88028276Y-119989600D02*
X88028271Y-119989605D01*
X90093800Y-119989600D02*
X88028276Y-119989600D01*
X103831231Y-141474031D02*
X103831231Y-134807947D01*
X107942385Y-144246609D02*
X106603809Y-144246609D01*
X96443800Y-127420516D02*
X96443800Y-119989600D01*
%TO.N,Net-(U2-Pad9)*%
X87394781Y-126339618D02*
X88028271Y-126339618D01*
X85140800Y-119862600D02*
X85140800Y-124085637D01*
X85140800Y-101193600D02*
X85140800Y-97775769D01*
X85140800Y-97775769D02*
X88072977Y-94843592D01*
X85140800Y-124085637D02*
X87394781Y-126339618D01*
X88072977Y-94843592D02*
X88442800Y-94843592D01*
%TO.N,Net-(U3-Pad9)*%
X88442800Y-101193605D02*
X87809310Y-101193605D01*
X89839804Y-84556604D02*
X89839804Y-84117185D01*
X87809310Y-101193605D02*
X86156800Y-99541095D01*
X91490800Y-86207600D02*
X89839804Y-84556604D01*
X86156800Y-99541095D02*
X86156800Y-98018600D01*
%TO.N,Net-(U4-Pad9)*%
X83489791Y-84117185D02*
X83489791Y-83032591D01*
X83489791Y-83032591D02*
X82600800Y-82143600D01*
X105968800Y-82270600D02*
X107111800Y-82270600D01*
X107111800Y-82270600D02*
X107619804Y-82778604D01*
X107619804Y-82778604D02*
X107619804Y-84142189D01*
%TO.N,Net-(U5-Pad9)*%
X101269791Y-84142189D02*
X100033211Y-84142189D01*
X103995211Y-98526600D02*
X103995215Y-98526604D01*
X100033211Y-84142189D02*
X99999800Y-84175600D01*
X102285800Y-98526600D02*
X103995211Y-98526600D01*
%TO.N,Net-(U6-Pad9)*%
X106730796Y-123926604D02*
X103995215Y-123926604D01*
X103995215Y-92176591D02*
X106603791Y-92176591D01*
X106603791Y-92176591D02*
X106857800Y-92430600D01*
X106857800Y-92430600D02*
X106857800Y-99161600D01*
X106857800Y-123799600D02*
X106730796Y-123926604D01*
%TO.N,Net-(Q4-Pad2)*%
X69646800Y-143002000D02*
X69646800Y-144615536D01*
X86848686Y-132689600D02*
X81768686Y-137769600D01*
X74879200Y-137769600D02*
X69646800Y-143002000D01*
X81768686Y-137769600D02*
X74879200Y-137769600D01*
%TD*%
M02*
