%TF.GenerationSoftware,KiCad,Pcbnew,(6.0.4)*%
%TF.CreationDate,2022-07-27T21:09:11-04:00*%
%TF.ProjectId,pcb,7063622e-6b69-4636-9164-5f7063625858,rev?*%
%TF.SameCoordinates,Original*%
%TF.FileFunction,Copper,L1,Top*%
%TF.FilePolarity,Positive*%
%FSLAX46Y46*%
G04 Gerber Fmt 4.6, Leading zero omitted, Abs format (unit mm)*
G04 Created by KiCad (PCBNEW (6.0.4)) date 2022-07-27 21:09:11*
%MOMM*%
%LPD*%
G01*
G04 APERTURE LIST*
%TA.AperFunction,ComponentPad*%
%ADD10C,1.400000*%
%TD*%
%TA.AperFunction,ComponentPad*%
%ADD11O,1.400000X1.400000*%
%TD*%
%TA.AperFunction,ComponentPad*%
%ADD12C,1.000000*%
%TD*%
%TA.AperFunction,ComponentPad*%
%ADD13R,2.600000X2.600000*%
%TD*%
%TA.AperFunction,ComponentPad*%
%ADD14C,2.600000*%
%TD*%
%TA.AperFunction,ComponentPad*%
%ADD15R,1.080000X1.080000*%
%TD*%
%TA.AperFunction,ComponentPad*%
%ADD16C,1.080000*%
%TD*%
%TA.AperFunction,ViaPad*%
%ADD17C,0.800000*%
%TD*%
%TA.AperFunction,Conductor*%
%ADD18C,0.250000*%
%TD*%
%TA.AperFunction,Conductor*%
%ADD19C,0.600000*%
%TD*%
G04 APERTURE END LIST*
D10*
%TO.P,R39,1*%
%TO.N,Net-(J11-Pad3)*%
X101414600Y-85090000D03*
D11*
%TO.P,R39,2*%
%TO.N,Net-(R39-Pad2)*%
X96334600Y-85090000D03*
%TD*%
D12*
%TO.P,U7,1,QB*%
%TO.N,Net-(R52-Pad2)*%
X91889600Y-137414000D03*
%TO.P,U7,2,QC*%
%TO.N,Net-(R51-Pad2)*%
X93159600Y-137414000D03*
%TO.P,U7,3,QD*%
%TO.N,Net-(R50-Pad2)*%
X94429600Y-137414000D03*
%TO.P,U7,4,QE*%
%TO.N,Net-(R49-Pad2)*%
X95699600Y-137414000D03*
%TO.P,U7,5,QF*%
%TO.N,Net-(R48-Pad2)*%
X96969600Y-137414000D03*
%TO.P,U7,6,QG*%
%TO.N,Net-(R47-Pad2)*%
X98239600Y-137414000D03*
%TO.P,U7,7,QH*%
%TO.N,Net-(R46-Pad2)*%
X99509600Y-137414000D03*
%TO.P,U7,8,GND*%
%TO.N,GND*%
X100779600Y-137414000D03*
%TO.P,U7,9,QH'*%
%TO.N,unconnected-(U7-Pad9)*%
X100779600Y-131826000D03*
%TO.P,U7,10,~{SRCLR}*%
%TO.N,Net-(J2-Pad6)*%
X99509600Y-131826000D03*
%TO.P,U7,11,SRCLK*%
%TO.N,Net-(J2-Pad5)*%
X98239600Y-131826000D03*
%TO.P,U7,12,RCLK*%
%TO.N,Net-(J2-Pad3)*%
X96969600Y-131826000D03*
%TO.P,U7,13,~{OE}*%
%TO.N,Net-(J2-Pad2)*%
X95699600Y-131826000D03*
%TO.P,U7,14,SER*%
%TO.N,Net-(U6-Pad9)*%
X94429600Y-131826000D03*
%TO.P,U7,15,QA*%
%TO.N,Net-(R53-Pad2)*%
X93159600Y-131826000D03*
%TO.P,U7,16,VCC*%
%TO.N,Net-(J2-Pad6)*%
X91889600Y-131826000D03*
%TD*%
D10*
%TO.P,R23,1*%
%TO.N,Net-(J7-Pad3)*%
X69850000Y-58420000D03*
D11*
%TO.P,R23,2*%
%TO.N,Net-(R23-Pad2)*%
X74930000Y-58420000D03*
%TD*%
D12*
%TO.P,U2,1,QB*%
%TO.N,Net-(R12-Pad2)*%
X79375000Y-131826000D03*
%TO.P,U2,2,QC*%
%TO.N,Net-(R11-Pad2)*%
X78105000Y-131826000D03*
%TO.P,U2,3,QD*%
%TO.N,Net-(R10-Pad2)*%
X76835000Y-131826000D03*
%TO.P,U2,4,QE*%
%TO.N,Net-(R9-Pad2)*%
X75565000Y-131826000D03*
%TO.P,U2,5,QF*%
%TO.N,Net-(R8-Pad2)*%
X74295000Y-131826000D03*
%TO.P,U2,6,QG*%
%TO.N,Net-(R7-Pad2)*%
X73025000Y-131826000D03*
%TO.P,U2,7,QH*%
%TO.N,Net-(R6-Pad2)*%
X71755000Y-131826000D03*
%TO.P,U2,8,GND*%
%TO.N,GND*%
X70485000Y-131826000D03*
%TO.P,U2,9,QH'*%
%TO.N,Net-(U2-Pad9)*%
X70485000Y-137414000D03*
%TO.P,U2,10,~{SRCLR}*%
%TO.N,Net-(J2-Pad6)*%
X71755000Y-137414000D03*
%TO.P,U2,11,SRCLK*%
%TO.N,Net-(J2-Pad5)*%
X73025000Y-137414000D03*
%TO.P,U2,12,RCLK*%
%TO.N,Net-(J2-Pad3)*%
X74295000Y-137414000D03*
%TO.P,U2,13,~{OE}*%
%TO.N,Net-(J2-Pad2)*%
X75565000Y-137414000D03*
%TO.P,U2,14,SER*%
%TO.N,Net-(U1-Pad9)*%
X76835000Y-137414000D03*
%TO.P,U2,15,QA*%
%TO.N,Net-(R13-Pad2)*%
X78105000Y-137414000D03*
%TO.P,U2,16,VCC*%
%TO.N,Net-(J2-Pad6)*%
X79375000Y-137414000D03*
%TD*%
D10*
%TO.P,R53,1*%
%TO.N,Net-(J14-Pad1)*%
X101414600Y-140970000D03*
D11*
%TO.P,R53,2*%
%TO.N,Net-(R53-Pad2)*%
X96334600Y-140970000D03*
%TD*%
D13*
%TO.P,J4,1,Pin_1*%
%TO.N,Net-(J4-Pad1)*%
X62230000Y-133045200D03*
D14*
%TO.P,J4,2,Pin_2*%
%TO.N,Net-(J4-Pad2)*%
X62230000Y-127965200D03*
%TO.P,J4,3,Pin_3*%
%TO.N,Net-(J4-Pad3)*%
X62230000Y-122885200D03*
%TO.P,J4,4,Pin_4*%
%TO.N,Net-(J4-Pad4)*%
X62230000Y-117805200D03*
%TD*%
D10*
%TO.P,R14,1*%
%TO.N,Net-(J5-Pad4)*%
X69850000Y-100330000D03*
D11*
%TO.P,R14,2*%
%TO.N,Net-(R14-Pad2)*%
X74930000Y-100330000D03*
%TD*%
D10*
%TO.P,R19,1*%
%TO.N,Net-(J6-Pad3)*%
X69850000Y-82550000D03*
D11*
%TO.P,R19,2*%
%TO.N,Net-(R19-Pad2)*%
X74930000Y-82550000D03*
%TD*%
D10*
%TO.P,R47,1*%
%TO.N,Net-(J13-Pad3)*%
X101414600Y-125730000D03*
D11*
%TO.P,R47,2*%
%TO.N,Net-(R47-Pad2)*%
X96334600Y-125730000D03*
%TD*%
D13*
%TO.P,J7,1,Pin_1*%
%TO.N,Net-(J7-Pad1)*%
X62230000Y-68275200D03*
D14*
%TO.P,J7,2,Pin_2*%
%TO.N,Net-(J7-Pad2)*%
X62230000Y-63195200D03*
%TO.P,J7,3,Pin_3*%
%TO.N,Net-(J7-Pad3)*%
X62230000Y-58115200D03*
%TO.P,J7,4,Pin_4*%
%TO.N,Net-(J7-Pad4)*%
X62230000Y-53035200D03*
%TD*%
D10*
%TO.P,R51,1*%
%TO.N,Net-(J14-Pad3)*%
X101414600Y-146050000D03*
D11*
%TO.P,R51,2*%
%TO.N,Net-(R51-Pad2)*%
X96334600Y-146050000D03*
%TD*%
D10*
%TO.P,R16,1*%
%TO.N,Net-(J5-Pad2)*%
X69850000Y-105410000D03*
D11*
%TO.P,R16,2*%
%TO.N,Net-(R16-Pad2)*%
X74930000Y-105410000D03*
%TD*%
D10*
%TO.P,R25,1*%
%TO.N,Net-(J7-Pad1)*%
X69850000Y-63500000D03*
D11*
%TO.P,R25,2*%
%TO.N,Net-(R25-Pad2)*%
X74930000Y-63500000D03*
%TD*%
D12*
%TO.P,U4,1,QB*%
%TO.N,Net-(R28-Pad2)*%
X79375000Y-46736000D03*
%TO.P,U4,2,QC*%
%TO.N,Net-(R27-Pad2)*%
X78105000Y-46736000D03*
%TO.P,U4,3,QD*%
%TO.N,Net-(R26-Pad2)*%
X76835000Y-46736000D03*
%TO.P,U4,4,QE*%
%TO.N,Net-(R25-Pad2)*%
X75565000Y-46736000D03*
%TO.P,U4,5,QF*%
%TO.N,Net-(R24-Pad2)*%
X74295000Y-46736000D03*
%TO.P,U4,6,QG*%
%TO.N,Net-(R23-Pad2)*%
X73025000Y-46736000D03*
%TO.P,U4,7,QH*%
%TO.N,Net-(R22-Pad2)*%
X71755000Y-46736000D03*
%TO.P,U4,8,GND*%
%TO.N,GND*%
X70485000Y-46736000D03*
%TO.P,U4,9,QH'*%
%TO.N,Net-(U4-Pad9)*%
X70485000Y-52324000D03*
%TO.P,U4,10,~{SRCLR}*%
%TO.N,Net-(J2-Pad6)*%
X71755000Y-52324000D03*
%TO.P,U4,11,SRCLK*%
%TO.N,Net-(J2-Pad5)*%
X73025000Y-52324000D03*
%TO.P,U4,12,RCLK*%
%TO.N,Net-(J2-Pad3)*%
X74295000Y-52324000D03*
%TO.P,U4,13,~{OE}*%
%TO.N,Net-(J2-Pad2)*%
X75565000Y-52324000D03*
%TO.P,U4,14,SER*%
%TO.N,Net-(U3-Pad9)*%
X76835000Y-52324000D03*
%TO.P,U4,15,QA*%
%TO.N,Net-(R29-Pad2)*%
X78105000Y-52324000D03*
%TO.P,U4,16,VCC*%
%TO.N,Net-(J2-Pad6)*%
X79375000Y-52324000D03*
%TD*%
D10*
%TO.P,R21,1*%
%TO.N,Net-(J6-Pad1)*%
X69850000Y-87630000D03*
D11*
%TO.P,R21,2*%
%TO.N,Net-(R21-Pad2)*%
X74930000Y-87630000D03*
%TD*%
D15*
%TO.P,Q1,1*%
%TO.N,Net-(J1-Pad1)*%
X87630000Y-114300000D03*
D16*
%TO.P,Q1,2*%
%TO.N,Net-(Q1-Pad2)*%
X88900000Y-115570000D03*
%TO.P,Q1,3*%
%TO.N,GND*%
X90170000Y-114300000D03*
%TD*%
D10*
%TO.P,R10,1*%
%TO.N,Net-(J4-Pad4)*%
X69850000Y-120650000D03*
D11*
%TO.P,R10,2*%
%TO.N,Net-(R10-Pad2)*%
X74930000Y-120650000D03*
%TD*%
D10*
%TO.P,R29,1*%
%TO.N,Net-(J8-Pad1)*%
X69850000Y-43180000D03*
D11*
%TO.P,R29,2*%
%TO.N,Net-(R29-Pad2)*%
X74930000Y-43180000D03*
%TD*%
D10*
%TO.P,R30,1*%
%TO.N,Net-(J9-Pad4)*%
X101600000Y-42926000D03*
D11*
%TO.P,R30,2*%
%TO.N,Net-(R30-Pad2)*%
X96520000Y-42926000D03*
%TD*%
D10*
%TO.P,R20,1*%
%TO.N,Net-(J6-Pad2)*%
X69850000Y-85090000D03*
D11*
%TO.P,R20,2*%
%TO.N,Net-(R20-Pad2)*%
X74930000Y-85090000D03*
%TD*%
D10*
%TO.P,R50,1*%
%TO.N,Net-(J14-Pad4)*%
X101414600Y-148590000D03*
D11*
%TO.P,R50,2*%
%TO.N,Net-(R50-Pad2)*%
X96334600Y-148590000D03*
%TD*%
D10*
%TO.P,R49,1*%
%TO.N,Net-(J13-Pad1)*%
X101414600Y-120650000D03*
D11*
%TO.P,R49,2*%
%TO.N,Net-(R49-Pad2)*%
X96334600Y-120650000D03*
%TD*%
D10*
%TO.P,R24,1*%
%TO.N,Net-(J7-Pad2)*%
X69850000Y-60960000D03*
D11*
%TO.P,R24,2*%
%TO.N,Net-(R24-Pad2)*%
X74930000Y-60960000D03*
%TD*%
D10*
%TO.P,R28,1*%
%TO.N,Net-(J8-Pad2)*%
X69850000Y-40640000D03*
D11*
%TO.P,R28,2*%
%TO.N,Net-(R28-Pad2)*%
X74930000Y-40640000D03*
%TD*%
D12*
%TO.P,U6,1,QB*%
%TO.N,Net-(R44-Pad2)*%
X91889600Y-96774000D03*
%TO.P,U6,2,QC*%
%TO.N,Net-(R43-Pad2)*%
X93159600Y-96774000D03*
%TO.P,U6,3,QD*%
%TO.N,Net-(R42-Pad2)*%
X94429600Y-96774000D03*
%TO.P,U6,4,QE*%
%TO.N,Net-(R41-Pad2)*%
X95699600Y-96774000D03*
%TO.P,U6,5,QF*%
%TO.N,Net-(R40-Pad2)*%
X96969600Y-96774000D03*
%TO.P,U6,6,QG*%
%TO.N,Net-(R39-Pad2)*%
X98239600Y-96774000D03*
%TO.P,U6,7,QH*%
%TO.N,Net-(R38-Pad2)*%
X99509600Y-96774000D03*
%TO.P,U6,8,GND*%
%TO.N,GND*%
X100779600Y-96774000D03*
%TO.P,U6,9,QH'*%
%TO.N,Net-(U6-Pad9)*%
X100779600Y-91186000D03*
%TO.P,U6,10,~{SRCLR}*%
%TO.N,Net-(J2-Pad6)*%
X99509600Y-91186000D03*
%TO.P,U6,11,SRCLK*%
%TO.N,Net-(J2-Pad5)*%
X98239600Y-91186000D03*
%TO.P,U6,12,RCLK*%
%TO.N,Net-(J2-Pad3)*%
X96969600Y-91186000D03*
%TO.P,U6,13,~{OE}*%
%TO.N,Net-(J2-Pad2)*%
X95699600Y-91186000D03*
%TO.P,U6,14,SER*%
%TO.N,Net-(U5-Pad9)*%
X94429600Y-91186000D03*
%TO.P,U6,15,QA*%
%TO.N,Net-(R45-Pad2)*%
X93159600Y-91186000D03*
%TO.P,U6,16,VCC*%
%TO.N,Net-(J2-Pad6)*%
X91889600Y-91186000D03*
%TD*%
D13*
%TO.P,J9,1,Pin_1*%
%TO.N,Net-(J9-Pad1)*%
X108864000Y-31750000D03*
D14*
%TO.P,J9,2,Pin_2*%
%TO.N,Net-(J9-Pad2)*%
X108864000Y-36830000D03*
%TO.P,J9,3,Pin_3*%
%TO.N,Net-(J9-Pad3)*%
X108864000Y-41910000D03*
%TO.P,J9,4,Pin_4*%
%TO.N,Net-(J9-Pad4)*%
X108864000Y-46990000D03*
%TD*%
D13*
%TO.P,J14,1,Pin_1*%
%TO.N,Net-(J14-Pad1)*%
X108915000Y-139700000D03*
D14*
%TO.P,J14,2,Pin_2*%
%TO.N,Net-(J14-Pad2)*%
X108915000Y-144780000D03*
%TO.P,J14,3,Pin_3*%
%TO.N,Net-(J14-Pad3)*%
X108915000Y-149860000D03*
%TO.P,J14,4,Pin_4*%
%TO.N,Net-(J14-Pad4)*%
X108915000Y-154940000D03*
%TD*%
D13*
%TO.P,J11,1,Pin_1*%
%TO.N,Net-(J11-Pad1)*%
X108864000Y-74930000D03*
D14*
%TO.P,J11,2,Pin_2*%
%TO.N,Net-(J11-Pad2)*%
X108864000Y-80010000D03*
%TO.P,J11,3,Pin_3*%
%TO.N,Net-(J11-Pad3)*%
X108864000Y-85090000D03*
%TO.P,J11,4,Pin_4*%
%TO.N,Net-(J11-Pad4)*%
X108864000Y-90170000D03*
%TD*%
D13*
%TO.P,J1,1,Pin_1*%
%TO.N,Net-(J1-Pad1)*%
X78740000Y-28245000D03*
D14*
%TO.P,J1,2,Pin_2*%
%TO.N,Net-(J1-Pad2)*%
X83820000Y-28245000D03*
%TO.P,J1,3,Pin_3*%
%TO.N,Net-(J1-Pad3)*%
X88900000Y-28245000D03*
%TO.P,J1,4,Pin_4*%
%TO.N,Net-(J1-Pad4)*%
X93980000Y-28245000D03*
%TD*%
D10*
%TO.P,R45,1*%
%TO.N,Net-(J12-Pad1)*%
X101320600Y-100330000D03*
D11*
%TO.P,R45,2*%
%TO.N,Net-(R45-Pad2)*%
X96240600Y-100330000D03*
%TD*%
D13*
%TO.P,J12,1,Pin_1*%
%TO.N,Net-(J12-Pad1)*%
X108864000Y-96520000D03*
D14*
%TO.P,J12,2,Pin_2*%
%TO.N,Net-(J12-Pad2)*%
X108864000Y-101600000D03*
%TO.P,J12,3,Pin_3*%
%TO.N,Net-(J12-Pad3)*%
X108864000Y-106680000D03*
%TO.P,J12,4,Pin_4*%
%TO.N,Net-(J12-Pad4)*%
X108864000Y-111760000D03*
%TD*%
D10*
%TO.P,R31,1*%
%TO.N,Net-(J9-Pad3)*%
X101600000Y-40640000D03*
D11*
%TO.P,R31,2*%
%TO.N,Net-(R31-Pad2)*%
X96520000Y-40640000D03*
%TD*%
D15*
%TO.P,Q2,1*%
%TO.N,Net-(J1-Pad2)*%
X81026000Y-114300000D03*
D16*
%TO.P,Q2,2*%
%TO.N,Net-(Q2-Pad2)*%
X82296000Y-115570000D03*
%TO.P,Q2,3*%
%TO.N,GND*%
X83566000Y-114300000D03*
%TD*%
D10*
%TO.P,R42,1*%
%TO.N,Net-(J12-Pad4)*%
X101414600Y-107950000D03*
D11*
%TO.P,R42,2*%
%TO.N,Net-(R42-Pad2)*%
X96334600Y-107950000D03*
%TD*%
D10*
%TO.P,R26,1*%
%TO.N,Net-(J8-Pad4)*%
X69850000Y-35560000D03*
D11*
%TO.P,R26,2*%
%TO.N,Net-(R26-Pad2)*%
X74930000Y-35560000D03*
%TD*%
D10*
%TO.P,R44,1*%
%TO.N,Net-(J12-Pad2)*%
X101320600Y-102870000D03*
D11*
%TO.P,R44,2*%
%TO.N,Net-(R44-Pad2)*%
X96240600Y-102870000D03*
%TD*%
D13*
%TO.P,J8,1,Pin_1*%
%TO.N,Net-(J8-Pad1)*%
X62179000Y-46685200D03*
D14*
%TO.P,J8,2,Pin_2*%
%TO.N,Net-(J8-Pad2)*%
X62179000Y-41605200D03*
%TO.P,J8,3,Pin_3*%
%TO.N,Net-(J8-Pad3)*%
X62179000Y-36525200D03*
%TO.P,J8,4,Pin_4*%
%TO.N,Net-(J8-Pad4)*%
X62179000Y-31445200D03*
%TD*%
D10*
%TO.P,R4,1*%
%TO.N,Net-(R4-Pad1)*%
X83820000Y-87630000D03*
D11*
%TO.P,R4,2*%
%TO.N,Net-(Q4-Pad2)*%
X83820000Y-82550000D03*
%TD*%
D10*
%TO.P,R35,1*%
%TO.N,Net-(J10-Pad3)*%
X101600000Y-60960000D03*
D11*
%TO.P,R35,2*%
%TO.N,Net-(R35-Pad2)*%
X96520000Y-60960000D03*
%TD*%
D10*
%TO.P,R43,1*%
%TO.N,Net-(J12-Pad3)*%
X101414600Y-105410000D03*
D11*
%TO.P,R43,2*%
%TO.N,Net-(R43-Pad2)*%
X96334600Y-105410000D03*
%TD*%
D10*
%TO.P,R48,1*%
%TO.N,Net-(J13-Pad2)*%
X101414600Y-123190000D03*
D11*
%TO.P,R48,2*%
%TO.N,Net-(R48-Pad2)*%
X96334600Y-123190000D03*
%TD*%
D15*
%TO.P,Q4,1*%
%TO.N,Net-(J1-Pad4)*%
X81026000Y-73660000D03*
D16*
%TO.P,Q4,2*%
%TO.N,Net-(Q4-Pad2)*%
X82296000Y-74930000D03*
%TO.P,Q4,3*%
%TO.N,GND*%
X83566000Y-73660000D03*
%TD*%
D10*
%TO.P,R40,1*%
%TO.N,Net-(J11-Pad2)*%
X101414600Y-82550000D03*
D11*
%TO.P,R40,2*%
%TO.N,Net-(R40-Pad2)*%
X96334600Y-82550000D03*
%TD*%
D10*
%TO.P,R9,1*%
%TO.N,Net-(J3-Pad1)*%
X69850000Y-148590000D03*
D11*
%TO.P,R9,2*%
%TO.N,Net-(R9-Pad2)*%
X74930000Y-148590000D03*
%TD*%
D10*
%TO.P,R34,1*%
%TO.N,Net-(J10-Pad4)*%
X101600000Y-63500000D03*
D11*
%TO.P,R34,2*%
%TO.N,Net-(R34-Pad2)*%
X96520000Y-63500000D03*
%TD*%
D13*
%TO.P,J13,1,Pin_1*%
%TO.N,Net-(J13-Pad1)*%
X108915000Y-118110000D03*
D14*
%TO.P,J13,2,Pin_2*%
%TO.N,Net-(J13-Pad2)*%
X108915000Y-123190000D03*
%TO.P,J13,3,Pin_3*%
%TO.N,Net-(J13-Pad3)*%
X108915000Y-128270000D03*
%TO.P,J13,4,Pin_4*%
%TO.N,Net-(J13-Pad4)*%
X108915000Y-133350000D03*
%TD*%
D10*
%TO.P,R3,1*%
%TO.N,Net-(R3-Pad1)*%
X86868000Y-87630000D03*
D11*
%TO.P,R3,2*%
%TO.N,Net-(Q3-Pad2)*%
X86868000Y-82550000D03*
%TD*%
D10*
%TO.P,R7,1*%
%TO.N,Net-(J3-Pad3)*%
X69850000Y-143510000D03*
D11*
%TO.P,R7,2*%
%TO.N,Net-(R7-Pad2)*%
X74930000Y-143510000D03*
%TD*%
D10*
%TO.P,R12,1*%
%TO.N,Net-(J4-Pad2)*%
X69850000Y-125730000D03*
D11*
%TO.P,R12,2*%
%TO.N,Net-(R12-Pad2)*%
X74930000Y-125730000D03*
%TD*%
D10*
%TO.P,R2,1*%
%TO.N,Net-(R2-Pad1)*%
X84582000Y-128270000D03*
D11*
%TO.P,R2,2*%
%TO.N,Net-(Q2-Pad2)*%
X84582000Y-123190000D03*
%TD*%
D12*
%TO.P,U1,1,QB*%
%TO.N,Net-(R2-Pad1)*%
X82804000Y-138209000D03*
%TO.P,U1,2,QC*%
%TO.N,Net-(R3-Pad1)*%
X82804000Y-139479000D03*
%TO.P,U1,3,QD*%
%TO.N,Net-(R4-Pad1)*%
X82804000Y-140749000D03*
%TO.P,U1,4,QE*%
%TO.N,unconnected-(U1-Pad4)*%
X82804000Y-142019000D03*
%TO.P,U1,5,QF*%
%TO.N,unconnected-(U1-Pad5)*%
X82804000Y-143289000D03*
%TO.P,U1,6,QG*%
%TO.N,unconnected-(U1-Pad6)*%
X82804000Y-144559000D03*
%TO.P,U1,7,QH*%
%TO.N,unconnected-(U1-Pad7)*%
X82804000Y-145829000D03*
%TO.P,U1,8,GND*%
%TO.N,GND*%
X82804000Y-147099000D03*
%TO.P,U1,9,QH'*%
%TO.N,Net-(U1-Pad9)*%
X88392000Y-147099000D03*
%TO.P,U1,10,~{SRCLR}*%
%TO.N,Net-(J2-Pad6)*%
X88392000Y-145829000D03*
%TO.P,U1,11,SRCLK*%
%TO.N,Net-(J2-Pad5)*%
X88392000Y-144559000D03*
%TO.P,U1,12,RCLK*%
%TO.N,Net-(J2-Pad3)*%
X88392000Y-143289000D03*
%TO.P,U1,13,~{OE}*%
%TO.N,Net-(J2-Pad2)*%
X88392000Y-142019000D03*
%TO.P,U1,14,SER*%
%TO.N,Net-(J2-Pad4)*%
X88392000Y-140749000D03*
%TO.P,U1,15,QA*%
%TO.N,Net-(R1-Pad1)*%
X88392000Y-139479000D03*
%TO.P,U1,16,VCC*%
%TO.N,Net-(J2-Pad6)*%
X88392000Y-138209000D03*
%TD*%
D10*
%TO.P,R36,1*%
%TO.N,Net-(J10-Pad2)*%
X101600000Y-58420000D03*
D11*
%TO.P,R36,2*%
%TO.N,Net-(R36-Pad2)*%
X96520000Y-58420000D03*
%TD*%
D10*
%TO.P,R11,1*%
%TO.N,Net-(J4-Pad3)*%
X69850000Y-123190000D03*
D11*
%TO.P,R11,2*%
%TO.N,Net-(R11-Pad2)*%
X74930000Y-123190000D03*
%TD*%
D10*
%TO.P,R38,1*%
%TO.N,Net-(J11-Pad4)*%
X101320600Y-87558000D03*
D11*
%TO.P,R38,2*%
%TO.N,Net-(R38-Pad2)*%
X96240600Y-87558000D03*
%TD*%
D10*
%TO.P,R32,1*%
%TO.N,Net-(J9-Pad2)*%
X101600000Y-38100000D03*
D11*
%TO.P,R32,2*%
%TO.N,Net-(R32-Pad2)*%
X96520000Y-38100000D03*
%TD*%
D12*
%TO.P,U5,1,QB*%
%TO.N,Net-(R36-Pad2)*%
X92075000Y-52324000D03*
%TO.P,U5,2,QC*%
%TO.N,Net-(R35-Pad2)*%
X93345000Y-52324000D03*
%TO.P,U5,3,QD*%
%TO.N,Net-(R34-Pad2)*%
X94615000Y-52324000D03*
%TO.P,U5,4,QE*%
%TO.N,Net-(R33-Pad2)*%
X95885000Y-52324000D03*
%TO.P,U5,5,QF*%
%TO.N,Net-(R32-Pad2)*%
X97155000Y-52324000D03*
%TO.P,U5,6,QG*%
%TO.N,Net-(R31-Pad2)*%
X98425000Y-52324000D03*
%TO.P,U5,7,QH*%
%TO.N,Net-(R30-Pad2)*%
X99695000Y-52324000D03*
%TO.P,U5,8,GND*%
%TO.N,GND*%
X100965000Y-52324000D03*
%TO.P,U5,9,QH'*%
%TO.N,Net-(U5-Pad9)*%
X100965000Y-46736000D03*
%TO.P,U5,10,~{SRCLR}*%
%TO.N,Net-(J2-Pad6)*%
X99695000Y-46736000D03*
%TO.P,U5,11,SRCLK*%
%TO.N,Net-(J2-Pad5)*%
X98425000Y-46736000D03*
%TO.P,U5,12,RCLK*%
%TO.N,Net-(J2-Pad3)*%
X97155000Y-46736000D03*
%TO.P,U5,13,~{OE}*%
%TO.N,Net-(J2-Pad2)*%
X95885000Y-46736000D03*
%TO.P,U5,14,SER*%
%TO.N,Net-(U4-Pad9)*%
X94615000Y-46736000D03*
%TO.P,U5,15,QA*%
%TO.N,Net-(R37-Pad2)*%
X93345000Y-46736000D03*
%TO.P,U5,16,VCC*%
%TO.N,Net-(J2-Pad6)*%
X92075000Y-46736000D03*
%TD*%
D10*
%TO.P,R8,1*%
%TO.N,Net-(J3-Pad2)*%
X69850000Y-146050000D03*
D11*
%TO.P,R8,2*%
%TO.N,Net-(R8-Pad2)*%
X74930000Y-146050000D03*
%TD*%
D10*
%TO.P,R17,1*%
%TO.N,Net-(J5-Pad1)*%
X69850000Y-107950000D03*
D11*
%TO.P,R17,2*%
%TO.N,Net-(R17-Pad2)*%
X74930000Y-107950000D03*
%TD*%
D10*
%TO.P,R1,1*%
%TO.N,Net-(R1-Pad1)*%
X87630000Y-128270000D03*
D11*
%TO.P,R1,2*%
%TO.N,Net-(Q1-Pad2)*%
X87630000Y-123190000D03*
%TD*%
D15*
%TO.P,Q3,1*%
%TO.N,Net-(J1-Pad3)*%
X87630000Y-73660000D03*
D16*
%TO.P,Q3,2*%
%TO.N,Net-(Q3-Pad2)*%
X88900000Y-74930000D03*
%TO.P,Q3,3*%
%TO.N,GND*%
X90170000Y-73660000D03*
%TD*%
D10*
%TO.P,R37,1*%
%TO.N,Net-(J10-Pad1)*%
X101627400Y-55880000D03*
D11*
%TO.P,R37,2*%
%TO.N,Net-(R37-Pad2)*%
X96547400Y-55880000D03*
%TD*%
D10*
%TO.P,R6,1*%
%TO.N,Net-(J3-Pad4)*%
X69850000Y-140970000D03*
D11*
%TO.P,R6,2*%
%TO.N,Net-(R6-Pad2)*%
X74930000Y-140970000D03*
%TD*%
D10*
%TO.P,R46,1*%
%TO.N,Net-(J13-Pad4)*%
X101414600Y-128270000D03*
D11*
%TO.P,R46,2*%
%TO.N,Net-(R46-Pad2)*%
X96334600Y-128270000D03*
%TD*%
D13*
%TO.P,J2,1,Pin_1*%
%TO.N,GND*%
X97790000Y-156464000D03*
D14*
%TO.P,J2,2,Pin_2*%
%TO.N,Net-(J2-Pad2)*%
X92790000Y-156464000D03*
%TO.P,J2,3,Pin_3*%
%TO.N,Net-(J2-Pad3)*%
X87790000Y-156464000D03*
%TO.P,J2,4,Pin_4*%
%TO.N,Net-(J2-Pad4)*%
X82790000Y-156464000D03*
%TO.P,J2,5,Pin_5*%
%TO.N,Net-(J2-Pad5)*%
X77790000Y-156464000D03*
%TO.P,J2,6,Pin_6*%
%TO.N,Net-(J2-Pad6)*%
X72790000Y-156464000D03*
%TD*%
D10*
%TO.P,R52,1*%
%TO.N,Net-(J14-Pad2)*%
X101414600Y-143510000D03*
D11*
%TO.P,R52,2*%
%TO.N,Net-(R52-Pad2)*%
X96334600Y-143510000D03*
%TD*%
D10*
%TO.P,R13,1*%
%TO.N,Net-(J4-Pad1)*%
X69850000Y-128270000D03*
D11*
%TO.P,R13,2*%
%TO.N,Net-(R13-Pad2)*%
X74930000Y-128270000D03*
%TD*%
D10*
%TO.P,R15,1*%
%TO.N,Net-(J5-Pad3)*%
X69850000Y-102870000D03*
D11*
%TO.P,R15,2*%
%TO.N,Net-(R15-Pad2)*%
X74930000Y-102870000D03*
%TD*%
D10*
%TO.P,R27,1*%
%TO.N,Net-(J8-Pad3)*%
X69850000Y-38100000D03*
D11*
%TO.P,R27,2*%
%TO.N,Net-(R27-Pad2)*%
X74930000Y-38100000D03*
%TD*%
D13*
%TO.P,J10,1,Pin_1*%
%TO.N,Net-(J10-Pad1)*%
X108864000Y-53340000D03*
D14*
%TO.P,J10,2,Pin_2*%
%TO.N,Net-(J10-Pad2)*%
X108864000Y-58420000D03*
%TO.P,J10,3,Pin_3*%
%TO.N,Net-(J10-Pad3)*%
X108864000Y-63500000D03*
%TO.P,J10,4,Pin_4*%
%TO.N,Net-(J10-Pad4)*%
X108864000Y-68580000D03*
%TD*%
D10*
%TO.P,R41,1*%
%TO.N,Net-(J11-Pad1)*%
X101414600Y-80010000D03*
D11*
%TO.P,R41,2*%
%TO.N,Net-(R41-Pad2)*%
X96334600Y-80010000D03*
%TD*%
D10*
%TO.P,R18,1*%
%TO.N,Net-(J6-Pad4)*%
X69850000Y-80010000D03*
D11*
%TO.P,R18,2*%
%TO.N,Net-(R18-Pad2)*%
X74930000Y-80010000D03*
%TD*%
D12*
%TO.P,U3,1,QB*%
%TO.N,Net-(R20-Pad2)*%
X79375000Y-91186000D03*
%TO.P,U3,2,QC*%
%TO.N,Net-(R19-Pad2)*%
X78105000Y-91186000D03*
%TO.P,U3,3,QD*%
%TO.N,Net-(R18-Pad2)*%
X76835000Y-91186000D03*
%TO.P,U3,4,QE*%
%TO.N,Net-(R17-Pad2)*%
X75565000Y-91186000D03*
%TO.P,U3,5,QF*%
%TO.N,Net-(R16-Pad2)*%
X74295000Y-91186000D03*
%TO.P,U3,6,QG*%
%TO.N,Net-(R15-Pad2)*%
X73025000Y-91186000D03*
%TO.P,U3,7,QH*%
%TO.N,Net-(R14-Pad2)*%
X71755000Y-91186000D03*
%TO.P,U3,8,GND*%
%TO.N,GND*%
X70485000Y-91186000D03*
%TO.P,U3,9,QH'*%
%TO.N,Net-(U3-Pad9)*%
X70485000Y-96774000D03*
%TO.P,U3,10,~{SRCLR}*%
%TO.N,Net-(J2-Pad6)*%
X71755000Y-96774000D03*
%TO.P,U3,11,SRCLK*%
%TO.N,Net-(J2-Pad5)*%
X73025000Y-96774000D03*
%TO.P,U3,12,RCLK*%
%TO.N,Net-(J2-Pad3)*%
X74295000Y-96774000D03*
%TO.P,U3,13,~{OE}*%
%TO.N,Net-(J2-Pad2)*%
X75565000Y-96774000D03*
%TO.P,U3,14,SER*%
%TO.N,Net-(U2-Pad9)*%
X76835000Y-96774000D03*
%TO.P,U3,15,QA*%
%TO.N,Net-(R21-Pad2)*%
X78105000Y-96774000D03*
%TO.P,U3,16,VCC*%
%TO.N,Net-(J2-Pad6)*%
X79375000Y-96774000D03*
%TD*%
D10*
%TO.P,R33,1*%
%TO.N,Net-(J9-Pad1)*%
X101600000Y-35560000D03*
D11*
%TO.P,R33,2*%
%TO.N,Net-(R33-Pad2)*%
X96520000Y-35560000D03*
%TD*%
D13*
%TO.P,J6,1,Pin_1*%
%TO.N,Net-(J6-Pad1)*%
X62230000Y-89865200D03*
D14*
%TO.P,J6,2,Pin_2*%
%TO.N,Net-(J6-Pad2)*%
X62230000Y-84785200D03*
%TO.P,J6,3,Pin_3*%
%TO.N,Net-(J6-Pad3)*%
X62230000Y-79705200D03*
%TO.P,J6,4,Pin_4*%
%TO.N,Net-(J6-Pad4)*%
X62230000Y-74625200D03*
%TD*%
D13*
%TO.P,J5,1,Pin_1*%
%TO.N,Net-(J5-Pad1)*%
X62230000Y-111455200D03*
D14*
%TO.P,J5,2,Pin_2*%
%TO.N,Net-(J5-Pad2)*%
X62230000Y-106375200D03*
%TO.P,J5,3,Pin_3*%
%TO.N,Net-(J5-Pad3)*%
X62230000Y-101295200D03*
%TO.P,J5,4,Pin_4*%
%TO.N,Net-(J5-Pad4)*%
X62230000Y-96215200D03*
%TD*%
D10*
%TO.P,R22,1*%
%TO.N,Net-(J7-Pad4)*%
X69850000Y-55880000D03*
D11*
%TO.P,R22,2*%
%TO.N,Net-(R22-Pad2)*%
X74930000Y-55880000D03*
%TD*%
D13*
%TO.P,J3,1,Pin_1*%
%TO.N,Net-(J3-Pad1)*%
X62230000Y-154635200D03*
D14*
%TO.P,J3,2,Pin_2*%
%TO.N,Net-(J3-Pad2)*%
X62230000Y-149555200D03*
%TO.P,J3,3,Pin_3*%
%TO.N,Net-(J3-Pad3)*%
X62230000Y-144475200D03*
%TO.P,J3,4,Pin_4*%
%TO.N,Net-(J3-Pad4)*%
X62230000Y-139395200D03*
%TD*%
D17*
%TO.N,Net-(R15-Pad2)*%
X72136000Y-100457000D03*
%TO.N,Net-(R19-Pad2)*%
X77470000Y-86106000D03*
X77406500Y-83248500D03*
%TO.N,Net-(R21-Pad2)*%
X80391000Y-87884000D03*
X76454000Y-87884000D03*
%TO.N,Net-(R45-Pad2)*%
X92964000Y-89027000D03*
X96012000Y-89027000D03*
%TO.N,Net-(J2-Pad2)*%
X93218000Y-72390000D03*
%TO.N,Net-(R38-Pad2)*%
X100203000Y-93599000D03*
%TO.N,Net-(U6-Pad9)*%
X102743000Y-94107000D03*
%TO.N,Net-(J1-Pad1)*%
X88092989Y-77724000D03*
X84836000Y-77724000D03*
%TO.N,Net-(J1-Pad2)*%
X85090000Y-80391000D03*
X82423000Y-80391000D03*
%TO.N,Net-(J1-Pad4)*%
X83439000Y-70358000D03*
X88519000Y-68707000D03*
%TO.N,GND*%
X104140000Y-131826000D03*
X82804000Y-150876000D03*
X83820000Y-90043000D03*
X79279020Y-130014707D03*
X104140000Y-116078000D03*
X104267000Y-96774000D03*
X90932000Y-98298000D03*
X83820000Y-97790000D03*
X93091000Y-129794000D03*
X88392000Y-97790000D03*
X104140000Y-54102000D03*
X96012000Y-98480989D03*
%TO.N,Net-(J2-Pad2)*%
X90424000Y-49530000D03*
X90805000Y-99695000D03*
X88392000Y-96139000D03*
X90932000Y-131018196D03*
X77978000Y-140716000D03*
X92456000Y-74930000D03*
X80391000Y-54470500D03*
X90043000Y-93472000D03*
X90043000Y-96012000D03*
X95758000Y-48895000D03*
X90932000Y-129032000D03*
X91440000Y-141986000D03*
%TO.N,Net-(J2-Pad3)*%
X89662000Y-131064000D03*
X93980000Y-133858000D03*
X91667330Y-72005942D03*
X89662000Y-129032000D03*
X90207500Y-148336000D03*
X89043497Y-99060000D03*
X93980000Y-92456000D03*
X90297000Y-75311000D03*
X77978000Y-141986000D03*
X89789000Y-48006000D03*
X88773000Y-93218000D03*
%TO.N,Net-(J2-Pad5)*%
X89027000Y-133223000D03*
X80264000Y-131064000D03*
X92964000Y-134493000D03*
X85090000Y-152400000D03*
X81407000Y-94488000D03*
X80264000Y-129032000D03*
X98171000Y-94361000D03*
X79121000Y-94488000D03*
X91059000Y-94488000D03*
X80264000Y-138684000D03*
X74549000Y-49911000D03*
X82931000Y-152400000D03*
X82231457Y-48195457D03*
X83058000Y-132080000D03*
X88392000Y-94488000D03*
X84836000Y-132969000D03*
%TO.N,Net-(J2-Pad6)*%
X91706500Y-134747000D03*
X67691000Y-132588000D03*
X65024000Y-95377000D03*
X81788000Y-46609000D03*
X83566000Y-48133000D03*
X84836000Y-134620000D03*
X79248000Y-134620000D03*
X89408000Y-134620000D03*
X73152000Y-135636000D03*
X66040000Y-48641000D03*
X86868000Y-138176000D03*
X86868000Y-142748000D03*
%TO.N,Net-(R1-Pad1)*%
X87884000Y-135636000D03*
%TO.N,Net-(R2-Pad1)*%
X83947000Y-131318000D03*
%TO.N,Net-(R3-Pad1)*%
X82550000Y-133604000D03*
X86614000Y-119761000D03*
X83439000Y-121920000D03*
X82804000Y-129032000D03*
%TO.N,Net-(R4-Pad1)*%
X81280000Y-133604000D03*
X83439000Y-120269000D03*
X81534000Y-129032000D03*
X85585500Y-119379673D03*
%TO.N,Net-(R6-Pad2)*%
X73152000Y-140208000D03*
X66929000Y-139700000D03*
%TO.N,Net-(R7-Pad2)*%
X72771092Y-138937481D03*
X67806572Y-138925500D03*
%TO.N,Net-(R28-Pad2)*%
X76835000Y-44069000D03*
X78867000Y-42672000D03*
%TO.N,Net-(R46-Pad2)*%
X103124000Y-139446000D03*
X103759000Y-130048000D03*
%TO.N,Net-(R47-Pad2)*%
X103505000Y-140589000D03*
X104648000Y-129159000D03*
%TO.N,Net-(R53-Pad2)*%
X99949000Y-140462000D03*
%TO.N,Net-(U1-Pad9)*%
X87376000Y-149352000D03*
X77978000Y-139331500D03*
X76835000Y-145669000D03*
X79248000Y-149352000D03*
%TO.N,Net-(U2-Pad9)*%
X68561773Y-133841859D03*
%TO.N,Net-(U3-Pad9)*%
X74041000Y-94488000D03*
X68834000Y-92075000D03*
%TO.N,Net-(U4-Pad9)*%
X94615000Y-50038000D03*
%TO.N,Net-(U5-Pad9)*%
X94488000Y-72517000D03*
X102870000Y-52578000D03*
%TO.N,Net-(U6-Pad9)*%
X92202000Y-128905000D03*
%TD*%
D18*
%TO.N,Net-(R43-Pad2)*%
X93159600Y-98768589D02*
X93159600Y-96774000D01*
X97536000Y-104208600D02*
X97536000Y-102616000D01*
X96118011Y-101727000D02*
X93159600Y-98768589D01*
X96334600Y-105410000D02*
X97536000Y-104208600D01*
X97536000Y-102616000D02*
X96647000Y-101727000D01*
X96647000Y-101727000D02*
X96118011Y-101727000D01*
%TO.N,Net-(R42-Pad2)*%
X94937489Y-99255489D02*
X94429600Y-98747600D01*
X96685678Y-99255489D02*
X94937489Y-99255489D01*
X98171000Y-106113600D02*
X98171000Y-100740811D01*
X98171000Y-100740811D02*
X96685678Y-99255489D01*
X96334600Y-107950000D02*
X98171000Y-106113600D01*
X94429600Y-98747600D02*
X94429600Y-96774000D01*
D19*
%TO.N,Net-(J1-Pad2)*%
X83820000Y-32194308D02*
X83820000Y-28245000D01*
X86106000Y-34480308D02*
X83820000Y-32194308D01*
X86106000Y-79375000D02*
X86106000Y-34480308D01*
X85090000Y-80391000D02*
X86106000Y-79375000D01*
D18*
%TO.N,Net-(J2-Pad2)*%
X77978000Y-140434553D02*
X75565000Y-138021553D01*
X75565000Y-138021553D02*
X75565000Y-137414000D01*
X77978000Y-140716000D02*
X77978000Y-140434553D01*
%TO.N,Net-(J2-Pad3)*%
X76699520Y-140445014D02*
X74295000Y-138040494D01*
X76699520Y-140707520D02*
X76699520Y-140445014D01*
X74295000Y-138040494D02*
X74295000Y-137414000D01*
X77978000Y-141986000D02*
X76699520Y-140707520D01*
%TO.N,Net-(U1-Pad9)*%
X77978000Y-139331500D02*
X76835000Y-138188500D01*
X76835000Y-138188500D02*
X76835000Y-137414000D01*
%TO.N,Net-(R17-Pad2)*%
X68453000Y-96393000D02*
X69908480Y-94937520D01*
X68453000Y-97028000D02*
X68453000Y-96393000D01*
X71813480Y-94937520D02*
X75565000Y-91186000D01*
X75168794Y-97848480D02*
X69273480Y-97848480D01*
X76708000Y-99387686D02*
X75168794Y-97848480D01*
X76708000Y-106172000D02*
X76708000Y-99387686D01*
X69273480Y-97848480D02*
X68453000Y-97028000D01*
X69908480Y-94937520D02*
X71813480Y-94937520D01*
X74930000Y-107950000D02*
X76708000Y-106172000D01*
%TO.N,Net-(R16-Pad2)*%
X71247000Y-94234000D02*
X74295000Y-91186000D01*
X68707000Y-98552000D02*
X67691000Y-97536000D01*
X74676000Y-98552000D02*
X68707000Y-98552000D01*
X67691000Y-97536000D02*
X67691000Y-95504000D01*
X76073000Y-99949000D02*
X74676000Y-98552000D01*
X67691000Y-95504000D02*
X68961000Y-94234000D01*
X68961000Y-94234000D02*
X71247000Y-94234000D01*
X76073000Y-104267000D02*
X76073000Y-99949000D01*
X74930000Y-105410000D02*
X76073000Y-104267000D01*
%TO.N,Net-(R15-Pad2)*%
X66421000Y-95631000D02*
X68453000Y-93599000D01*
X70612000Y-93599000D02*
X73025000Y-91186000D01*
X66421000Y-97663000D02*
X66421000Y-95631000D01*
X70739000Y-99060000D02*
X67818000Y-99060000D01*
X67818000Y-99060000D02*
X66421000Y-97663000D01*
X72136000Y-100457000D02*
X70739000Y-99060000D01*
X68453000Y-93599000D02*
X70612000Y-93599000D01*
%TO.N,Net-(R14-Pad2)*%
X69850000Y-93091000D02*
X71755000Y-91186000D01*
X68199000Y-93091000D02*
X69850000Y-93091000D01*
X65913000Y-97912589D02*
X65913000Y-95377000D01*
X69473411Y-101473000D02*
X65913000Y-97912589D01*
X73787000Y-101473000D02*
X69473411Y-101473000D01*
X65913000Y-95377000D02*
X68199000Y-93091000D01*
X74930000Y-100330000D02*
X73787000Y-101473000D01*
%TO.N,Net-(U3-Pad9)*%
X77978000Y-53467000D02*
X76835000Y-52324000D01*
X81532022Y-53467000D02*
X77978000Y-53467000D01*
X81798480Y-53733458D02*
X81532022Y-53467000D01*
X81798480Y-60441520D02*
X81798480Y-53733458D01*
X68775489Y-73464511D02*
X81798480Y-60441520D01*
X68775489Y-88075078D02*
X68775489Y-73464511D01*
X68825489Y-92066489D02*
X68825489Y-88125078D01*
X68825489Y-88125078D02*
X68775489Y-88075078D01*
X68834000Y-92075000D02*
X68825489Y-92066489D01*
X71628000Y-95631000D02*
X70485000Y-96774000D01*
X72898000Y-95631000D02*
X71628000Y-95631000D01*
X74041000Y-94488000D02*
X72898000Y-95631000D01*
D19*
%TO.N,Net-(J2-Pad6)*%
X65024000Y-49657000D02*
X66040000Y-48641000D01*
X65024000Y-95377000D02*
X65024000Y-130556000D01*
X65024000Y-95377000D02*
X65024000Y-49657000D01*
X65024000Y-130556000D02*
X67056000Y-132588000D01*
D18*
%TO.N,Net-(R19-Pad2)*%
X78105000Y-86741000D02*
X78105000Y-91186000D01*
X77470000Y-86106000D02*
X78105000Y-86741000D01*
X76708000Y-82550000D02*
X77406500Y-83248500D01*
X74930000Y-82550000D02*
X76708000Y-82550000D01*
%TO.N,Net-(R20-Pad2)*%
X79375000Y-85852000D02*
X79375000Y-91186000D01*
X78613000Y-85090000D02*
X79375000Y-85852000D01*
X74930000Y-85090000D02*
X78613000Y-85090000D01*
%TO.N,Net-(R18-Pad2)*%
X73025000Y-87376000D02*
X76835000Y-91186000D01*
X73025000Y-81915000D02*
X73025000Y-87376000D01*
X74930000Y-80010000D02*
X73025000Y-81915000D01*
%TO.N,Net-(R21-Pad2)*%
X80137000Y-95504000D02*
X78105000Y-95504000D01*
X80264000Y-95377000D02*
X80137000Y-95504000D01*
X80264000Y-93980000D02*
X80264000Y-95377000D01*
X78105000Y-95504000D02*
X78105000Y-96774000D01*
X80645000Y-93599000D02*
X80264000Y-93980000D01*
X80645000Y-88138000D02*
X80645000Y-93599000D01*
X80391000Y-87884000D02*
X80645000Y-88138000D01*
X76200000Y-87630000D02*
X76454000Y-87884000D01*
X74930000Y-87630000D02*
X76200000Y-87630000D01*
%TO.N,Net-(J2-Pad5)*%
X80264000Y-152400000D02*
X82931000Y-152400000D01*
X89408000Y-149860000D02*
X89408000Y-145575000D01*
X86868000Y-152400000D02*
X89408000Y-149860000D01*
X89408000Y-145575000D02*
X88392000Y-144559000D01*
X85090000Y-152400000D02*
X86868000Y-152400000D01*
%TO.N,Net-(R35-Pad2)*%
X94996000Y-57150000D02*
X93345000Y-55499000D01*
X97028000Y-57150000D02*
X94996000Y-57150000D01*
X93345000Y-55499000D02*
X93345000Y-52324000D01*
X97790000Y-57912000D02*
X97028000Y-57150000D01*
X97790000Y-59690000D02*
X97790000Y-57912000D01*
X96520000Y-60960000D02*
X97790000Y-59690000D01*
%TO.N,Net-(R37-Pad2)*%
X93345000Y-48641000D02*
X93345000Y-46736000D01*
X91059000Y-50927000D02*
X93345000Y-48641000D01*
X97028000Y-62230000D02*
X95377000Y-62230000D01*
X91059000Y-57912000D02*
X91059000Y-50927000D01*
X98679000Y-60579000D02*
X97028000Y-62230000D01*
X95377000Y-62230000D02*
X91059000Y-57912000D01*
X98679000Y-58011600D02*
X98679000Y-60579000D01*
X96547400Y-55880000D02*
X98679000Y-58011600D01*
%TO.N,Net-(R34-Pad2)*%
X99441000Y-60579000D02*
X99441000Y-57150000D01*
X96520000Y-63500000D02*
X99441000Y-60579000D01*
X99441000Y-57150000D02*
X94615000Y-52324000D01*
%TO.N,Net-(R36-Pad2)*%
X93980000Y-58420000D02*
X92075000Y-56515000D01*
X92075000Y-56515000D02*
X92075000Y-52324000D01*
X96520000Y-58420000D02*
X93980000Y-58420000D01*
%TO.N,Net-(J2-Pad2)*%
X90424000Y-69596000D02*
X93218000Y-72390000D01*
X90424000Y-49530000D02*
X90424000Y-69596000D01*
%TO.N,Net-(U5-Pad9)*%
X94615000Y-72517000D02*
X94488000Y-72517000D01*
X102743000Y-64389000D02*
X94615000Y-72517000D01*
X102743000Y-52705000D02*
X102743000Y-64389000D01*
X102870000Y-52578000D02*
X102743000Y-52705000D01*
%TO.N,Net-(R31-Pad2)*%
X99695000Y-53594000D02*
X98425000Y-52324000D01*
X101854000Y-53594000D02*
X99695000Y-53594000D01*
X101981000Y-53467000D02*
X101854000Y-53594000D01*
X101981000Y-52911325D02*
X101981000Y-53467000D01*
X101968489Y-52898814D02*
X101981000Y-52911325D01*
X101968489Y-51701511D02*
X101968489Y-52898814D01*
X106172000Y-49403000D02*
X105791000Y-49784000D01*
X106172000Y-43688000D02*
X106172000Y-49403000D01*
X102049489Y-39565489D02*
X106172000Y-43688000D01*
X103886000Y-49784000D02*
X101968489Y-51701511D01*
X97594511Y-39565489D02*
X102049489Y-39565489D01*
X96520000Y-40640000D02*
X97594511Y-39565489D01*
X105791000Y-49784000D02*
X103886000Y-49784000D01*
D19*
%TO.N,GND*%
X104140000Y-96647000D02*
X104267000Y-96774000D01*
X104140000Y-54102000D02*
X104140000Y-96647000D01*
D18*
%TO.N,Net-(R30-Pad2)*%
X104902000Y-47117000D02*
X99695000Y-52324000D01*
X105537000Y-47117000D02*
X104902000Y-47117000D01*
%TO.N,Net-(R32-Pad2)*%
X98298000Y-51181000D02*
X97155000Y-52324000D01*
X99822000Y-51181000D02*
X98298000Y-51181000D01*
X103378000Y-45339000D02*
X103378000Y-47625000D01*
X103378000Y-47625000D02*
X99822000Y-51181000D01*
X95250000Y-44069000D02*
X102108000Y-44069000D01*
X93345000Y-41275000D02*
X93345000Y-42164000D01*
X102108000Y-44069000D02*
X103378000Y-45339000D01*
X96520000Y-38100000D02*
X93345000Y-41275000D01*
X93345000Y-42164000D02*
X95250000Y-44069000D01*
%TO.N,Net-(R33-Pad2)*%
X97858520Y-50350480D02*
X95885000Y-52324000D01*
X99761366Y-50350480D02*
X97858520Y-50350480D01*
X101981000Y-48130846D02*
X99761366Y-50350480D01*
X100702520Y-44568520D02*
X101981000Y-45847000D01*
X101981000Y-45847000D02*
X101981000Y-48130846D01*
X93028100Y-44568520D02*
X100702520Y-44568520D01*
X91440000Y-42037000D02*
X93028100Y-43625100D01*
X93028100Y-43625100D02*
X93028100Y-44568520D01*
X91440000Y-40640000D02*
X91440000Y-42037000D01*
X96520000Y-35560000D02*
X91440000Y-40640000D01*
%TO.N,Net-(R30-Pad2)*%
X105537000Y-45339000D02*
X105537000Y-47117000D01*
X101912511Y-41714511D02*
X105537000Y-45339000D01*
X97731489Y-41714511D02*
X101912511Y-41714511D01*
X96520000Y-42926000D02*
X97731489Y-41714511D01*
D19*
%TO.N,Net-(J1-Pad3)*%
X87569489Y-29575511D02*
X88900000Y-28245000D01*
X87569489Y-70805489D02*
X87569489Y-29575511D01*
X87630000Y-70866000D02*
X87569489Y-70805489D01*
X87630000Y-73660000D02*
X87630000Y-70866000D01*
%TO.N,Net-(J2-Pad6)*%
X99509600Y-90971766D02*
X99509600Y-91186000D01*
X98580834Y-90043000D02*
X99509600Y-90971766D01*
X92818366Y-90043000D02*
X98580834Y-90043000D01*
X91889600Y-90971766D02*
X92818366Y-90043000D01*
X91889600Y-91186000D02*
X91889600Y-90971766D01*
D18*
%TO.N,Net-(R45-Pad2)*%
X96012000Y-89027000D02*
X92964000Y-89027000D01*
D19*
%TO.N,GND*%
X104140000Y-96901000D02*
X104267000Y-96774000D01*
X104140000Y-116078000D02*
X104140000Y-96901000D01*
D18*
%TO.N,Net-(R40-Pad2)*%
X93540600Y-93345000D02*
X96969600Y-96774000D01*
X92710000Y-93345000D02*
X93540600Y-93345000D01*
X91015089Y-90823765D02*
X91015089Y-91650089D01*
X91186000Y-88719011D02*
X91186000Y-90652854D01*
X95749520Y-84155491D02*
X91186000Y-88719011D01*
X95749520Y-84049413D02*
X95749520Y-84155491D01*
X91186000Y-90652854D02*
X91015089Y-90823765D01*
X91015089Y-91650089D02*
X92710000Y-93345000D01*
X96334600Y-83464333D02*
X95749520Y-84049413D01*
X96334600Y-82550000D02*
X96334600Y-83464333D01*
%TO.N,Net-(J2-Pad2)*%
X89789000Y-93218000D02*
X90043000Y-93472000D01*
X89789000Y-77168325D02*
X89789000Y-93218000D01*
X92027325Y-74930000D02*
X89789000Y-77168325D01*
X92456000Y-74930000D02*
X92027325Y-74930000D01*
%TO.N,Net-(R41-Pad2)*%
X90424000Y-85920600D02*
X96334600Y-80010000D01*
X90424000Y-92083480D02*
X90424000Y-85920600D01*
X93278120Y-94352520D02*
X92693040Y-94352520D01*
X92693040Y-94352520D02*
X90424000Y-92083480D01*
X95699600Y-96774000D02*
X93278120Y-94352520D01*
%TO.N,Net-(J2-Pad3)*%
X89522489Y-48272511D02*
X89789000Y-48006000D01*
X91667330Y-72005942D02*
X89522489Y-69861101D01*
X89522489Y-69861101D02*
X89522489Y-48272511D01*
X89027000Y-92964000D02*
X88773000Y-93218000D01*
X89027000Y-76581000D02*
X89027000Y-92964000D01*
X90297000Y-75311000D02*
X89027000Y-76581000D01*
%TO.N,Net-(R38-Pad2)*%
X100203000Y-92710000D02*
X100203000Y-93599000D01*
%TO.N,Net-(J2-Pad5)*%
X98239600Y-92043364D02*
X98239600Y-91186000D01*
X98171000Y-92111964D02*
X98239600Y-92043364D01*
X98171000Y-94361000D02*
X98171000Y-92111964D01*
%TO.N,Net-(R38-Pad2)*%
X101473000Y-92710000D02*
X100203000Y-92710000D01*
X102235000Y-91948000D02*
X101473000Y-92710000D01*
X102235000Y-90424000D02*
X102235000Y-91948000D01*
X101092000Y-89281000D02*
X102235000Y-90424000D01*
X97963600Y-89281000D02*
X101092000Y-89281000D01*
X96240600Y-87558000D02*
X97963600Y-89281000D01*
%TO.N,Net-(R39-Pad2)*%
X98806000Y-96207600D02*
X98239600Y-96774000D01*
X98806000Y-95631000D02*
X98806000Y-96207600D01*
X101600000Y-95631000D02*
X98806000Y-95631000D01*
X101727000Y-95504000D02*
X101600000Y-95631000D01*
X102362000Y-93345000D02*
X101854000Y-93345000D01*
X103124000Y-92583000D02*
X102362000Y-93345000D01*
X101854000Y-93345000D02*
X101727000Y-93472000D01*
X103124000Y-89408000D02*
X103124000Y-92583000D01*
X99890600Y-88646000D02*
X102362000Y-88646000D01*
X102362000Y-88646000D02*
X103124000Y-89408000D01*
X96334600Y-85090000D02*
X99890600Y-88646000D01*
X101727000Y-93472000D02*
X101727000Y-95504000D01*
%TO.N,Net-(J2-Pad5)*%
X88392000Y-94488000D02*
X91059000Y-94488000D01*
%TO.N,Net-(J2-Pad2)*%
X88392000Y-96139000D02*
X89916000Y-96139000D01*
X89916000Y-96139000D02*
X90043000Y-96012000D01*
D19*
%TO.N,GND*%
X90424000Y-97790000D02*
X90932000Y-98298000D01*
X88392000Y-97790000D02*
X90424000Y-97790000D01*
%TO.N,Net-(J1-Pad1)*%
X87249000Y-89154000D02*
X87249000Y-113919000D01*
X87249000Y-113919000D02*
X87630000Y-114300000D01*
X88138000Y-88265000D02*
X87249000Y-89154000D01*
X88138000Y-77769011D02*
X88138000Y-88265000D01*
X88092989Y-77724000D02*
X88138000Y-77769011D01*
D18*
%TO.N,Net-(J2-Pad2)*%
X90932000Y-128016000D02*
X90932000Y-129032000D01*
X91948000Y-100838000D02*
X91948000Y-127000000D01*
X90805000Y-99695000D02*
X91948000Y-100838000D01*
X91948000Y-127000000D02*
X90932000Y-128016000D01*
D19*
%TO.N,GND*%
X99342834Y-98425000D02*
X100779600Y-96988234D01*
X96067989Y-98425000D02*
X99342834Y-98425000D01*
X96012000Y-98480989D02*
X96067989Y-98425000D01*
X100779600Y-96988234D02*
X100779600Y-96774000D01*
%TO.N,Net-(J1-Pad1)*%
X84836000Y-77724000D02*
X84836000Y-35814000D01*
X84836000Y-35814000D02*
X78740000Y-29718000D01*
X78740000Y-29718000D02*
X78740000Y-28245000D01*
%TO.N,Net-(J1-Pad2)*%
X81026000Y-101092000D02*
X82423000Y-99695000D01*
X81026000Y-114300000D02*
X81026000Y-101092000D01*
X82423000Y-99695000D02*
X82423000Y-80391000D01*
%TO.N,Net-(J1-Pad4)*%
X88519000Y-68707000D02*
X88519000Y-34188500D01*
X93980000Y-28727500D02*
X93980000Y-28245000D01*
X88519000Y-34188500D02*
X93980000Y-28727500D01*
X83439000Y-70358000D02*
X81026000Y-72771000D01*
X81026000Y-72771000D02*
X81026000Y-73660000D01*
%TO.N,GND*%
X83820000Y-97790000D02*
X83820000Y-90043000D01*
X91385812Y-129921000D02*
X91292105Y-130014707D01*
X105029000Y-139573000D02*
X104140000Y-138684000D01*
X103759000Y-73660000D02*
X90170000Y-73660000D01*
X104140000Y-131826000D02*
X104140000Y-137414000D01*
X105029000Y-151511000D02*
X105029000Y-139573000D01*
X104140000Y-131826000D02*
X105791000Y-130175000D01*
X104140000Y-138684000D02*
X104140000Y-137414000D01*
X82804000Y-150876000D02*
X82804000Y-147099000D01*
X100779600Y-137414000D02*
X104140000Y-137414000D01*
X93091000Y-129794000D02*
X92964000Y-129921000D01*
X105791000Y-130175000D02*
X105791000Y-117729000D01*
X100076000Y-156464000D02*
X105029000Y-151511000D01*
X92964000Y-129921000D02*
X91385812Y-129921000D01*
X91292105Y-130014707D02*
X79279020Y-130014707D01*
X105791000Y-117729000D02*
X104140000Y-116078000D01*
X97790000Y-156464000D02*
X100076000Y-156464000D01*
D18*
%TO.N,Net-(J2-Pad2)*%
X91059000Y-141605000D02*
X91440000Y-141986000D01*
X90932000Y-137693146D02*
X91059000Y-137820146D01*
X80391000Y-54470500D02*
X79895500Y-53975000D01*
X79895500Y-53975000D02*
X77216000Y-53975000D01*
X92790000Y-155782000D02*
X92790000Y-156464000D01*
X91440000Y-154432000D02*
X92790000Y-155782000D01*
X77216000Y-53975000D02*
X75565000Y-52324000D01*
X95758000Y-48895000D02*
X95758000Y-46863000D01*
X90932000Y-131018196D02*
X91123027Y-130827169D01*
X91059000Y-137820146D02*
X91059000Y-141605000D01*
X95758000Y-46863000D02*
X95885000Y-46736000D01*
X91123027Y-130827169D02*
X94700769Y-130827169D01*
X94700769Y-130827169D02*
X95699600Y-131826000D01*
X90932000Y-131018196D02*
X90932000Y-137693146D01*
X91440000Y-141986000D02*
X91440000Y-154432000D01*
%TO.N,Net-(J2-Pad3)*%
X90207500Y-148336000D02*
X90424000Y-148552500D01*
X93980000Y-92456000D02*
X95699600Y-92456000D01*
X90391000Y-143289000D02*
X88392000Y-143289000D01*
X90424000Y-143256000D02*
X90391000Y-143289000D01*
X90424000Y-148119500D02*
X90424000Y-143256000D01*
X89662000Y-129032000D02*
X89662000Y-128143000D01*
X95724614Y-133858000D02*
X96969600Y-132613014D01*
X95699600Y-92456000D02*
X96969600Y-91186000D01*
X91313000Y-126492000D02*
X91313000Y-101425325D01*
X90424000Y-131826000D02*
X90424000Y-143256000D01*
X91313000Y-101425325D02*
X89043497Y-99155822D01*
X90424000Y-148552500D02*
X90424000Y-153830000D01*
X90207500Y-148336000D02*
X90424000Y-148119500D01*
X90424000Y-153830000D02*
X87790000Y-156464000D01*
X96969600Y-132613014D02*
X96969600Y-131826000D01*
X93980000Y-133858000D02*
X95724614Y-133858000D01*
X89043497Y-99155822D02*
X89043497Y-99060000D01*
X89662000Y-128143000D02*
X91313000Y-126492000D01*
X89662000Y-131064000D02*
X90424000Y-131826000D01*
%TO.N,Net-(J2-Pad4)*%
X87343000Y-140749000D02*
X88392000Y-140749000D01*
X84090000Y-155164000D02*
X84090000Y-151622000D01*
X85852000Y-149860000D02*
X85852000Y-142240000D01*
X82790000Y-156464000D02*
X84090000Y-155164000D01*
X84090000Y-151622000D02*
X85852000Y-149860000D01*
X85852000Y-142240000D02*
X87343000Y-140749000D01*
%TO.N,Net-(J2-Pad5)*%
X81407000Y-80645000D02*
X78740000Y-77978000D01*
X77790000Y-156464000D02*
X80264000Y-153990000D01*
X83058000Y-64643000D02*
X83058000Y-49022000D01*
X81407000Y-94488000D02*
X81407000Y-80645000D01*
X75311000Y-94488000D02*
X73025000Y-96774000D01*
X81407000Y-94488000D02*
X81407000Y-99568000D01*
X95834989Y-134797011D02*
X98239600Y-132392400D01*
X79121000Y-94488000D02*
X75311000Y-94488000D01*
X85090000Y-133223000D02*
X84836000Y-132969000D01*
X80264000Y-152400000D02*
X80264000Y-138684000D01*
X81407000Y-99568000D02*
X79883000Y-101092000D01*
X78740000Y-68961000D02*
X83058000Y-64643000D01*
X73025000Y-51435000D02*
X73025000Y-52324000D01*
X74549000Y-49911000D02*
X73025000Y-51435000D01*
X89027000Y-133223000D02*
X85090000Y-133223000D01*
X80264000Y-138684000D02*
X80264000Y-131064000D01*
X80264000Y-153990000D02*
X80264000Y-152400000D01*
X92964000Y-134493000D02*
X93268011Y-134797011D01*
X81280000Y-131064000D02*
X80264000Y-131064000D01*
X82296000Y-132080000D02*
X81280000Y-131064000D01*
X83058000Y-132080000D02*
X82296000Y-132080000D01*
X93268011Y-134797011D02*
X95834989Y-134797011D01*
X78740000Y-77978000D02*
X78740000Y-68961000D01*
X79883000Y-101092000D02*
X79883000Y-128651000D01*
X98239600Y-132392400D02*
X98239600Y-131826000D01*
X83058000Y-49022000D02*
X82231457Y-48195457D01*
X79883000Y-128651000D02*
X80264000Y-129032000D01*
D19*
%TO.N,Net-(J2-Pad6)*%
X92075000Y-46028894D02*
X92629824Y-45474070D01*
X73152000Y-135636000D02*
X73525781Y-136009781D01*
X67056000Y-132588000D02*
X67691000Y-132588000D01*
X92075000Y-46736000D02*
X92075000Y-46028894D01*
X96139000Y-135509000D02*
X99568000Y-132080000D01*
X82042000Y-46609000D02*
X83566000Y-48133000D01*
X99695000Y-45855071D02*
X99695000Y-46736000D01*
X92629824Y-45474070D02*
X99314000Y-45474071D01*
X86901000Y-138209000D02*
X88392000Y-138209000D01*
X84836000Y-136144000D02*
X84836000Y-134620000D01*
X73525781Y-136009781D02*
X77858219Y-136009781D01*
X87684894Y-145829000D02*
X88392000Y-145829000D01*
X81788000Y-46609000D02*
X82042000Y-46609000D01*
X92468500Y-135509000D02*
X96139000Y-135509000D01*
X86868000Y-138176000D02*
X84836000Y-136144000D01*
X91889600Y-134563900D02*
X91889600Y-131826000D01*
X86868000Y-145012106D02*
X87684894Y-145829000D01*
X99314000Y-45474071D02*
X99695000Y-45855071D01*
X72790000Y-156464000D02*
X72790000Y-156356000D01*
X84836000Y-134620000D02*
X89408000Y-134620000D01*
X86868000Y-142748000D02*
X86868000Y-145012106D01*
X65659000Y-133985000D02*
X67056000Y-132588000D01*
X86868000Y-138176000D02*
X86901000Y-138209000D01*
X72790000Y-156356000D02*
X65659000Y-149225000D01*
X65659000Y-149225000D02*
X65659000Y-133985000D01*
X91706500Y-134747000D02*
X92468500Y-135509000D01*
X77858219Y-136009781D02*
X79248000Y-134620000D01*
X91706500Y-134747000D02*
X91889600Y-134563900D01*
D18*
%TO.N,Net-(Q1-Pad2)*%
X87630000Y-116840000D02*
X88900000Y-115570000D01*
X87630000Y-123190000D02*
X87630000Y-116840000D01*
%TO.N,Net-(Q2-Pad2)*%
X82296000Y-115570000D02*
X84582000Y-117856000D01*
X84582000Y-117856000D02*
X84582000Y-123190000D01*
%TO.N,Net-(Q3-Pad2)*%
X86868000Y-76962000D02*
X88900000Y-74930000D01*
X86868000Y-82550000D02*
X86868000Y-76962000D01*
%TO.N,Net-(R1-Pad1)*%
X89535000Y-138938000D02*
X88994000Y-139479000D01*
X89535000Y-137287000D02*
X89535000Y-138938000D01*
X88994000Y-139479000D02*
X88392000Y-139479000D01*
X87884000Y-135636000D02*
X89535000Y-137287000D01*
%TO.N,Net-(R2-Pad1)*%
X83947000Y-137066000D02*
X82804000Y-138209000D01*
X83947000Y-131318000D02*
X83947000Y-137066000D01*
%TO.N,Net-(R3-Pad1)*%
X82804000Y-122555000D02*
X82804000Y-129032000D01*
X83439000Y-121920000D02*
X82804000Y-122555000D01*
X86360000Y-119507000D02*
X86360000Y-88138000D01*
X82804000Y-139479000D02*
X82456000Y-139479000D01*
X81788000Y-136144000D02*
X82550000Y-135382000D01*
X81788000Y-138811000D02*
X81788000Y-136144000D01*
X82550000Y-135382000D02*
X82550000Y-133604000D01*
X82456000Y-139479000D02*
X81788000Y-138811000D01*
X86360000Y-88138000D02*
X86868000Y-87630000D01*
X86614000Y-119761000D02*
X86360000Y-119507000D01*
%TO.N,Net-(R4-Pad1)*%
X85344000Y-119138173D02*
X85344000Y-89154000D01*
X85344000Y-89154000D02*
X83820000Y-87630000D01*
X81280000Y-139225000D02*
X82804000Y-140749000D01*
X81534000Y-122174000D02*
X81534000Y-129032000D01*
X85585500Y-119379673D02*
X85344000Y-119138173D01*
X83439000Y-120269000D02*
X81534000Y-122174000D01*
X81280000Y-133604000D02*
X81280000Y-139225000D01*
%TO.N,Net-(R6-Pad2)*%
X73876511Y-139916511D02*
X74930000Y-140970000D01*
X73152000Y-140208000D02*
X73443489Y-139916511D01*
X66929000Y-136715500D02*
X71755000Y-131889500D01*
X73443489Y-139916511D02*
X73876511Y-139916511D01*
X71755000Y-131889500D02*
X71755000Y-131826000D01*
X66929000Y-139700000D02*
X66929000Y-136715500D01*
%TO.N,Net-(R7-Pad2)*%
X76200000Y-142240000D02*
X74930000Y-143510000D01*
X76200000Y-140651922D02*
X76200000Y-142240000D01*
X74485559Y-138937481D02*
X76200000Y-140651922D01*
X67806572Y-138925500D02*
X67806572Y-136790428D01*
X72150489Y-132700511D02*
X73025000Y-131826000D01*
X67806572Y-136790428D02*
X71896489Y-132700511D01*
X72771092Y-138937481D02*
X74485559Y-138937481D01*
X71896489Y-132700511D02*
X72150489Y-132700511D01*
%TO.N,Net-(R8-Pad2)*%
X68580000Y-137160000D02*
X72517000Y-133223000D01*
X75184000Y-150495000D02*
X72517000Y-150495000D01*
X71374000Y-149352000D02*
X71374000Y-140970000D01*
X68580000Y-138176000D02*
X68580000Y-137160000D01*
X72517000Y-133223000D02*
X72898000Y-133223000D01*
X71374000Y-140970000D02*
X68580000Y-138176000D01*
X76835000Y-147955000D02*
X76835000Y-148844000D01*
X74930000Y-146050000D02*
X76835000Y-147955000D01*
X76835000Y-148844000D02*
X75184000Y-150495000D01*
X72517000Y-150495000D02*
X71374000Y-149352000D01*
X72898000Y-133223000D02*
X74295000Y-131826000D01*
%TO.N,Net-(R9-Pad2)*%
X70334964Y-138430000D02*
X69850000Y-138430000D01*
X71826428Y-134620000D02*
X72898000Y-134620000D01*
X69215000Y-137795000D02*
X69215000Y-137231428D01*
X69850000Y-138430000D02*
X69215000Y-137795000D01*
X72136000Y-140208000D02*
X72112964Y-140208000D01*
X72112964Y-140208000D02*
X70334964Y-138430000D01*
X69215000Y-137231428D02*
X71826428Y-134620000D01*
X72898000Y-134493000D02*
X75565000Y-131826000D01*
X72898000Y-134620000D02*
X72898000Y-134493000D01*
X74930000Y-148590000D02*
X72136000Y-145796000D01*
X72136000Y-145796000D02*
X72136000Y-140207282D01*
%TO.N,Net-(R10-Pad2)*%
X72887960Y-122692040D02*
X72887960Y-129150396D01*
X74549000Y-130556000D02*
X75819000Y-130556000D01*
X75819000Y-130556000D02*
X76835000Y-131572000D01*
X72887960Y-129150396D02*
X73143396Y-129150396D01*
X73143396Y-129150396D02*
X74549000Y-130556000D01*
X76835000Y-131572000D02*
X76835000Y-131826000D01*
X74930000Y-120650000D02*
X72887960Y-122692040D01*
%TO.N,Net-(R11-Pad2)*%
X73533000Y-124587000D02*
X73533000Y-128778000D01*
X74168000Y-129413000D02*
X75692000Y-129413000D01*
X74930000Y-123190000D02*
X73533000Y-124587000D01*
X75692000Y-129413000D02*
X78105000Y-131826000D01*
X73533000Y-128778000D02*
X74168000Y-129413000D01*
%TO.N,Net-(R12-Pad2)*%
X79375000Y-131826000D02*
X76962000Y-129413000D01*
X76962000Y-127762000D02*
X76962000Y-129413000D01*
X74930000Y-125730000D02*
X76962000Y-127762000D01*
%TO.N,Net-(R22-Pad2)*%
X67056000Y-54605589D02*
X67056000Y-50927000D01*
X69215000Y-48895000D02*
X69215000Y-45720000D01*
X74930000Y-55880000D02*
X73464511Y-57345489D01*
X68453000Y-49530000D02*
X68580000Y-49530000D01*
X70739000Y-45720000D02*
X71755000Y-46736000D01*
X69795900Y-57345489D02*
X67056000Y-54605589D01*
X73464511Y-57345489D02*
X69795900Y-57345489D01*
X67056000Y-50927000D02*
X68453000Y-49530000D01*
X68580000Y-49530000D02*
X69215000Y-48895000D01*
X69215000Y-45720000D02*
X70739000Y-45720000D01*
%TO.N,Net-(R23-Pad2)*%
X71374000Y-45085000D02*
X73025000Y-46736000D01*
X66167000Y-50800000D02*
X68453000Y-48514000D01*
X68453000Y-48514000D02*
X68453000Y-45085000D01*
X68453000Y-45085000D02*
X71374000Y-45085000D01*
X73787000Y-59563000D02*
X68453000Y-59563000D01*
X74930000Y-58420000D02*
X73787000Y-59563000D01*
X68453000Y-59563000D02*
X66167000Y-57277000D01*
X66167000Y-57277000D02*
X66167000Y-50800000D01*
%TO.N,Net-(R24-Pad2)*%
X75622008Y-54483000D02*
X69215000Y-54483000D01*
X68021561Y-50977439D02*
X71038969Y-47960031D01*
X68021561Y-53289561D02*
X68021561Y-50977439D01*
X71038969Y-47960031D02*
X73070969Y-47960031D01*
X69215000Y-54483000D02*
X68021561Y-53289561D01*
X74930000Y-60960000D02*
X76404000Y-59486000D01*
X76404000Y-55264992D02*
X75622008Y-54483000D01*
X76404000Y-59486000D02*
X76404000Y-55264992D01*
X73070969Y-47960031D02*
X74295000Y-46736000D01*
%TO.N,Net-(R25-Pad2)*%
X76903520Y-55058084D02*
X75566436Y-53721000D01*
X74930000Y-63500000D02*
X76903520Y-61526480D01*
X69469000Y-53721000D02*
X68707000Y-52959000D01*
X70993000Y-49276000D02*
X73025000Y-49276000D01*
X68707000Y-52959000D02*
X68707000Y-51562000D01*
X75566436Y-53721000D02*
X69469000Y-53721000D01*
X73025000Y-49276000D02*
X75565000Y-46736000D01*
X76903520Y-61526480D02*
X76903520Y-55058084D01*
X68707000Y-51562000D02*
X70993000Y-49276000D01*
%TO.N,Net-(R26-Pad2)*%
X74667520Y-45711520D02*
X75810520Y-45711520D01*
X72644000Y-37846000D02*
X72644000Y-43688000D01*
X75810520Y-45711520D02*
X76835000Y-46736000D01*
X72644000Y-43688000D02*
X74667520Y-45711520D01*
X74930000Y-35560000D02*
X72644000Y-37846000D01*
%TO.N,Net-(R27-Pad2)*%
X73152000Y-39878000D02*
X74930000Y-38100000D01*
X78105000Y-46736000D02*
X76581000Y-45212000D01*
X76581000Y-45212000D02*
X75184000Y-45212000D01*
X73152000Y-43180000D02*
X73152000Y-39878000D01*
X75184000Y-45212000D02*
X73152000Y-43180000D01*
%TO.N,Net-(R28-Pad2)*%
X74930000Y-40640000D02*
X76835000Y-40640000D01*
X76835000Y-40640000D02*
X78867000Y-42672000D01*
X76835000Y-44196000D02*
X79375000Y-46736000D01*
X76835000Y-44069000D02*
X76835000Y-44196000D01*
%TO.N,Net-(R29-Pad2)*%
X80518000Y-46128460D02*
X80518000Y-49276000D01*
X78105000Y-51689000D02*
X78105000Y-52324000D01*
X77569540Y-43180000D02*
X80518000Y-46128460D01*
X74930000Y-43180000D02*
X77569540Y-43180000D01*
X80518000Y-49276000D02*
X78105000Y-51689000D01*
%TO.N,Net-(R44-Pad2)*%
X91889600Y-98519000D02*
X91889600Y-96774000D01*
X96240600Y-102870000D02*
X91889600Y-98519000D01*
%TO.N,Net-(R46-Pad2)*%
X103759000Y-129032000D02*
X103759000Y-130048000D01*
X102489000Y-139446000D02*
X101600000Y-138557000D01*
X97409111Y-127195489D02*
X101922489Y-127195489D01*
X101600000Y-138557000D02*
X100652600Y-138557000D01*
X103124000Y-139446000D02*
X102489000Y-139446000D01*
X101922489Y-127195489D02*
X103759000Y-129032000D01*
X100652600Y-138557000D02*
X99509600Y-137414000D01*
X96334600Y-128270000D02*
X97409111Y-127195489D01*
%TO.N,Net-(R47-Pad2)*%
X98239600Y-138879600D02*
X98239600Y-137414000D01*
X97409111Y-124655489D02*
X101859678Y-124655489D01*
X103505000Y-140589000D02*
X102553189Y-140589000D01*
X96334600Y-125730000D02*
X97409111Y-124655489D01*
X104648000Y-127443811D02*
X104648000Y-129159000D01*
X101156189Y-139192000D02*
X98552000Y-139192000D01*
X98552000Y-139192000D02*
X98239600Y-138879600D01*
X102553189Y-140589000D02*
X101156189Y-139192000D01*
X101859678Y-124655489D02*
X104648000Y-127443811D01*
%TO.N,Net-(R48-Pad2)*%
X94996000Y-129413000D02*
X95377000Y-129794000D01*
X102235000Y-136144000D02*
X98171000Y-136144000D01*
X98171000Y-136144000D02*
X98171000Y-136212600D01*
X95377000Y-129794000D02*
X101854000Y-129794000D01*
X103124000Y-131064000D02*
X103124000Y-135255000D01*
X98171000Y-136212600D02*
X96969600Y-137414000D01*
X94996000Y-124528600D02*
X94996000Y-129413000D01*
X96334600Y-123190000D02*
X94996000Y-124528600D01*
X101854000Y-129794000D02*
X103124000Y-131064000D01*
X103124000Y-135255000D02*
X102235000Y-136144000D01*
%TO.N,Net-(R49-Pad2)*%
X102362000Y-131445000D02*
X102362000Y-134747000D01*
X97536000Y-135509000D02*
X97536000Y-135577600D01*
X93853000Y-129159000D02*
X95250000Y-130556000D01*
X95250000Y-130556000D02*
X101473000Y-130556000D01*
X97536000Y-135577600D02*
X95699600Y-137414000D01*
X101473000Y-130556000D02*
X102362000Y-131445000D01*
X101600000Y-135509000D02*
X97536000Y-135509000D01*
X102362000Y-134747000D02*
X101600000Y-135509000D01*
X96334600Y-120650000D02*
X93853000Y-123131600D01*
X93853000Y-123131600D02*
X93853000Y-129159000D01*
%TO.N,Net-(R50-Pad2)*%
X96774000Y-142240000D02*
X95504000Y-142240000D01*
X98044000Y-146880600D02*
X98044000Y-143510000D01*
X96334600Y-148590000D02*
X98044000Y-146880600D01*
X94429600Y-141165600D02*
X94429600Y-137414000D01*
X95504000Y-142240000D02*
X94429600Y-141165600D01*
X98044000Y-143510000D02*
X96774000Y-142240000D01*
%TO.N,Net-(R51-Pad2)*%
X96334600Y-146050000D02*
X93159600Y-142875000D01*
X93159600Y-142875000D02*
X93159600Y-137414000D01*
%TO.N,Net-(R52-Pad2)*%
X97544480Y-146546259D02*
X96770739Y-147320000D01*
X97544480Y-144719880D02*
X97544480Y-146546259D01*
X92329000Y-137853400D02*
X91889600Y-137414000D01*
X92329000Y-143891000D02*
X92329000Y-137853400D01*
X96334600Y-143510000D02*
X97544480Y-144719880D01*
X96770739Y-147320000D02*
X95758000Y-147320000D01*
X95758000Y-147320000D02*
X92329000Y-143891000D01*
%TO.N,Net-(R53-Pad2)*%
X98389636Y-140970000D02*
X96334600Y-140970000D01*
X99949000Y-140462000D02*
X98897636Y-140462000D01*
X98897636Y-140462000D02*
X98389636Y-140970000D01*
%TO.N,Net-(U1-Pad9)*%
X87630000Y-149352000D02*
X87376000Y-149352000D01*
X88392000Y-147099000D02*
X88392000Y-148590000D01*
X76835000Y-146939000D02*
X76835000Y-145669000D01*
X79248000Y-149352000D02*
X76835000Y-146939000D01*
X88392000Y-148590000D02*
X87630000Y-149352000D01*
%TO.N,Net-(U2-Pad9)*%
X77353071Y-107046518D02*
X77353071Y-97292071D01*
X68561773Y-133841859D02*
X69304511Y-133099121D01*
X69304511Y-131355489D02*
X72263000Y-128397000D01*
X69304511Y-133099121D02*
X69304511Y-131355489D01*
X72263000Y-112136589D02*
X77353071Y-107046518D01*
X77353071Y-97292071D02*
X76835000Y-96774000D01*
X72263000Y-128397000D02*
X72263000Y-112136589D01*
%TO.N,Net-(U4-Pad9)*%
X94615000Y-50038000D02*
X94615000Y-46736000D01*
%TO.N,Net-(U6-Pad9)*%
X102743000Y-112395000D02*
X102743000Y-94107000D01*
X92202000Y-128905000D02*
X92456000Y-128651000D01*
X92456000Y-128651000D02*
X92456000Y-122682000D01*
X92456000Y-122682000D02*
X102743000Y-112395000D01*
%TO.N,Net-(Q4-Pad2)*%
X83820000Y-76454000D02*
X82296000Y-74930000D01*
X83820000Y-82550000D02*
X83820000Y-76454000D01*
%TD*%
M02*
