%TF.GenerationSoftware,KiCad,Pcbnew,(6.0.4)*%
%TF.CreationDate,2022-08-07T23:35:56-04:00*%
%TF.ProjectId,pcb,7063622e-6b69-4636-9164-5f7063625858,rev?*%
%TF.SameCoordinates,Original*%
%TF.FileFunction,Copper,L2,Bot*%
%TF.FilePolarity,Positive*%
%FSLAX46Y46*%
G04 Gerber Fmt 4.6, Leading zero omitted, Abs format (unit mm)*
G04 Created by KiCad (PCBNEW (6.0.4)) date 2022-08-07 23:35:56*
%MOMM*%
%LPD*%
G01*
G04 APERTURE LIST*
%TA.AperFunction,ComponentPad*%
%ADD10C,1.524003*%
%TD*%
%TA.AperFunction,ComponentPad*%
%ADD11C,2.400000*%
%TD*%
%TA.AperFunction,ComponentPad*%
%ADD12R,0.900000X1.600000*%
%TD*%
%TA.AperFunction,ComponentPad*%
%ADD13O,0.900000X1.600000*%
%TD*%
%TA.AperFunction,ComponentPad*%
%ADD14C,2.500000*%
%TD*%
%TA.AperFunction,ViaPad*%
%ADD15C,0.800000*%
%TD*%
%TA.AperFunction,Conductor*%
%ADD16C,0.600000*%
%TD*%
%TA.AperFunction,Conductor*%
%ADD17C,0.250000*%
%TD*%
G04 APERTURE END LIST*
D10*
%TO.P,R31,1,1*%
%TO.N,Net-(J9-Pad2)*%
X105714800Y-62515486D03*
%TO.P,R31,2,2*%
%TO.N,Net-(R31-Pad2)*%
X105714800Y-72815714D03*
%TD*%
%TO.P,R47,1,1*%
%TO.N,Net-(J13-Pad2)*%
X126612914Y-116941600D03*
%TO.P,R47,2,2*%
%TO.N,Net-(R47-Pad2)*%
X116312686Y-116941600D03*
%TD*%
%TO.P,R6,1,1*%
%TO.N,Net-(J3-Pad3)*%
X67950572Y-129641615D03*
%TO.P,R6,2,2*%
%TO.N,Net-(R6-Pad2)*%
X78250800Y-129641615D03*
%TD*%
%TO.P,R14,1,1*%
%TO.N,Net-(J5-Pad3)*%
X67857101Y-104368596D03*
%TO.P,R14,2,2*%
%TO.N,Net-(R14-Pad2)*%
X78157329Y-104368596D03*
%TD*%
%TO.P,R19,1,1*%
%TO.N,Net-(J6-Pad2)*%
X67857101Y-89128596D03*
%TO.P,R19,2,2*%
%TO.N,Net-(R19-Pad2)*%
X78157329Y-89128596D03*
%TD*%
%TO.P,R20,1,1*%
%TO.N,Net-(J6-Pad1)*%
X67857101Y-86080596D03*
%TO.P,R20,2,2*%
%TO.N,Net-(R20-Pad2)*%
X78157329Y-86080596D03*
%TD*%
%TO.P,R4,1,1*%
%TO.N,Net-(R4-Pad1)*%
X97148914Y-141833600D03*
%TO.P,R4,2,2*%
%TO.N,Net-(Q1-Pad2)*%
X86848686Y-141833600D03*
%TD*%
%TO.P,R23,1,1*%
%TO.N,Net-(J7-Pad2)*%
X76758800Y-62515486D03*
%TO.P,R23,2,2*%
%TO.N,Net-(R23-Pad2)*%
X76758800Y-72815714D03*
%TD*%
%TO.P,R40,1,1*%
%TO.N,Net-(J11-Pad1)*%
X126612914Y-94589600D03*
%TO.P,R40,2,2*%
%TO.N,Net-(R40-Pad2)*%
X116312686Y-94589600D03*
%TD*%
%TO.P,R32,1,1*%
%TO.N,Net-(J9-Pad1)*%
X108762800Y-62515486D03*
%TO.P,R32,2,2*%
%TO.N,Net-(R32-Pad2)*%
X108762800Y-72815714D03*
%TD*%
%TO.P,R22,1,1*%
%TO.N,Net-(J7-Pad3)*%
X73710800Y-62515486D03*
%TO.P,R22,2,2*%
%TO.N,Net-(R22-Pad2)*%
X73710800Y-72815714D03*
%TD*%
%TO.P,R13,1,1*%
%TO.N,Net-(J5-Pad4)*%
X67857101Y-107416596D03*
%TO.P,R13,2,2*%
%TO.N,Net-(R13-Pad2)*%
X78157329Y-107416596D03*
%TD*%
D11*
%TO.P,J7,1,1*%
%TO.N,Net-(J7-Pad1)*%
X72380820Y-56256604D03*
%TO.P,J7,2,2*%
%TO.N,Net-(J7-Pad2)*%
X67300810Y-56256604D03*
%TO.P,J7,3,3*%
%TO.N,Net-(J7-Pad3)*%
X62220799Y-56256604D03*
%TO.P,J7,4,4*%
%TO.N,Net-(J7-Pad4)*%
X57140789Y-56256604D03*
%TD*%
D10*
%TO.P,R28,1,1*%
%TO.N,Net-(J8-Pad1)*%
X91998800Y-62515486D03*
%TO.P,R28,2,2*%
%TO.N,Net-(R28-Pad2)*%
X91998800Y-72815714D03*
%TD*%
%TO.P,R10,1,1*%
%TO.N,Net-(J4-Pad3)*%
X67950572Y-116941615D03*
%TO.P,R10,2,2*%
%TO.N,Net-(R10-Pad2)*%
X78250800Y-116941615D03*
%TD*%
D11*
%TO.P,J3,1,1*%
%TO.N,Net-(J3-Pad1)*%
X60049215Y-140877582D03*
%TO.P,J3,2,2*%
%TO.N,Net-(J3-Pad2)*%
X60049215Y-145957592D03*
%TO.P,J3,3,3*%
%TO.N,Net-(J3-Pad3)*%
X60049215Y-151037603D03*
%TO.P,J3,4,4*%
%TO.N,Net-(J3-Pad4)*%
X60049215Y-156117613D03*
%TD*%
D10*
%TO.P,R26,1,1*%
%TO.N,Net-(J8-Pad3)*%
X85902800Y-62515486D03*
%TO.P,R26,2,2*%
%TO.N,Net-(R26-Pad2)*%
X85902800Y-72815714D03*
%TD*%
%TO.P,R9,1,1*%
%TO.N,Net-(J4-Pad4)*%
X67950572Y-119989615D03*
%TO.P,R9,2,2*%
%TO.N,Net-(R9-Pad2)*%
X78250800Y-119989615D03*
%TD*%
D11*
%TO.P,J13,1,1*%
%TO.N,Net-(J13-Pad1)*%
X134928800Y-133391620D03*
%TO.P,J13,2,2*%
%TO.N,Net-(J13-Pad2)*%
X134928800Y-128311610D03*
%TO.P,J13,3,3*%
%TO.N,Net-(J13-Pad3)*%
X134928800Y-123231599D03*
%TO.P,J13,4,4*%
%TO.N,Net-(J13-Pad4)*%
X134928800Y-118151589D03*
%TD*%
D10*
%TO.P,R15,1,1*%
%TO.N,Net-(J5-Pad2)*%
X67857101Y-101320596D03*
%TO.P,R15,2,2*%
%TO.N,Net-(R15-Pad2)*%
X78157329Y-101320596D03*
%TD*%
%TO.P,R16,1,1*%
%TO.N,Net-(J5-Pad1)*%
X67857101Y-98272596D03*
%TO.P,R16,2,2*%
%TO.N,Net-(R16-Pad2)*%
X78157329Y-98272596D03*
%TD*%
%TO.P,R36,1,1*%
%TO.N,Net-(J10-Pad1)*%
X120954800Y-62515486D03*
%TO.P,R36,2,2*%
%TO.N,Net-(R36-Pad2)*%
X120954800Y-72815714D03*
%TD*%
%TO.P,R48,1,1*%
%TO.N,Net-(J13-Pad1)*%
X126612914Y-119989600D03*
%TO.P,R48,2,2*%
%TO.N,Net-(R48-Pad2)*%
X116312686Y-119989600D03*
%TD*%
%TO.P,R17,1,1*%
%TO.N,Net-(J6-Pad4)*%
X67857101Y-95224596D03*
%TO.P,R17,2,2*%
%TO.N,Net-(R17-Pad2)*%
X78157329Y-95224596D03*
%TD*%
D11*
%TO.P,J12,1,1*%
%TO.N,Net-(J12-Pad1)*%
X134928800Y-110531620D03*
%TO.P,J12,2,2*%
%TO.N,Net-(J12-Pad2)*%
X134928800Y-105451610D03*
%TO.P,J12,3,3*%
%TO.N,Net-(J12-Pad3)*%
X134928800Y-100371599D03*
%TO.P,J12,4,4*%
%TO.N,Net-(J12-Pad4)*%
X134928800Y-95291589D03*
%TD*%
D12*
%TO.P,Q1,1,E*%
%TO.N,Net-(J1-Pad4)*%
X84632803Y-144615536D03*
D13*
%TO.P,Q1,2,B*%
%TO.N,Net-(Q1-Pad2)*%
X83362800Y-144615536D03*
%TO.P,Q1,3,C*%
%TO.N,GND*%
X82092797Y-144615536D03*
%TD*%
D11*
%TO.P,J6,1,1*%
%TO.N,Net-(J6-Pad1)*%
X60049215Y-75345582D03*
%TO.P,J6,2,2*%
%TO.N,Net-(J6-Pad2)*%
X60049215Y-80425592D03*
%TO.P,J6,3,3*%
%TO.N,Net-(J6-Pad3)*%
X60049215Y-85505603D03*
%TO.P,J6,4,4*%
%TO.N,Net-(J6-Pad4)*%
X60049215Y-90585613D03*
%TD*%
D10*
%TO.P,R42,1,1*%
%TO.N,Net-(J12-Pad3)*%
X126612914Y-101193600D03*
%TO.P,R42,2,2*%
%TO.N,Net-(R42-Pad2)*%
X116312686Y-101193600D03*
%TD*%
%TO.P,R41,1,1*%
%TO.N,Net-(J12-Pad4)*%
X126612914Y-98145600D03*
%TO.P,R41,2,2*%
%TO.N,Net-(R41-Pad2)*%
X116312686Y-98145600D03*
%TD*%
%TO.P,R11,1,1*%
%TO.N,Net-(J4-Pad2)*%
X67950572Y-113893615D03*
%TO.P,R11,2,2*%
%TO.N,Net-(R11-Pad2)*%
X78250800Y-113893615D03*
%TD*%
%TO.P,R49,1,1*%
%TO.N,Net-(J14-Pad4)*%
X126612914Y-123545600D03*
%TO.P,R49,2,2*%
%TO.N,Net-(R49-Pad2)*%
X116312686Y-123545600D03*
%TD*%
%TO.P,R50,1,1*%
%TO.N,Net-(J14-Pad3)*%
X126612914Y-126593600D03*
%TO.P,R50,2,2*%
%TO.N,Net-(R50-Pad2)*%
X116312686Y-126593600D03*
%TD*%
D11*
%TO.P,J5,1,1*%
%TO.N,Net-(J5-Pad1)*%
X60049215Y-97189582D03*
%TO.P,J5,2,2*%
%TO.N,Net-(J5-Pad2)*%
X60049215Y-102269592D03*
%TO.P,J5,3,3*%
%TO.N,Net-(J5-Pad3)*%
X60049215Y-107349603D03*
%TO.P,J5,4,4*%
%TO.N,Net-(J5-Pad4)*%
X60049215Y-112429613D03*
%TD*%
D10*
%TO.P,R29,1,1*%
%TO.N,Net-(J9-Pad4)*%
X99618800Y-62515486D03*
%TO.P,R29,2,2*%
%TO.N,Net-(R29-Pad2)*%
X99618800Y-72815714D03*
%TD*%
%TO.P,R7,1,1*%
%TO.N,Net-(J3-Pad2)*%
X67950572Y-126593615D03*
%TO.P,R7,2,2*%
%TO.N,Net-(R7-Pad2)*%
X78250800Y-126593615D03*
%TD*%
%TO.P,R46,1,1*%
%TO.N,Net-(J13-Pad3)*%
X126612914Y-113893600D03*
%TO.P,R46,2,2*%
%TO.N,Net-(R46-Pad2)*%
X116312686Y-113893600D03*
%TD*%
D11*
%TO.P,J11,1,1*%
%TO.N,Net-(J11-Pad1)*%
X134928800Y-88687620D03*
%TO.P,J11,2,2*%
%TO.N,Net-(J11-Pad2)*%
X134928800Y-83607610D03*
%TO.P,J11,3,3*%
%TO.N,Net-(J11-Pad3)*%
X134928800Y-78527599D03*
%TO.P,J11,4,4*%
%TO.N,Net-(J11-Pad4)*%
X134928800Y-73447589D03*
%TD*%
%TO.P,J4,1,1*%
%TO.N,Net-(J4-Pad1)*%
X60049215Y-119033582D03*
%TO.P,J4,2,2*%
%TO.N,Net-(J4-Pad2)*%
X60049215Y-124113592D03*
%TO.P,J4,3,3*%
%TO.N,Net-(J4-Pad3)*%
X60049215Y-129193603D03*
%TO.P,J4,4,4*%
%TO.N,Net-(J4-Pad4)*%
X60049215Y-134273613D03*
%TD*%
D10*
%TO.P,R43,1,1*%
%TO.N,Net-(J12-Pad2)*%
X126612914Y-104241600D03*
%TO.P,R43,2,2*%
%TO.N,Net-(R43-Pad2)*%
X116312686Y-104241600D03*
%TD*%
%TO.P,R51,1,1*%
%TO.N,Net-(J14-Pad2)*%
X126612914Y-129641600D03*
%TO.P,R51,2,2*%
%TO.N,Net-(R51-Pad2)*%
X116312686Y-129641600D03*
%TD*%
D11*
%TO.P,J14,1,1*%
%TO.N,Net-(J14-Pad1)*%
X134928800Y-154727620D03*
%TO.P,J14,2,2*%
%TO.N,Net-(J14-Pad2)*%
X134928800Y-149647610D03*
%TO.P,J14,3,3*%
%TO.N,Net-(J14-Pad3)*%
X134928800Y-144567599D03*
%TO.P,J14,4,4*%
%TO.N,Net-(J14-Pad4)*%
X134928800Y-139487589D03*
%TD*%
D10*
%TO.P,R52,1,1*%
%TO.N,Net-(J14-Pad1)*%
X126612914Y-132689600D03*
%TO.P,R52,2,2*%
%TO.N,Net-(R52-Pad2)*%
X116312686Y-132689600D03*
%TD*%
D12*
%TO.P,Q2,1,E*%
%TO.N,Net-(J1-Pad3)*%
X80060803Y-144615536D03*
D13*
%TO.P,Q2,2,B*%
%TO.N,Net-(Q2-Pad2)*%
X78790800Y-144615536D03*
%TO.P,Q2,3,C*%
%TO.N,GND*%
X77520797Y-144615536D03*
%TD*%
D11*
%TO.P,J8,1,1*%
%TO.N,Net-(J8-Pad1)*%
X93716820Y-56256604D03*
%TO.P,J8,2,2*%
%TO.N,Net-(J8-Pad2)*%
X88636810Y-56256604D03*
%TO.P,J8,3,3*%
%TO.N,Net-(J8-Pad3)*%
X83556799Y-56256604D03*
%TO.P,J8,4,4*%
%TO.N,Net-(J8-Pad4)*%
X78476789Y-56256604D03*
%TD*%
D10*
%TO.P,R30,1,1*%
%TO.N,Net-(J9-Pad3)*%
X102666800Y-62515486D03*
%TO.P,R30,2,2*%
%TO.N,Net-(R30-Pad2)*%
X102666800Y-72815714D03*
%TD*%
%TO.P,R27,1,1*%
%TO.N,Net-(J8-Pad2)*%
X88950800Y-62515486D03*
%TO.P,R27,2,2*%
%TO.N,Net-(R27-Pad2)*%
X88950800Y-72815714D03*
%TD*%
%TO.P,R18,1,1*%
%TO.N,Net-(J6-Pad3)*%
X67857101Y-92176596D03*
%TO.P,R18,2,2*%
%TO.N,Net-(R18-Pad2)*%
X78157329Y-92176596D03*
%TD*%
%TO.P,R33,1,1*%
%TO.N,Net-(J10-Pad4)*%
X111810800Y-62515486D03*
%TO.P,R33,2,2*%
%TO.N,Net-(R33-Pad2)*%
X111810800Y-72815714D03*
%TD*%
%TO.P,R21,1,1*%
%TO.N,Net-(J7-Pad4)*%
X70662800Y-62515486D03*
%TO.P,R21,2,2*%
%TO.N,Net-(R21-Pad2)*%
X70662800Y-72815714D03*
%TD*%
%TO.P,R1,1,1*%
%TO.N,Net-(R1-Pad1)*%
X97148914Y-132689600D03*
%TO.P,R1,2,2*%
%TO.N,Net-(Q4-Pad2)*%
X86848686Y-132689600D03*
%TD*%
D11*
%TO.P,J9,1,1*%
%TO.N,Net-(J9-Pad1)*%
X116068820Y-56256604D03*
%TO.P,J9,2,2*%
%TO.N,Net-(J9-Pad2)*%
X110988810Y-56256604D03*
%TO.P,J9,3,3*%
%TO.N,Net-(J9-Pad3)*%
X105908799Y-56256604D03*
%TO.P,J9,4,4*%
%TO.N,Net-(J9-Pad4)*%
X100828789Y-56256604D03*
%TD*%
D10*
%TO.P,R45,1,1*%
%TO.N,Net-(J13-Pad4)*%
X126612914Y-110845600D03*
%TO.P,R45,2,2*%
%TO.N,Net-(R45-Pad2)*%
X116312686Y-110845600D03*
%TD*%
%TO.P,R12,1,1*%
%TO.N,Net-(J4-Pad1)*%
X67950572Y-110845615D03*
%TO.P,R12,2,2*%
%TO.N,Net-(R12-Pad2)*%
X78250800Y-110845615D03*
%TD*%
D12*
%TO.P,Q4,1,E*%
%TO.N,Net-(J1-Pad1)*%
X70916803Y-144615536D03*
D13*
%TO.P,Q4,2,B*%
%TO.N,Net-(Q4-Pad2)*%
X69646800Y-144615536D03*
%TO.P,Q4,3,C*%
%TO.N,GND*%
X68376797Y-144615536D03*
%TD*%
D11*
%TO.P,J1,1,1*%
%TO.N,Net-(J1-Pad1)*%
X68944780Y-153267600D03*
%TO.P,J1,2,2*%
%TO.N,Net-(J1-Pad2)*%
X74024790Y-153267600D03*
%TO.P,J1,3,3*%
%TO.N,Net-(J1-Pad3)*%
X79104801Y-153267600D03*
%TO.P,J1,4,4*%
%TO.N,Net-(J1-Pad4)*%
X84184811Y-153267600D03*
%TD*%
D10*
%TO.P,R2,1,1*%
%TO.N,Net-(R2-Pad1)*%
X97148914Y-135737600D03*
%TO.P,R2,2,2*%
%TO.N,Net-(Q3-Pad2)*%
X86848686Y-135737600D03*
%TD*%
%TO.P,R37,1,1*%
%TO.N,Net-(J11-Pad4)*%
X126612914Y-85445600D03*
%TO.P,R37,2,2*%
%TO.N,Net-(R37-Pad2)*%
X116312686Y-85445600D03*
%TD*%
%TO.P,R5,1,1*%
%TO.N,Net-(J3-Pad4)*%
X67950572Y-132689615D03*
%TO.P,R5,2,2*%
%TO.N,Net-(R5-Pad2)*%
X78250800Y-132689615D03*
%TD*%
D11*
%TO.P,J10,1,1*%
%TO.N,Net-(J10-Pad1)*%
X137912820Y-56256604D03*
%TO.P,J10,2,2*%
%TO.N,Net-(J10-Pad2)*%
X132832810Y-56256604D03*
%TO.P,J10,3,3*%
%TO.N,Net-(J10-Pad3)*%
X127752799Y-56256604D03*
%TO.P,J10,4,4*%
%TO.N,Net-(J10-Pad4)*%
X122672789Y-56256604D03*
%TD*%
D10*
%TO.P,R39,1,1*%
%TO.N,Net-(J11-Pad2)*%
X126612914Y-91541600D03*
%TO.P,R39,2,2*%
%TO.N,Net-(R39-Pad2)*%
X116312686Y-91541600D03*
%TD*%
%TO.P,R3,1,1*%
%TO.N,Net-(R3-Pad1)*%
X97148914Y-138785600D03*
%TO.P,R3,2,2*%
%TO.N,Net-(Q2-Pad2)*%
X86848686Y-138785600D03*
%TD*%
D12*
%TO.P,Q3,1,E*%
%TO.N,Net-(J1-Pad2)*%
X75488803Y-144615536D03*
D13*
%TO.P,Q3,2,B*%
%TO.N,Net-(Q3-Pad2)*%
X74218800Y-144615536D03*
%TO.P,Q3,3,C*%
%TO.N,GND*%
X72948797Y-144615536D03*
%TD*%
D10*
%TO.P,R25,1,1*%
%TO.N,Net-(J8-Pad4)*%
X82854800Y-62515486D03*
%TO.P,R25,2,2*%
%TO.N,Net-(R25-Pad2)*%
X82854800Y-72815714D03*
%TD*%
%TO.P,R35,1,1*%
%TO.N,Net-(J10-Pad2)*%
X117906800Y-62515486D03*
%TO.P,R35,2,2*%
%TO.N,Net-(R35-Pad2)*%
X117906800Y-72815714D03*
%TD*%
D14*
%TO.P,J2,1,1*%
%TO.N,GND*%
X95246787Y-153317613D03*
%TO.P,J2,2,2*%
%TO.N,Net-(J2-Pad2)*%
X100246787Y-153317613D03*
%TO.P,J2,3,3*%
%TO.N,Net-(J2-Pad3)*%
X105246813Y-153317613D03*
%TO.P,J2,4,4*%
%TO.N,Net-(J2-Pad4)*%
X110246813Y-153317613D03*
%TO.P,J2,5,5*%
%TO.N,Net-(J2-Pad5)*%
X115246838Y-153317613D03*
%TO.P,J2,6,6*%
%TO.N,Net-(J2-Pad6)*%
X120246838Y-153317613D03*
%TD*%
D10*
%TO.P,R44,1,1*%
%TO.N,Net-(J12-Pad1)*%
X126612914Y-107289600D03*
%TO.P,R44,2,2*%
%TO.N,Net-(R44-Pad2)*%
X116312686Y-107289600D03*
%TD*%
%TO.P,R8,1,1*%
%TO.N,Net-(J3-Pad1)*%
X67950572Y-123545615D03*
%TO.P,R8,2,2*%
%TO.N,Net-(R8-Pad2)*%
X78250800Y-123545615D03*
%TD*%
%TO.P,R38,1,1*%
%TO.N,Net-(J11-Pad3)*%
X126612914Y-88493600D03*
%TO.P,R38,2,2*%
%TO.N,Net-(R38-Pad2)*%
X116312686Y-88493600D03*
%TD*%
%TO.P,R24,1,1*%
%TO.N,Net-(J7-Pad1)*%
X79806800Y-62515486D03*
%TO.P,R24,2,2*%
%TO.N,Net-(R24-Pad2)*%
X79806800Y-72815714D03*
%TD*%
%TO.P,R34,1,1*%
%TO.N,Net-(J10-Pad3)*%
X114858800Y-62515486D03*
%TO.P,R34,2,2*%
%TO.N,Net-(R34-Pad2)*%
X114858800Y-72815714D03*
%TD*%
D15*
%TO.N,GND*%
X85902800Y-147421600D03*
%TO.N,Net-(U2-Pad9)*%
X85140800Y-119862600D03*
X85140800Y-111607600D03*
%TO.N,Net-(U6-Pad9)*%
X106857800Y-123799600D03*
X106857800Y-99161600D03*
%TO.N,Net-(U5-Pad9)*%
X102285800Y-98526600D03*
X99999800Y-84175600D03*
%TO.N,Net-(U4-Pad9)*%
X105968800Y-82270600D03*
X82600800Y-82143600D03*
%TO.N,Net-(U3-Pad9)*%
X91490800Y-86207600D03*
X86156800Y-98018600D03*
%TO.N,Net-(U2-Pad9)*%
X85140800Y-101193600D03*
X85140800Y-105638600D03*
%TO.N,Net-(U1-Pad9)*%
X90093800Y-119989600D03*
X96443800Y-119989600D03*
%TO.N,Net-(J2-Pad2)*%
X93268800Y-87731600D03*
%TO.N,Net-(J2-Pad3)*%
X94284800Y-89001600D03*
%TO.N,Net-(J2-Pad2)*%
X90577963Y-90422437D03*
%TO.N,Net-(J2-Pad3)*%
X92506800Y-90779600D03*
%TO.N,GND*%
X99564787Y-90071613D03*
X95246787Y-94897613D03*
%TO.N,Net-(J2-Pad6)*%
X90093800Y-81889600D03*
%TO.N,GND*%
X90982800Y-80365600D03*
%TO.N,Net-(J2-Pad6)*%
X93395800Y-81889600D03*
%TO.N,GND*%
X94665800Y-80365600D03*
%TO.N,Net-(J2-Pad6)*%
X108127800Y-81889600D03*
%TO.N,GND*%
X109397800Y-80365600D03*
%TO.N,Net-(J2-Pad6)*%
X113080800Y-81889600D03*
%TO.N,GND*%
X114731800Y-80365600D03*
%TO.N,Net-(J2-Pad2)*%
X101396800Y-94716600D03*
%TO.N,Net-(J2-Pad3)*%
X100507800Y-95605600D03*
%TO.N,Net-(J2-Pad4)*%
X98983800Y-96113600D03*
%TO.N,Net-(J2-Pad2)*%
X90474800Y-98653600D03*
%TO.N,Net-(J2-Pad3)*%
X90474800Y-97256600D03*
%TO.N,Net-(J2-Pad4)*%
X90474800Y-96113600D03*
X94284800Y-96113600D03*
%TO.N,Net-(J2-Pad3)*%
X93256289Y-97269111D03*
%TO.N,Net-(J2-Pad2)*%
X92265311Y-98641089D03*
%TO.N,Net-(J2-Pad3)*%
X100634800Y-120878600D03*
%TO.N,Net-(J2-Pad2)*%
X101904800Y-120243600D03*
%TO.N,Net-(J2-Pad4)*%
X98856800Y-121259600D03*
%TO.N,Net-(J2-Pad2)*%
X90220800Y-123672600D03*
%TO.N,Net-(J2-Pad3)*%
X90220800Y-122402600D03*
%TO.N,Net-(J2-Pad4)*%
X90220800Y-121259600D03*
X94284800Y-121259600D03*
%TO.N,Net-(J2-Pad3)*%
X93256289Y-122415111D03*
%TO.N,Net-(J2-Pad2)*%
X92252800Y-123672600D03*
%TO.N,GND*%
X91490800Y-104241600D03*
X95246787Y-115217613D03*
X95246787Y-128933613D03*
X99872800Y-115163600D03*
X91490800Y-128879600D03*
X95246787Y-104168613D03*
%TO.N,Net-(J2-Pad2)*%
X92252800Y-146151600D03*
X97332800Y-148183600D03*
X105968800Y-142087600D03*
X99999800Y-150850600D03*
%TO.N,Net-(J2-Pad3)*%
X100627800Y-148698600D03*
X98094800Y-146913600D03*
X93268800Y-145135600D03*
X105460800Y-140817600D03*
%TO.N,Net-(J2-Pad4)*%
X98094800Y-145643600D03*
X94030800Y-144119600D03*
X105206800Y-139293600D03*
X102619800Y-145690600D03*
%TO.N,Net-(J2-Pad6)*%
X110413800Y-142976600D03*
X91363800Y-92303600D03*
X91490800Y-99923600D03*
X97840800Y-92303600D03*
X91490800Y-125069600D03*
X91490800Y-117449600D03*
X97840800Y-99923600D03*
X119557800Y-142976600D03*
X97840800Y-125069600D03*
X97840800Y-117449600D03*
%TD*%
D16*
%TO.N,GND*%
X85902800Y-147421600D02*
X84198861Y-147421600D01*
D17*
%TO.N,Net-(U2-Pad9)*%
X85140800Y-111607600D02*
X85140800Y-119862600D01*
%TO.N,Net-(U6-Pad9)*%
X106857800Y-99161600D02*
X106857800Y-123799600D01*
%TO.N,Net-(U5-Pad9)*%
X102171311Y-86347111D02*
X102171311Y-98412111D01*
X102171311Y-98412111D02*
X102285800Y-98526600D01*
X99999800Y-84175600D02*
X102171311Y-86347111D01*
%TO.N,Net-(U4-Pad9)*%
X99745800Y-76682600D02*
X105333800Y-82270600D01*
X82981800Y-76682600D02*
X99745800Y-76682600D01*
X82600800Y-77063600D02*
X82981800Y-76682600D01*
X82600800Y-82143600D02*
X82600800Y-77063600D01*
X105333800Y-82270600D02*
X105968800Y-82270600D01*
%TO.N,Net-(U3-Pad9)*%
X86156800Y-91541600D02*
X91490800Y-86207600D01*
X86156800Y-98018600D02*
X86156800Y-91541600D01*
%TO.N,Net-(U2-Pad9)*%
X85140800Y-105638600D02*
X85140800Y-101193600D01*
%TO.N,Net-(U1-Pad9)*%
X96443800Y-119989600D02*
X90093800Y-119989600D01*
%TO.N,Net-(J2-Pad2)*%
X90577963Y-90422437D02*
X93268800Y-87731600D01*
%TO.N,Net-(J2-Pad3)*%
X92506800Y-90779600D02*
X94284800Y-89001600D01*
D16*
%TO.N,GND*%
X99564787Y-92738613D02*
X99564787Y-90071613D01*
X95246787Y-94897613D02*
X97405787Y-94897613D01*
X97405787Y-94897613D02*
X99564787Y-92738613D01*
%TO.N,Net-(J2-Pad6)*%
X93395800Y-81889600D02*
X90093800Y-81889600D01*
%TO.N,GND*%
X94665800Y-80365600D02*
X90982800Y-80365600D01*
%TO.N,Net-(J2-Pad6)*%
X113080800Y-81889600D02*
X108127800Y-81889600D01*
%TO.N,GND*%
X114731800Y-80365600D02*
X109397800Y-80365600D01*
D17*
%TO.N,Net-(J2-Pad3)*%
X100507800Y-95684925D02*
X98923614Y-97269111D01*
X98923614Y-97269111D02*
X93256289Y-97269111D01*
X100507800Y-95605600D02*
X100507800Y-95684925D01*
%TO.N,Net-(J2-Pad2)*%
X101396800Y-97256600D02*
X101396800Y-94716600D01*
X99952125Y-97256600D02*
X101396800Y-97256600D01*
X92265311Y-98641089D02*
X98567636Y-98641089D01*
X98567636Y-98641089D02*
X99952125Y-97256600D01*
%TO.N,Net-(J2-Pad4)*%
X94284800Y-96113600D02*
X98983800Y-96113600D01*
%TO.N,Net-(J2-Pad2)*%
X90474800Y-98653600D02*
X90487311Y-98641089D01*
X92265311Y-98641089D02*
X90487311Y-98641089D01*
%TO.N,Net-(J2-Pad3)*%
X90487311Y-97269111D02*
X90474800Y-97256600D01*
X93256289Y-97269111D02*
X90487311Y-97269111D01*
%TO.N,Net-(J2-Pad4)*%
X94284800Y-96113600D02*
X90474800Y-96113600D01*
%TO.N,Net-(J2-Pad3)*%
X99098289Y-122415111D02*
X100634800Y-120878600D01*
X93256289Y-122415111D02*
X99098289Y-122415111D01*
%TO.N,Net-(J2-Pad2)*%
X101904800Y-123672600D02*
X101904800Y-120243600D01*
X92252800Y-123672600D02*
X101904800Y-123672600D01*
%TO.N,Net-(J2-Pad4)*%
X94284800Y-121259600D02*
X98856800Y-121259600D01*
%TO.N,Net-(J2-Pad2)*%
X92252800Y-123672600D02*
X90220800Y-123672600D01*
%TO.N,Net-(J2-Pad3)*%
X93243778Y-122402600D02*
X90220800Y-122402600D01*
X93256289Y-122415111D02*
X93243778Y-122402600D01*
%TO.N,Net-(J2-Pad4)*%
X94284800Y-121259600D02*
X90220800Y-121259600D01*
D16*
%TO.N,GND*%
X84198861Y-147421600D02*
X79626861Y-147421600D01*
X91490800Y-104241600D02*
X91563787Y-104168613D01*
X95192774Y-128879600D02*
X95246787Y-128933613D01*
X84198861Y-147421600D02*
X82092797Y-145315536D01*
X68376797Y-145315536D02*
X68376797Y-144615536D01*
X75054861Y-147421600D02*
X70482861Y-147421600D01*
X79626861Y-147421600D02*
X75054861Y-147421600D01*
X95300800Y-115163600D02*
X95246787Y-115217613D01*
X91490800Y-128879600D02*
X95192774Y-128879600D01*
X99872800Y-115163600D02*
X95300800Y-115163600D01*
X75054861Y-147421600D02*
X72948797Y-145315536D01*
X70482861Y-147421600D02*
X68376797Y-145315536D01*
X72948797Y-145315536D02*
X72948797Y-144615536D01*
X77520797Y-145315536D02*
X77520797Y-144615536D01*
X82092797Y-145315536D02*
X82092797Y-144615536D01*
X79626861Y-147421600D02*
X77520797Y-145315536D01*
X91563787Y-104168613D02*
X95246787Y-104168613D01*
D17*
%TO.N,Net-(J2-Pad2)*%
X97332800Y-148183600D02*
X94284800Y-148183600D01*
X94284800Y-148183600D02*
X92252800Y-146151600D01*
X105968800Y-144881600D02*
X105968800Y-142087600D01*
X99999800Y-150850600D02*
X105968800Y-144881600D01*
%TO.N,Net-(J2-Pad3)*%
X100627800Y-148698600D02*
X101135800Y-148698600D01*
X105079800Y-144754600D02*
X105079800Y-141198600D01*
X98094800Y-146913600D02*
X95046800Y-146913600D01*
X101135800Y-148698600D02*
X105079800Y-144754600D01*
X95046800Y-146913600D02*
X93268800Y-145135600D01*
X105079800Y-141198600D02*
X105460800Y-140817600D01*
%TO.N,Net-(J2-Pad4)*%
X95554800Y-145643600D02*
X94030800Y-144119600D01*
X103254800Y-145690600D02*
X104444800Y-144500600D01*
X104444800Y-144500600D02*
X104444800Y-140055600D01*
X98094800Y-145643600D02*
X95554800Y-145643600D01*
X104444800Y-140055600D02*
X105206800Y-139293600D01*
X102619800Y-145690600D02*
X103254800Y-145690600D01*
D16*
%TO.N,Net-(J2-Pad6)*%
X91490800Y-99923600D02*
X97840800Y-99923600D01*
X119557800Y-142976600D02*
X110413800Y-142976600D01*
X97840800Y-92303600D02*
X91363800Y-92303600D01*
X91490815Y-125069615D02*
X97840785Y-125069615D01*
X97840785Y-125069615D02*
X97840800Y-125069600D01*
X97840800Y-117449600D02*
X91490800Y-117449600D01*
X91490800Y-125069600D02*
X91490815Y-125069615D01*
%TD*%
M02*
