%TF.GenerationSoftware,KiCad,Pcbnew,(6.0.4)*%
%TF.CreationDate,2022-08-07T23:35:56-04:00*%
%TF.ProjectId,pcb,7063622e-6b69-4636-9164-5f7063625858,rev?*%
%TF.SameCoordinates,Original*%
%TF.FileFunction,Paste,Top*%
%TF.FilePolarity,Positive*%
%FSLAX46Y46*%
G04 Gerber Fmt 4.6, Leading zero omitted, Abs format (unit mm)*
G04 Created by KiCad (PCBNEW (6.0.4)) date 2022-08-07 23:35:56*
%MOMM*%
%LPD*%
G01*
G04 APERTURE LIST*
%ADD10O,1.970993X0.602007*%
%ADD11O,0.602007X1.970993*%
G04 APERTURE END LIST*
D10*
%TO.C,U2*%
X82557101Y-117449600D03*
X82557101Y-118719603D03*
X82557101Y-119989605D03*
X82557101Y-121259608D03*
X82557101Y-122529610D03*
X82557101Y-123799613D03*
X82557101Y-125069615D03*
X82557101Y-126339618D03*
X88028271Y-126339618D03*
X88028271Y-125069615D03*
X88028271Y-123799613D03*
X88028271Y-122529610D03*
X88028271Y-121259608D03*
X88028271Y-119989605D03*
X88028271Y-118719603D03*
X88028271Y-117449600D03*
%TD*%
D11*
%TO.C,U5*%
X110159809Y-78671019D03*
X108889806Y-78671019D03*
X107619804Y-78671019D03*
X106349801Y-78671019D03*
X105079799Y-78671019D03*
X103809796Y-78671019D03*
X102539794Y-78671019D03*
X101269791Y-78671019D03*
X101269791Y-84142189D03*
X102539794Y-84142189D03*
X103809796Y-84142189D03*
X105079799Y-84142189D03*
X106349801Y-84142189D03*
X107619804Y-84142189D03*
X108889806Y-84142189D03*
X110159809Y-84142189D03*
%TD*%
%TO.C,U4*%
X92379809Y-78646015D03*
X91109806Y-78646015D03*
X89839804Y-78646015D03*
X88569801Y-78646015D03*
X87299799Y-78646015D03*
X86029796Y-78646015D03*
X84759794Y-78646015D03*
X83489791Y-78646015D03*
X83489791Y-84117185D03*
X84759794Y-84117185D03*
X86029796Y-84117185D03*
X87299799Y-84117185D03*
X88569801Y-84117185D03*
X89839804Y-84117185D03*
X91109806Y-84117185D03*
X92379809Y-84117185D03*
%TD*%
D10*
%TO.C,U1*%
X102471215Y-135356591D03*
X102471215Y-136626594D03*
X102471215Y-137896596D03*
X102471215Y-139166599D03*
X102471215Y-140436601D03*
X102471215Y-141706604D03*
X102471215Y-142976606D03*
X102471215Y-144246609D03*
X107942385Y-144246609D03*
X107942385Y-142976606D03*
X107942385Y-141706604D03*
X107942385Y-140436601D03*
X107942385Y-139166599D03*
X107942385Y-137896596D03*
X107942385Y-136626594D03*
X107942385Y-135356591D03*
%TD*%
%TO.C,U7*%
X109466385Y-126466609D03*
X109466385Y-125196606D03*
X109466385Y-123926604D03*
X109466385Y-122656601D03*
X109466385Y-121386599D03*
X109466385Y-120116596D03*
X109466385Y-118846594D03*
X109466385Y-117576591D03*
X103995215Y-117576591D03*
X103995215Y-118846594D03*
X103995215Y-120116596D03*
X103995215Y-121386599D03*
X103995215Y-122656601D03*
X103995215Y-123926604D03*
X103995215Y-125196606D03*
X103995215Y-126466609D03*
%TD*%
%TO.C,U6*%
X109466385Y-101066609D03*
X109466385Y-99796606D03*
X109466385Y-98526604D03*
X109466385Y-97256601D03*
X109466385Y-95986599D03*
X109466385Y-94716596D03*
X109466385Y-93446594D03*
X109466385Y-92176591D03*
X103995215Y-92176591D03*
X103995215Y-93446594D03*
X103995215Y-94716596D03*
X103995215Y-95986599D03*
X103995215Y-97256601D03*
X103995215Y-98526604D03*
X103995215Y-99796606D03*
X103995215Y-101066609D03*
%TD*%
%TO.C,U3*%
X82971630Y-92303587D03*
X82971630Y-93573590D03*
X82971630Y-94843592D03*
X82971630Y-96113595D03*
X82971630Y-97383597D03*
X82971630Y-98653600D03*
X82971630Y-99923602D03*
X82971630Y-101193605D03*
X88442800Y-101193605D03*
X88442800Y-99923602D03*
X88442800Y-98653600D03*
X88442800Y-97383597D03*
X88442800Y-96113595D03*
X88442800Y-94843592D03*
X88442800Y-93573590D03*
X88442800Y-92303587D03*
%TD*%
M02*
