%TF.GenerationSoftware,KiCad,Pcbnew,(6.0.4)*%
%TF.CreationDate,2022-07-26T21:07:26-04:00*%
%TF.ProjectId,pcb,7063622e-6b69-4636-9164-5f7063625858,rev?*%
%TF.SameCoordinates,Original*%
%TF.FileFunction,Copper,L1,Top*%
%TF.FilePolarity,Positive*%
%FSLAX46Y46*%
G04 Gerber Fmt 4.6, Leading zero omitted, Abs format (unit mm)*
G04 Created by KiCad (PCBNEW (6.0.4)) date 2022-07-26 21:07:26*
%MOMM*%
%LPD*%
G01*
G04 APERTURE LIST*
%TA.AperFunction,ComponentPad*%
%ADD10C,1.400000*%
%TD*%
%TA.AperFunction,ComponentPad*%
%ADD11O,1.400000X1.400000*%
%TD*%
%TA.AperFunction,ComponentPad*%
%ADD12C,1.000000*%
%TD*%
%TA.AperFunction,ComponentPad*%
%ADD13R,2.600000X2.600000*%
%TD*%
%TA.AperFunction,ComponentPad*%
%ADD14C,2.600000*%
%TD*%
%TA.AperFunction,ComponentPad*%
%ADD15R,1.080000X1.080000*%
%TD*%
%TA.AperFunction,ComponentPad*%
%ADD16C,1.080000*%
%TD*%
%TA.AperFunction,ViaPad*%
%ADD17C,0.800000*%
%TD*%
%TA.AperFunction,Conductor*%
%ADD18C,0.250000*%
%TD*%
%TA.AperFunction,Conductor*%
%ADD19C,0.600000*%
%TD*%
G04 APERTURE END LIST*
D10*
%TO.P,R39,1*%
%TO.N,Net-(J11-Pad3)*%
X101414600Y-85090000D03*
D11*
%TO.P,R39,2*%
%TO.N,Net-(R39-Pad2)*%
X96334600Y-85090000D03*
%TD*%
D12*
%TO.P,U7,1,QB*%
%TO.N,Net-(R52-Pad2)*%
X91889600Y-137414000D03*
%TO.P,U7,2,QC*%
%TO.N,Net-(R51-Pad2)*%
X93159600Y-137414000D03*
%TO.P,U7,3,QD*%
%TO.N,Net-(R50-Pad2)*%
X94429600Y-137414000D03*
%TO.P,U7,4,QE*%
%TO.N,Net-(R49-Pad2)*%
X95699600Y-137414000D03*
%TO.P,U7,5,QF*%
%TO.N,Net-(R48-Pad2)*%
X96969600Y-137414000D03*
%TO.P,U7,6,QG*%
%TO.N,Net-(R47-Pad2)*%
X98239600Y-137414000D03*
%TO.P,U7,7,QH*%
%TO.N,Net-(R46-Pad2)*%
X99509600Y-137414000D03*
%TO.P,U7,8,GND*%
%TO.N,GND*%
X100779600Y-137414000D03*
%TO.P,U7,9,QH'*%
%TO.N,unconnected-(U7-Pad9)*%
X100779600Y-131826000D03*
%TO.P,U7,10,~{SRCLR}*%
%TO.N,Net-(J2-Pad6)*%
X99509600Y-131826000D03*
%TO.P,U7,11,SRCLK*%
%TO.N,Net-(J2-Pad5)*%
X98239600Y-131826000D03*
%TO.P,U7,12,RCLK*%
%TO.N,Net-(J2-Pad3)*%
X96969600Y-131826000D03*
%TO.P,U7,13,~{OE}*%
%TO.N,Net-(J2-Pad2)*%
X95699600Y-131826000D03*
%TO.P,U7,14,SER*%
%TO.N,Net-(U6-Pad9)*%
X94429600Y-131826000D03*
%TO.P,U7,15,QA*%
%TO.N,Net-(R53-Pad2)*%
X93159600Y-131826000D03*
%TO.P,U7,16,VCC*%
%TO.N,Net-(J2-Pad6)*%
X91889600Y-131826000D03*
%TD*%
D10*
%TO.P,R23,1*%
%TO.N,Net-(J7-Pad3)*%
X69850000Y-58420000D03*
D11*
%TO.P,R23,2*%
%TO.N,Net-(R23-Pad2)*%
X74930000Y-58420000D03*
%TD*%
D12*
%TO.P,U2,1,QB*%
%TO.N,Net-(R12-Pad2)*%
X79375000Y-131826000D03*
%TO.P,U2,2,QC*%
%TO.N,Net-(R11-Pad2)*%
X78105000Y-131826000D03*
%TO.P,U2,3,QD*%
%TO.N,Net-(R10-Pad2)*%
X76835000Y-131826000D03*
%TO.P,U2,4,QE*%
%TO.N,Net-(R9-Pad2)*%
X75565000Y-131826000D03*
%TO.P,U2,5,QF*%
%TO.N,Net-(R8-Pad2)*%
X74295000Y-131826000D03*
%TO.P,U2,6,QG*%
%TO.N,Net-(R7-Pad2)*%
X73025000Y-131826000D03*
%TO.P,U2,7,QH*%
%TO.N,Net-(R6-Pad2)*%
X71755000Y-131826000D03*
%TO.P,U2,8,GND*%
%TO.N,GND*%
X70485000Y-131826000D03*
%TO.P,U2,9,QH'*%
%TO.N,Net-(U2-Pad9)*%
X70485000Y-137414000D03*
%TO.P,U2,10,~{SRCLR}*%
%TO.N,Net-(J2-Pad6)*%
X71755000Y-137414000D03*
%TO.P,U2,11,SRCLK*%
%TO.N,Net-(J2-Pad5)*%
X73025000Y-137414000D03*
%TO.P,U2,12,RCLK*%
%TO.N,Net-(J2-Pad3)*%
X74295000Y-137414000D03*
%TO.P,U2,13,~{OE}*%
%TO.N,Net-(J2-Pad2)*%
X75565000Y-137414000D03*
%TO.P,U2,14,SER*%
%TO.N,Net-(U1-Pad9)*%
X76835000Y-137414000D03*
%TO.P,U2,15,QA*%
%TO.N,Net-(R13-Pad2)*%
X78105000Y-137414000D03*
%TO.P,U2,16,VCC*%
%TO.N,Net-(J2-Pad6)*%
X79375000Y-137414000D03*
%TD*%
D10*
%TO.P,R53,1*%
%TO.N,Net-(J14-Pad1)*%
X101414600Y-140970000D03*
D11*
%TO.P,R53,2*%
%TO.N,Net-(R53-Pad2)*%
X96334600Y-140970000D03*
%TD*%
D13*
%TO.P,J4,1,Pin_1*%
%TO.N,Net-(J4-Pad1)*%
X62230000Y-133045200D03*
D14*
%TO.P,J4,2,Pin_2*%
%TO.N,Net-(J4-Pad2)*%
X62230000Y-127965200D03*
%TO.P,J4,3,Pin_3*%
%TO.N,Net-(J4-Pad3)*%
X62230000Y-122885200D03*
%TO.P,J4,4,Pin_4*%
%TO.N,Net-(J4-Pad4)*%
X62230000Y-117805200D03*
%TD*%
D10*
%TO.P,R14,1*%
%TO.N,Net-(J5-Pad4)*%
X69850000Y-100330000D03*
D11*
%TO.P,R14,2*%
%TO.N,Net-(R14-Pad2)*%
X74930000Y-100330000D03*
%TD*%
D10*
%TO.P,R19,1*%
%TO.N,Net-(J6-Pad3)*%
X69850000Y-82550000D03*
D11*
%TO.P,R19,2*%
%TO.N,Net-(R19-Pad2)*%
X74930000Y-82550000D03*
%TD*%
D10*
%TO.P,R47,1*%
%TO.N,Net-(J13-Pad3)*%
X101414600Y-125730000D03*
D11*
%TO.P,R47,2*%
%TO.N,Net-(R47-Pad2)*%
X96334600Y-125730000D03*
%TD*%
D13*
%TO.P,J7,1,Pin_1*%
%TO.N,Net-(J7-Pad1)*%
X62230000Y-68275200D03*
D14*
%TO.P,J7,2,Pin_2*%
%TO.N,Net-(J7-Pad2)*%
X62230000Y-63195200D03*
%TO.P,J7,3,Pin_3*%
%TO.N,Net-(J7-Pad3)*%
X62230000Y-58115200D03*
%TO.P,J7,4,Pin_4*%
%TO.N,Net-(J7-Pad4)*%
X62230000Y-53035200D03*
%TD*%
D10*
%TO.P,R51,1*%
%TO.N,Net-(J14-Pad3)*%
X101414600Y-146050000D03*
D11*
%TO.P,R51,2*%
%TO.N,Net-(R51-Pad2)*%
X96334600Y-146050000D03*
%TD*%
D10*
%TO.P,R16,1*%
%TO.N,Net-(J5-Pad2)*%
X69850000Y-105410000D03*
D11*
%TO.P,R16,2*%
%TO.N,Net-(R16-Pad2)*%
X74930000Y-105410000D03*
%TD*%
D10*
%TO.P,R25,1*%
%TO.N,Net-(J7-Pad1)*%
X69850000Y-63500000D03*
D11*
%TO.P,R25,2*%
%TO.N,Net-(R25-Pad2)*%
X74930000Y-63500000D03*
%TD*%
D12*
%TO.P,U4,1,QB*%
%TO.N,Net-(R28-Pad2)*%
X79375000Y-46736000D03*
%TO.P,U4,2,QC*%
%TO.N,Net-(R27-Pad2)*%
X78105000Y-46736000D03*
%TO.P,U4,3,QD*%
%TO.N,Net-(R26-Pad2)*%
X76835000Y-46736000D03*
%TO.P,U4,4,QE*%
%TO.N,Net-(R25-Pad2)*%
X75565000Y-46736000D03*
%TO.P,U4,5,QF*%
%TO.N,Net-(R24-Pad2)*%
X74295000Y-46736000D03*
%TO.P,U4,6,QG*%
%TO.N,Net-(R23-Pad2)*%
X73025000Y-46736000D03*
%TO.P,U4,7,QH*%
%TO.N,Net-(R22-Pad2)*%
X71755000Y-46736000D03*
%TO.P,U4,8,GND*%
%TO.N,GND*%
X70485000Y-46736000D03*
%TO.P,U4,9,QH'*%
%TO.N,Net-(U4-Pad9)*%
X70485000Y-52324000D03*
%TO.P,U4,10,~{SRCLR}*%
%TO.N,Net-(J2-Pad6)*%
X71755000Y-52324000D03*
%TO.P,U4,11,SRCLK*%
%TO.N,Net-(J2-Pad5)*%
X73025000Y-52324000D03*
%TO.P,U4,12,RCLK*%
%TO.N,Net-(J2-Pad3)*%
X74295000Y-52324000D03*
%TO.P,U4,13,~{OE}*%
%TO.N,Net-(J2-Pad2)*%
X75565000Y-52324000D03*
%TO.P,U4,14,SER*%
%TO.N,Net-(U3-Pad9)*%
X76835000Y-52324000D03*
%TO.P,U4,15,QA*%
%TO.N,Net-(R29-Pad2)*%
X78105000Y-52324000D03*
%TO.P,U4,16,VCC*%
%TO.N,Net-(J2-Pad6)*%
X79375000Y-52324000D03*
%TD*%
D10*
%TO.P,R21,1*%
%TO.N,Net-(J6-Pad1)*%
X69850000Y-87630000D03*
D11*
%TO.P,R21,2*%
%TO.N,Net-(R21-Pad2)*%
X74930000Y-87630000D03*
%TD*%
D15*
%TO.P,Q1,1*%
%TO.N,Net-(J1-Pad1)*%
X87630000Y-114300000D03*
D16*
%TO.P,Q1,2*%
%TO.N,Net-(Q1-Pad2)*%
X88900000Y-115570000D03*
%TO.P,Q1,3*%
%TO.N,GND*%
X90170000Y-114300000D03*
%TD*%
D10*
%TO.P,R10,1*%
%TO.N,Net-(J4-Pad4)*%
X69850000Y-120650000D03*
D11*
%TO.P,R10,2*%
%TO.N,Net-(R10-Pad2)*%
X74930000Y-120650000D03*
%TD*%
D10*
%TO.P,R29,1*%
%TO.N,Net-(J8-Pad1)*%
X69850000Y-43180000D03*
D11*
%TO.P,R29,2*%
%TO.N,Net-(R29-Pad2)*%
X74930000Y-43180000D03*
%TD*%
D10*
%TO.P,R30,1*%
%TO.N,Net-(J9-Pad4)*%
X101600000Y-42926000D03*
D11*
%TO.P,R30,2*%
%TO.N,Net-(R30-Pad2)*%
X96520000Y-42926000D03*
%TD*%
D10*
%TO.P,R20,1*%
%TO.N,Net-(J6-Pad2)*%
X69850000Y-85090000D03*
D11*
%TO.P,R20,2*%
%TO.N,Net-(R20-Pad2)*%
X74930000Y-85090000D03*
%TD*%
D10*
%TO.P,R50,1*%
%TO.N,Net-(J14-Pad4)*%
X101414600Y-148590000D03*
D11*
%TO.P,R50,2*%
%TO.N,Net-(R50-Pad2)*%
X96334600Y-148590000D03*
%TD*%
D10*
%TO.P,R49,1*%
%TO.N,Net-(J13-Pad1)*%
X101414600Y-120650000D03*
D11*
%TO.P,R49,2*%
%TO.N,Net-(R49-Pad2)*%
X96334600Y-120650000D03*
%TD*%
D10*
%TO.P,R24,1*%
%TO.N,Net-(J7-Pad2)*%
X69850000Y-60960000D03*
D11*
%TO.P,R24,2*%
%TO.N,Net-(R24-Pad2)*%
X74930000Y-60960000D03*
%TD*%
D10*
%TO.P,R28,1*%
%TO.N,Net-(J8-Pad2)*%
X69850000Y-40640000D03*
D11*
%TO.P,R28,2*%
%TO.N,Net-(R28-Pad2)*%
X74930000Y-40640000D03*
%TD*%
D12*
%TO.P,U6,1,QB*%
%TO.N,Net-(R44-Pad2)*%
X91889600Y-96774000D03*
%TO.P,U6,2,QC*%
%TO.N,Net-(R43-Pad2)*%
X93159600Y-96774000D03*
%TO.P,U6,3,QD*%
%TO.N,Net-(R42-Pad2)*%
X94429600Y-96774000D03*
%TO.P,U6,4,QE*%
%TO.N,Net-(R41-Pad2)*%
X95699600Y-96774000D03*
%TO.P,U6,5,QF*%
%TO.N,Net-(R40-Pad2)*%
X96969600Y-96774000D03*
%TO.P,U6,6,QG*%
%TO.N,Net-(R39-Pad2)*%
X98239600Y-96774000D03*
%TO.P,U6,7,QH*%
%TO.N,Net-(R38-Pad2)*%
X99509600Y-96774000D03*
%TO.P,U6,8,GND*%
%TO.N,GND*%
X100779600Y-96774000D03*
%TO.P,U6,9,QH'*%
%TO.N,Net-(U6-Pad9)*%
X100779600Y-91186000D03*
%TO.P,U6,10,~{SRCLR}*%
%TO.N,Net-(J2-Pad6)*%
X99509600Y-91186000D03*
%TO.P,U6,11,SRCLK*%
%TO.N,Net-(J2-Pad5)*%
X98239600Y-91186000D03*
%TO.P,U6,12,RCLK*%
%TO.N,Net-(J2-Pad3)*%
X96969600Y-91186000D03*
%TO.P,U6,13,~{OE}*%
%TO.N,Net-(J2-Pad2)*%
X95699600Y-91186000D03*
%TO.P,U6,14,SER*%
%TO.N,Net-(U5-Pad9)*%
X94429600Y-91186000D03*
%TO.P,U6,15,QA*%
%TO.N,Net-(R45-Pad2)*%
X93159600Y-91186000D03*
%TO.P,U6,16,VCC*%
%TO.N,Net-(J2-Pad6)*%
X91889600Y-91186000D03*
%TD*%
D13*
%TO.P,J9,1,Pin_1*%
%TO.N,Net-(J9-Pad1)*%
X108864000Y-31750000D03*
D14*
%TO.P,J9,2,Pin_2*%
%TO.N,Net-(J9-Pad2)*%
X108864000Y-36830000D03*
%TO.P,J9,3,Pin_3*%
%TO.N,Net-(J9-Pad3)*%
X108864000Y-41910000D03*
%TO.P,J9,4,Pin_4*%
%TO.N,Net-(J9-Pad4)*%
X108864000Y-46990000D03*
%TD*%
D13*
%TO.P,J14,1,Pin_1*%
%TO.N,Net-(J14-Pad1)*%
X108915000Y-139700000D03*
D14*
%TO.P,J14,2,Pin_2*%
%TO.N,Net-(J14-Pad2)*%
X108915000Y-144780000D03*
%TO.P,J14,3,Pin_3*%
%TO.N,Net-(J14-Pad3)*%
X108915000Y-149860000D03*
%TO.P,J14,4,Pin_4*%
%TO.N,Net-(J14-Pad4)*%
X108915000Y-154940000D03*
%TD*%
D13*
%TO.P,J11,1,Pin_1*%
%TO.N,Net-(J11-Pad1)*%
X108864000Y-74930000D03*
D14*
%TO.P,J11,2,Pin_2*%
%TO.N,Net-(J11-Pad2)*%
X108864000Y-80010000D03*
%TO.P,J11,3,Pin_3*%
%TO.N,Net-(J11-Pad3)*%
X108864000Y-85090000D03*
%TO.P,J11,4,Pin_4*%
%TO.N,Net-(J11-Pad4)*%
X108864000Y-90170000D03*
%TD*%
D13*
%TO.P,J1,1,Pin_1*%
%TO.N,Net-(J1-Pad1)*%
X78740000Y-28245000D03*
D14*
%TO.P,J1,2,Pin_2*%
%TO.N,Net-(J1-Pad2)*%
X83820000Y-28245000D03*
%TO.P,J1,3,Pin_3*%
%TO.N,Net-(J1-Pad3)*%
X88900000Y-28245000D03*
%TO.P,J1,4,Pin_4*%
%TO.N,Net-(J1-Pad4)*%
X93980000Y-28245000D03*
%TD*%
D10*
%TO.P,R45,1*%
%TO.N,Net-(J12-Pad1)*%
X101320600Y-100330000D03*
D11*
%TO.P,R45,2*%
%TO.N,Net-(R45-Pad2)*%
X96240600Y-100330000D03*
%TD*%
D13*
%TO.P,J12,1,Pin_1*%
%TO.N,Net-(J12-Pad1)*%
X108864000Y-96520000D03*
D14*
%TO.P,J12,2,Pin_2*%
%TO.N,Net-(J12-Pad2)*%
X108864000Y-101600000D03*
%TO.P,J12,3,Pin_3*%
%TO.N,Net-(J12-Pad3)*%
X108864000Y-106680000D03*
%TO.P,J12,4,Pin_4*%
%TO.N,Net-(J12-Pad4)*%
X108864000Y-111760000D03*
%TD*%
D10*
%TO.P,R31,1*%
%TO.N,Net-(J9-Pad3)*%
X101600000Y-40640000D03*
D11*
%TO.P,R31,2*%
%TO.N,Net-(R31-Pad2)*%
X96520000Y-40640000D03*
%TD*%
D15*
%TO.P,Q2,1*%
%TO.N,Net-(J1-Pad2)*%
X81026000Y-114300000D03*
D16*
%TO.P,Q2,2*%
%TO.N,Net-(Q2-Pad2)*%
X82296000Y-115570000D03*
%TO.P,Q2,3*%
%TO.N,GND*%
X83566000Y-114300000D03*
%TD*%
D10*
%TO.P,R42,1*%
%TO.N,Net-(J12-Pad4)*%
X101414600Y-107950000D03*
D11*
%TO.P,R42,2*%
%TO.N,Net-(R42-Pad2)*%
X96334600Y-107950000D03*
%TD*%
D10*
%TO.P,R26,1*%
%TO.N,Net-(J8-Pad4)*%
X69850000Y-35560000D03*
D11*
%TO.P,R26,2*%
%TO.N,Net-(R26-Pad2)*%
X74930000Y-35560000D03*
%TD*%
D10*
%TO.P,R44,1*%
%TO.N,Net-(J12-Pad2)*%
X101320600Y-102870000D03*
D11*
%TO.P,R44,2*%
%TO.N,Net-(R44-Pad2)*%
X96240600Y-102870000D03*
%TD*%
D13*
%TO.P,J8,1,Pin_1*%
%TO.N,Net-(J8-Pad1)*%
X62179000Y-46685200D03*
D14*
%TO.P,J8,2,Pin_2*%
%TO.N,Net-(J8-Pad2)*%
X62179000Y-41605200D03*
%TO.P,J8,3,Pin_3*%
%TO.N,Net-(J8-Pad3)*%
X62179000Y-36525200D03*
%TO.P,J8,4,Pin_4*%
%TO.N,Net-(J8-Pad4)*%
X62179000Y-31445200D03*
%TD*%
D10*
%TO.P,R4,1*%
%TO.N,Net-(R4-Pad1)*%
X83820000Y-87630000D03*
D11*
%TO.P,R4,2*%
%TO.N,Net-(Q4-Pad2)*%
X83820000Y-82550000D03*
%TD*%
D10*
%TO.P,R35,1*%
%TO.N,Net-(J10-Pad3)*%
X101600000Y-60960000D03*
D11*
%TO.P,R35,2*%
%TO.N,Net-(R35-Pad2)*%
X96520000Y-60960000D03*
%TD*%
D10*
%TO.P,R43,1*%
%TO.N,Net-(J12-Pad3)*%
X101414600Y-105410000D03*
D11*
%TO.P,R43,2*%
%TO.N,Net-(R43-Pad2)*%
X96334600Y-105410000D03*
%TD*%
D10*
%TO.P,R48,1*%
%TO.N,Net-(J13-Pad2)*%
X101414600Y-123190000D03*
D11*
%TO.P,R48,2*%
%TO.N,Net-(R48-Pad2)*%
X96334600Y-123190000D03*
%TD*%
D15*
%TO.P,Q4,1*%
%TO.N,Net-(J1-Pad4)*%
X81026000Y-73660000D03*
D16*
%TO.P,Q4,2*%
%TO.N,Net-(Q4-Pad2)*%
X82296000Y-74930000D03*
%TO.P,Q4,3*%
%TO.N,GND*%
X83566000Y-73660000D03*
%TD*%
D10*
%TO.P,R40,1*%
%TO.N,Net-(J11-Pad2)*%
X101414600Y-82550000D03*
D11*
%TO.P,R40,2*%
%TO.N,Net-(R40-Pad2)*%
X96334600Y-82550000D03*
%TD*%
D10*
%TO.P,R9,1*%
%TO.N,Net-(J3-Pad1)*%
X69850000Y-148590000D03*
D11*
%TO.P,R9,2*%
%TO.N,Net-(R9-Pad2)*%
X74930000Y-148590000D03*
%TD*%
D10*
%TO.P,R34,1*%
%TO.N,Net-(J10-Pad4)*%
X101600000Y-63500000D03*
D11*
%TO.P,R34,2*%
%TO.N,Net-(R34-Pad2)*%
X96520000Y-63500000D03*
%TD*%
D13*
%TO.P,J13,1,Pin_1*%
%TO.N,Net-(J13-Pad1)*%
X108915000Y-118110000D03*
D14*
%TO.P,J13,2,Pin_2*%
%TO.N,Net-(J13-Pad2)*%
X108915000Y-123190000D03*
%TO.P,J13,3,Pin_3*%
%TO.N,Net-(J13-Pad3)*%
X108915000Y-128270000D03*
%TO.P,J13,4,Pin_4*%
%TO.N,Net-(J13-Pad4)*%
X108915000Y-133350000D03*
%TD*%
D10*
%TO.P,R3,1*%
%TO.N,Net-(R3-Pad1)*%
X86868000Y-87630000D03*
D11*
%TO.P,R3,2*%
%TO.N,Net-(Q3-Pad2)*%
X86868000Y-82550000D03*
%TD*%
D10*
%TO.P,R7,1*%
%TO.N,Net-(J3-Pad3)*%
X69850000Y-143510000D03*
D11*
%TO.P,R7,2*%
%TO.N,Net-(R7-Pad2)*%
X74930000Y-143510000D03*
%TD*%
D10*
%TO.P,R12,1*%
%TO.N,Net-(J4-Pad2)*%
X69850000Y-125730000D03*
D11*
%TO.P,R12,2*%
%TO.N,Net-(R12-Pad2)*%
X74930000Y-125730000D03*
%TD*%
D10*
%TO.P,R2,1*%
%TO.N,Net-(R2-Pad1)*%
X84582000Y-128270000D03*
D11*
%TO.P,R2,2*%
%TO.N,Net-(Q2-Pad2)*%
X84582000Y-123190000D03*
%TD*%
D12*
%TO.P,U1,1,QB*%
%TO.N,Net-(R2-Pad1)*%
X82804000Y-138209000D03*
%TO.P,U1,2,QC*%
%TO.N,Net-(R3-Pad1)*%
X82804000Y-139479000D03*
%TO.P,U1,3,QD*%
%TO.N,Net-(R4-Pad1)*%
X82804000Y-140749000D03*
%TO.P,U1,4,QE*%
%TO.N,unconnected-(U1-Pad4)*%
X82804000Y-142019000D03*
%TO.P,U1,5,QF*%
%TO.N,unconnected-(U1-Pad5)*%
X82804000Y-143289000D03*
%TO.P,U1,6,QG*%
%TO.N,unconnected-(U1-Pad6)*%
X82804000Y-144559000D03*
%TO.P,U1,7,QH*%
%TO.N,unconnected-(U1-Pad7)*%
X82804000Y-145829000D03*
%TO.P,U1,8,GND*%
%TO.N,GND*%
X82804000Y-147099000D03*
%TO.P,U1,9,QH'*%
%TO.N,Net-(U1-Pad9)*%
X88392000Y-147099000D03*
%TO.P,U1,10,~{SRCLR}*%
%TO.N,Net-(J2-Pad6)*%
X88392000Y-145829000D03*
%TO.P,U1,11,SRCLK*%
%TO.N,Net-(J2-Pad5)*%
X88392000Y-144559000D03*
%TO.P,U1,12,RCLK*%
%TO.N,Net-(J2-Pad3)*%
X88392000Y-143289000D03*
%TO.P,U1,13,~{OE}*%
%TO.N,Net-(J2-Pad2)*%
X88392000Y-142019000D03*
%TO.P,U1,14,SER*%
%TO.N,Net-(J2-Pad4)*%
X88392000Y-140749000D03*
%TO.P,U1,15,QA*%
%TO.N,Net-(R1-Pad1)*%
X88392000Y-139479000D03*
%TO.P,U1,16,VCC*%
%TO.N,Net-(J2-Pad6)*%
X88392000Y-138209000D03*
%TD*%
D10*
%TO.P,R36,1*%
%TO.N,Net-(J10-Pad2)*%
X101600000Y-58420000D03*
D11*
%TO.P,R36,2*%
%TO.N,Net-(R36-Pad2)*%
X96520000Y-58420000D03*
%TD*%
D10*
%TO.P,R11,1*%
%TO.N,Net-(J4-Pad3)*%
X69850000Y-123190000D03*
D11*
%TO.P,R11,2*%
%TO.N,Net-(R11-Pad2)*%
X74930000Y-123190000D03*
%TD*%
D10*
%TO.P,R38,1*%
%TO.N,Net-(J11-Pad4)*%
X101320600Y-87558000D03*
D11*
%TO.P,R38,2*%
%TO.N,Net-(R38-Pad2)*%
X96240600Y-87558000D03*
%TD*%
D10*
%TO.P,R32,1*%
%TO.N,Net-(J9-Pad2)*%
X101600000Y-38100000D03*
D11*
%TO.P,R32,2*%
%TO.N,Net-(R32-Pad2)*%
X96520000Y-38100000D03*
%TD*%
D12*
%TO.P,U5,1,QB*%
%TO.N,Net-(R36-Pad2)*%
X92075000Y-52324000D03*
%TO.P,U5,2,QC*%
%TO.N,Net-(R35-Pad2)*%
X93345000Y-52324000D03*
%TO.P,U5,3,QD*%
%TO.N,Net-(R34-Pad2)*%
X94615000Y-52324000D03*
%TO.P,U5,4,QE*%
%TO.N,Net-(R33-Pad2)*%
X95885000Y-52324000D03*
%TO.P,U5,5,QF*%
%TO.N,Net-(R32-Pad2)*%
X97155000Y-52324000D03*
%TO.P,U5,6,QG*%
%TO.N,Net-(R31-Pad2)*%
X98425000Y-52324000D03*
%TO.P,U5,7,QH*%
%TO.N,Net-(R30-Pad2)*%
X99695000Y-52324000D03*
%TO.P,U5,8,GND*%
%TO.N,GND*%
X100965000Y-52324000D03*
%TO.P,U5,9,QH'*%
%TO.N,Net-(U5-Pad9)*%
X100965000Y-46736000D03*
%TO.P,U5,10,~{SRCLR}*%
%TO.N,Net-(J2-Pad6)*%
X99695000Y-46736000D03*
%TO.P,U5,11,SRCLK*%
%TO.N,Net-(J2-Pad5)*%
X98425000Y-46736000D03*
%TO.P,U5,12,RCLK*%
%TO.N,Net-(J2-Pad3)*%
X97155000Y-46736000D03*
%TO.P,U5,13,~{OE}*%
%TO.N,Net-(J2-Pad2)*%
X95885000Y-46736000D03*
%TO.P,U5,14,SER*%
%TO.N,Net-(U4-Pad9)*%
X94615000Y-46736000D03*
%TO.P,U5,15,QA*%
%TO.N,Net-(R37-Pad2)*%
X93345000Y-46736000D03*
%TO.P,U5,16,VCC*%
%TO.N,Net-(J2-Pad6)*%
X92075000Y-46736000D03*
%TD*%
D10*
%TO.P,R8,1*%
%TO.N,Net-(J3-Pad2)*%
X69850000Y-146050000D03*
D11*
%TO.P,R8,2*%
%TO.N,Net-(R8-Pad2)*%
X74930000Y-146050000D03*
%TD*%
D10*
%TO.P,R17,1*%
%TO.N,Net-(J5-Pad1)*%
X69850000Y-107950000D03*
D11*
%TO.P,R17,2*%
%TO.N,Net-(R17-Pad2)*%
X74930000Y-107950000D03*
%TD*%
D10*
%TO.P,R1,1*%
%TO.N,Net-(R1-Pad1)*%
X87630000Y-128270000D03*
D11*
%TO.P,R1,2*%
%TO.N,Net-(Q1-Pad2)*%
X87630000Y-123190000D03*
%TD*%
D15*
%TO.P,Q3,1*%
%TO.N,Net-(J1-Pad3)*%
X87630000Y-73660000D03*
D16*
%TO.P,Q3,2*%
%TO.N,Net-(Q3-Pad2)*%
X88900000Y-74930000D03*
%TO.P,Q3,3*%
%TO.N,GND*%
X90170000Y-73660000D03*
%TD*%
D10*
%TO.P,R37,1*%
%TO.N,Net-(J10-Pad1)*%
X101627400Y-55880000D03*
D11*
%TO.P,R37,2*%
%TO.N,Net-(R37-Pad2)*%
X96547400Y-55880000D03*
%TD*%
D10*
%TO.P,R6,1*%
%TO.N,Net-(J3-Pad4)*%
X69850000Y-140970000D03*
D11*
%TO.P,R6,2*%
%TO.N,Net-(R6-Pad2)*%
X74930000Y-140970000D03*
%TD*%
D10*
%TO.P,R46,1*%
%TO.N,Net-(J13-Pad4)*%
X101414600Y-128270000D03*
D11*
%TO.P,R46,2*%
%TO.N,Net-(R46-Pad2)*%
X96334600Y-128270000D03*
%TD*%
D13*
%TO.P,J2,1,Pin_1*%
%TO.N,GND*%
X97790000Y-156464000D03*
D14*
%TO.P,J2,2,Pin_2*%
%TO.N,Net-(J2-Pad2)*%
X92790000Y-156464000D03*
%TO.P,J2,3,Pin_3*%
%TO.N,Net-(J2-Pad3)*%
X87790000Y-156464000D03*
%TO.P,J2,4,Pin_4*%
%TO.N,Net-(J2-Pad4)*%
X82790000Y-156464000D03*
%TO.P,J2,5,Pin_5*%
%TO.N,Net-(J2-Pad5)*%
X77790000Y-156464000D03*
%TO.P,J2,6,Pin_6*%
%TO.N,Net-(J2-Pad6)*%
X72790000Y-156464000D03*
%TD*%
D10*
%TO.P,R52,1*%
%TO.N,Net-(J14-Pad2)*%
X101414600Y-143510000D03*
D11*
%TO.P,R52,2*%
%TO.N,Net-(R52-Pad2)*%
X96334600Y-143510000D03*
%TD*%
D10*
%TO.P,R13,1*%
%TO.N,Net-(J4-Pad1)*%
X69850000Y-128270000D03*
D11*
%TO.P,R13,2*%
%TO.N,Net-(R13-Pad2)*%
X74930000Y-128270000D03*
%TD*%
D10*
%TO.P,R15,1*%
%TO.N,Net-(J5-Pad3)*%
X69850000Y-102870000D03*
D11*
%TO.P,R15,2*%
%TO.N,Net-(R15-Pad2)*%
X74930000Y-102870000D03*
%TD*%
D10*
%TO.P,R27,1*%
%TO.N,Net-(J8-Pad3)*%
X69850000Y-38100000D03*
D11*
%TO.P,R27,2*%
%TO.N,Net-(R27-Pad2)*%
X74930000Y-38100000D03*
%TD*%
D13*
%TO.P,J10,1,Pin_1*%
%TO.N,Net-(J10-Pad1)*%
X108864000Y-53340000D03*
D14*
%TO.P,J10,2,Pin_2*%
%TO.N,Net-(J10-Pad2)*%
X108864000Y-58420000D03*
%TO.P,J10,3,Pin_3*%
%TO.N,Net-(J10-Pad3)*%
X108864000Y-63500000D03*
%TO.P,J10,4,Pin_4*%
%TO.N,Net-(J10-Pad4)*%
X108864000Y-68580000D03*
%TD*%
D10*
%TO.P,R41,1*%
%TO.N,Net-(J11-Pad1)*%
X101414600Y-80010000D03*
D11*
%TO.P,R41,2*%
%TO.N,Net-(R41-Pad2)*%
X96334600Y-80010000D03*
%TD*%
D10*
%TO.P,R18,1*%
%TO.N,Net-(J6-Pad4)*%
X69850000Y-80010000D03*
D11*
%TO.P,R18,2*%
%TO.N,Net-(R18-Pad2)*%
X74930000Y-80010000D03*
%TD*%
D12*
%TO.P,U3,1,QB*%
%TO.N,Net-(R20-Pad2)*%
X79375000Y-91186000D03*
%TO.P,U3,2,QC*%
%TO.N,Net-(R19-Pad2)*%
X78105000Y-91186000D03*
%TO.P,U3,3,QD*%
%TO.N,Net-(R18-Pad2)*%
X76835000Y-91186000D03*
%TO.P,U3,4,QE*%
%TO.N,Net-(R17-Pad2)*%
X75565000Y-91186000D03*
%TO.P,U3,5,QF*%
%TO.N,Net-(R16-Pad2)*%
X74295000Y-91186000D03*
%TO.P,U3,6,QG*%
%TO.N,Net-(R15-Pad2)*%
X73025000Y-91186000D03*
%TO.P,U3,7,QH*%
%TO.N,Net-(R14-Pad2)*%
X71755000Y-91186000D03*
%TO.P,U3,8,GND*%
%TO.N,GND*%
X70485000Y-91186000D03*
%TO.P,U3,9,QH'*%
%TO.N,Net-(U3-Pad9)*%
X70485000Y-96774000D03*
%TO.P,U3,10,~{SRCLR}*%
%TO.N,Net-(J2-Pad6)*%
X71755000Y-96774000D03*
%TO.P,U3,11,SRCLK*%
%TO.N,Net-(J2-Pad5)*%
X73025000Y-96774000D03*
%TO.P,U3,12,RCLK*%
%TO.N,Net-(J2-Pad3)*%
X74295000Y-96774000D03*
%TO.P,U3,13,~{OE}*%
%TO.N,Net-(J2-Pad2)*%
X75565000Y-96774000D03*
%TO.P,U3,14,SER*%
%TO.N,Net-(U2-Pad9)*%
X76835000Y-96774000D03*
%TO.P,U3,15,QA*%
%TO.N,Net-(R21-Pad2)*%
X78105000Y-96774000D03*
%TO.P,U3,16,VCC*%
%TO.N,Net-(J2-Pad6)*%
X79375000Y-96774000D03*
%TD*%
D10*
%TO.P,R33,1*%
%TO.N,Net-(J9-Pad1)*%
X101600000Y-35560000D03*
D11*
%TO.P,R33,2*%
%TO.N,Net-(R33-Pad2)*%
X96520000Y-35560000D03*
%TD*%
D13*
%TO.P,J6,1,Pin_1*%
%TO.N,Net-(J6-Pad1)*%
X62230000Y-89865200D03*
D14*
%TO.P,J6,2,Pin_2*%
%TO.N,Net-(J6-Pad2)*%
X62230000Y-84785200D03*
%TO.P,J6,3,Pin_3*%
%TO.N,Net-(J6-Pad3)*%
X62230000Y-79705200D03*
%TO.P,J6,4,Pin_4*%
%TO.N,Net-(J6-Pad4)*%
X62230000Y-74625200D03*
%TD*%
D13*
%TO.P,J5,1,Pin_1*%
%TO.N,Net-(J5-Pad1)*%
X62230000Y-111455200D03*
D14*
%TO.P,J5,2,Pin_2*%
%TO.N,Net-(J5-Pad2)*%
X62230000Y-106375200D03*
%TO.P,J5,3,Pin_3*%
%TO.N,Net-(J5-Pad3)*%
X62230000Y-101295200D03*
%TO.P,J5,4,Pin_4*%
%TO.N,Net-(J5-Pad4)*%
X62230000Y-96215200D03*
%TD*%
D10*
%TO.P,R22,1*%
%TO.N,Net-(J7-Pad4)*%
X69850000Y-55880000D03*
D11*
%TO.P,R22,2*%
%TO.N,Net-(R22-Pad2)*%
X74930000Y-55880000D03*
%TD*%
D13*
%TO.P,J3,1,Pin_1*%
%TO.N,Net-(J3-Pad1)*%
X62230000Y-154635200D03*
D14*
%TO.P,J3,2,Pin_2*%
%TO.N,Net-(J3-Pad2)*%
X62230000Y-149555200D03*
%TO.P,J3,3,Pin_3*%
%TO.N,Net-(J3-Pad3)*%
X62230000Y-144475200D03*
%TO.P,J3,4,Pin_4*%
%TO.N,Net-(J3-Pad4)*%
X62230000Y-139395200D03*
%TD*%
D17*
%TO.N,Net-(J1-Pad1)*%
X88092989Y-77724000D03*
X84836000Y-77724000D03*
%TO.N,Net-(J1-Pad2)*%
X84582000Y-80391000D03*
X82423000Y-80391000D03*
%TO.N,Net-(J1-Pad4)*%
X83439000Y-70358000D03*
X88519000Y-68707000D03*
%TO.N,GND*%
X104140000Y-131826000D03*
X82804000Y-150876000D03*
X83820000Y-90043000D03*
X79279020Y-130014707D03*
X104140000Y-116078000D03*
X104140000Y-98552000D03*
X90932000Y-97790000D03*
X83820000Y-97790000D03*
X93848342Y-130052658D03*
X88529500Y-97790000D03*
X104140000Y-52451000D03*
X96895531Y-97871005D03*
%TO.N,Net-(J2-Pad2)*%
X90297000Y-48895000D03*
X90043000Y-99060000D03*
X88529500Y-96139000D03*
X90932000Y-131018196D03*
X78005447Y-140462000D03*
X92075000Y-74803000D03*
X81026000Y-53975000D03*
X90043000Y-93472000D03*
X90043000Y-96012000D03*
X95758000Y-48895000D03*
X90932000Y-129032000D03*
X92075000Y-72517000D03*
X91440000Y-141986000D03*
%TO.N,Net-(J2-Pad3)*%
X89662000Y-131064000D03*
X94107000Y-134022500D03*
X91075497Y-72517000D03*
X89662000Y-129032000D03*
X90207500Y-148336000D03*
X89043497Y-99060000D03*
X93980000Y-92456000D03*
X91059000Y-74803000D03*
X77978000Y-141605000D03*
X89789000Y-48006000D03*
X88773000Y-93218000D03*
%TO.N,Net-(J2-Pad5)*%
X89408000Y-133604000D03*
X80264000Y-131064000D03*
X93150293Y-134550207D03*
X84836000Y-152400000D03*
X81407000Y-94488000D03*
X80264000Y-129032000D03*
X100380118Y-94183882D03*
X79121000Y-94488000D03*
X91059000Y-94488000D03*
X80264000Y-138684000D03*
X73152000Y-50419000D03*
X83312000Y-152400000D03*
X82231457Y-48195457D03*
X83058000Y-132080000D03*
X88519000Y-94488000D03*
X84836000Y-132969000D03*
%TO.N,Net-(J2-Pad6)*%
X91948000Y-134620000D03*
X67691000Y-132588000D03*
X66966500Y-95758000D03*
X81788000Y-46609000D03*
X83566000Y-48133000D03*
X84836000Y-134620000D03*
X79248000Y-134620000D03*
X89408000Y-134620000D03*
X73152000Y-135636000D03*
X66548000Y-49276000D03*
X86868000Y-138176000D03*
X86868000Y-142748000D03*
%TO.N,Net-(R1-Pad1)*%
X87884000Y-135636000D03*
%TO.N,Net-(R2-Pad1)*%
X83947000Y-131318000D03*
%TO.N,Net-(R3-Pad1)*%
X82550000Y-133604000D03*
X86614000Y-119761000D03*
X83820000Y-121539000D03*
X82804000Y-129032000D03*
%TO.N,Net-(R4-Pad1)*%
X81280000Y-133604000D03*
X83820000Y-120523000D03*
X81534000Y-129032000D03*
X85598000Y-119761000D03*
%TO.N,Net-(R6-Pad2)*%
X73152000Y-140208000D03*
X66929000Y-139700000D03*
%TO.N,Net-(R7-Pad2)*%
X72771092Y-138937481D03*
X67806572Y-138925500D03*
%TO.N,Net-(R45-Pad2)*%
X99822000Y-98806000D03*
%TO.N,Net-(R53-Pad2)*%
X101600000Y-139192000D03*
%TO.N,Net-(U1-Pad9)*%
X87376000Y-149352000D03*
X77978000Y-139408500D03*
X76835000Y-145669000D03*
X79248000Y-149352000D03*
%TO.N,Net-(U2-Pad9)*%
X68561773Y-133841859D03*
%TO.N,Net-(U3-Pad9)*%
X73406000Y-94488000D03*
X69215000Y-92456000D03*
%TO.N,Net-(U4-Pad9)*%
X94615000Y-50038000D03*
%TO.N,Net-(U5-Pad9)*%
X94488000Y-72517000D03*
X102743000Y-51054000D03*
%TO.N,Net-(U6-Pad9)*%
X92456000Y-129032000D03*
%TD*%
D18*
%TO.N,Net-(R3-Pad1)*%
X81788000Y-136144000D02*
X82550000Y-135382000D01*
X81788000Y-138811000D02*
X81788000Y-136144000D01*
X82456000Y-139479000D02*
X81788000Y-138811000D01*
X82550000Y-135382000D02*
X82550000Y-133604000D01*
X82804000Y-139479000D02*
X82456000Y-139479000D01*
%TO.N,Net-(R4-Pad1)*%
X81280000Y-133604000D02*
X81280000Y-139225000D01*
X81280000Y-139225000D02*
X82804000Y-140749000D01*
%TO.N,Net-(J2-Pad5)*%
X85471000Y-133604000D02*
X89408000Y-133604000D01*
X84836000Y-132969000D02*
X85471000Y-133604000D01*
X81280000Y-131064000D02*
X80264000Y-131064000D01*
X82296000Y-132080000D02*
X81280000Y-131064000D01*
X83058000Y-132080000D02*
X82296000Y-132080000D01*
%TO.N,Net-(R2-Pad1)*%
X83947000Y-137066000D02*
X82804000Y-138209000D01*
X83947000Y-131318000D02*
X83947000Y-137066000D01*
%TO.N,Net-(R9-Pad2)*%
X72898000Y-134493000D02*
X75565000Y-131826000D01*
X69215000Y-137231428D02*
X71826428Y-134620000D01*
X69850000Y-138430000D02*
X69215000Y-137795000D01*
X70334964Y-138430000D02*
X69850000Y-138430000D01*
X71826428Y-134620000D02*
X72898000Y-134620000D01*
X72112964Y-140208000D02*
X70334964Y-138430000D01*
X69215000Y-137795000D02*
X69215000Y-137231428D01*
X72898000Y-134620000D02*
X72898000Y-134493000D01*
X72136000Y-140208000D02*
X72112964Y-140208000D01*
%TO.N,Net-(R8-Pad2)*%
X72898000Y-133223000D02*
X74295000Y-131826000D01*
X72517000Y-133223000D02*
X72898000Y-133223000D01*
X68580000Y-137160000D02*
X72517000Y-133223000D01*
X71374000Y-149352000D02*
X71374000Y-140970000D01*
X72517000Y-150495000D02*
X71374000Y-149352000D01*
X68580000Y-138176000D02*
X68580000Y-137160000D01*
X75184000Y-150495000D02*
X72517000Y-150495000D01*
X76835000Y-148844000D02*
X75184000Y-150495000D01*
X76835000Y-147955000D02*
X76835000Y-148844000D01*
X71374000Y-140970000D02*
X68580000Y-138176000D01*
X74930000Y-146050000D02*
X76835000Y-147955000D01*
%TO.N,Net-(R7-Pad2)*%
X71896489Y-132700511D02*
X72150489Y-132700511D01*
X72150489Y-132700511D02*
X73025000Y-131826000D01*
X67806572Y-136790428D02*
X71896489Y-132700511D01*
X67806572Y-138925500D02*
X67806572Y-136790428D01*
%TO.N,Net-(R6-Pad2)*%
X66929000Y-136715500D02*
X71755000Y-131889500D01*
X71755000Y-131889500D02*
X71755000Y-131826000D01*
X66929000Y-139700000D02*
X66929000Y-136715500D01*
D19*
%TO.N,Net-(J2-Pad6)*%
X65659000Y-133985000D02*
X67056000Y-132588000D01*
X72790000Y-156356000D02*
X65659000Y-149225000D01*
X65659000Y-149225000D02*
X65659000Y-133985000D01*
X72790000Y-156464000D02*
X72790000Y-156356000D01*
D18*
%TO.N,Net-(R7-Pad2)*%
X76200000Y-142240000D02*
X74930000Y-143510000D01*
X74485559Y-138937481D02*
X76200000Y-140651922D01*
X72771092Y-138937481D02*
X74485559Y-138937481D01*
X76200000Y-140651922D02*
X76200000Y-142240000D01*
D19*
%TO.N,Net-(J2-Pad6)*%
X67056000Y-132588000D02*
X67691000Y-132588000D01*
X73525781Y-136009781D02*
X77858219Y-136009781D01*
X73152000Y-135636000D02*
X73525781Y-136009781D01*
X77858219Y-136009781D02*
X79248000Y-134620000D01*
D18*
%TO.N,Net-(J2-Pad2)*%
X91948000Y-100965000D02*
X90043000Y-99060000D01*
X90932000Y-128016000D02*
X91948000Y-127000000D01*
X90932000Y-129032000D02*
X90932000Y-128016000D01*
X91948000Y-127000000D02*
X91948000Y-100965000D01*
%TO.N,Net-(R52-Pad2)*%
X92329000Y-143891000D02*
X92329000Y-137853400D01*
X95758000Y-147320000D02*
X92329000Y-143891000D01*
X96770739Y-147320000D02*
X95758000Y-147320000D01*
X97544480Y-146546259D02*
X96770739Y-147320000D01*
X97544480Y-144719880D02*
X97544480Y-146546259D01*
X92329000Y-137853400D02*
X91889600Y-137414000D01*
X96334600Y-143510000D02*
X97544480Y-144719880D01*
%TO.N,Net-(R1-Pad1)*%
X88994000Y-139479000D02*
X88392000Y-139479000D01*
X89535000Y-138938000D02*
X88994000Y-139479000D01*
X89535000Y-137287000D02*
X89535000Y-138938000D01*
X87884000Y-135636000D02*
X89535000Y-137287000D01*
%TO.N,Net-(J2-Pad2)*%
X92790000Y-155782000D02*
X92790000Y-156464000D01*
X91440000Y-154432000D02*
X92790000Y-155782000D01*
X91440000Y-141986000D02*
X91440000Y-154432000D01*
D19*
%TO.N,Net-(J1-Pad1)*%
X84836000Y-34341000D02*
X78740000Y-28245000D01*
X88092989Y-77724000D02*
X88138000Y-77769011D01*
X87630000Y-94744102D02*
X87630000Y-114300000D01*
X88138000Y-88265000D02*
X87619489Y-88783511D01*
X87619489Y-94733591D02*
X87630000Y-94744102D01*
X87619489Y-88783511D02*
X87619489Y-94733591D01*
X88138000Y-77769011D02*
X88138000Y-88265000D01*
X84836000Y-77724000D02*
X84836000Y-34341000D01*
%TO.N,Net-(J1-Pad2)*%
X81026000Y-101092000D02*
X82423000Y-99695000D01*
X81026000Y-114300000D02*
X81026000Y-101092000D01*
X86106000Y-78867000D02*
X86106000Y-34480308D01*
X82423000Y-99695000D02*
X82423000Y-80391000D01*
X84582000Y-80391000D02*
X86106000Y-78867000D01*
X83820000Y-32194308D02*
X83820000Y-28245000D01*
X86106000Y-34480308D02*
X83820000Y-32194308D01*
%TO.N,Net-(J1-Pad3)*%
X87376000Y-34036000D02*
X88900000Y-32512000D01*
X88900000Y-32512000D02*
X88900000Y-28245000D01*
X87376000Y-73406000D02*
X87376000Y-34036000D01*
X87630000Y-73660000D02*
X87376000Y-73406000D01*
%TO.N,Net-(J1-Pad4)*%
X88519000Y-68707000D02*
X88519000Y-34188500D01*
X93980000Y-28727500D02*
X93980000Y-28245000D01*
X88519000Y-34188500D02*
X93980000Y-28727500D01*
X83439000Y-70358000D02*
X81026000Y-72771000D01*
X81026000Y-72771000D02*
X81026000Y-73660000D01*
%TO.N,GND*%
X99965489Y-97773511D02*
X100779600Y-96959400D01*
X83820000Y-97790000D02*
X83820000Y-90043000D01*
X100076000Y-156464000D02*
X104140000Y-152400000D01*
X104140000Y-152400000D02*
X104140000Y-138684000D01*
X88529500Y-97790000D02*
X90932000Y-97790000D01*
X104140000Y-98552000D02*
X104140000Y-52451000D01*
X103759000Y-73660000D02*
X90170000Y-73660000D01*
X104140000Y-138684000D02*
X102870000Y-137414000D01*
X93848342Y-130052658D02*
X93843684Y-130048000D01*
X79312313Y-130048000D02*
X79279020Y-130014707D01*
X104140000Y-116078000D02*
X104140000Y-98552000D01*
X93843684Y-130048000D02*
X79312313Y-130048000D01*
X82804000Y-150876000D02*
X82804000Y-147099000D01*
X97790000Y-156464000D02*
X100076000Y-156464000D01*
X104140000Y-131826000D02*
X104140000Y-138684000D01*
X100779600Y-96959400D02*
X100779600Y-96774000D01*
X102870000Y-137414000D02*
X100779600Y-137414000D01*
X96895531Y-97871005D02*
X96993025Y-97773511D01*
X96993025Y-97773511D02*
X99965489Y-97773511D01*
X104140000Y-131826000D02*
X104140000Y-116078000D01*
D18*
%TO.N,Net-(J2-Pad2)*%
X90873520Y-131076676D02*
X90873520Y-141419520D01*
X94875089Y-131001489D02*
X95699600Y-131826000D01*
X90297000Y-56133282D02*
X90297000Y-48895000D01*
X92075000Y-74803000D02*
X92075000Y-74811614D01*
X92075000Y-74811614D02*
X89267009Y-77619605D01*
X89267009Y-92272315D02*
X90043000Y-93048306D01*
X75565000Y-138021553D02*
X75565000Y-137414000D01*
X90932000Y-131018196D02*
X90873520Y-131076676D01*
X78005447Y-140462000D02*
X75565000Y-138021553D01*
X90873520Y-141419520D02*
X91440000Y-141986000D01*
X89267009Y-77619605D02*
X89267009Y-92272315D01*
X95758000Y-48895000D02*
X95758000Y-46863000D01*
X90043000Y-96012000D02*
X89916000Y-96139000D01*
X95758000Y-46863000D02*
X95885000Y-46736000D01*
X90932000Y-131018196D02*
X90948707Y-131001489D01*
X77216000Y-53975000D02*
X75565000Y-52324000D01*
X90043000Y-93048306D02*
X90043000Y-93472000D01*
X90948707Y-131001489D02*
X94875089Y-131001489D01*
X81026000Y-53975000D02*
X77216000Y-53975000D01*
X92075000Y-57911282D02*
X90297000Y-56133282D01*
X89916000Y-96139000D02*
X88529500Y-96139000D01*
X92075000Y-72760500D02*
X92075000Y-57911282D01*
%TO.N,Net-(J2-Pad3)*%
X89847480Y-49588480D02*
X89535000Y-49276000D01*
X96969600Y-132613014D02*
X96969600Y-131826000D01*
X90207500Y-148336000D02*
X90424000Y-148552500D01*
X89535000Y-49276000D02*
X89535000Y-48260000D01*
X93980000Y-92456000D02*
X95699600Y-92456000D01*
X88817489Y-93173511D02*
X88817489Y-77044511D01*
X90391000Y-143289000D02*
X88392000Y-143289000D01*
X90424000Y-143256000D02*
X90391000Y-143289000D01*
X89318489Y-99334992D02*
X89043497Y-99060000D01*
X89847480Y-56319480D02*
X89847480Y-49588480D01*
X89535000Y-48260000D02*
X89789000Y-48006000D01*
X91034511Y-126770489D02*
X91034511Y-101051014D01*
X95560114Y-134022500D02*
X96969600Y-132613014D01*
X90424000Y-148119500D02*
X90424000Y-143256000D01*
X88773000Y-93218000D02*
X88817489Y-93173511D01*
X91059000Y-57531000D02*
X89847480Y-56319480D01*
X89318489Y-99360103D02*
X89318489Y-99334992D01*
X74295000Y-137922000D02*
X74295000Y-137414000D01*
X77978000Y-141605000D02*
X74295000Y-137922000D01*
X95699600Y-92456000D02*
X96969600Y-91186000D01*
X89768008Y-99784511D02*
X89742897Y-99784511D01*
X88817489Y-77044511D02*
X91059000Y-74803000D01*
X94107000Y-134022500D02*
X95560114Y-134022500D01*
X89742897Y-99784511D02*
X89318489Y-99360103D01*
X90424000Y-131826000D02*
X90424000Y-143256000D01*
X89662000Y-128143000D02*
X91034511Y-126770489D01*
X90424000Y-148552500D02*
X90424000Y-153830000D01*
X90207500Y-148336000D02*
X90424000Y-148119500D01*
X90424000Y-153830000D02*
X87790000Y-156464000D01*
X89662000Y-129032000D02*
X89662000Y-128143000D01*
X91059000Y-72500503D02*
X91059000Y-57531000D01*
X91034511Y-101051014D02*
X89768008Y-99784511D01*
X91075497Y-72517000D02*
X91059000Y-72500503D01*
X89662000Y-131064000D02*
X90424000Y-131826000D01*
%TO.N,Net-(J2-Pad4)*%
X87343000Y-140749000D02*
X88392000Y-140749000D01*
X84090000Y-155164000D02*
X84090000Y-151622000D01*
X85852000Y-149860000D02*
X85852000Y-142240000D01*
X82790000Y-156464000D02*
X84090000Y-155164000D01*
X84090000Y-151622000D02*
X85852000Y-149860000D01*
X85852000Y-142240000D02*
X87343000Y-140749000D01*
%TO.N,Net-(J2-Pad5)*%
X81407000Y-94488000D02*
X81407000Y-99568000D01*
X81407000Y-99568000D02*
X80161489Y-100813511D01*
X95885000Y-134747000D02*
X98239600Y-132392400D01*
X80161489Y-100813511D02*
X80161489Y-128929489D01*
X77790000Y-156464000D02*
X80264000Y-153990000D01*
X89408000Y-145575000D02*
X88392000Y-144559000D01*
X75311000Y-94488000D02*
X73025000Y-96774000D01*
X80161489Y-128929489D02*
X80264000Y-129032000D01*
X79121000Y-94488000D02*
X75311000Y-94488000D01*
X93150293Y-134550207D02*
X93347086Y-134747000D01*
X80264000Y-152400000D02*
X80264000Y-138684000D01*
X82296000Y-48260000D02*
X82231457Y-48195457D01*
X81407000Y-94488000D02*
X81407000Y-80645000D01*
X98239600Y-132392400D02*
X98239600Y-131826000D01*
X80264000Y-138684000D02*
X80264000Y-131064000D01*
X81407000Y-80645000D02*
X78740000Y-77978000D01*
X86868000Y-152400000D02*
X89408000Y-149860000D01*
X80264000Y-153990000D02*
X80264000Y-152400000D01*
X88519000Y-94488000D02*
X91059000Y-94488000D01*
X73152000Y-50419000D02*
X73152000Y-52197000D01*
X89408000Y-149860000D02*
X89408000Y-145575000D01*
X82296000Y-65405000D02*
X82296000Y-48260000D01*
X80264000Y-152400000D02*
X83312000Y-152400000D01*
X78740000Y-77978000D02*
X78740000Y-68961000D01*
X98239600Y-92043364D02*
X98239600Y-91186000D01*
X100380118Y-94183882D02*
X98239600Y-92043364D01*
X84836000Y-152400000D02*
X86868000Y-152400000D01*
X78740000Y-68961000D02*
X82296000Y-65405000D01*
X73152000Y-52197000D02*
X73025000Y-52324000D01*
X93347086Y-134747000D02*
X95885000Y-134747000D01*
D19*
%TO.N,Net-(J2-Pad6)*%
X92075000Y-46028894D02*
X92629824Y-45474070D01*
X67056000Y-53334204D02*
X66548000Y-52826204D01*
X96139000Y-135509000D02*
X99568000Y-132080000D01*
X92075000Y-46736000D02*
X92075000Y-46028894D01*
X82042000Y-46609000D02*
X83566000Y-48133000D01*
X99695000Y-45855071D02*
X99695000Y-46736000D01*
X92629824Y-45474070D02*
X99314000Y-45474071D01*
X91948000Y-131884400D02*
X91889600Y-131826000D01*
X86901000Y-138209000D02*
X88392000Y-138209000D01*
X91889600Y-91186000D02*
X91889600Y-91042477D01*
X84836000Y-136144000D02*
X84836000Y-134620000D01*
X87684894Y-145829000D02*
X88392000Y-145829000D01*
X91948000Y-134620000D02*
X92837000Y-135509000D01*
X81788000Y-46609000D02*
X82042000Y-46609000D01*
X91889600Y-91042477D02*
X92745588Y-90186489D01*
X66966500Y-95758000D02*
X67056000Y-95847500D01*
X99509600Y-90619600D02*
X99509600Y-91186000D01*
X67056000Y-95847500D02*
X67056000Y-132588000D01*
X86868000Y-138176000D02*
X84836000Y-136144000D01*
X67056000Y-95668500D02*
X67056000Y-53334204D01*
X66548000Y-52826204D02*
X66548000Y-49276000D01*
X91948000Y-134620000D02*
X91948000Y-131884400D01*
X86868000Y-145012106D02*
X87684894Y-145829000D01*
X99076489Y-90186489D02*
X99509600Y-90619600D01*
X99314000Y-45474071D02*
X99695000Y-45855071D01*
X92837000Y-135509000D02*
X96139000Y-135509000D01*
X84836000Y-134620000D02*
X89408000Y-134620000D01*
X86868000Y-142748000D02*
X86868000Y-145012106D01*
X86868000Y-138176000D02*
X86901000Y-138209000D01*
X92745588Y-90186489D02*
X99076489Y-90186489D01*
X66966500Y-95758000D02*
X67056000Y-95668500D01*
D18*
%TO.N,Net-(Q1-Pad2)*%
X87630000Y-116840000D02*
X88900000Y-115570000D01*
X87630000Y-123190000D02*
X87630000Y-116840000D01*
%TO.N,Net-(Q2-Pad2)*%
X82296000Y-115570000D02*
X84582000Y-117856000D01*
X84582000Y-117856000D02*
X84582000Y-123190000D01*
%TO.N,Net-(Q3-Pad2)*%
X86868000Y-76962000D02*
X88900000Y-74930000D01*
X86868000Y-82550000D02*
X86868000Y-76962000D01*
%TO.N,Net-(R3-Pad1)*%
X86360000Y-119507000D02*
X86360000Y-88138000D01*
X82804000Y-122555000D02*
X83820000Y-121539000D01*
X82804000Y-129032000D02*
X82804000Y-122555000D01*
X86360000Y-88138000D02*
X86868000Y-87630000D01*
X86614000Y-119761000D02*
X86360000Y-119507000D01*
%TO.N,Net-(R4-Pad1)*%
X85598000Y-119761000D02*
X85344000Y-119507000D01*
X85344000Y-119507000D02*
X85344000Y-89154000D01*
X85344000Y-89154000D02*
X83820000Y-87630000D01*
X81534000Y-129032000D02*
X81534000Y-122800386D01*
X83811386Y-120523000D02*
X83820000Y-120523000D01*
X81534000Y-122800386D02*
X83811386Y-120523000D01*
%TO.N,Net-(R6-Pad2)*%
X73876511Y-139916511D02*
X74930000Y-140970000D01*
X73152000Y-140208000D02*
X73443489Y-139916511D01*
X73443489Y-139916511D02*
X73876511Y-139916511D01*
%TO.N,Net-(R8-Pad2)*%
X74271246Y-131826000D02*
X74295000Y-131826000D01*
%TO.N,Net-(R9-Pad2)*%
X74930000Y-148590000D02*
X72136000Y-145796000D01*
X72136000Y-145796000D02*
X72136000Y-140207282D01*
%TO.N,Net-(R10-Pad2)*%
X74739053Y-131001489D02*
X76010489Y-131001489D01*
X72887960Y-129150396D02*
X74739053Y-131001489D01*
X74930000Y-120650000D02*
X72887960Y-122692040D01*
X72887960Y-122692040D02*
X72887960Y-129150396D01*
X76010489Y-131001489D02*
X76835000Y-131826000D01*
%TO.N,Net-(R11-Pad2)*%
X73337480Y-124782520D02*
X73337480Y-128964198D01*
X74930000Y-123190000D02*
X73337480Y-124782520D01*
X74925251Y-130551969D02*
X76830969Y-130551969D01*
X76830969Y-130551969D02*
X78105000Y-131826000D01*
X73337480Y-128964198D02*
X74925251Y-130551969D01*
%TO.N,Net-(R12-Pad2)*%
X75111449Y-130102449D02*
X73787000Y-128778000D01*
X79375000Y-131826000D02*
X77651449Y-130102449D01*
X77651449Y-130102449D02*
X75111449Y-130102449D01*
X73787000Y-128778000D02*
X73787000Y-126873000D01*
X73787000Y-126873000D02*
X74930000Y-125730000D01*
%TO.N,Net-(R14-Pad2)*%
X71755000Y-93088846D02*
X71755000Y-91186000D01*
X69349888Y-93588960D02*
X71254886Y-93588960D01*
X67954323Y-94984525D02*
X69349888Y-93588960D01*
X71254886Y-93588960D02*
X71755000Y-93088846D01*
X74930000Y-100330000D02*
X73905489Y-99305489D01*
X67691000Y-95247847D02*
X67954323Y-94984525D01*
X69460489Y-99305489D02*
X67691000Y-97535998D01*
X73905489Y-99305489D02*
X69460489Y-99305489D01*
X67691000Y-97535998D02*
X67691000Y-95247847D01*
%TO.N,Net-(R15-Pad2)*%
X68140520Y-97349801D02*
X68140520Y-95434045D01*
X68140520Y-95434045D02*
X69536085Y-94038480D01*
X73025000Y-92454564D02*
X73025000Y-91186000D01*
X69596359Y-98805641D02*
X68140520Y-97349801D01*
X75954511Y-99905633D02*
X74854519Y-98805641D01*
X74854519Y-98805641D02*
X69596359Y-98805641D01*
X69536085Y-94038480D02*
X71441084Y-94038480D01*
X71441084Y-94038480D02*
X73025000Y-92454564D01*
X75954511Y-101845489D02*
X75954511Y-99905633D01*
X74930000Y-102870000D02*
X75954511Y-101845489D01*
%TO.N,Net-(R16-Pad2)*%
X74982596Y-98298000D02*
X69724436Y-98298000D01*
X74295000Y-91820282D02*
X74295000Y-91186000D01*
X69722283Y-94488000D02*
X71627282Y-94488000D01*
X74930000Y-105410000D02*
X76404031Y-103935969D01*
X68590040Y-95620243D02*
X69722283Y-94488000D01*
X69724436Y-98298000D02*
X68590040Y-97163604D01*
X76404031Y-103935969D02*
X76404031Y-99719436D01*
X71627282Y-94488000D02*
X74295000Y-91820282D01*
X76404031Y-99719436D02*
X74982596Y-98298000D01*
X68590040Y-97163604D02*
X68590040Y-95620243D01*
%TO.N,Net-(R17-Pad2)*%
X71813480Y-94937520D02*
X75565000Y-91186000D01*
X76853551Y-106026449D02*
X76853551Y-99533239D01*
X70035480Y-97848480D02*
X69088000Y-96901000D01*
X74930000Y-107950000D02*
X76853551Y-106026449D01*
X75168794Y-97848480D02*
X70035480Y-97848480D01*
X76853551Y-99533239D02*
X75168794Y-97848480D01*
X69088000Y-96901000D02*
X69088000Y-95758000D01*
X69908480Y-94937520D02*
X71813480Y-94937520D01*
X69088000Y-95758000D02*
X69908480Y-94937520D01*
%TO.N,Net-(R18-Pad2)*%
X74930000Y-80010000D02*
X73455969Y-81484031D01*
X73455969Y-85139969D02*
X74803000Y-86487000D01*
X76454000Y-86487000D02*
X78475960Y-88508960D01*
X78095678Y-89925322D02*
X76835000Y-91186000D01*
X78475960Y-89925322D02*
X78095678Y-89925322D01*
X78475960Y-88508960D02*
X78475960Y-89925322D01*
X74803000Y-86487000D02*
X76454000Y-86487000D01*
X73455969Y-81484031D02*
X73455969Y-85139969D01*
%TO.N,Net-(R19-Pad2)*%
X78105000Y-90932000D02*
X78105000Y-91186000D01*
X74930000Y-82550000D02*
X76581000Y-84201000D01*
X78925480Y-88322763D02*
X78925480Y-90111520D01*
X78925480Y-90111520D02*
X78105000Y-90932000D01*
X76581000Y-85978283D02*
X78925480Y-88322763D01*
X76581000Y-84201000D02*
X76581000Y-85978283D01*
%TO.N,Net-(R20-Pad2)*%
X73905489Y-81923511D02*
X74549000Y-81280000D01*
X73905489Y-84065489D02*
X73905489Y-81923511D01*
X74930000Y-85090000D02*
X73905489Y-84065489D01*
X79375000Y-88136566D02*
X79375000Y-91186000D01*
X75108878Y-81280000D02*
X77030520Y-83201642D01*
X74549000Y-81280000D02*
X75108878Y-81280000D01*
X77030520Y-83201642D02*
X77030520Y-85792085D01*
X77030520Y-85792085D02*
X79375000Y-88136566D01*
%TO.N,Net-(R21-Pad2)*%
X73006449Y-85706449D02*
X73006449Y-80409551D01*
X80199511Y-94679489D02*
X78105000Y-96774000D01*
X79824520Y-87950369D02*
X79824520Y-90469484D01*
X77480040Y-85605887D02*
X79824520Y-87950369D01*
X74930000Y-87630000D02*
X73006449Y-85706449D01*
X80199511Y-90844475D02*
X80199511Y-94679489D01*
X74485859Y-78930141D02*
X75374141Y-78930141D01*
X79824520Y-90469484D02*
X80199511Y-90844475D01*
X76073000Y-81608405D02*
X77480040Y-83015445D01*
X77480040Y-83015445D02*
X77480040Y-85605887D01*
X75374141Y-78930141D02*
X76073000Y-79629000D01*
X76073000Y-79629000D02*
X76073000Y-81608405D01*
X73006449Y-80409551D02*
X74485859Y-78930141D01*
%TO.N,Net-(R22-Pad2)*%
X74930000Y-55880000D02*
X73905489Y-54855489D01*
X67172520Y-51318480D02*
X71755000Y-46736000D01*
X69460489Y-54855489D02*
X67172520Y-52567520D01*
X67172520Y-52567520D02*
X67172520Y-51318480D01*
X73905489Y-54855489D02*
X69460489Y-54855489D01*
%TO.N,Net-(R23-Pad2)*%
X74802641Y-54228641D02*
X69469359Y-54228641D01*
X71566207Y-47560511D02*
X72096525Y-47560511D01*
X67622040Y-51504678D02*
X71566207Y-47560511D01*
X75954511Y-57395489D02*
X75954511Y-55380511D01*
X67622040Y-52381322D02*
X67622040Y-51504678D01*
X72413036Y-47244000D02*
X73025000Y-47244000D01*
X74930000Y-58420000D02*
X75954511Y-57395489D01*
X72096525Y-47560511D02*
X72413036Y-47244000D01*
X75954511Y-55380511D02*
X74802641Y-54228641D01*
X69469359Y-54228641D02*
X67622040Y-52381322D01*
%TO.N,Net-(R24-Pad2)*%
X69655557Y-53779121D02*
X68071560Y-52195124D01*
X68071560Y-52195124D02*
X68071560Y-51690876D01*
X71752405Y-48010031D02*
X73020969Y-48010031D01*
X76454000Y-55244283D02*
X74988839Y-53779121D01*
X73020969Y-48010031D02*
X74295000Y-46736000D01*
X74930000Y-60960000D02*
X76454000Y-59436000D01*
X74988839Y-53779121D02*
X69655557Y-53779121D01*
X68071560Y-51690876D02*
X71752405Y-48010031D01*
X76454000Y-59436000D02*
X76454000Y-55244283D01*
%TO.N,Net-(R25-Pad2)*%
X74930000Y-63500000D02*
X76903520Y-61526480D01*
X71938603Y-48459551D02*
X73841449Y-48459551D01*
X76903520Y-55058084D02*
X75057359Y-53211923D01*
X69724077Y-53211923D02*
X68521080Y-52008926D01*
X68521080Y-51877074D02*
X71938603Y-48459551D01*
X75057359Y-53211923D02*
X69724077Y-53211923D01*
X73841449Y-48459551D02*
X75565000Y-46736000D01*
X68521080Y-52008926D02*
X68521080Y-51877074D01*
X76903520Y-61526480D02*
X76903520Y-55058084D01*
%TO.N,Net-(R26-Pad2)*%
X72644000Y-44577000D02*
X73978489Y-45911489D01*
X76010489Y-45911489D02*
X76835000Y-46736000D01*
X72644000Y-37846000D02*
X72644000Y-44577000D01*
X73978489Y-45911489D02*
X76010489Y-45911489D01*
X74930000Y-35560000D02*
X72644000Y-37846000D01*
%TO.N,Net-(R27-Pad2)*%
X74164687Y-45461969D02*
X73152000Y-44449282D01*
X78105000Y-46736000D02*
X76830969Y-45461969D01*
X73152000Y-44449282D02*
X73152000Y-39878000D01*
X73152000Y-39878000D02*
X74930000Y-38100000D01*
X76830969Y-45461969D02*
X74164687Y-45461969D01*
%TO.N,Net-(R28-Pad2)*%
X74930000Y-40640000D02*
X73660000Y-41910000D01*
X74350885Y-45012449D02*
X77651449Y-45012449D01*
X77651449Y-45012449D02*
X79375000Y-46736000D01*
X73660000Y-41910000D02*
X73660000Y-44321564D01*
X73660000Y-44321564D02*
X74350885Y-45012449D01*
%TO.N,Net-(R29-Pad2)*%
X74930000Y-43180000D02*
X77569540Y-43180000D01*
X80199511Y-45809971D02*
X80199511Y-50229489D01*
X77569540Y-43180000D02*
X80199511Y-45809971D01*
X80199511Y-50229489D02*
X78105000Y-52324000D01*
%TO.N,Net-(R30-Pad2)*%
X103378000Y-48641000D02*
X99695000Y-52324000D01*
X103378000Y-44517803D02*
X103378000Y-48641000D01*
X96520000Y-42926000D02*
X99822000Y-42926000D01*
X103114677Y-44254480D02*
X103378000Y-44517803D01*
X99822000Y-42926000D02*
X101150480Y-44254480D01*
X101150480Y-44254480D02*
X103114677Y-44254480D01*
%TO.N,Net-(R31-Pad2)*%
X99353475Y-51499489D02*
X98870489Y-51982475D01*
X95495489Y-41664511D02*
X95495489Y-43350367D01*
X95495489Y-43350367D02*
X96095633Y-43950511D01*
X102928480Y-44704000D02*
X102928480Y-48454802D01*
X98870489Y-52324000D02*
X98425000Y-52324000D01*
X96520000Y-40640000D02*
X95495489Y-41664511D01*
X100210794Y-43950511D02*
X100964283Y-44704000D01*
X96095633Y-43950511D02*
X100210794Y-43950511D01*
X98870489Y-51982475D02*
X98870489Y-52324000D01*
X100964283Y-44704000D02*
X102928480Y-44704000D01*
X102928480Y-48454802D02*
X99883793Y-51499489D01*
X99883793Y-51499489D02*
X99353475Y-51499489D01*
%TO.N,Net-(R32-Pad2)*%
X96520000Y-38100000D02*
X92583000Y-42037000D01*
X100778086Y-45153520D02*
X102478960Y-45153520D01*
X102478960Y-45153520D02*
X102478960Y-48268604D01*
X98298000Y-50800000D02*
X98298000Y-51181000D01*
X100024596Y-44400031D02*
X100778086Y-45153520D01*
X99947564Y-50800000D02*
X98298000Y-50800000D01*
X92583000Y-43688000D02*
X93295031Y-44400031D01*
X93295031Y-44400031D02*
X100024596Y-44400031D01*
X102478960Y-48268604D02*
X99947564Y-50800000D01*
X92583000Y-42037000D02*
X92583000Y-43688000D01*
X98298000Y-51181000D02*
X97155000Y-52324000D01*
%TO.N,Net-(R33-Pad2)*%
X91440000Y-40640000D02*
X91440000Y-43307000D01*
X97858520Y-50350480D02*
X95885000Y-52324000D01*
X101981000Y-45603040D02*
X101981000Y-48130846D01*
X96520000Y-35560000D02*
X91440000Y-40640000D01*
X100591888Y-45603040D02*
X101981000Y-45603040D01*
X99761366Y-50350480D02*
X97858520Y-50350480D01*
X101981000Y-48130846D02*
X99761366Y-50350480D01*
X99838399Y-44849551D02*
X100591888Y-45603040D01*
X91440000Y-43307000D02*
X92982551Y-44849551D01*
X92982551Y-44849551D02*
X99838399Y-44849551D01*
%TO.N,Net-(R34-Pad2)*%
X98552000Y-56435722D02*
X96218278Y-54102000D01*
X94615000Y-53467000D02*
X94615000Y-52324000D01*
X96218278Y-54102000D02*
X95250000Y-54102000D01*
X95250000Y-54102000D02*
X94615000Y-53467000D01*
X96520000Y-63500000D02*
X98552000Y-61468000D01*
X98552000Y-61468000D02*
X98552000Y-56435722D01*
%TO.N,Net-(R35-Pad2)*%
X96528511Y-56904511D02*
X96123033Y-56904511D01*
X97544511Y-59935489D02*
X97544511Y-57920511D01*
X95522889Y-56304367D02*
X95522889Y-55010607D01*
X96123033Y-56904511D02*
X95522889Y-56304367D01*
X95522889Y-55010607D02*
X93345000Y-52832718D01*
X97544511Y-57920511D02*
X96528511Y-56904511D01*
X93345000Y-52832718D02*
X93345000Y-52324000D01*
X96520000Y-60960000D02*
X97544511Y-59935489D01*
%TO.N,Net-(R36-Pad2)*%
X94996000Y-56896000D02*
X94996000Y-55245000D01*
X94996000Y-55245000D02*
X92075000Y-52324000D01*
X96520000Y-58420000D02*
X94996000Y-56896000D01*
%TO.N,Net-(R37-Pad2)*%
X96944367Y-61984511D02*
X95131511Y-61984511D01*
X91250489Y-52665525D02*
X91250489Y-48830511D01*
X95131511Y-61984511D02*
X94546480Y-61399480D01*
X94546480Y-61399480D02*
X94546480Y-55961516D01*
X94546480Y-55961516D02*
X91250489Y-52665525D01*
X98102480Y-57435080D02*
X98102480Y-60826398D01*
X96547400Y-55880000D02*
X98102480Y-57435080D01*
X98102480Y-60826398D02*
X96944367Y-61984511D01*
X91250489Y-48830511D02*
X93345000Y-46736000D01*
%TO.N,Net-(R38-Pad2)*%
X95701674Y-93667520D02*
X97983643Y-95949489D01*
X96240600Y-87558000D02*
X93512369Y-87558000D01*
X91065089Y-90005280D02*
X91065089Y-91527525D01*
X97983643Y-95949489D02*
X98685089Y-95949489D01*
X98685089Y-95949489D02*
X99509600Y-96774000D01*
X93512369Y-87558000D02*
X91065089Y-90005280D01*
X91065089Y-91527525D02*
X93205084Y-93667520D01*
X93205084Y-93667520D02*
X95701674Y-93667520D01*
%TO.N,Net-(R39-Pad2)*%
X95522488Y-94124052D02*
X98172436Y-96774000D01*
X98172436Y-96774000D02*
X98239600Y-96774000D01*
X90615569Y-91713722D02*
X93025899Y-94124052D01*
X96334600Y-85090000D02*
X95344651Y-85090000D01*
X90615569Y-89819082D02*
X90615569Y-91713722D01*
X95344651Y-85090000D02*
X90615569Y-89819082D01*
X93025899Y-94124052D02*
X95522488Y-94124052D01*
%TO.N,Net-(R40-Pad2)*%
X96969600Y-96206882D02*
X96969600Y-96774000D01*
X96334600Y-83464333D02*
X90166049Y-89632885D01*
X95336290Y-94573572D02*
X96969600Y-96206882D01*
X90166049Y-89632885D02*
X90166049Y-91899919D01*
X90166049Y-91899919D02*
X92839702Y-94573572D01*
X92839702Y-94573572D02*
X95336290Y-94573572D01*
X96334600Y-82550000D02*
X96334600Y-83464333D01*
%TO.N,Net-(R41-Pad2)*%
X92653505Y-95023092D02*
X95150092Y-95023092D01*
X95250000Y-81094600D02*
X95250000Y-83913215D01*
X95250000Y-83913215D02*
X89716529Y-89446687D01*
X89716529Y-89446687D02*
X89716529Y-92086117D01*
X89716529Y-92086117D02*
X92653505Y-95023092D01*
X95699600Y-95572600D02*
X95699600Y-96774000D01*
X95150092Y-95023092D02*
X95699600Y-95572600D01*
X96334600Y-80010000D02*
X95250000Y-81094600D01*
%TO.N,Net-(R42-Pad2)*%
X97714631Y-106569969D02*
X97714631Y-100059031D01*
X97714631Y-100059031D02*
X94429600Y-96774000D01*
X96334600Y-107950000D02*
X97714631Y-106569969D01*
%TO.N,Net-(R43-Pad2)*%
X96334600Y-105410000D02*
X97265111Y-104479489D01*
X95885000Y-101473000D02*
X93159600Y-98747600D01*
X96774000Y-101473000D02*
X95885000Y-101473000D01*
X97265111Y-101964111D02*
X96774000Y-101473000D01*
X97265111Y-104479489D02*
X97265111Y-101964111D01*
X93159600Y-98747600D02*
X93159600Y-96774000D01*
%TO.N,Net-(R44-Pad2)*%
X91889600Y-98519000D02*
X91889600Y-96774000D01*
X96240600Y-102870000D02*
X91889600Y-98519000D01*
%TO.N,Net-(R45-Pad2)*%
X101727000Y-96555364D02*
X98389636Y-93218000D01*
X101727000Y-96992636D02*
X101727000Y-96555364D01*
X93159600Y-92986318D02*
X93159600Y-91186000D01*
X93391282Y-93218000D02*
X93159600Y-92986318D01*
X99913636Y-98806000D02*
X101727000Y-96992636D01*
X98389636Y-93218000D02*
X93391282Y-93218000D01*
X99822000Y-98806000D02*
X99913636Y-98806000D01*
%TO.N,Net-(R46-Pad2)*%
X103007040Y-130980252D02*
X103007040Y-133916560D01*
X103007040Y-133916560D02*
X99509600Y-137414000D01*
X96334600Y-128270000D02*
X97604600Y-129540000D01*
X101566789Y-129540000D02*
X103007040Y-130980252D01*
X97604600Y-129540000D02*
X101566789Y-129540000D01*
%TO.N,Net-(R47-Pad2)*%
X102557520Y-131166449D02*
X102557520Y-133096080D01*
X96334600Y-125730000D02*
X95123000Y-126941600D01*
X102557520Y-133096080D02*
X98239600Y-137414000D01*
X101439071Y-130048000D02*
X102557520Y-131166449D01*
X96393000Y-130048000D02*
X101439071Y-130048000D01*
X95123000Y-126941600D02*
X95123000Y-128778000D01*
X95123000Y-128778000D02*
X96393000Y-130048000D01*
%TO.N,Net-(R48-Pad2)*%
X97073564Y-137414000D02*
X96969600Y-137414000D01*
X94673480Y-128964197D02*
X96261251Y-130551969D01*
X102053631Y-131298278D02*
X102053631Y-132433933D01*
X101307323Y-130551969D02*
X102053631Y-131298278D01*
X96261251Y-130551969D02*
X101307323Y-130551969D01*
X102053631Y-132433933D02*
X97073564Y-137414000D01*
X96334600Y-123190000D02*
X94673480Y-124851120D01*
X94673480Y-124851120D02*
X94673480Y-128964197D01*
%TO.N,Net-(R49-Pad2)*%
X101121125Y-131001489D02*
X101604111Y-131484475D01*
X101604111Y-131484475D02*
X101604111Y-132167525D01*
X96524111Y-136589489D02*
X95699600Y-137414000D01*
X94223960Y-122760640D02*
X94223960Y-129150395D01*
X96334600Y-120650000D02*
X94223960Y-122760640D01*
X96075054Y-131001489D02*
X101121125Y-131001489D01*
X94223960Y-129150395D02*
X96075054Y-131001489D01*
X97182147Y-136589489D02*
X96524111Y-136589489D01*
X101604111Y-132167525D02*
X97182147Y-136589489D01*
%TO.N,Net-(R50-Pad2)*%
X96774000Y-142240000D02*
X95504000Y-142240000D01*
X98044000Y-146880600D02*
X98044000Y-143510000D01*
X96334600Y-148590000D02*
X98044000Y-146880600D01*
X94429600Y-141165600D02*
X94429600Y-137414000D01*
X95504000Y-142240000D02*
X94429600Y-141165600D01*
X98044000Y-143510000D02*
X96774000Y-142240000D01*
%TO.N,Net-(R51-Pad2)*%
X96334600Y-146050000D02*
X93159600Y-142875000D01*
X93159600Y-142875000D02*
X93159600Y-137414000D01*
%TO.N,Net-(R53-Pad2)*%
X98389636Y-140970000D02*
X100167636Y-139192000D01*
X96334600Y-140970000D02*
X98389636Y-140970000D01*
X100167636Y-139192000D02*
X101600000Y-139192000D01*
%TO.N,Net-(U1-Pad9)*%
X87630000Y-149352000D02*
X87376000Y-149352000D01*
X88392000Y-147099000D02*
X88392000Y-148590000D01*
X77978000Y-139408500D02*
X76835000Y-138265500D01*
X76835000Y-146939000D02*
X76835000Y-145669000D01*
X76835000Y-138265500D02*
X76835000Y-137414000D01*
X79248000Y-149352000D02*
X76835000Y-146939000D01*
X88392000Y-148590000D02*
X87630000Y-149352000D01*
%TO.N,Net-(U2-Pad9)*%
X69304511Y-131355489D02*
X72438440Y-128221560D01*
X72438440Y-128221560D02*
X72438440Y-111890438D01*
X77303071Y-97242071D02*
X76835000Y-96774000D01*
X68561773Y-133841859D02*
X69304511Y-133099121D01*
X77303071Y-107025807D02*
X77303071Y-97242071D01*
X72438440Y-111890438D02*
X77303071Y-107025807D01*
X69304511Y-133099121D02*
X69304511Y-131355489D01*
%TO.N,Net-(U3-Pad9)*%
X71944511Y-95949489D02*
X73406000Y-94488000D01*
X81798480Y-53200542D02*
X81746449Y-53148511D01*
X81746449Y-53148511D02*
X77659511Y-53148511D01*
X71309511Y-95949489D02*
X71944511Y-95949489D01*
X77659511Y-53148511D02*
X76835000Y-52324000D01*
X68825489Y-92066489D02*
X68825489Y-73414511D01*
X68825489Y-73414511D02*
X81798480Y-60441520D01*
X69215000Y-92456000D02*
X68825489Y-92066489D01*
X70485000Y-96774000D02*
X71309511Y-95949489D01*
X81798480Y-60441520D02*
X81798480Y-53200542D01*
%TO.N,Net-(U4-Pad9)*%
X94615000Y-50038000D02*
X94615000Y-46736000D01*
%TO.N,Net-(U5-Pad9)*%
X102743000Y-64389000D02*
X102743000Y-51054000D01*
X94615000Y-72517000D02*
X102743000Y-64389000D01*
X94488000Y-72517000D02*
X94615000Y-72517000D01*
%TO.N,Net-(U6-Pad9)*%
X102743000Y-93149400D02*
X100779600Y-91186000D01*
X92456000Y-129032000D02*
X92456000Y-122682000D01*
X92456000Y-122682000D02*
X102743000Y-112395000D01*
X102743000Y-112395000D02*
X102743000Y-93149400D01*
%TO.N,Net-(Q4-Pad2)*%
X83820000Y-76454000D02*
X82296000Y-74930000D01*
X83820000Y-82550000D02*
X83820000Y-76454000D01*
%TD*%
M02*
