%TF.GenerationSoftware,KiCad,Pcbnew,(6.0.4)*%
%TF.CreationDate,2022-07-26T21:07:26-04:00*%
%TF.ProjectId,pcb,7063622e-6b69-4636-9164-5f7063625858,rev?*%
%TF.SameCoordinates,Original*%
%TF.FileFunction,Copper,L2,Bot*%
%TF.FilePolarity,Positive*%
%FSLAX46Y46*%
G04 Gerber Fmt 4.6, Leading zero omitted, Abs format (unit mm)*
G04 Created by KiCad (PCBNEW (6.0.4)) date 2022-07-26 21:07:26*
%MOMM*%
%LPD*%
G01*
G04 APERTURE LIST*
%TA.AperFunction,ComponentPad*%
%ADD10C,1.400000*%
%TD*%
%TA.AperFunction,ComponentPad*%
%ADD11O,1.400000X1.400000*%
%TD*%
%TA.AperFunction,ComponentPad*%
%ADD12C,1.000000*%
%TD*%
%TA.AperFunction,ComponentPad*%
%ADD13R,2.600000X2.600000*%
%TD*%
%TA.AperFunction,ComponentPad*%
%ADD14C,2.600000*%
%TD*%
%TA.AperFunction,ComponentPad*%
%ADD15R,1.080000X1.080000*%
%TD*%
%TA.AperFunction,ComponentPad*%
%ADD16C,1.080000*%
%TD*%
%TA.AperFunction,ViaPad*%
%ADD17C,0.800000*%
%TD*%
%TA.AperFunction,Conductor*%
%ADD18C,0.250000*%
%TD*%
%TA.AperFunction,Conductor*%
%ADD19C,0.600000*%
%TD*%
G04 APERTURE END LIST*
D10*
%TO.P,R39,1*%
%TO.N,Net-(J11-Pad3)*%
X101414600Y-85090000D03*
D11*
%TO.P,R39,2*%
%TO.N,Net-(R39-Pad2)*%
X96334600Y-85090000D03*
%TD*%
D12*
%TO.P,U7,1,QB*%
%TO.N,Net-(R52-Pad2)*%
X91889600Y-137414000D03*
%TO.P,U7,2,QC*%
%TO.N,Net-(R51-Pad2)*%
X93159600Y-137414000D03*
%TO.P,U7,3,QD*%
%TO.N,Net-(R50-Pad2)*%
X94429600Y-137414000D03*
%TO.P,U7,4,QE*%
%TO.N,Net-(R49-Pad2)*%
X95699600Y-137414000D03*
%TO.P,U7,5,QF*%
%TO.N,Net-(R48-Pad2)*%
X96969600Y-137414000D03*
%TO.P,U7,6,QG*%
%TO.N,Net-(R47-Pad2)*%
X98239600Y-137414000D03*
%TO.P,U7,7,QH*%
%TO.N,Net-(R46-Pad2)*%
X99509600Y-137414000D03*
%TO.P,U7,8,GND*%
%TO.N,GND*%
X100779600Y-137414000D03*
%TO.P,U7,9,QH'*%
%TO.N,unconnected-(U7-Pad9)*%
X100779600Y-131826000D03*
%TO.P,U7,10,~{SRCLR}*%
%TO.N,Net-(J2-Pad6)*%
X99509600Y-131826000D03*
%TO.P,U7,11,SRCLK*%
%TO.N,Net-(J2-Pad5)*%
X98239600Y-131826000D03*
%TO.P,U7,12,RCLK*%
%TO.N,Net-(J2-Pad3)*%
X96969600Y-131826000D03*
%TO.P,U7,13,~{OE}*%
%TO.N,Net-(J2-Pad2)*%
X95699600Y-131826000D03*
%TO.P,U7,14,SER*%
%TO.N,Net-(U6-Pad9)*%
X94429600Y-131826000D03*
%TO.P,U7,15,QA*%
%TO.N,Net-(R53-Pad2)*%
X93159600Y-131826000D03*
%TO.P,U7,16,VCC*%
%TO.N,Net-(J2-Pad6)*%
X91889600Y-131826000D03*
%TD*%
D10*
%TO.P,R23,1*%
%TO.N,Net-(J7-Pad3)*%
X69850000Y-58420000D03*
D11*
%TO.P,R23,2*%
%TO.N,Net-(R23-Pad2)*%
X74930000Y-58420000D03*
%TD*%
D12*
%TO.P,U2,1,QB*%
%TO.N,Net-(R12-Pad2)*%
X79375000Y-131826000D03*
%TO.P,U2,2,QC*%
%TO.N,Net-(R11-Pad2)*%
X78105000Y-131826000D03*
%TO.P,U2,3,QD*%
%TO.N,Net-(R10-Pad2)*%
X76835000Y-131826000D03*
%TO.P,U2,4,QE*%
%TO.N,Net-(R9-Pad2)*%
X75565000Y-131826000D03*
%TO.P,U2,5,QF*%
%TO.N,Net-(R8-Pad2)*%
X74295000Y-131826000D03*
%TO.P,U2,6,QG*%
%TO.N,Net-(R7-Pad2)*%
X73025000Y-131826000D03*
%TO.P,U2,7,QH*%
%TO.N,Net-(R6-Pad2)*%
X71755000Y-131826000D03*
%TO.P,U2,8,GND*%
%TO.N,GND*%
X70485000Y-131826000D03*
%TO.P,U2,9,QH'*%
%TO.N,Net-(U2-Pad9)*%
X70485000Y-137414000D03*
%TO.P,U2,10,~{SRCLR}*%
%TO.N,Net-(J2-Pad6)*%
X71755000Y-137414000D03*
%TO.P,U2,11,SRCLK*%
%TO.N,Net-(J2-Pad5)*%
X73025000Y-137414000D03*
%TO.P,U2,12,RCLK*%
%TO.N,Net-(J2-Pad3)*%
X74295000Y-137414000D03*
%TO.P,U2,13,~{OE}*%
%TO.N,Net-(J2-Pad2)*%
X75565000Y-137414000D03*
%TO.P,U2,14,SER*%
%TO.N,Net-(U1-Pad9)*%
X76835000Y-137414000D03*
%TO.P,U2,15,QA*%
%TO.N,Net-(R13-Pad2)*%
X78105000Y-137414000D03*
%TO.P,U2,16,VCC*%
%TO.N,Net-(J2-Pad6)*%
X79375000Y-137414000D03*
%TD*%
D10*
%TO.P,R53,1*%
%TO.N,Net-(J14-Pad1)*%
X101414600Y-140970000D03*
D11*
%TO.P,R53,2*%
%TO.N,Net-(R53-Pad2)*%
X96334600Y-140970000D03*
%TD*%
D13*
%TO.P,J4,1,Pin_1*%
%TO.N,Net-(J4-Pad1)*%
X62230000Y-133045200D03*
D14*
%TO.P,J4,2,Pin_2*%
%TO.N,Net-(J4-Pad2)*%
X62230000Y-127965200D03*
%TO.P,J4,3,Pin_3*%
%TO.N,Net-(J4-Pad3)*%
X62230000Y-122885200D03*
%TO.P,J4,4,Pin_4*%
%TO.N,Net-(J4-Pad4)*%
X62230000Y-117805200D03*
%TD*%
D10*
%TO.P,R14,1*%
%TO.N,Net-(J5-Pad4)*%
X69850000Y-100330000D03*
D11*
%TO.P,R14,2*%
%TO.N,Net-(R14-Pad2)*%
X74930000Y-100330000D03*
%TD*%
D10*
%TO.P,R19,1*%
%TO.N,Net-(J6-Pad3)*%
X69850000Y-82550000D03*
D11*
%TO.P,R19,2*%
%TO.N,Net-(R19-Pad2)*%
X74930000Y-82550000D03*
%TD*%
D10*
%TO.P,R47,1*%
%TO.N,Net-(J13-Pad3)*%
X101414600Y-125730000D03*
D11*
%TO.P,R47,2*%
%TO.N,Net-(R47-Pad2)*%
X96334600Y-125730000D03*
%TD*%
D13*
%TO.P,J7,1,Pin_1*%
%TO.N,Net-(J7-Pad1)*%
X62230000Y-68275200D03*
D14*
%TO.P,J7,2,Pin_2*%
%TO.N,Net-(J7-Pad2)*%
X62230000Y-63195200D03*
%TO.P,J7,3,Pin_3*%
%TO.N,Net-(J7-Pad3)*%
X62230000Y-58115200D03*
%TO.P,J7,4,Pin_4*%
%TO.N,Net-(J7-Pad4)*%
X62230000Y-53035200D03*
%TD*%
D10*
%TO.P,R51,1*%
%TO.N,Net-(J14-Pad3)*%
X101414600Y-146050000D03*
D11*
%TO.P,R51,2*%
%TO.N,Net-(R51-Pad2)*%
X96334600Y-146050000D03*
%TD*%
D10*
%TO.P,R16,1*%
%TO.N,Net-(J5-Pad2)*%
X69850000Y-105410000D03*
D11*
%TO.P,R16,2*%
%TO.N,Net-(R16-Pad2)*%
X74930000Y-105410000D03*
%TD*%
D10*
%TO.P,R25,1*%
%TO.N,Net-(J7-Pad1)*%
X69850000Y-63500000D03*
D11*
%TO.P,R25,2*%
%TO.N,Net-(R25-Pad2)*%
X74930000Y-63500000D03*
%TD*%
D12*
%TO.P,U4,1,QB*%
%TO.N,Net-(R28-Pad2)*%
X79375000Y-46736000D03*
%TO.P,U4,2,QC*%
%TO.N,Net-(R27-Pad2)*%
X78105000Y-46736000D03*
%TO.P,U4,3,QD*%
%TO.N,Net-(R26-Pad2)*%
X76835000Y-46736000D03*
%TO.P,U4,4,QE*%
%TO.N,Net-(R25-Pad2)*%
X75565000Y-46736000D03*
%TO.P,U4,5,QF*%
%TO.N,Net-(R24-Pad2)*%
X74295000Y-46736000D03*
%TO.P,U4,6,QG*%
%TO.N,Net-(R23-Pad2)*%
X73025000Y-46736000D03*
%TO.P,U4,7,QH*%
%TO.N,Net-(R22-Pad2)*%
X71755000Y-46736000D03*
%TO.P,U4,8,GND*%
%TO.N,GND*%
X70485000Y-46736000D03*
%TO.P,U4,9,QH'*%
%TO.N,Net-(U4-Pad9)*%
X70485000Y-52324000D03*
%TO.P,U4,10,~{SRCLR}*%
%TO.N,Net-(J2-Pad6)*%
X71755000Y-52324000D03*
%TO.P,U4,11,SRCLK*%
%TO.N,Net-(J2-Pad5)*%
X73025000Y-52324000D03*
%TO.P,U4,12,RCLK*%
%TO.N,Net-(J2-Pad3)*%
X74295000Y-52324000D03*
%TO.P,U4,13,~{OE}*%
%TO.N,Net-(J2-Pad2)*%
X75565000Y-52324000D03*
%TO.P,U4,14,SER*%
%TO.N,Net-(U3-Pad9)*%
X76835000Y-52324000D03*
%TO.P,U4,15,QA*%
%TO.N,Net-(R29-Pad2)*%
X78105000Y-52324000D03*
%TO.P,U4,16,VCC*%
%TO.N,Net-(J2-Pad6)*%
X79375000Y-52324000D03*
%TD*%
D10*
%TO.P,R21,1*%
%TO.N,Net-(J6-Pad1)*%
X69850000Y-87630000D03*
D11*
%TO.P,R21,2*%
%TO.N,Net-(R21-Pad2)*%
X74930000Y-87630000D03*
%TD*%
D15*
%TO.P,Q1,1*%
%TO.N,Net-(J1-Pad1)*%
X87630000Y-114300000D03*
D16*
%TO.P,Q1,2*%
%TO.N,Net-(Q1-Pad2)*%
X88900000Y-115570000D03*
%TO.P,Q1,3*%
%TO.N,GND*%
X90170000Y-114300000D03*
%TD*%
D10*
%TO.P,R10,1*%
%TO.N,Net-(J4-Pad4)*%
X69850000Y-120650000D03*
D11*
%TO.P,R10,2*%
%TO.N,Net-(R10-Pad2)*%
X74930000Y-120650000D03*
%TD*%
D10*
%TO.P,R29,1*%
%TO.N,Net-(J8-Pad1)*%
X69850000Y-43180000D03*
D11*
%TO.P,R29,2*%
%TO.N,Net-(R29-Pad2)*%
X74930000Y-43180000D03*
%TD*%
D10*
%TO.P,R30,1*%
%TO.N,Net-(J9-Pad4)*%
X101600000Y-42926000D03*
D11*
%TO.P,R30,2*%
%TO.N,Net-(R30-Pad2)*%
X96520000Y-42926000D03*
%TD*%
D10*
%TO.P,R20,1*%
%TO.N,Net-(J6-Pad2)*%
X69850000Y-85090000D03*
D11*
%TO.P,R20,2*%
%TO.N,Net-(R20-Pad2)*%
X74930000Y-85090000D03*
%TD*%
D10*
%TO.P,R50,1*%
%TO.N,Net-(J14-Pad4)*%
X101414600Y-148590000D03*
D11*
%TO.P,R50,2*%
%TO.N,Net-(R50-Pad2)*%
X96334600Y-148590000D03*
%TD*%
D10*
%TO.P,R49,1*%
%TO.N,Net-(J13-Pad1)*%
X101414600Y-120650000D03*
D11*
%TO.P,R49,2*%
%TO.N,Net-(R49-Pad2)*%
X96334600Y-120650000D03*
%TD*%
D10*
%TO.P,R24,1*%
%TO.N,Net-(J7-Pad2)*%
X69850000Y-60960000D03*
D11*
%TO.P,R24,2*%
%TO.N,Net-(R24-Pad2)*%
X74930000Y-60960000D03*
%TD*%
D10*
%TO.P,R28,1*%
%TO.N,Net-(J8-Pad2)*%
X69850000Y-40640000D03*
D11*
%TO.P,R28,2*%
%TO.N,Net-(R28-Pad2)*%
X74930000Y-40640000D03*
%TD*%
D12*
%TO.P,U6,1,QB*%
%TO.N,Net-(R44-Pad2)*%
X91889600Y-96774000D03*
%TO.P,U6,2,QC*%
%TO.N,Net-(R43-Pad2)*%
X93159600Y-96774000D03*
%TO.P,U6,3,QD*%
%TO.N,Net-(R42-Pad2)*%
X94429600Y-96774000D03*
%TO.P,U6,4,QE*%
%TO.N,Net-(R41-Pad2)*%
X95699600Y-96774000D03*
%TO.P,U6,5,QF*%
%TO.N,Net-(R40-Pad2)*%
X96969600Y-96774000D03*
%TO.P,U6,6,QG*%
%TO.N,Net-(R39-Pad2)*%
X98239600Y-96774000D03*
%TO.P,U6,7,QH*%
%TO.N,Net-(R38-Pad2)*%
X99509600Y-96774000D03*
%TO.P,U6,8,GND*%
%TO.N,GND*%
X100779600Y-96774000D03*
%TO.P,U6,9,QH'*%
%TO.N,Net-(U6-Pad9)*%
X100779600Y-91186000D03*
%TO.P,U6,10,~{SRCLR}*%
%TO.N,Net-(J2-Pad6)*%
X99509600Y-91186000D03*
%TO.P,U6,11,SRCLK*%
%TO.N,Net-(J2-Pad5)*%
X98239600Y-91186000D03*
%TO.P,U6,12,RCLK*%
%TO.N,Net-(J2-Pad3)*%
X96969600Y-91186000D03*
%TO.P,U6,13,~{OE}*%
%TO.N,Net-(J2-Pad2)*%
X95699600Y-91186000D03*
%TO.P,U6,14,SER*%
%TO.N,Net-(U5-Pad9)*%
X94429600Y-91186000D03*
%TO.P,U6,15,QA*%
%TO.N,Net-(R45-Pad2)*%
X93159600Y-91186000D03*
%TO.P,U6,16,VCC*%
%TO.N,Net-(J2-Pad6)*%
X91889600Y-91186000D03*
%TD*%
D13*
%TO.P,J9,1,Pin_1*%
%TO.N,Net-(J9-Pad1)*%
X108864000Y-31750000D03*
D14*
%TO.P,J9,2,Pin_2*%
%TO.N,Net-(J9-Pad2)*%
X108864000Y-36830000D03*
%TO.P,J9,3,Pin_3*%
%TO.N,Net-(J9-Pad3)*%
X108864000Y-41910000D03*
%TO.P,J9,4,Pin_4*%
%TO.N,Net-(J9-Pad4)*%
X108864000Y-46990000D03*
%TD*%
D13*
%TO.P,J14,1,Pin_1*%
%TO.N,Net-(J14-Pad1)*%
X108915000Y-139700000D03*
D14*
%TO.P,J14,2,Pin_2*%
%TO.N,Net-(J14-Pad2)*%
X108915000Y-144780000D03*
%TO.P,J14,3,Pin_3*%
%TO.N,Net-(J14-Pad3)*%
X108915000Y-149860000D03*
%TO.P,J14,4,Pin_4*%
%TO.N,Net-(J14-Pad4)*%
X108915000Y-154940000D03*
%TD*%
D13*
%TO.P,J11,1,Pin_1*%
%TO.N,Net-(J11-Pad1)*%
X108864000Y-74930000D03*
D14*
%TO.P,J11,2,Pin_2*%
%TO.N,Net-(J11-Pad2)*%
X108864000Y-80010000D03*
%TO.P,J11,3,Pin_3*%
%TO.N,Net-(J11-Pad3)*%
X108864000Y-85090000D03*
%TO.P,J11,4,Pin_4*%
%TO.N,Net-(J11-Pad4)*%
X108864000Y-90170000D03*
%TD*%
D13*
%TO.P,J1,1,Pin_1*%
%TO.N,Net-(J1-Pad1)*%
X78740000Y-28245000D03*
D14*
%TO.P,J1,2,Pin_2*%
%TO.N,Net-(J1-Pad2)*%
X83820000Y-28245000D03*
%TO.P,J1,3,Pin_3*%
%TO.N,Net-(J1-Pad3)*%
X88900000Y-28245000D03*
%TO.P,J1,4,Pin_4*%
%TO.N,Net-(J1-Pad4)*%
X93980000Y-28245000D03*
%TD*%
D10*
%TO.P,R45,1*%
%TO.N,Net-(J12-Pad1)*%
X101320600Y-100330000D03*
D11*
%TO.P,R45,2*%
%TO.N,Net-(R45-Pad2)*%
X96240600Y-100330000D03*
%TD*%
D13*
%TO.P,J12,1,Pin_1*%
%TO.N,Net-(J12-Pad1)*%
X108864000Y-96520000D03*
D14*
%TO.P,J12,2,Pin_2*%
%TO.N,Net-(J12-Pad2)*%
X108864000Y-101600000D03*
%TO.P,J12,3,Pin_3*%
%TO.N,Net-(J12-Pad3)*%
X108864000Y-106680000D03*
%TO.P,J12,4,Pin_4*%
%TO.N,Net-(J12-Pad4)*%
X108864000Y-111760000D03*
%TD*%
D10*
%TO.P,R31,1*%
%TO.N,Net-(J9-Pad3)*%
X101600000Y-40640000D03*
D11*
%TO.P,R31,2*%
%TO.N,Net-(R31-Pad2)*%
X96520000Y-40640000D03*
%TD*%
D15*
%TO.P,Q2,1*%
%TO.N,Net-(J1-Pad2)*%
X81026000Y-114300000D03*
D16*
%TO.P,Q2,2*%
%TO.N,Net-(Q2-Pad2)*%
X82296000Y-115570000D03*
%TO.P,Q2,3*%
%TO.N,GND*%
X83566000Y-114300000D03*
%TD*%
D10*
%TO.P,R42,1*%
%TO.N,Net-(J12-Pad4)*%
X101414600Y-107950000D03*
D11*
%TO.P,R42,2*%
%TO.N,Net-(R42-Pad2)*%
X96334600Y-107950000D03*
%TD*%
D10*
%TO.P,R26,1*%
%TO.N,Net-(J8-Pad4)*%
X69850000Y-35560000D03*
D11*
%TO.P,R26,2*%
%TO.N,Net-(R26-Pad2)*%
X74930000Y-35560000D03*
%TD*%
D10*
%TO.P,R44,1*%
%TO.N,Net-(J12-Pad2)*%
X101320600Y-102870000D03*
D11*
%TO.P,R44,2*%
%TO.N,Net-(R44-Pad2)*%
X96240600Y-102870000D03*
%TD*%
D13*
%TO.P,J8,1,Pin_1*%
%TO.N,Net-(J8-Pad1)*%
X62179000Y-46685200D03*
D14*
%TO.P,J8,2,Pin_2*%
%TO.N,Net-(J8-Pad2)*%
X62179000Y-41605200D03*
%TO.P,J8,3,Pin_3*%
%TO.N,Net-(J8-Pad3)*%
X62179000Y-36525200D03*
%TO.P,J8,4,Pin_4*%
%TO.N,Net-(J8-Pad4)*%
X62179000Y-31445200D03*
%TD*%
D10*
%TO.P,R4,1*%
%TO.N,Net-(R4-Pad1)*%
X83820000Y-87630000D03*
D11*
%TO.P,R4,2*%
%TO.N,Net-(Q4-Pad2)*%
X83820000Y-82550000D03*
%TD*%
D10*
%TO.P,R35,1*%
%TO.N,Net-(J10-Pad3)*%
X101600000Y-60960000D03*
D11*
%TO.P,R35,2*%
%TO.N,Net-(R35-Pad2)*%
X96520000Y-60960000D03*
%TD*%
D10*
%TO.P,R43,1*%
%TO.N,Net-(J12-Pad3)*%
X101414600Y-105410000D03*
D11*
%TO.P,R43,2*%
%TO.N,Net-(R43-Pad2)*%
X96334600Y-105410000D03*
%TD*%
D10*
%TO.P,R48,1*%
%TO.N,Net-(J13-Pad2)*%
X101414600Y-123190000D03*
D11*
%TO.P,R48,2*%
%TO.N,Net-(R48-Pad2)*%
X96334600Y-123190000D03*
%TD*%
D15*
%TO.P,Q4,1*%
%TO.N,Net-(J1-Pad4)*%
X81026000Y-73660000D03*
D16*
%TO.P,Q4,2*%
%TO.N,Net-(Q4-Pad2)*%
X82296000Y-74930000D03*
%TO.P,Q4,3*%
%TO.N,GND*%
X83566000Y-73660000D03*
%TD*%
D10*
%TO.P,R40,1*%
%TO.N,Net-(J11-Pad2)*%
X101414600Y-82550000D03*
D11*
%TO.P,R40,2*%
%TO.N,Net-(R40-Pad2)*%
X96334600Y-82550000D03*
%TD*%
D10*
%TO.P,R9,1*%
%TO.N,Net-(J3-Pad1)*%
X69850000Y-148590000D03*
D11*
%TO.P,R9,2*%
%TO.N,Net-(R9-Pad2)*%
X74930000Y-148590000D03*
%TD*%
D10*
%TO.P,R34,1*%
%TO.N,Net-(J10-Pad4)*%
X101600000Y-63500000D03*
D11*
%TO.P,R34,2*%
%TO.N,Net-(R34-Pad2)*%
X96520000Y-63500000D03*
%TD*%
D13*
%TO.P,J13,1,Pin_1*%
%TO.N,Net-(J13-Pad1)*%
X108915000Y-118110000D03*
D14*
%TO.P,J13,2,Pin_2*%
%TO.N,Net-(J13-Pad2)*%
X108915000Y-123190000D03*
%TO.P,J13,3,Pin_3*%
%TO.N,Net-(J13-Pad3)*%
X108915000Y-128270000D03*
%TO.P,J13,4,Pin_4*%
%TO.N,Net-(J13-Pad4)*%
X108915000Y-133350000D03*
%TD*%
D10*
%TO.P,R3,1*%
%TO.N,Net-(R3-Pad1)*%
X86868000Y-87630000D03*
D11*
%TO.P,R3,2*%
%TO.N,Net-(Q3-Pad2)*%
X86868000Y-82550000D03*
%TD*%
D10*
%TO.P,R7,1*%
%TO.N,Net-(J3-Pad3)*%
X69850000Y-143510000D03*
D11*
%TO.P,R7,2*%
%TO.N,Net-(R7-Pad2)*%
X74930000Y-143510000D03*
%TD*%
D10*
%TO.P,R12,1*%
%TO.N,Net-(J4-Pad2)*%
X69850000Y-125730000D03*
D11*
%TO.P,R12,2*%
%TO.N,Net-(R12-Pad2)*%
X74930000Y-125730000D03*
%TD*%
D10*
%TO.P,R2,1*%
%TO.N,Net-(R2-Pad1)*%
X84582000Y-128270000D03*
D11*
%TO.P,R2,2*%
%TO.N,Net-(Q2-Pad2)*%
X84582000Y-123190000D03*
%TD*%
D12*
%TO.P,U1,1,QB*%
%TO.N,Net-(R2-Pad1)*%
X82804000Y-138209000D03*
%TO.P,U1,2,QC*%
%TO.N,Net-(R3-Pad1)*%
X82804000Y-139479000D03*
%TO.P,U1,3,QD*%
%TO.N,Net-(R4-Pad1)*%
X82804000Y-140749000D03*
%TO.P,U1,4,QE*%
%TO.N,unconnected-(U1-Pad4)*%
X82804000Y-142019000D03*
%TO.P,U1,5,QF*%
%TO.N,unconnected-(U1-Pad5)*%
X82804000Y-143289000D03*
%TO.P,U1,6,QG*%
%TO.N,unconnected-(U1-Pad6)*%
X82804000Y-144559000D03*
%TO.P,U1,7,QH*%
%TO.N,unconnected-(U1-Pad7)*%
X82804000Y-145829000D03*
%TO.P,U1,8,GND*%
%TO.N,GND*%
X82804000Y-147099000D03*
%TO.P,U1,9,QH'*%
%TO.N,Net-(U1-Pad9)*%
X88392000Y-147099000D03*
%TO.P,U1,10,~{SRCLR}*%
%TO.N,Net-(J2-Pad6)*%
X88392000Y-145829000D03*
%TO.P,U1,11,SRCLK*%
%TO.N,Net-(J2-Pad5)*%
X88392000Y-144559000D03*
%TO.P,U1,12,RCLK*%
%TO.N,Net-(J2-Pad3)*%
X88392000Y-143289000D03*
%TO.P,U1,13,~{OE}*%
%TO.N,Net-(J2-Pad2)*%
X88392000Y-142019000D03*
%TO.P,U1,14,SER*%
%TO.N,Net-(J2-Pad4)*%
X88392000Y-140749000D03*
%TO.P,U1,15,QA*%
%TO.N,Net-(R1-Pad1)*%
X88392000Y-139479000D03*
%TO.P,U1,16,VCC*%
%TO.N,Net-(J2-Pad6)*%
X88392000Y-138209000D03*
%TD*%
D10*
%TO.P,R36,1*%
%TO.N,Net-(J10-Pad2)*%
X101600000Y-58420000D03*
D11*
%TO.P,R36,2*%
%TO.N,Net-(R36-Pad2)*%
X96520000Y-58420000D03*
%TD*%
D10*
%TO.P,R11,1*%
%TO.N,Net-(J4-Pad3)*%
X69850000Y-123190000D03*
D11*
%TO.P,R11,2*%
%TO.N,Net-(R11-Pad2)*%
X74930000Y-123190000D03*
%TD*%
D10*
%TO.P,R38,1*%
%TO.N,Net-(J11-Pad4)*%
X101320600Y-87558000D03*
D11*
%TO.P,R38,2*%
%TO.N,Net-(R38-Pad2)*%
X96240600Y-87558000D03*
%TD*%
D10*
%TO.P,R32,1*%
%TO.N,Net-(J9-Pad2)*%
X101600000Y-38100000D03*
D11*
%TO.P,R32,2*%
%TO.N,Net-(R32-Pad2)*%
X96520000Y-38100000D03*
%TD*%
D12*
%TO.P,U5,1,QB*%
%TO.N,Net-(R36-Pad2)*%
X92075000Y-52324000D03*
%TO.P,U5,2,QC*%
%TO.N,Net-(R35-Pad2)*%
X93345000Y-52324000D03*
%TO.P,U5,3,QD*%
%TO.N,Net-(R34-Pad2)*%
X94615000Y-52324000D03*
%TO.P,U5,4,QE*%
%TO.N,Net-(R33-Pad2)*%
X95885000Y-52324000D03*
%TO.P,U5,5,QF*%
%TO.N,Net-(R32-Pad2)*%
X97155000Y-52324000D03*
%TO.P,U5,6,QG*%
%TO.N,Net-(R31-Pad2)*%
X98425000Y-52324000D03*
%TO.P,U5,7,QH*%
%TO.N,Net-(R30-Pad2)*%
X99695000Y-52324000D03*
%TO.P,U5,8,GND*%
%TO.N,GND*%
X100965000Y-52324000D03*
%TO.P,U5,9,QH'*%
%TO.N,Net-(U5-Pad9)*%
X100965000Y-46736000D03*
%TO.P,U5,10,~{SRCLR}*%
%TO.N,Net-(J2-Pad6)*%
X99695000Y-46736000D03*
%TO.P,U5,11,SRCLK*%
%TO.N,Net-(J2-Pad5)*%
X98425000Y-46736000D03*
%TO.P,U5,12,RCLK*%
%TO.N,Net-(J2-Pad3)*%
X97155000Y-46736000D03*
%TO.P,U5,13,~{OE}*%
%TO.N,Net-(J2-Pad2)*%
X95885000Y-46736000D03*
%TO.P,U5,14,SER*%
%TO.N,Net-(U4-Pad9)*%
X94615000Y-46736000D03*
%TO.P,U5,15,QA*%
%TO.N,Net-(R37-Pad2)*%
X93345000Y-46736000D03*
%TO.P,U5,16,VCC*%
%TO.N,Net-(J2-Pad6)*%
X92075000Y-46736000D03*
%TD*%
D10*
%TO.P,R8,1*%
%TO.N,Net-(J3-Pad2)*%
X69850000Y-146050000D03*
D11*
%TO.P,R8,2*%
%TO.N,Net-(R8-Pad2)*%
X74930000Y-146050000D03*
%TD*%
D10*
%TO.P,R17,1*%
%TO.N,Net-(J5-Pad1)*%
X69850000Y-107950000D03*
D11*
%TO.P,R17,2*%
%TO.N,Net-(R17-Pad2)*%
X74930000Y-107950000D03*
%TD*%
D10*
%TO.P,R1,1*%
%TO.N,Net-(R1-Pad1)*%
X87630000Y-128270000D03*
D11*
%TO.P,R1,2*%
%TO.N,Net-(Q1-Pad2)*%
X87630000Y-123190000D03*
%TD*%
D15*
%TO.P,Q3,1*%
%TO.N,Net-(J1-Pad3)*%
X87630000Y-73660000D03*
D16*
%TO.P,Q3,2*%
%TO.N,Net-(Q3-Pad2)*%
X88900000Y-74930000D03*
%TO.P,Q3,3*%
%TO.N,GND*%
X90170000Y-73660000D03*
%TD*%
D10*
%TO.P,R37,1*%
%TO.N,Net-(J10-Pad1)*%
X101627400Y-55880000D03*
D11*
%TO.P,R37,2*%
%TO.N,Net-(R37-Pad2)*%
X96547400Y-55880000D03*
%TD*%
D10*
%TO.P,R6,1*%
%TO.N,Net-(J3-Pad4)*%
X69850000Y-140970000D03*
D11*
%TO.P,R6,2*%
%TO.N,Net-(R6-Pad2)*%
X74930000Y-140970000D03*
%TD*%
D10*
%TO.P,R46,1*%
%TO.N,Net-(J13-Pad4)*%
X101414600Y-128270000D03*
D11*
%TO.P,R46,2*%
%TO.N,Net-(R46-Pad2)*%
X96334600Y-128270000D03*
%TD*%
D13*
%TO.P,J2,1,Pin_1*%
%TO.N,GND*%
X97790000Y-156464000D03*
D14*
%TO.P,J2,2,Pin_2*%
%TO.N,Net-(J2-Pad2)*%
X92790000Y-156464000D03*
%TO.P,J2,3,Pin_3*%
%TO.N,Net-(J2-Pad3)*%
X87790000Y-156464000D03*
%TO.P,J2,4,Pin_4*%
%TO.N,Net-(J2-Pad4)*%
X82790000Y-156464000D03*
%TO.P,J2,5,Pin_5*%
%TO.N,Net-(J2-Pad5)*%
X77790000Y-156464000D03*
%TO.P,J2,6,Pin_6*%
%TO.N,Net-(J2-Pad6)*%
X72790000Y-156464000D03*
%TD*%
D10*
%TO.P,R52,1*%
%TO.N,Net-(J14-Pad2)*%
X101414600Y-143510000D03*
D11*
%TO.P,R52,2*%
%TO.N,Net-(R52-Pad2)*%
X96334600Y-143510000D03*
%TD*%
D10*
%TO.P,R13,1*%
%TO.N,Net-(J4-Pad1)*%
X69850000Y-128270000D03*
D11*
%TO.P,R13,2*%
%TO.N,Net-(R13-Pad2)*%
X74930000Y-128270000D03*
%TD*%
D10*
%TO.P,R15,1*%
%TO.N,Net-(J5-Pad3)*%
X69850000Y-102870000D03*
D11*
%TO.P,R15,2*%
%TO.N,Net-(R15-Pad2)*%
X74930000Y-102870000D03*
%TD*%
D10*
%TO.P,R27,1*%
%TO.N,Net-(J8-Pad3)*%
X69850000Y-38100000D03*
D11*
%TO.P,R27,2*%
%TO.N,Net-(R27-Pad2)*%
X74930000Y-38100000D03*
%TD*%
D13*
%TO.P,J10,1,Pin_1*%
%TO.N,Net-(J10-Pad1)*%
X108864000Y-53340000D03*
D14*
%TO.P,J10,2,Pin_2*%
%TO.N,Net-(J10-Pad2)*%
X108864000Y-58420000D03*
%TO.P,J10,3,Pin_3*%
%TO.N,Net-(J10-Pad3)*%
X108864000Y-63500000D03*
%TO.P,J10,4,Pin_4*%
%TO.N,Net-(J10-Pad4)*%
X108864000Y-68580000D03*
%TD*%
D10*
%TO.P,R41,1*%
%TO.N,Net-(J11-Pad1)*%
X101414600Y-80010000D03*
D11*
%TO.P,R41,2*%
%TO.N,Net-(R41-Pad2)*%
X96334600Y-80010000D03*
%TD*%
D10*
%TO.P,R18,1*%
%TO.N,Net-(J6-Pad4)*%
X69850000Y-80010000D03*
D11*
%TO.P,R18,2*%
%TO.N,Net-(R18-Pad2)*%
X74930000Y-80010000D03*
%TD*%
D12*
%TO.P,U3,1,QB*%
%TO.N,Net-(R20-Pad2)*%
X79375000Y-91186000D03*
%TO.P,U3,2,QC*%
%TO.N,Net-(R19-Pad2)*%
X78105000Y-91186000D03*
%TO.P,U3,3,QD*%
%TO.N,Net-(R18-Pad2)*%
X76835000Y-91186000D03*
%TO.P,U3,4,QE*%
%TO.N,Net-(R17-Pad2)*%
X75565000Y-91186000D03*
%TO.P,U3,5,QF*%
%TO.N,Net-(R16-Pad2)*%
X74295000Y-91186000D03*
%TO.P,U3,6,QG*%
%TO.N,Net-(R15-Pad2)*%
X73025000Y-91186000D03*
%TO.P,U3,7,QH*%
%TO.N,Net-(R14-Pad2)*%
X71755000Y-91186000D03*
%TO.P,U3,8,GND*%
%TO.N,GND*%
X70485000Y-91186000D03*
%TO.P,U3,9,QH'*%
%TO.N,Net-(U3-Pad9)*%
X70485000Y-96774000D03*
%TO.P,U3,10,~{SRCLR}*%
%TO.N,Net-(J2-Pad6)*%
X71755000Y-96774000D03*
%TO.P,U3,11,SRCLK*%
%TO.N,Net-(J2-Pad5)*%
X73025000Y-96774000D03*
%TO.P,U3,12,RCLK*%
%TO.N,Net-(J2-Pad3)*%
X74295000Y-96774000D03*
%TO.P,U3,13,~{OE}*%
%TO.N,Net-(J2-Pad2)*%
X75565000Y-96774000D03*
%TO.P,U3,14,SER*%
%TO.N,Net-(U2-Pad9)*%
X76835000Y-96774000D03*
%TO.P,U3,15,QA*%
%TO.N,Net-(R21-Pad2)*%
X78105000Y-96774000D03*
%TO.P,U3,16,VCC*%
%TO.N,Net-(J2-Pad6)*%
X79375000Y-96774000D03*
%TD*%
D10*
%TO.P,R33,1*%
%TO.N,Net-(J9-Pad1)*%
X101600000Y-35560000D03*
D11*
%TO.P,R33,2*%
%TO.N,Net-(R33-Pad2)*%
X96520000Y-35560000D03*
%TD*%
D13*
%TO.P,J6,1,Pin_1*%
%TO.N,Net-(J6-Pad1)*%
X62230000Y-89865200D03*
D14*
%TO.P,J6,2,Pin_2*%
%TO.N,Net-(J6-Pad2)*%
X62230000Y-84785200D03*
%TO.P,J6,3,Pin_3*%
%TO.N,Net-(J6-Pad3)*%
X62230000Y-79705200D03*
%TO.P,J6,4,Pin_4*%
%TO.N,Net-(J6-Pad4)*%
X62230000Y-74625200D03*
%TD*%
D13*
%TO.P,J5,1,Pin_1*%
%TO.N,Net-(J5-Pad1)*%
X62230000Y-111455200D03*
D14*
%TO.P,J5,2,Pin_2*%
%TO.N,Net-(J5-Pad2)*%
X62230000Y-106375200D03*
%TO.P,J5,3,Pin_3*%
%TO.N,Net-(J5-Pad3)*%
X62230000Y-101295200D03*
%TO.P,J5,4,Pin_4*%
%TO.N,Net-(J5-Pad4)*%
X62230000Y-96215200D03*
%TD*%
D10*
%TO.P,R22,1*%
%TO.N,Net-(J7-Pad4)*%
X69850000Y-55880000D03*
D11*
%TO.P,R22,2*%
%TO.N,Net-(R22-Pad2)*%
X74930000Y-55880000D03*
%TD*%
D13*
%TO.P,J3,1,Pin_1*%
%TO.N,Net-(J3-Pad1)*%
X62230000Y-154635200D03*
D14*
%TO.P,J3,2,Pin_2*%
%TO.N,Net-(J3-Pad2)*%
X62230000Y-149555200D03*
%TO.P,J3,3,Pin_3*%
%TO.N,Net-(J3-Pad3)*%
X62230000Y-144475200D03*
%TO.P,J3,4,Pin_4*%
%TO.N,Net-(J3-Pad4)*%
X62230000Y-139395200D03*
%TD*%
D17*
%TO.N,Net-(J1-Pad1)*%
X88092989Y-77724000D03*
X84836000Y-77724000D03*
%TO.N,Net-(J1-Pad2)*%
X84582000Y-80391000D03*
X82423000Y-80391000D03*
%TO.N,Net-(J1-Pad4)*%
X83439000Y-70358000D03*
X88519000Y-68707000D03*
%TO.N,GND*%
X104140000Y-131826000D03*
X82804000Y-150876000D03*
X83820000Y-90043000D03*
X79279020Y-130014707D03*
X104140000Y-116078000D03*
X104140000Y-98552000D03*
X90932000Y-97790000D03*
X83820000Y-97790000D03*
X93848342Y-130052658D03*
X88529500Y-97790000D03*
X104140000Y-52451000D03*
X96895531Y-97871005D03*
%TO.N,Net-(J2-Pad2)*%
X90297000Y-48895000D03*
X90043000Y-99060000D03*
X88529500Y-96139000D03*
X90932000Y-131018196D03*
X78005447Y-140462000D03*
X92075000Y-74803000D03*
X81026000Y-53975000D03*
X90043000Y-93472000D03*
X90043000Y-96012000D03*
X95758000Y-48895000D03*
X90932000Y-129032000D03*
X92075000Y-72517000D03*
X91440000Y-141986000D03*
%TO.N,Net-(J2-Pad3)*%
X89662000Y-131064000D03*
X94107000Y-134022500D03*
X91075497Y-72517000D03*
X89662000Y-129032000D03*
X90207500Y-148336000D03*
X89043497Y-99060000D03*
X93980000Y-92456000D03*
X91059000Y-74803000D03*
X77978000Y-141605000D03*
X89789000Y-48006000D03*
X88773000Y-93218000D03*
%TO.N,Net-(J2-Pad5)*%
X89408000Y-133604000D03*
X80264000Y-131064000D03*
X93150293Y-134550207D03*
X84836000Y-152400000D03*
X81407000Y-94488000D03*
X80264000Y-129032000D03*
X100380118Y-94183882D03*
X79121000Y-94488000D03*
X91059000Y-94488000D03*
X80264000Y-138684000D03*
X73152000Y-50419000D03*
X83312000Y-152400000D03*
X82231457Y-48195457D03*
X83058000Y-132080000D03*
X88519000Y-94488000D03*
X84836000Y-132969000D03*
%TO.N,Net-(J2-Pad6)*%
X91948000Y-134620000D03*
X67691000Y-132588000D03*
X66966500Y-95758000D03*
X81788000Y-46609000D03*
X83566000Y-48133000D03*
X84836000Y-134620000D03*
X79248000Y-134620000D03*
X89408000Y-134620000D03*
X73152000Y-135636000D03*
X66548000Y-49276000D03*
X86868000Y-138176000D03*
X86868000Y-142748000D03*
%TO.N,Net-(R1-Pad1)*%
X87884000Y-135636000D03*
%TO.N,Net-(R2-Pad1)*%
X83947000Y-131318000D03*
%TO.N,Net-(R3-Pad1)*%
X82550000Y-133604000D03*
X86614000Y-119761000D03*
X83820000Y-121539000D03*
X82804000Y-129032000D03*
%TO.N,Net-(R4-Pad1)*%
X81280000Y-133604000D03*
X83820000Y-120523000D03*
X81534000Y-129032000D03*
X85598000Y-119761000D03*
%TO.N,Net-(R6-Pad2)*%
X73152000Y-140208000D03*
X66929000Y-139700000D03*
%TO.N,Net-(R7-Pad2)*%
X72771092Y-138937481D03*
X67806572Y-138925500D03*
%TO.N,Net-(R45-Pad2)*%
X99822000Y-98806000D03*
%TO.N,Net-(R53-Pad2)*%
X101600000Y-139192000D03*
%TO.N,Net-(U1-Pad9)*%
X87376000Y-149352000D03*
X77978000Y-139408500D03*
X76835000Y-145669000D03*
X79248000Y-149352000D03*
%TO.N,Net-(U2-Pad9)*%
X68561773Y-133841859D03*
%TO.N,Net-(U3-Pad9)*%
X73406000Y-94488000D03*
X69215000Y-92456000D03*
%TO.N,Net-(U4-Pad9)*%
X94615000Y-50038000D03*
%TO.N,Net-(U5-Pad9)*%
X94488000Y-72517000D03*
X102743000Y-51054000D03*
%TO.N,Net-(U6-Pad9)*%
X92456000Y-129032000D03*
%TD*%
D18*
%TO.N,Net-(J2-Pad5)*%
X83947000Y-132969000D02*
X83058000Y-132080000D01*
X84836000Y-132969000D02*
X83947000Y-132969000D01*
%TO.N,Net-(R2-Pad1)*%
X83947000Y-131318000D02*
X84582000Y-130683000D01*
X84582000Y-130683000D02*
X84582000Y-128270000D01*
%TO.N,Net-(R4-Pad1)*%
X81153000Y-129413000D02*
X81153000Y-133477000D01*
X81153000Y-133477000D02*
X81280000Y-133604000D01*
X81534000Y-129032000D02*
X81153000Y-129413000D01*
D19*
%TO.N,GND*%
X70485000Y-131318000D02*
X70485000Y-131826000D01*
X71788293Y-130014707D02*
X70485000Y-131318000D01*
X79279020Y-130014707D02*
X71788293Y-130014707D01*
D18*
%TO.N,Net-(R7-Pad2)*%
X72643573Y-139065000D02*
X72771092Y-138937481D01*
X68967368Y-138985245D02*
X69047123Y-139065000D01*
X68830114Y-138925500D02*
X68889859Y-138985245D01*
X68889859Y-138985245D02*
X68967368Y-138985245D01*
X67806572Y-138925500D02*
X68830114Y-138925500D01*
X69047123Y-139065000D02*
X72643573Y-139065000D01*
%TO.N,Net-(R6-Pad2)*%
X66929000Y-139700000D02*
X72635386Y-139700000D01*
X73143386Y-140208000D02*
X73152000Y-140208000D01*
X72635386Y-139700000D02*
X73143386Y-140208000D01*
%TO.N,Net-(R13-Pad2)*%
X75057000Y-134366000D02*
X78105000Y-137414000D01*
X71501000Y-134366000D02*
X75057000Y-134366000D01*
X68580000Y-131445000D02*
X71501000Y-134366000D01*
X71755000Y-128270000D02*
X68580000Y-131445000D01*
X74930000Y-128270000D02*
X71755000Y-128270000D01*
D19*
%TO.N,Net-(J2-Pad6)*%
X68650726Y-132588000D02*
X67691000Y-132588000D01*
X69511284Y-133519284D02*
X69511284Y-133448558D01*
X71755000Y-135763000D02*
X69511284Y-133519284D01*
X69511284Y-133448558D02*
X68650726Y-132588000D01*
X71755000Y-135763000D02*
X73025000Y-135763000D01*
X73025000Y-135763000D02*
X73152000Y-135636000D01*
D18*
%TO.N,Net-(J2-Pad5)*%
X74168000Y-138557000D02*
X73025000Y-137414000D01*
X80137000Y-138557000D02*
X74168000Y-138557000D01*
X80264000Y-138684000D02*
X80137000Y-138557000D01*
%TO.N,Net-(U1-Pad9)*%
X76835000Y-139827000D02*
X76835000Y-145669000D01*
X77253500Y-139408500D02*
X76835000Y-139827000D01*
X77978000Y-139408500D02*
X77253500Y-139408500D01*
%TO.N,Net-(J2-Pad2)*%
X79121000Y-144653000D02*
X82441511Y-147973511D01*
X79121000Y-141577553D02*
X79121000Y-144653000D01*
X82441511Y-147973511D02*
X88754235Y-147973511D01*
X78005447Y-140462000D02*
X79121000Y-141577553D01*
X88754235Y-147973511D02*
X91440000Y-145287746D01*
X91440000Y-145287746D02*
X91440000Y-141986000D01*
%TO.N,Net-(J2-Pad3)*%
X86915675Y-148717000D02*
X81915000Y-148717000D01*
X77978000Y-144780000D02*
X77978000Y-141605000D01*
X87963325Y-148844000D02*
X87696814Y-148577489D01*
X87696814Y-148577489D02*
X87055186Y-148577489D01*
X81915000Y-148717000D02*
X77978000Y-144780000D01*
X89699500Y-148844000D02*
X87963325Y-148844000D01*
X87055186Y-148577489D02*
X86915675Y-148717000D01*
X90207500Y-148336000D02*
X89699500Y-148844000D01*
X89662000Y-131699000D02*
X89662000Y-131064000D01*
X90932000Y-132969000D02*
X89662000Y-131699000D01*
X93053500Y-132969000D02*
X90932000Y-132969000D01*
X94107000Y-134022500D02*
X93053500Y-132969000D01*
%TO.N,Net-(R53-Pad2)*%
X94429600Y-133096000D02*
X93159600Y-131826000D01*
X97698346Y-133096000D02*
X94429600Y-133096000D01*
X101654111Y-137051765D02*
X97698346Y-133096000D01*
X101654111Y-137776235D02*
X101654111Y-137051765D01*
X101604111Y-137826235D02*
X101654111Y-137776235D01*
X101604111Y-139187889D02*
X101604111Y-137826235D01*
X101600000Y-139192000D02*
X101604111Y-139187889D01*
D19*
%TO.N,Net-(J1-Pad1)*%
X88092989Y-77724000D02*
X84836000Y-77724000D01*
%TO.N,Net-(J1-Pad2)*%
X82423000Y-80391000D02*
X84582000Y-80391000D01*
%TO.N,Net-(J1-Pad4)*%
X83439000Y-70358000D02*
X85090000Y-68707000D01*
X85090000Y-68707000D02*
X88519000Y-68707000D01*
%TO.N,GND*%
X71301894Y-45212000D02*
X70485000Y-46028894D01*
X89130489Y-113260489D02*
X84605511Y-113260489D01*
X104140000Y-48497477D02*
X100854523Y-45212000D01*
X97790000Y-156464000D02*
X92202000Y-150876000D01*
X92202000Y-150876000D02*
X82804000Y-150876000D01*
X89130489Y-72620489D02*
X84605511Y-72620489D01*
X100854523Y-45212000D02*
X71301894Y-45212000D01*
X84605511Y-113260489D02*
X83566000Y-114300000D01*
X84605511Y-72620489D02*
X83566000Y-73660000D01*
X101092000Y-52451000D02*
X100965000Y-52324000D01*
X96814526Y-97790000D02*
X90932000Y-97790000D01*
X93853000Y-130048000D02*
X102362000Y-130048000D01*
X83820000Y-97790000D02*
X88529500Y-97790000D01*
X83820000Y-90043000D02*
X71247000Y-90043000D01*
X104140000Y-116078000D02*
X102362000Y-114300000D01*
X93848342Y-130052658D02*
X93853000Y-130048000D01*
X102362000Y-96774000D02*
X100779600Y-96774000D01*
X90170000Y-114300000D02*
X89130489Y-113260489D01*
X90170000Y-73660000D02*
X89130489Y-72620489D01*
X102362000Y-130048000D02*
X104140000Y-131826000D01*
X71247000Y-90043000D02*
X70485000Y-90805000D01*
X96895531Y-97871005D02*
X96814526Y-97790000D01*
X70485000Y-90805000D02*
X70485000Y-91186000D01*
X104140000Y-52451000D02*
X104140000Y-48497477D01*
X102362000Y-114300000D02*
X90170000Y-114300000D01*
X104140000Y-98552000D02*
X102362000Y-96774000D01*
X104140000Y-52451000D02*
X101092000Y-52451000D01*
X70485000Y-46028894D02*
X70485000Y-46736000D01*
D18*
%TO.N,Net-(J2-Pad2)*%
X92075000Y-74803000D02*
X92075000Y-72760500D01*
X81176036Y-96139000D02*
X79716525Y-97598511D01*
X90043000Y-93472000D02*
X94615000Y-93472000D01*
X94615000Y-93472000D02*
X95699600Y-92387400D01*
X91440000Y-141986000D02*
X91407000Y-142019000D01*
X95699600Y-92387400D02*
X95699600Y-91186000D01*
X91407000Y-142019000D02*
X88392000Y-142019000D01*
X76389511Y-97598511D02*
X75565000Y-96774000D01*
X90043000Y-96012000D02*
X90043000Y-93472000D01*
X85217000Y-53975000D02*
X81026000Y-53975000D01*
X90932000Y-129032000D02*
X90932000Y-131018196D01*
X90297000Y-48895000D02*
X85217000Y-53975000D01*
X90043000Y-96012000D02*
X90043000Y-99060000D01*
X79716525Y-97598511D02*
X76389511Y-97598511D01*
X88529500Y-96139000D02*
X81176036Y-96139000D01*
X90297000Y-48895000D02*
X95758000Y-48895000D01*
%TO.N,Net-(J2-Pad3)*%
X97155000Y-47498000D02*
X97155000Y-46736000D01*
X90034386Y-92456000D02*
X93980000Y-92456000D01*
X89789000Y-48006000D02*
X96647000Y-48006000D01*
X75819000Y-99060000D02*
X74295000Y-97536000D01*
X88773000Y-93218000D02*
X89272386Y-93218000D01*
X74295000Y-97536000D02*
X74295000Y-96774000D01*
X89254011Y-98849486D02*
X89043497Y-99060000D01*
X96647000Y-48006000D02*
X97155000Y-47498000D01*
X89662000Y-131064000D02*
X89662000Y-129032000D01*
X75119511Y-53148511D02*
X79820489Y-53148511D01*
X79820489Y-53148511D02*
X84963000Y-48006000D01*
X89254011Y-93699011D02*
X89254011Y-98849486D01*
X89043497Y-99060000D02*
X75819000Y-99060000D01*
X91059000Y-72533497D02*
X91075497Y-72517000D01*
X74295000Y-52324000D02*
X75119511Y-53148511D01*
X89272386Y-93218000D02*
X90034386Y-92456000D01*
X84963000Y-48006000D02*
X89789000Y-48006000D01*
X88773000Y-93218000D02*
X89254011Y-93699011D01*
X91059000Y-74803000D02*
X91059000Y-72533497D01*
%TO.N,Net-(J2-Pad5)*%
X80264000Y-131064000D02*
X80264000Y-129032000D01*
X97600489Y-45911489D02*
X98425000Y-46736000D01*
X89408000Y-133604000D02*
X92204086Y-133604000D01*
X84515425Y-45911489D02*
X97600489Y-45911489D01*
X82231457Y-48195457D02*
X84515425Y-45911489D01*
X91059000Y-94488000D02*
X91186000Y-94361000D01*
X82231457Y-48195457D02*
X82106543Y-48195457D01*
X79883000Y-50419000D02*
X73152000Y-50419000D01*
X82106543Y-48195457D02*
X79883000Y-50419000D01*
X83312000Y-152400000D02*
X84836000Y-152400000D01*
X91186000Y-94361000D02*
X100203000Y-94361000D01*
X81407000Y-94488000D02*
X88519000Y-94488000D01*
X92204086Y-133604000D02*
X93150293Y-134550207D01*
X100203000Y-94361000D02*
X100380118Y-94183882D01*
X79121000Y-94488000D02*
X81407000Y-94488000D01*
%TO.N,Net-(J3-Pad1)*%
X62230000Y-152781000D02*
X66421000Y-148590000D01*
X66421000Y-148590000D02*
X69850000Y-148590000D01*
X62230000Y-154635200D02*
X62230000Y-152781000D01*
%TO.N,Net-(J3-Pad2)*%
X62230000Y-147447000D02*
X63627000Y-146050000D01*
X62230000Y-149555200D02*
X62230000Y-147447000D01*
X63627000Y-146050000D02*
X69850000Y-146050000D01*
%TO.N,Net-(J3-Pad3)*%
X63195200Y-143510000D02*
X69850000Y-143510000D01*
X62230000Y-144475200D02*
X63195200Y-143510000D01*
%TO.N,Net-(J3-Pad4)*%
X63804800Y-140970000D02*
X69850000Y-140970000D01*
X62230000Y-139395200D02*
X63804800Y-140970000D01*
%TO.N,Net-(J4-Pad1)*%
X62230000Y-133045200D02*
X62230000Y-131064000D01*
X65024000Y-128270000D02*
X69850000Y-128270000D01*
X62230000Y-131064000D02*
X65024000Y-128270000D01*
%TO.N,Net-(J4-Pad2)*%
X62230000Y-127965200D02*
X64465200Y-125730000D01*
X64465200Y-125730000D02*
X69850000Y-125730000D01*
%TO.N,Net-(J4-Pad3)*%
X69545200Y-122885200D02*
X69850000Y-123190000D01*
X62230000Y-122885200D02*
X69545200Y-122885200D01*
%TO.N,Net-(J4-Pad4)*%
X65074800Y-120650000D02*
X69850000Y-120650000D01*
X62230000Y-117805200D02*
X65074800Y-120650000D01*
%TO.N,Net-(J5-Pad1)*%
X66344800Y-111455200D02*
X69850000Y-107950000D01*
X62230000Y-111455200D02*
X66344800Y-111455200D01*
%TO.N,Net-(J5-Pad2)*%
X68884800Y-106375200D02*
X69850000Y-105410000D01*
X62230000Y-106375200D02*
X68884800Y-106375200D01*
%TO.N,Net-(J5-Pad3)*%
X63804800Y-102870000D02*
X69850000Y-102870000D01*
X62230000Y-101295200D02*
X63804800Y-102870000D01*
%TO.N,Net-(J5-Pad4)*%
X62230000Y-96215200D02*
X65735200Y-96215200D01*
X65735200Y-96215200D02*
X69850000Y-100330000D01*
%TO.N,Net-(J6-Pad1)*%
X67614800Y-89865200D02*
X69850000Y-87630000D01*
X62230000Y-89865200D02*
X67614800Y-89865200D01*
%TO.N,Net-(J6-Pad2)*%
X69545200Y-84785200D02*
X69850000Y-85090000D01*
X62230000Y-84785200D02*
X69545200Y-84785200D01*
%TO.N,Net-(J6-Pad3)*%
X62230000Y-79705200D02*
X67005200Y-79705200D01*
X67005200Y-79705200D02*
X69850000Y-82550000D01*
%TO.N,Net-(J6-Pad4)*%
X62230000Y-74625200D02*
X64465200Y-74625200D01*
X64465200Y-74625200D02*
X69850000Y-80010000D01*
%TO.N,Net-(J7-Pad1)*%
X62230000Y-68275200D02*
X65074800Y-68275200D01*
X65074800Y-68275200D02*
X69850000Y-63500000D01*
%TO.N,Net-(J7-Pad2)*%
X62230000Y-63195200D02*
X67614800Y-63195200D01*
X67614800Y-63195200D02*
X69850000Y-60960000D01*
%TO.N,Net-(J7-Pad3)*%
X69545200Y-58115200D02*
X69850000Y-58420000D01*
X62230000Y-58115200D02*
X69545200Y-58115200D01*
%TO.N,Net-(J7-Pad4)*%
X67005200Y-53035200D02*
X69850000Y-55880000D01*
X62230000Y-53035200D02*
X67005200Y-53035200D01*
%TO.N,Net-(J8-Pad1)*%
X66344800Y-46685200D02*
X69850000Y-43180000D01*
X62179000Y-46685200D02*
X66344800Y-46685200D01*
%TO.N,Net-(J8-Pad2)*%
X62179000Y-41605200D02*
X68884800Y-41605200D01*
X68884800Y-41605200D02*
X69850000Y-40640000D01*
%TO.N,Net-(J8-Pad3)*%
X68275200Y-36525200D02*
X69850000Y-38100000D01*
X62179000Y-36525200D02*
X68275200Y-36525200D01*
%TO.N,Net-(J8-Pad4)*%
X65735200Y-31445200D02*
X69850000Y-35560000D01*
X62179000Y-31445200D02*
X65735200Y-31445200D01*
%TO.N,Net-(J9-Pad1)*%
X105054000Y-35560000D02*
X108864000Y-31750000D01*
X101600000Y-35560000D02*
X105054000Y-35560000D01*
%TO.N,Net-(J9-Pad2)*%
X107594000Y-38100000D02*
X108864000Y-36830000D01*
X101600000Y-38100000D02*
X107594000Y-38100000D01*
%TO.N,Net-(J9-Pad3)*%
X107594000Y-40640000D02*
X108864000Y-41910000D01*
X101600000Y-40640000D02*
X107594000Y-40640000D01*
%TO.N,Net-(J9-Pad4)*%
X101600000Y-42926000D02*
X104800000Y-42926000D01*
X104800000Y-42926000D02*
X108864000Y-46990000D01*
%TO.N,Net-(J10-Pad1)*%
X106324000Y-55880000D02*
X108864000Y-53340000D01*
X101627400Y-55880000D02*
X106324000Y-55880000D01*
%TO.N,Net-(J10-Pad2)*%
X101600000Y-58420000D02*
X108864000Y-58420000D01*
%TO.N,Net-(J10-Pad3)*%
X104140000Y-63500000D02*
X108864000Y-63500000D01*
X101600000Y-60960000D02*
X104140000Y-63500000D01*
%TO.N,Net-(J10-Pad4)*%
X101600000Y-63500000D02*
X106680000Y-68580000D01*
X106680000Y-68580000D02*
X108864000Y-68580000D01*
%TO.N,Net-(J11-Pad1)*%
X101414600Y-80010000D02*
X103784000Y-80010000D01*
X103784000Y-80010000D02*
X108864000Y-74930000D01*
%TO.N,Net-(J11-Pad2)*%
X101414600Y-82550000D02*
X106324000Y-82550000D01*
X106324000Y-82550000D02*
X108864000Y-80010000D01*
%TO.N,Net-(J11-Pad3)*%
X101414600Y-85090000D02*
X108864000Y-85090000D01*
%TO.N,Net-(J11-Pad4)*%
X106252000Y-87558000D02*
X108864000Y-90170000D01*
X101320600Y-87558000D02*
X106252000Y-87558000D01*
%TO.N,Net-(J12-Pad1)*%
X101320600Y-100330000D02*
X105054000Y-100330000D01*
X105054000Y-100330000D02*
X108864000Y-96520000D01*
%TO.N,Net-(J12-Pad2)*%
X102590600Y-101600000D02*
X108864000Y-101600000D01*
X101320600Y-102870000D02*
X102590600Y-101600000D01*
%TO.N,Net-(J12-Pad3)*%
X107594000Y-105410000D02*
X108864000Y-106680000D01*
X101414600Y-105410000D02*
X107594000Y-105410000D01*
%TO.N,Net-(J12-Pad4)*%
X105054000Y-107950000D02*
X108864000Y-111760000D01*
X101414600Y-107950000D02*
X105054000Y-107950000D01*
%TO.N,Net-(J13-Pad1)*%
X101414600Y-120650000D02*
X106375000Y-120650000D01*
X106375000Y-120650000D02*
X108915000Y-118110000D01*
%TO.N,Net-(J13-Pad2)*%
X101414600Y-123190000D02*
X108915000Y-123190000D01*
%TO.N,Net-(J13-Pad3)*%
X101414600Y-125730000D02*
X106375000Y-125730000D01*
X106375000Y-125730000D02*
X108915000Y-128270000D01*
%TO.N,Net-(J13-Pad4)*%
X103835000Y-128270000D02*
X108915000Y-133350000D01*
X101414600Y-128270000D02*
X103835000Y-128270000D01*
%TO.N,Net-(J14-Pad1)*%
X107645000Y-140970000D02*
X108915000Y-139700000D01*
X101414600Y-140970000D02*
X107645000Y-140970000D01*
%TO.N,Net-(J14-Pad2)*%
X107645000Y-143510000D02*
X108915000Y-144780000D01*
X101414600Y-143510000D02*
X107645000Y-143510000D01*
%TO.N,Net-(J14-Pad3)*%
X101414600Y-146050000D02*
X105105000Y-146050000D01*
X105105000Y-146050000D02*
X108915000Y-149860000D01*
%TO.N,Net-(J14-Pad4)*%
X101414600Y-148590000D02*
X102565000Y-148590000D01*
X102565000Y-148590000D02*
X108915000Y-154940000D01*
D19*
%TO.N,Net-(J2-Pad6)*%
X73660000Y-95504000D02*
X73662102Y-95504000D01*
X71755000Y-51616894D02*
X71755000Y-52324000D01*
X66966500Y-95758000D02*
X69088000Y-95758000D01*
X73406000Y-95758000D02*
X73660000Y-95504000D01*
X84963000Y-46736000D02*
X92075000Y-46736000D01*
X71755000Y-52180477D02*
X72610988Y-51324489D01*
X69104489Y-95774489D02*
X70899012Y-95774489D01*
X80788523Y-91186000D02*
X91889600Y-91186000D01*
X79248000Y-137287000D02*
X79375000Y-137414000D01*
X78519012Y-51324489D02*
X79375000Y-52180477D01*
X69414106Y-49276000D02*
X71755000Y-51616894D01*
X71755000Y-137414000D02*
X71755000Y-135763000D01*
X73662102Y-95504000D02*
X76980591Y-92185511D01*
X83566000Y-48133000D02*
X84963000Y-46736000D01*
X86868000Y-138176000D02*
X86868000Y-142748000D01*
X79789012Y-92185511D02*
X80788523Y-91186000D01*
X79248000Y-134620000D02*
X84836000Y-134620000D01*
X70899012Y-95774489D02*
X78519012Y-95774489D01*
X76980591Y-92185511D02*
X79789012Y-92185511D01*
X89408000Y-134620000D02*
X91948000Y-134620000D01*
X79375000Y-96630477D02*
X79375000Y-96774000D01*
X79248000Y-134620000D02*
X79248000Y-137287000D01*
X79375000Y-52180477D02*
X79375000Y-52324000D01*
X69088000Y-95758000D02*
X69104489Y-95774489D01*
X66548000Y-49276000D02*
X69414106Y-49276000D01*
X69414106Y-49276000D02*
X79121000Y-49276000D01*
X78519012Y-95774489D02*
X79375000Y-96630477D01*
X71755000Y-96630477D02*
X71755000Y-96774000D01*
X79121000Y-49276000D02*
X81788000Y-46609000D01*
X72610988Y-51324489D02*
X78519012Y-51324489D01*
X70899012Y-95774489D02*
X71755000Y-96630477D01*
D18*
%TO.N,Net-(R1-Pad1)*%
X87884000Y-135636000D02*
X87630000Y-135382000D01*
X87630000Y-135382000D02*
X87630000Y-128270000D01*
%TO.N,Net-(R3-Pad1)*%
X82804000Y-129286000D02*
X81862958Y-130227042D01*
X81862958Y-130227042D02*
X81862958Y-132634103D01*
X86614000Y-119769614D02*
X86614000Y-119761000D01*
X84844614Y-121539000D02*
X86614000Y-119769614D01*
X83820000Y-121539000D02*
X84844614Y-121539000D01*
X81862958Y-132634103D02*
X82550000Y-133321145D01*
X82550000Y-133321145D02*
X82550000Y-133604000D01*
X82804000Y-129032000D02*
X82804000Y-129286000D01*
%TO.N,Net-(R4-Pad1)*%
X83820000Y-120523000D02*
X84836000Y-120523000D01*
X84836000Y-120523000D02*
X85598000Y-119761000D01*
%TO.N,Net-(R45-Pad2)*%
X98298000Y-100330000D02*
X96240600Y-100330000D01*
X99822000Y-98806000D02*
X98298000Y-100330000D01*
%TO.N,Net-(U1-Pad9)*%
X87376000Y-149352000D02*
X79248000Y-149352000D01*
%TO.N,Net-(U2-Pad9)*%
X70485000Y-135765086D02*
X68561773Y-133841859D01*
X70485000Y-137414000D02*
X70485000Y-135765086D01*
%TO.N,Net-(U3-Pad9)*%
X73406000Y-94488000D02*
X71247000Y-94488000D01*
X71247000Y-94488000D02*
X69215000Y-92456000D01*
%TO.N,Net-(U4-Pad9)*%
X93194964Y-50038000D02*
X94615000Y-50038000D01*
X70485000Y-52324000D02*
X72898000Y-54737000D01*
X88495964Y-54737000D02*
X93194964Y-50038000D01*
X72898000Y-54737000D02*
X88495964Y-54737000D01*
%TO.N,Net-(U5-Pad9)*%
X100965000Y-49276000D02*
X102743000Y-51054000D01*
X94488000Y-72517000D02*
X94429600Y-72575400D01*
X94429600Y-72575400D02*
X94429600Y-91186000D01*
X100965000Y-46736000D02*
X100965000Y-49276000D01*
%TO.N,Net-(U6-Pad9)*%
X92456000Y-129852400D02*
X92456000Y-129032000D01*
X94429600Y-131826000D02*
X92456000Y-129852400D01*
%TD*%
M02*
