%TF.GenerationSoftware,KiCad,Pcbnew,(6.0.4)*%
%TF.CreationDate,2022-07-27T20:52:42-04:00*%
%TF.ProjectId,pcb,7063622e-6b69-4636-9164-5f7063625858,rev?*%
%TF.SameCoordinates,Original*%
%TF.FileFunction,Legend,Top*%
%TF.FilePolarity,Positive*%
%FSLAX46Y46*%
G04 Gerber Fmt 4.6, Leading zero omitted, Abs format (unit mm)*
G04 Created by KiCad (PCBNEW (6.0.4)) date 2022-07-27 20:52:42*
%MOMM*%
%LPD*%
G01*
G04 APERTURE LIST*
%ADD10C,0.150000*%
%ADD11C,0.120000*%
%ADD12C,0.152400*%
%ADD13C,0.050800*%
%ADD14C,0.127000*%
%ADD15C,0.200000*%
G04 APERTURE END LIST*
D10*
%TO.C,R39*%
X98231742Y-87462380D02*
X97898409Y-86986190D01*
X97660314Y-87462380D02*
X97660314Y-86462380D01*
X98041266Y-86462380D01*
X98136504Y-86510000D01*
X98184123Y-86557619D01*
X98231742Y-86652857D01*
X98231742Y-86795714D01*
X98184123Y-86890952D01*
X98136504Y-86938571D01*
X98041266Y-86986190D01*
X97660314Y-86986190D01*
X98565076Y-86462380D02*
X99184123Y-86462380D01*
X98850790Y-86843333D01*
X98993647Y-86843333D01*
X99088885Y-86890952D01*
X99136504Y-86938571D01*
X99184123Y-87033809D01*
X99184123Y-87271904D01*
X99136504Y-87367142D01*
X99088885Y-87414761D01*
X98993647Y-87462380D01*
X98707933Y-87462380D01*
X98612695Y-87414761D01*
X98565076Y-87367142D01*
X99660314Y-87462380D02*
X99850790Y-87462380D01*
X99946028Y-87414761D01*
X99993647Y-87367142D01*
X100088885Y-87224285D01*
X100136504Y-87033809D01*
X100136504Y-86652857D01*
X100088885Y-86557619D01*
X100041266Y-86510000D01*
X99946028Y-86462380D01*
X99755552Y-86462380D01*
X99660314Y-86510000D01*
X99612695Y-86557619D01*
X99565076Y-86652857D01*
X99565076Y-86890952D01*
X99612695Y-86986190D01*
X99660314Y-87033809D01*
X99755552Y-87081428D01*
X99946028Y-87081428D01*
X100041266Y-87033809D01*
X100088885Y-86986190D01*
X100136504Y-86890952D01*
%TO.C,U7*%
X89208675Y-133435062D02*
X89208675Y-134246180D01*
X89256387Y-134341606D01*
X89304100Y-134389318D01*
X89399526Y-134437031D01*
X89590377Y-134437031D01*
X89685803Y-134389318D01*
X89733515Y-134341606D01*
X89781228Y-134246180D01*
X89781228Y-133435062D01*
X90162931Y-133435062D02*
X90830910Y-133435062D01*
X90401495Y-134437031D01*
%TO.C,R23*%
X71747142Y-56952380D02*
X71413809Y-56476190D01*
X71175714Y-56952380D02*
X71175714Y-55952380D01*
X71556666Y-55952380D01*
X71651904Y-56000000D01*
X71699523Y-56047619D01*
X71747142Y-56142857D01*
X71747142Y-56285714D01*
X71699523Y-56380952D01*
X71651904Y-56428571D01*
X71556666Y-56476190D01*
X71175714Y-56476190D01*
X72128095Y-56047619D02*
X72175714Y-56000000D01*
X72270952Y-55952380D01*
X72509047Y-55952380D01*
X72604285Y-56000000D01*
X72651904Y-56047619D01*
X72699523Y-56142857D01*
X72699523Y-56238095D01*
X72651904Y-56380952D01*
X72080476Y-56952380D01*
X72699523Y-56952380D01*
X73032857Y-55952380D02*
X73651904Y-55952380D01*
X73318571Y-56333333D01*
X73461428Y-56333333D01*
X73556666Y-56380952D01*
X73604285Y-56428571D01*
X73651904Y-56523809D01*
X73651904Y-56761904D01*
X73604285Y-56857142D01*
X73556666Y-56904761D01*
X73461428Y-56952380D01*
X73175714Y-56952380D01*
X73080476Y-56904761D01*
X73032857Y-56857142D01*
%TO.C,U2*%
X80643595Y-135214302D02*
X80643595Y-136025420D01*
X80691307Y-136120846D01*
X80739020Y-136168558D01*
X80834446Y-136216271D01*
X81025297Y-136216271D01*
X81120723Y-136168558D01*
X81168435Y-136120846D01*
X81216148Y-136025420D01*
X81216148Y-135214302D01*
X81645564Y-135309728D02*
X81693276Y-135262015D01*
X81788702Y-135214302D01*
X82027266Y-135214302D01*
X82122692Y-135262015D01*
X82170404Y-135309728D01*
X82218117Y-135405153D01*
X82218117Y-135500579D01*
X82170404Y-135643717D01*
X81597851Y-136216271D01*
X82218117Y-136216271D01*
%TO.C,R53*%
X98231742Y-143342380D02*
X97898409Y-142866190D01*
X97660314Y-143342380D02*
X97660314Y-142342380D01*
X98041266Y-142342380D01*
X98136504Y-142390000D01*
X98184123Y-142437619D01*
X98231742Y-142532857D01*
X98231742Y-142675714D01*
X98184123Y-142770952D01*
X98136504Y-142818571D01*
X98041266Y-142866190D01*
X97660314Y-142866190D01*
X99136504Y-142342380D02*
X98660314Y-142342380D01*
X98612695Y-142818571D01*
X98660314Y-142770952D01*
X98755552Y-142723333D01*
X98993647Y-142723333D01*
X99088885Y-142770952D01*
X99136504Y-142818571D01*
X99184123Y-142913809D01*
X99184123Y-143151904D01*
X99136504Y-143247142D01*
X99088885Y-143294761D01*
X98993647Y-143342380D01*
X98755552Y-143342380D01*
X98660314Y-143294761D01*
X98612695Y-143247142D01*
X99517457Y-142342380D02*
X100136504Y-142342380D01*
X99803171Y-142723333D01*
X99946028Y-142723333D01*
X100041266Y-142770952D01*
X100088885Y-142818571D01*
X100136504Y-142913809D01*
X100136504Y-143151904D01*
X100088885Y-143247142D01*
X100041266Y-143294761D01*
X99946028Y-143342380D01*
X99660314Y-143342380D01*
X99565076Y-143294761D01*
X99517457Y-143247142D01*
%TO.C,J4*%
X55422380Y-125758533D02*
X56136666Y-125758533D01*
X56279523Y-125806152D01*
X56374761Y-125901390D01*
X56422380Y-126044247D01*
X56422380Y-126139485D01*
X55755714Y-124853771D02*
X56422380Y-124853771D01*
X55374761Y-125091866D02*
X56089047Y-125329961D01*
X56089047Y-124710914D01*
%TO.C,R14*%
X71747142Y-98862380D02*
X71413809Y-98386190D01*
X71175714Y-98862380D02*
X71175714Y-97862380D01*
X71556666Y-97862380D01*
X71651904Y-97910000D01*
X71699523Y-97957619D01*
X71747142Y-98052857D01*
X71747142Y-98195714D01*
X71699523Y-98290952D01*
X71651904Y-98338571D01*
X71556666Y-98386190D01*
X71175714Y-98386190D01*
X72699523Y-98862380D02*
X72128095Y-98862380D01*
X72413809Y-98862380D02*
X72413809Y-97862380D01*
X72318571Y-98005238D01*
X72223333Y-98100476D01*
X72128095Y-98148095D01*
X73556666Y-98195714D02*
X73556666Y-98862380D01*
X73318571Y-97814761D02*
X73080476Y-98529047D01*
X73699523Y-98529047D01*
%TO.C,R19*%
X71747142Y-81082380D02*
X71413809Y-80606190D01*
X71175714Y-81082380D02*
X71175714Y-80082380D01*
X71556666Y-80082380D01*
X71651904Y-80130000D01*
X71699523Y-80177619D01*
X71747142Y-80272857D01*
X71747142Y-80415714D01*
X71699523Y-80510952D01*
X71651904Y-80558571D01*
X71556666Y-80606190D01*
X71175714Y-80606190D01*
X72699523Y-81082380D02*
X72128095Y-81082380D01*
X72413809Y-81082380D02*
X72413809Y-80082380D01*
X72318571Y-80225238D01*
X72223333Y-80320476D01*
X72128095Y-80368095D01*
X73175714Y-81082380D02*
X73366190Y-81082380D01*
X73461428Y-81034761D01*
X73509047Y-80987142D01*
X73604285Y-80844285D01*
X73651904Y-80653809D01*
X73651904Y-80272857D01*
X73604285Y-80177619D01*
X73556666Y-80130000D01*
X73461428Y-80082380D01*
X73270952Y-80082380D01*
X73175714Y-80130000D01*
X73128095Y-80177619D01*
X73080476Y-80272857D01*
X73080476Y-80510952D01*
X73128095Y-80606190D01*
X73175714Y-80653809D01*
X73270952Y-80701428D01*
X73461428Y-80701428D01*
X73556666Y-80653809D01*
X73604285Y-80606190D01*
X73651904Y-80510952D01*
%TO.C,R47*%
X98231742Y-128102380D02*
X97898409Y-127626190D01*
X97660314Y-128102380D02*
X97660314Y-127102380D01*
X98041266Y-127102380D01*
X98136504Y-127150000D01*
X98184123Y-127197619D01*
X98231742Y-127292857D01*
X98231742Y-127435714D01*
X98184123Y-127530952D01*
X98136504Y-127578571D01*
X98041266Y-127626190D01*
X97660314Y-127626190D01*
X99088885Y-127435714D02*
X99088885Y-128102380D01*
X98850790Y-127054761D02*
X98612695Y-127769047D01*
X99231742Y-127769047D01*
X99517457Y-127102380D02*
X100184123Y-127102380D01*
X99755552Y-128102380D01*
%TO.C,J7*%
X55422380Y-60988533D02*
X56136666Y-60988533D01*
X56279523Y-61036152D01*
X56374761Y-61131390D01*
X56422380Y-61274247D01*
X56422380Y-61369485D01*
X55422380Y-60607580D02*
X55422380Y-59940914D01*
X56422380Y-60369485D01*
%TO.C,R51*%
X98231742Y-148422380D02*
X97898409Y-147946190D01*
X97660314Y-148422380D02*
X97660314Y-147422380D01*
X98041266Y-147422380D01*
X98136504Y-147470000D01*
X98184123Y-147517619D01*
X98231742Y-147612857D01*
X98231742Y-147755714D01*
X98184123Y-147850952D01*
X98136504Y-147898571D01*
X98041266Y-147946190D01*
X97660314Y-147946190D01*
X99136504Y-147422380D02*
X98660314Y-147422380D01*
X98612695Y-147898571D01*
X98660314Y-147850952D01*
X98755552Y-147803333D01*
X98993647Y-147803333D01*
X99088885Y-147850952D01*
X99136504Y-147898571D01*
X99184123Y-147993809D01*
X99184123Y-148231904D01*
X99136504Y-148327142D01*
X99088885Y-148374761D01*
X98993647Y-148422380D01*
X98755552Y-148422380D01*
X98660314Y-148374761D01*
X98612695Y-148327142D01*
X100136504Y-148422380D02*
X99565076Y-148422380D01*
X99850790Y-148422380D02*
X99850790Y-147422380D01*
X99755552Y-147565238D01*
X99660314Y-147660476D01*
X99565076Y-147708095D01*
%TO.C,R16*%
X71747142Y-103942380D02*
X71413809Y-103466190D01*
X71175714Y-103942380D02*
X71175714Y-102942380D01*
X71556666Y-102942380D01*
X71651904Y-102990000D01*
X71699523Y-103037619D01*
X71747142Y-103132857D01*
X71747142Y-103275714D01*
X71699523Y-103370952D01*
X71651904Y-103418571D01*
X71556666Y-103466190D01*
X71175714Y-103466190D01*
X72699523Y-103942380D02*
X72128095Y-103942380D01*
X72413809Y-103942380D02*
X72413809Y-102942380D01*
X72318571Y-103085238D01*
X72223333Y-103180476D01*
X72128095Y-103228095D01*
X73556666Y-102942380D02*
X73366190Y-102942380D01*
X73270952Y-102990000D01*
X73223333Y-103037619D01*
X73128095Y-103180476D01*
X73080476Y-103370952D01*
X73080476Y-103751904D01*
X73128095Y-103847142D01*
X73175714Y-103894761D01*
X73270952Y-103942380D01*
X73461428Y-103942380D01*
X73556666Y-103894761D01*
X73604285Y-103847142D01*
X73651904Y-103751904D01*
X73651904Y-103513809D01*
X73604285Y-103418571D01*
X73556666Y-103370952D01*
X73461428Y-103323333D01*
X73270952Y-103323333D01*
X73175714Y-103370952D01*
X73128095Y-103418571D01*
X73080476Y-103513809D01*
%TO.C,R25*%
X71747142Y-62032380D02*
X71413809Y-61556190D01*
X71175714Y-62032380D02*
X71175714Y-61032380D01*
X71556666Y-61032380D01*
X71651904Y-61080000D01*
X71699523Y-61127619D01*
X71747142Y-61222857D01*
X71747142Y-61365714D01*
X71699523Y-61460952D01*
X71651904Y-61508571D01*
X71556666Y-61556190D01*
X71175714Y-61556190D01*
X72128095Y-61127619D02*
X72175714Y-61080000D01*
X72270952Y-61032380D01*
X72509047Y-61032380D01*
X72604285Y-61080000D01*
X72651904Y-61127619D01*
X72699523Y-61222857D01*
X72699523Y-61318095D01*
X72651904Y-61460952D01*
X72080476Y-62032380D01*
X72699523Y-62032380D01*
X73604285Y-61032380D02*
X73128095Y-61032380D01*
X73080476Y-61508571D01*
X73128095Y-61460952D01*
X73223333Y-61413333D01*
X73461428Y-61413333D01*
X73556666Y-61460952D01*
X73604285Y-61508571D01*
X73651904Y-61603809D01*
X73651904Y-61841904D01*
X73604285Y-61937142D01*
X73556666Y-61984761D01*
X73461428Y-62032380D01*
X73223333Y-62032380D01*
X73128095Y-61984761D01*
X73080476Y-61937142D01*
%TO.C,U4*%
X80262595Y-48981302D02*
X80262595Y-49792420D01*
X80310307Y-49887846D01*
X80358020Y-49935558D01*
X80453446Y-49983271D01*
X80644297Y-49983271D01*
X80739723Y-49935558D01*
X80787435Y-49887846D01*
X80835148Y-49792420D01*
X80835148Y-48981302D01*
X81741692Y-49315292D02*
X81741692Y-49983271D01*
X81503128Y-48933589D02*
X81264564Y-49649282D01*
X81884830Y-49649282D01*
%TO.C,R21*%
X71747142Y-86162380D02*
X71413809Y-85686190D01*
X71175714Y-86162380D02*
X71175714Y-85162380D01*
X71556666Y-85162380D01*
X71651904Y-85210000D01*
X71699523Y-85257619D01*
X71747142Y-85352857D01*
X71747142Y-85495714D01*
X71699523Y-85590952D01*
X71651904Y-85638571D01*
X71556666Y-85686190D01*
X71175714Y-85686190D01*
X72128095Y-85257619D02*
X72175714Y-85210000D01*
X72270952Y-85162380D01*
X72509047Y-85162380D01*
X72604285Y-85210000D01*
X72651904Y-85257619D01*
X72699523Y-85352857D01*
X72699523Y-85448095D01*
X72651904Y-85590952D01*
X72080476Y-86162380D01*
X72699523Y-86162380D01*
X73651904Y-86162380D02*
X73080476Y-86162380D01*
X73366190Y-86162380D02*
X73366190Y-85162380D01*
X73270952Y-85305238D01*
X73175714Y-85400476D01*
X73080476Y-85448095D01*
%TO.C,Q1*%
X88479761Y-110212619D02*
X88384523Y-110165000D01*
X88289285Y-110069761D01*
X88146428Y-109926904D01*
X88051190Y-109879285D01*
X87955952Y-109879285D01*
X88003571Y-110117380D02*
X87908333Y-110069761D01*
X87813095Y-109974523D01*
X87765476Y-109784047D01*
X87765476Y-109450714D01*
X87813095Y-109260238D01*
X87908333Y-109165000D01*
X88003571Y-109117380D01*
X88194047Y-109117380D01*
X88289285Y-109165000D01*
X88384523Y-109260238D01*
X88432142Y-109450714D01*
X88432142Y-109784047D01*
X88384523Y-109974523D01*
X88289285Y-110069761D01*
X88194047Y-110117380D01*
X88003571Y-110117380D01*
X89384523Y-110117380D02*
X88813095Y-110117380D01*
X89098809Y-110117380D02*
X89098809Y-109117380D01*
X89003571Y-109260238D01*
X88908333Y-109355476D01*
X88813095Y-109403095D01*
%TO.C,R10*%
X71747142Y-119182380D02*
X71413809Y-118706190D01*
X71175714Y-119182380D02*
X71175714Y-118182380D01*
X71556666Y-118182380D01*
X71651904Y-118230000D01*
X71699523Y-118277619D01*
X71747142Y-118372857D01*
X71747142Y-118515714D01*
X71699523Y-118610952D01*
X71651904Y-118658571D01*
X71556666Y-118706190D01*
X71175714Y-118706190D01*
X72699523Y-119182380D02*
X72128095Y-119182380D01*
X72413809Y-119182380D02*
X72413809Y-118182380D01*
X72318571Y-118325238D01*
X72223333Y-118420476D01*
X72128095Y-118468095D01*
X73318571Y-118182380D02*
X73413809Y-118182380D01*
X73509047Y-118230000D01*
X73556666Y-118277619D01*
X73604285Y-118372857D01*
X73651904Y-118563333D01*
X73651904Y-118801428D01*
X73604285Y-118991904D01*
X73556666Y-119087142D01*
X73509047Y-119134761D01*
X73413809Y-119182380D01*
X73318571Y-119182380D01*
X73223333Y-119134761D01*
X73175714Y-119087142D01*
X73128095Y-118991904D01*
X73080476Y-118801428D01*
X73080476Y-118563333D01*
X73128095Y-118372857D01*
X73175714Y-118277619D01*
X73223333Y-118230000D01*
X73318571Y-118182380D01*
%TO.C,R29*%
X71747142Y-41712380D02*
X71413809Y-41236190D01*
X71175714Y-41712380D02*
X71175714Y-40712380D01*
X71556666Y-40712380D01*
X71651904Y-40760000D01*
X71699523Y-40807619D01*
X71747142Y-40902857D01*
X71747142Y-41045714D01*
X71699523Y-41140952D01*
X71651904Y-41188571D01*
X71556666Y-41236190D01*
X71175714Y-41236190D01*
X72128095Y-40807619D02*
X72175714Y-40760000D01*
X72270952Y-40712380D01*
X72509047Y-40712380D01*
X72604285Y-40760000D01*
X72651904Y-40807619D01*
X72699523Y-40902857D01*
X72699523Y-40998095D01*
X72651904Y-41140952D01*
X72080476Y-41712380D01*
X72699523Y-41712380D01*
X73175714Y-41712380D02*
X73366190Y-41712380D01*
X73461428Y-41664761D01*
X73509047Y-41617142D01*
X73604285Y-41474285D01*
X73651904Y-41283809D01*
X73651904Y-40902857D01*
X73604285Y-40807619D01*
X73556666Y-40760000D01*
X73461428Y-40712380D01*
X73270952Y-40712380D01*
X73175714Y-40760000D01*
X73128095Y-40807619D01*
X73080476Y-40902857D01*
X73080476Y-41140952D01*
X73128095Y-41236190D01*
X73175714Y-41283809D01*
X73270952Y-41331428D01*
X73461428Y-41331428D01*
X73556666Y-41283809D01*
X73604285Y-41236190D01*
X73651904Y-41140952D01*
%TO.C,R30*%
X98163142Y-45156380D02*
X97829809Y-44680190D01*
X97591714Y-45156380D02*
X97591714Y-44156380D01*
X97972666Y-44156380D01*
X98067904Y-44204000D01*
X98115523Y-44251619D01*
X98163142Y-44346857D01*
X98163142Y-44489714D01*
X98115523Y-44584952D01*
X98067904Y-44632571D01*
X97972666Y-44680190D01*
X97591714Y-44680190D01*
X98496476Y-44156380D02*
X99115523Y-44156380D01*
X98782190Y-44537333D01*
X98925047Y-44537333D01*
X99020285Y-44584952D01*
X99067904Y-44632571D01*
X99115523Y-44727809D01*
X99115523Y-44965904D01*
X99067904Y-45061142D01*
X99020285Y-45108761D01*
X98925047Y-45156380D01*
X98639333Y-45156380D01*
X98544095Y-45108761D01*
X98496476Y-45061142D01*
X99734571Y-44156380D02*
X99829809Y-44156380D01*
X99925047Y-44204000D01*
X99972666Y-44251619D01*
X100020285Y-44346857D01*
X100067904Y-44537333D01*
X100067904Y-44775428D01*
X100020285Y-44965904D01*
X99972666Y-45061142D01*
X99925047Y-45108761D01*
X99829809Y-45156380D01*
X99734571Y-45156380D01*
X99639333Y-45108761D01*
X99591714Y-45061142D01*
X99544095Y-44965904D01*
X99496476Y-44775428D01*
X99496476Y-44537333D01*
X99544095Y-44346857D01*
X99591714Y-44251619D01*
X99639333Y-44204000D01*
X99734571Y-44156380D01*
%TO.C,R20*%
X71747142Y-83622380D02*
X71413809Y-83146190D01*
X71175714Y-83622380D02*
X71175714Y-82622380D01*
X71556666Y-82622380D01*
X71651904Y-82670000D01*
X71699523Y-82717619D01*
X71747142Y-82812857D01*
X71747142Y-82955714D01*
X71699523Y-83050952D01*
X71651904Y-83098571D01*
X71556666Y-83146190D01*
X71175714Y-83146190D01*
X72128095Y-82717619D02*
X72175714Y-82670000D01*
X72270952Y-82622380D01*
X72509047Y-82622380D01*
X72604285Y-82670000D01*
X72651904Y-82717619D01*
X72699523Y-82812857D01*
X72699523Y-82908095D01*
X72651904Y-83050952D01*
X72080476Y-83622380D01*
X72699523Y-83622380D01*
X73318571Y-82622380D02*
X73413809Y-82622380D01*
X73509047Y-82670000D01*
X73556666Y-82717619D01*
X73604285Y-82812857D01*
X73651904Y-83003333D01*
X73651904Y-83241428D01*
X73604285Y-83431904D01*
X73556666Y-83527142D01*
X73509047Y-83574761D01*
X73413809Y-83622380D01*
X73318571Y-83622380D01*
X73223333Y-83574761D01*
X73175714Y-83527142D01*
X73128095Y-83431904D01*
X73080476Y-83241428D01*
X73080476Y-83003333D01*
X73128095Y-82812857D01*
X73175714Y-82717619D01*
X73223333Y-82670000D01*
X73318571Y-82622380D01*
%TO.C,R50*%
X98231742Y-150962380D02*
X97898409Y-150486190D01*
X97660314Y-150962380D02*
X97660314Y-149962380D01*
X98041266Y-149962380D01*
X98136504Y-150010000D01*
X98184123Y-150057619D01*
X98231742Y-150152857D01*
X98231742Y-150295714D01*
X98184123Y-150390952D01*
X98136504Y-150438571D01*
X98041266Y-150486190D01*
X97660314Y-150486190D01*
X99136504Y-149962380D02*
X98660314Y-149962380D01*
X98612695Y-150438571D01*
X98660314Y-150390952D01*
X98755552Y-150343333D01*
X98993647Y-150343333D01*
X99088885Y-150390952D01*
X99136504Y-150438571D01*
X99184123Y-150533809D01*
X99184123Y-150771904D01*
X99136504Y-150867142D01*
X99088885Y-150914761D01*
X98993647Y-150962380D01*
X98755552Y-150962380D01*
X98660314Y-150914761D01*
X98612695Y-150867142D01*
X99803171Y-149962380D02*
X99898409Y-149962380D01*
X99993647Y-150010000D01*
X100041266Y-150057619D01*
X100088885Y-150152857D01*
X100136504Y-150343333D01*
X100136504Y-150581428D01*
X100088885Y-150771904D01*
X100041266Y-150867142D01*
X99993647Y-150914761D01*
X99898409Y-150962380D01*
X99803171Y-150962380D01*
X99707933Y-150914761D01*
X99660314Y-150867142D01*
X99612695Y-150771904D01*
X99565076Y-150581428D01*
X99565076Y-150343333D01*
X99612695Y-150152857D01*
X99660314Y-150057619D01*
X99707933Y-150010000D01*
X99803171Y-149962380D01*
%TO.C,R49*%
X98231742Y-123022380D02*
X97898409Y-122546190D01*
X97660314Y-123022380D02*
X97660314Y-122022380D01*
X98041266Y-122022380D01*
X98136504Y-122070000D01*
X98184123Y-122117619D01*
X98231742Y-122212857D01*
X98231742Y-122355714D01*
X98184123Y-122450952D01*
X98136504Y-122498571D01*
X98041266Y-122546190D01*
X97660314Y-122546190D01*
X99088885Y-122355714D02*
X99088885Y-123022380D01*
X98850790Y-121974761D02*
X98612695Y-122689047D01*
X99231742Y-122689047D01*
X99660314Y-123022380D02*
X99850790Y-123022380D01*
X99946028Y-122974761D01*
X99993647Y-122927142D01*
X100088885Y-122784285D01*
X100136504Y-122593809D01*
X100136504Y-122212857D01*
X100088885Y-122117619D01*
X100041266Y-122070000D01*
X99946028Y-122022380D01*
X99755552Y-122022380D01*
X99660314Y-122070000D01*
X99612695Y-122117619D01*
X99565076Y-122212857D01*
X99565076Y-122450952D01*
X99612695Y-122546190D01*
X99660314Y-122593809D01*
X99755552Y-122641428D01*
X99946028Y-122641428D01*
X100041266Y-122593809D01*
X100088885Y-122546190D01*
X100136504Y-122450952D01*
%TO.C,R24*%
X71747142Y-59492380D02*
X71413809Y-59016190D01*
X71175714Y-59492380D02*
X71175714Y-58492380D01*
X71556666Y-58492380D01*
X71651904Y-58540000D01*
X71699523Y-58587619D01*
X71747142Y-58682857D01*
X71747142Y-58825714D01*
X71699523Y-58920952D01*
X71651904Y-58968571D01*
X71556666Y-59016190D01*
X71175714Y-59016190D01*
X72128095Y-58587619D02*
X72175714Y-58540000D01*
X72270952Y-58492380D01*
X72509047Y-58492380D01*
X72604285Y-58540000D01*
X72651904Y-58587619D01*
X72699523Y-58682857D01*
X72699523Y-58778095D01*
X72651904Y-58920952D01*
X72080476Y-59492380D01*
X72699523Y-59492380D01*
X73556666Y-58825714D02*
X73556666Y-59492380D01*
X73318571Y-58444761D02*
X73080476Y-59159047D01*
X73699523Y-59159047D01*
%TO.C,R28*%
X71747142Y-39172380D02*
X71413809Y-38696190D01*
X71175714Y-39172380D02*
X71175714Y-38172380D01*
X71556666Y-38172380D01*
X71651904Y-38220000D01*
X71699523Y-38267619D01*
X71747142Y-38362857D01*
X71747142Y-38505714D01*
X71699523Y-38600952D01*
X71651904Y-38648571D01*
X71556666Y-38696190D01*
X71175714Y-38696190D01*
X72128095Y-38267619D02*
X72175714Y-38220000D01*
X72270952Y-38172380D01*
X72509047Y-38172380D01*
X72604285Y-38220000D01*
X72651904Y-38267619D01*
X72699523Y-38362857D01*
X72699523Y-38458095D01*
X72651904Y-38600952D01*
X72080476Y-39172380D01*
X72699523Y-39172380D01*
X73270952Y-38600952D02*
X73175714Y-38553333D01*
X73128095Y-38505714D01*
X73080476Y-38410476D01*
X73080476Y-38362857D01*
X73128095Y-38267619D01*
X73175714Y-38220000D01*
X73270952Y-38172380D01*
X73461428Y-38172380D01*
X73556666Y-38220000D01*
X73604285Y-38267619D01*
X73651904Y-38362857D01*
X73651904Y-38410476D01*
X73604285Y-38505714D01*
X73556666Y-38553333D01*
X73461428Y-38600952D01*
X73270952Y-38600952D01*
X73175714Y-38648571D01*
X73128095Y-38696190D01*
X73080476Y-38791428D01*
X73080476Y-38981904D01*
X73128095Y-39077142D01*
X73175714Y-39124761D01*
X73270952Y-39172380D01*
X73461428Y-39172380D01*
X73556666Y-39124761D01*
X73604285Y-39077142D01*
X73651904Y-38981904D01*
X73651904Y-38791428D01*
X73604285Y-38696190D01*
X73556666Y-38648571D01*
X73461428Y-38600952D01*
%TO.C,U6*%
X89208675Y-92795062D02*
X89208675Y-93606180D01*
X89256387Y-93701606D01*
X89304100Y-93749318D01*
X89399526Y-93797031D01*
X89590377Y-93797031D01*
X89685803Y-93749318D01*
X89733515Y-93701606D01*
X89781228Y-93606180D01*
X89781228Y-92795062D01*
X90687772Y-92795062D02*
X90496920Y-92795062D01*
X90401495Y-92842775D01*
X90353782Y-92890488D01*
X90258356Y-93033626D01*
X90210644Y-93224477D01*
X90210644Y-93606180D01*
X90258356Y-93701606D01*
X90306069Y-93749318D01*
X90401495Y-93797031D01*
X90592346Y-93797031D01*
X90687772Y-93749318D01*
X90735484Y-93701606D01*
X90783197Y-93606180D01*
X90783197Y-93367616D01*
X90735484Y-93272190D01*
X90687772Y-93224477D01*
X90592346Y-93176765D01*
X90401495Y-93176765D01*
X90306069Y-93224477D01*
X90258356Y-93272190D01*
X90210644Y-93367616D01*
%TO.C,J9*%
X114576380Y-39703333D02*
X115290666Y-39703333D01*
X115433523Y-39750952D01*
X115528761Y-39846190D01*
X115576380Y-39989047D01*
X115576380Y-40084285D01*
X115576380Y-39179523D02*
X115576380Y-38989047D01*
X115528761Y-38893809D01*
X115481142Y-38846190D01*
X115338285Y-38750952D01*
X115147809Y-38703333D01*
X114766857Y-38703333D01*
X114671619Y-38750952D01*
X114624000Y-38798571D01*
X114576380Y-38893809D01*
X114576380Y-39084285D01*
X114624000Y-39179523D01*
X114671619Y-39227142D01*
X114766857Y-39274761D01*
X115004952Y-39274761D01*
X115100190Y-39227142D01*
X115147809Y-39179523D01*
X115195428Y-39084285D01*
X115195428Y-38893809D01*
X115147809Y-38798571D01*
X115100190Y-38750952D01*
X115004952Y-38703333D01*
%TO.C,J14*%
X114627380Y-148129523D02*
X115341666Y-148129523D01*
X115484523Y-148177142D01*
X115579761Y-148272380D01*
X115627380Y-148415238D01*
X115627380Y-148510476D01*
X115627380Y-147129523D02*
X115627380Y-147700952D01*
X115627380Y-147415238D02*
X114627380Y-147415238D01*
X114770238Y-147510476D01*
X114865476Y-147605714D01*
X114913095Y-147700952D01*
X114960714Y-146272380D02*
X115627380Y-146272380D01*
X114579761Y-146510476D02*
X115294047Y-146748571D01*
X115294047Y-146129523D01*
%TO.C,J11*%
X114576380Y-83359523D02*
X115290666Y-83359523D01*
X115433523Y-83407142D01*
X115528761Y-83502380D01*
X115576380Y-83645238D01*
X115576380Y-83740476D01*
X115576380Y-82359523D02*
X115576380Y-82930952D01*
X115576380Y-82645238D02*
X114576380Y-82645238D01*
X114719238Y-82740476D01*
X114814476Y-82835714D01*
X114862095Y-82930952D01*
X115576380Y-81407142D02*
X115576380Y-81978571D01*
X115576380Y-81692857D02*
X114576380Y-81692857D01*
X114719238Y-81788095D01*
X114814476Y-81883333D01*
X114862095Y-81978571D01*
%TO.C,J1*%
X86026666Y-21437380D02*
X86026666Y-22151666D01*
X85979047Y-22294523D01*
X85883809Y-22389761D01*
X85740952Y-22437380D01*
X85645714Y-22437380D01*
X87026666Y-22437380D02*
X86455238Y-22437380D01*
X86740952Y-22437380D02*
X86740952Y-21437380D01*
X86645714Y-21580238D01*
X86550476Y-21675476D01*
X86455238Y-21723095D01*
%TO.C,R45*%
X98137742Y-103322380D02*
X97804409Y-102846190D01*
X97566314Y-103322380D02*
X97566314Y-102322380D01*
X97947266Y-102322380D01*
X98042504Y-102370000D01*
X98090123Y-102417619D01*
X98137742Y-102512857D01*
X98137742Y-102655714D01*
X98090123Y-102750952D01*
X98042504Y-102798571D01*
X97947266Y-102846190D01*
X97566314Y-102846190D01*
X98994885Y-102655714D02*
X98994885Y-103322380D01*
X98756790Y-102274761D02*
X98518695Y-102989047D01*
X99137742Y-102989047D01*
X99994885Y-102322380D02*
X99518695Y-102322380D01*
X99471076Y-102798571D01*
X99518695Y-102750952D01*
X99613933Y-102703333D01*
X99852028Y-102703333D01*
X99947266Y-102750952D01*
X99994885Y-102798571D01*
X100042504Y-102893809D01*
X100042504Y-103131904D01*
X99994885Y-103227142D01*
X99947266Y-103274761D01*
X99852028Y-103322380D01*
X99613933Y-103322380D01*
X99518695Y-103274761D01*
X99471076Y-103227142D01*
%TO.C,J12*%
X114576380Y-104949523D02*
X115290666Y-104949523D01*
X115433523Y-104997142D01*
X115528761Y-105092380D01*
X115576380Y-105235238D01*
X115576380Y-105330476D01*
X115576380Y-103949523D02*
X115576380Y-104520952D01*
X115576380Y-104235238D02*
X114576380Y-104235238D01*
X114719238Y-104330476D01*
X114814476Y-104425714D01*
X114862095Y-104520952D01*
X114671619Y-103568571D02*
X114624000Y-103520952D01*
X114576380Y-103425714D01*
X114576380Y-103187619D01*
X114624000Y-103092380D01*
X114671619Y-103044761D01*
X114766857Y-102997142D01*
X114862095Y-102997142D01*
X115004952Y-103044761D01*
X115576380Y-103616190D01*
X115576380Y-102997142D01*
%TO.C,R31*%
X98417142Y-43012380D02*
X98083809Y-42536190D01*
X97845714Y-43012380D02*
X97845714Y-42012380D01*
X98226666Y-42012380D01*
X98321904Y-42060000D01*
X98369523Y-42107619D01*
X98417142Y-42202857D01*
X98417142Y-42345714D01*
X98369523Y-42440952D01*
X98321904Y-42488571D01*
X98226666Y-42536190D01*
X97845714Y-42536190D01*
X98750476Y-42012380D02*
X99369523Y-42012380D01*
X99036190Y-42393333D01*
X99179047Y-42393333D01*
X99274285Y-42440952D01*
X99321904Y-42488571D01*
X99369523Y-42583809D01*
X99369523Y-42821904D01*
X99321904Y-42917142D01*
X99274285Y-42964761D01*
X99179047Y-43012380D01*
X98893333Y-43012380D01*
X98798095Y-42964761D01*
X98750476Y-42917142D01*
X100321904Y-43012380D02*
X99750476Y-43012380D01*
X100036190Y-43012380D02*
X100036190Y-42012380D01*
X99940952Y-42155238D01*
X99845714Y-42250476D01*
X99750476Y-42298095D01*
%TO.C,Q2*%
X81875761Y-110212619D02*
X81780523Y-110165000D01*
X81685285Y-110069761D01*
X81542428Y-109926904D01*
X81447190Y-109879285D01*
X81351952Y-109879285D01*
X81399571Y-110117380D02*
X81304333Y-110069761D01*
X81209095Y-109974523D01*
X81161476Y-109784047D01*
X81161476Y-109450714D01*
X81209095Y-109260238D01*
X81304333Y-109165000D01*
X81399571Y-109117380D01*
X81590047Y-109117380D01*
X81685285Y-109165000D01*
X81780523Y-109260238D01*
X81828142Y-109450714D01*
X81828142Y-109784047D01*
X81780523Y-109974523D01*
X81685285Y-110069761D01*
X81590047Y-110117380D01*
X81399571Y-110117380D01*
X82209095Y-109212619D02*
X82256714Y-109165000D01*
X82351952Y-109117380D01*
X82590047Y-109117380D01*
X82685285Y-109165000D01*
X82732904Y-109212619D01*
X82780523Y-109307857D01*
X82780523Y-109403095D01*
X82732904Y-109545952D01*
X82161476Y-110117380D01*
X82780523Y-110117380D01*
%TO.C,R42*%
X98231742Y-110688380D02*
X97898409Y-110212190D01*
X97660314Y-110688380D02*
X97660314Y-109688380D01*
X98041266Y-109688380D01*
X98136504Y-109736000D01*
X98184123Y-109783619D01*
X98231742Y-109878857D01*
X98231742Y-110021714D01*
X98184123Y-110116952D01*
X98136504Y-110164571D01*
X98041266Y-110212190D01*
X97660314Y-110212190D01*
X99088885Y-110021714D02*
X99088885Y-110688380D01*
X98850790Y-109640761D02*
X98612695Y-110355047D01*
X99231742Y-110355047D01*
X99565076Y-109783619D02*
X99612695Y-109736000D01*
X99707933Y-109688380D01*
X99946028Y-109688380D01*
X100041266Y-109736000D01*
X100088885Y-109783619D01*
X100136504Y-109878857D01*
X100136504Y-109974095D01*
X100088885Y-110116952D01*
X99517457Y-110688380D01*
X100136504Y-110688380D01*
%TO.C,R26*%
X71747142Y-34092380D02*
X71413809Y-33616190D01*
X71175714Y-34092380D02*
X71175714Y-33092380D01*
X71556666Y-33092380D01*
X71651904Y-33140000D01*
X71699523Y-33187619D01*
X71747142Y-33282857D01*
X71747142Y-33425714D01*
X71699523Y-33520952D01*
X71651904Y-33568571D01*
X71556666Y-33616190D01*
X71175714Y-33616190D01*
X72128095Y-33187619D02*
X72175714Y-33140000D01*
X72270952Y-33092380D01*
X72509047Y-33092380D01*
X72604285Y-33140000D01*
X72651904Y-33187619D01*
X72699523Y-33282857D01*
X72699523Y-33378095D01*
X72651904Y-33520952D01*
X72080476Y-34092380D01*
X72699523Y-34092380D01*
X73556666Y-33092380D02*
X73366190Y-33092380D01*
X73270952Y-33140000D01*
X73223333Y-33187619D01*
X73128095Y-33330476D01*
X73080476Y-33520952D01*
X73080476Y-33901904D01*
X73128095Y-33997142D01*
X73175714Y-34044761D01*
X73270952Y-34092380D01*
X73461428Y-34092380D01*
X73556666Y-34044761D01*
X73604285Y-33997142D01*
X73651904Y-33901904D01*
X73651904Y-33663809D01*
X73604285Y-33568571D01*
X73556666Y-33520952D01*
X73461428Y-33473333D01*
X73270952Y-33473333D01*
X73175714Y-33520952D01*
X73128095Y-33568571D01*
X73080476Y-33663809D01*
%TO.C,R44*%
X98137742Y-105242380D02*
X97804409Y-104766190D01*
X97566314Y-105242380D02*
X97566314Y-104242380D01*
X97947266Y-104242380D01*
X98042504Y-104290000D01*
X98090123Y-104337619D01*
X98137742Y-104432857D01*
X98137742Y-104575714D01*
X98090123Y-104670952D01*
X98042504Y-104718571D01*
X97947266Y-104766190D01*
X97566314Y-104766190D01*
X98994885Y-104575714D02*
X98994885Y-105242380D01*
X98756790Y-104194761D02*
X98518695Y-104909047D01*
X99137742Y-104909047D01*
X99947266Y-104575714D02*
X99947266Y-105242380D01*
X99709171Y-104194761D02*
X99471076Y-104909047D01*
X100090123Y-104909047D01*
%TO.C,J8*%
X55371380Y-39398533D02*
X56085666Y-39398533D01*
X56228523Y-39446152D01*
X56323761Y-39541390D01*
X56371380Y-39684247D01*
X56371380Y-39779485D01*
X55799952Y-38779485D02*
X55752333Y-38874723D01*
X55704714Y-38922342D01*
X55609476Y-38969961D01*
X55561857Y-38969961D01*
X55466619Y-38922342D01*
X55419000Y-38874723D01*
X55371380Y-38779485D01*
X55371380Y-38589009D01*
X55419000Y-38493771D01*
X55466619Y-38446152D01*
X55561857Y-38398533D01*
X55609476Y-38398533D01*
X55704714Y-38446152D01*
X55752333Y-38493771D01*
X55799952Y-38589009D01*
X55799952Y-38779485D01*
X55847571Y-38874723D01*
X55895190Y-38922342D01*
X55990428Y-38969961D01*
X56180904Y-38969961D01*
X56276142Y-38922342D01*
X56323761Y-38874723D01*
X56371380Y-38779485D01*
X56371380Y-38589009D01*
X56323761Y-38493771D01*
X56276142Y-38446152D01*
X56180904Y-38398533D01*
X55990428Y-38398533D01*
X55895190Y-38446152D01*
X55847571Y-38493771D01*
X55799952Y-38589009D01*
%TO.C,R4*%
X82352380Y-85256666D02*
X81876190Y-85590000D01*
X82352380Y-85828095D02*
X81352380Y-85828095D01*
X81352380Y-85447142D01*
X81400000Y-85351904D01*
X81447619Y-85304285D01*
X81542857Y-85256666D01*
X81685714Y-85256666D01*
X81780952Y-85304285D01*
X81828571Y-85351904D01*
X81876190Y-85447142D01*
X81876190Y-85828095D01*
X81685714Y-84399523D02*
X82352380Y-84399523D01*
X81304761Y-84637619D02*
X82019047Y-84875714D01*
X82019047Y-84256666D01*
%TO.C,R35*%
X98417142Y-63332380D02*
X98083809Y-62856190D01*
X97845714Y-63332380D02*
X97845714Y-62332380D01*
X98226666Y-62332380D01*
X98321904Y-62380000D01*
X98369523Y-62427619D01*
X98417142Y-62522857D01*
X98417142Y-62665714D01*
X98369523Y-62760952D01*
X98321904Y-62808571D01*
X98226666Y-62856190D01*
X97845714Y-62856190D01*
X98750476Y-62332380D02*
X99369523Y-62332380D01*
X99036190Y-62713333D01*
X99179047Y-62713333D01*
X99274285Y-62760952D01*
X99321904Y-62808571D01*
X99369523Y-62903809D01*
X99369523Y-63141904D01*
X99321904Y-63237142D01*
X99274285Y-63284761D01*
X99179047Y-63332380D01*
X98893333Y-63332380D01*
X98798095Y-63284761D01*
X98750476Y-63237142D01*
X100274285Y-62332380D02*
X99798095Y-62332380D01*
X99750476Y-62808571D01*
X99798095Y-62760952D01*
X99893333Y-62713333D01*
X100131428Y-62713333D01*
X100226666Y-62760952D01*
X100274285Y-62808571D01*
X100321904Y-62903809D01*
X100321904Y-63141904D01*
X100274285Y-63237142D01*
X100226666Y-63284761D01*
X100131428Y-63332380D01*
X99893333Y-63332380D01*
X99798095Y-63284761D01*
X99750476Y-63237142D01*
%TO.C,R43*%
X98231742Y-107782380D02*
X97898409Y-107306190D01*
X97660314Y-107782380D02*
X97660314Y-106782380D01*
X98041266Y-106782380D01*
X98136504Y-106830000D01*
X98184123Y-106877619D01*
X98231742Y-106972857D01*
X98231742Y-107115714D01*
X98184123Y-107210952D01*
X98136504Y-107258571D01*
X98041266Y-107306190D01*
X97660314Y-107306190D01*
X99088885Y-107115714D02*
X99088885Y-107782380D01*
X98850790Y-106734761D02*
X98612695Y-107449047D01*
X99231742Y-107449047D01*
X99517457Y-106782380D02*
X100136504Y-106782380D01*
X99803171Y-107163333D01*
X99946028Y-107163333D01*
X100041266Y-107210952D01*
X100088885Y-107258571D01*
X100136504Y-107353809D01*
X100136504Y-107591904D01*
X100088885Y-107687142D01*
X100041266Y-107734761D01*
X99946028Y-107782380D01*
X99660314Y-107782380D01*
X99565076Y-107734761D01*
X99517457Y-107687142D01*
%TO.C,R48*%
X98231742Y-125562380D02*
X97898409Y-125086190D01*
X97660314Y-125562380D02*
X97660314Y-124562380D01*
X98041266Y-124562380D01*
X98136504Y-124610000D01*
X98184123Y-124657619D01*
X98231742Y-124752857D01*
X98231742Y-124895714D01*
X98184123Y-124990952D01*
X98136504Y-125038571D01*
X98041266Y-125086190D01*
X97660314Y-125086190D01*
X99088885Y-124895714D02*
X99088885Y-125562380D01*
X98850790Y-124514761D02*
X98612695Y-125229047D01*
X99231742Y-125229047D01*
X99755552Y-124990952D02*
X99660314Y-124943333D01*
X99612695Y-124895714D01*
X99565076Y-124800476D01*
X99565076Y-124752857D01*
X99612695Y-124657619D01*
X99660314Y-124610000D01*
X99755552Y-124562380D01*
X99946028Y-124562380D01*
X100041266Y-124610000D01*
X100088885Y-124657619D01*
X100136504Y-124752857D01*
X100136504Y-124800476D01*
X100088885Y-124895714D01*
X100041266Y-124943333D01*
X99946028Y-124990952D01*
X99755552Y-124990952D01*
X99660314Y-125038571D01*
X99612695Y-125086190D01*
X99565076Y-125181428D01*
X99565076Y-125371904D01*
X99612695Y-125467142D01*
X99660314Y-125514761D01*
X99755552Y-125562380D01*
X99946028Y-125562380D01*
X100041266Y-125514761D01*
X100088885Y-125467142D01*
X100136504Y-125371904D01*
X100136504Y-125181428D01*
X100088885Y-125086190D01*
X100041266Y-125038571D01*
X99946028Y-124990952D01*
%TO.C,Q4*%
X81875761Y-69572619D02*
X81780523Y-69525000D01*
X81685285Y-69429761D01*
X81542428Y-69286904D01*
X81447190Y-69239285D01*
X81351952Y-69239285D01*
X81399571Y-69477380D02*
X81304333Y-69429761D01*
X81209095Y-69334523D01*
X81161476Y-69144047D01*
X81161476Y-68810714D01*
X81209095Y-68620238D01*
X81304333Y-68525000D01*
X81399571Y-68477380D01*
X81590047Y-68477380D01*
X81685285Y-68525000D01*
X81780523Y-68620238D01*
X81828142Y-68810714D01*
X81828142Y-69144047D01*
X81780523Y-69334523D01*
X81685285Y-69429761D01*
X81590047Y-69477380D01*
X81399571Y-69477380D01*
X82685285Y-68810714D02*
X82685285Y-69477380D01*
X82447190Y-68429761D02*
X82209095Y-69144047D01*
X82828142Y-69144047D01*
%TO.C,R40*%
X98231742Y-84922380D02*
X97898409Y-84446190D01*
X97660314Y-84922380D02*
X97660314Y-83922380D01*
X98041266Y-83922380D01*
X98136504Y-83970000D01*
X98184123Y-84017619D01*
X98231742Y-84112857D01*
X98231742Y-84255714D01*
X98184123Y-84350952D01*
X98136504Y-84398571D01*
X98041266Y-84446190D01*
X97660314Y-84446190D01*
X99088885Y-84255714D02*
X99088885Y-84922380D01*
X98850790Y-83874761D02*
X98612695Y-84589047D01*
X99231742Y-84589047D01*
X99803171Y-83922380D02*
X99898409Y-83922380D01*
X99993647Y-83970000D01*
X100041266Y-84017619D01*
X100088885Y-84112857D01*
X100136504Y-84303333D01*
X100136504Y-84541428D01*
X100088885Y-84731904D01*
X100041266Y-84827142D01*
X99993647Y-84874761D01*
X99898409Y-84922380D01*
X99803171Y-84922380D01*
X99707933Y-84874761D01*
X99660314Y-84827142D01*
X99612695Y-84731904D01*
X99565076Y-84541428D01*
X99565076Y-84303333D01*
X99612695Y-84112857D01*
X99660314Y-84017619D01*
X99707933Y-83970000D01*
X99803171Y-83922380D01*
%TO.C,R9*%
X72223333Y-147122380D02*
X71890000Y-146646190D01*
X71651904Y-147122380D02*
X71651904Y-146122380D01*
X72032857Y-146122380D01*
X72128095Y-146170000D01*
X72175714Y-146217619D01*
X72223333Y-146312857D01*
X72223333Y-146455714D01*
X72175714Y-146550952D01*
X72128095Y-146598571D01*
X72032857Y-146646190D01*
X71651904Y-146646190D01*
X72699523Y-147122380D02*
X72890000Y-147122380D01*
X72985238Y-147074761D01*
X73032857Y-147027142D01*
X73128095Y-146884285D01*
X73175714Y-146693809D01*
X73175714Y-146312857D01*
X73128095Y-146217619D01*
X73080476Y-146170000D01*
X72985238Y-146122380D01*
X72794761Y-146122380D01*
X72699523Y-146170000D01*
X72651904Y-146217619D01*
X72604285Y-146312857D01*
X72604285Y-146550952D01*
X72651904Y-146646190D01*
X72699523Y-146693809D01*
X72794761Y-146741428D01*
X72985238Y-146741428D01*
X73080476Y-146693809D01*
X73128095Y-146646190D01*
X73175714Y-146550952D01*
%TO.C,R34*%
X98417142Y-65730380D02*
X98083809Y-65254190D01*
X97845714Y-65730380D02*
X97845714Y-64730380D01*
X98226666Y-64730380D01*
X98321904Y-64778000D01*
X98369523Y-64825619D01*
X98417142Y-64920857D01*
X98417142Y-65063714D01*
X98369523Y-65158952D01*
X98321904Y-65206571D01*
X98226666Y-65254190D01*
X97845714Y-65254190D01*
X98750476Y-64730380D02*
X99369523Y-64730380D01*
X99036190Y-65111333D01*
X99179047Y-65111333D01*
X99274285Y-65158952D01*
X99321904Y-65206571D01*
X99369523Y-65301809D01*
X99369523Y-65539904D01*
X99321904Y-65635142D01*
X99274285Y-65682761D01*
X99179047Y-65730380D01*
X98893333Y-65730380D01*
X98798095Y-65682761D01*
X98750476Y-65635142D01*
X100226666Y-65063714D02*
X100226666Y-65730380D01*
X99988571Y-64682761D02*
X99750476Y-65397047D01*
X100369523Y-65397047D01*
%TO.C,J13*%
X114627380Y-126539523D02*
X115341666Y-126539523D01*
X115484523Y-126587142D01*
X115579761Y-126682380D01*
X115627380Y-126825238D01*
X115627380Y-126920476D01*
X115627380Y-125539523D02*
X115627380Y-126110952D01*
X115627380Y-125825238D02*
X114627380Y-125825238D01*
X114770238Y-125920476D01*
X114865476Y-126015714D01*
X114913095Y-126110952D01*
X114627380Y-125206190D02*
X114627380Y-124587142D01*
X115008333Y-124920476D01*
X115008333Y-124777619D01*
X115055952Y-124682380D01*
X115103571Y-124634761D01*
X115198809Y-124587142D01*
X115436904Y-124587142D01*
X115532142Y-124634761D01*
X115579761Y-124682380D01*
X115627380Y-124777619D01*
X115627380Y-125063333D01*
X115579761Y-125158571D01*
X115532142Y-125206190D01*
%TO.C,R3*%
X85400380Y-85256666D02*
X84924190Y-85590000D01*
X85400380Y-85828095D02*
X84400380Y-85828095D01*
X84400380Y-85447142D01*
X84448000Y-85351904D01*
X84495619Y-85304285D01*
X84590857Y-85256666D01*
X84733714Y-85256666D01*
X84828952Y-85304285D01*
X84876571Y-85351904D01*
X84924190Y-85447142D01*
X84924190Y-85828095D01*
X84400380Y-84923333D02*
X84400380Y-84304285D01*
X84781333Y-84637619D01*
X84781333Y-84494761D01*
X84828952Y-84399523D01*
X84876571Y-84351904D01*
X84971809Y-84304285D01*
X85209904Y-84304285D01*
X85305142Y-84351904D01*
X85352761Y-84399523D01*
X85400380Y-84494761D01*
X85400380Y-84780476D01*
X85352761Y-84875714D01*
X85305142Y-84923333D01*
%TO.C,R7*%
X72223333Y-142042380D02*
X71890000Y-141566190D01*
X71651904Y-142042380D02*
X71651904Y-141042380D01*
X72032857Y-141042380D01*
X72128095Y-141090000D01*
X72175714Y-141137619D01*
X72223333Y-141232857D01*
X72223333Y-141375714D01*
X72175714Y-141470952D01*
X72128095Y-141518571D01*
X72032857Y-141566190D01*
X71651904Y-141566190D01*
X72556666Y-141042380D02*
X73223333Y-141042380D01*
X72794761Y-142042380D01*
%TO.C,R12*%
X71747142Y-124262380D02*
X71413809Y-123786190D01*
X71175714Y-124262380D02*
X71175714Y-123262380D01*
X71556666Y-123262380D01*
X71651904Y-123310000D01*
X71699523Y-123357619D01*
X71747142Y-123452857D01*
X71747142Y-123595714D01*
X71699523Y-123690952D01*
X71651904Y-123738571D01*
X71556666Y-123786190D01*
X71175714Y-123786190D01*
X72699523Y-124262380D02*
X72128095Y-124262380D01*
X72413809Y-124262380D02*
X72413809Y-123262380D01*
X72318571Y-123405238D01*
X72223333Y-123500476D01*
X72128095Y-123548095D01*
X73080476Y-123357619D02*
X73128095Y-123310000D01*
X73223333Y-123262380D01*
X73461428Y-123262380D01*
X73556666Y-123310000D01*
X73604285Y-123357619D01*
X73651904Y-123452857D01*
X73651904Y-123548095D01*
X73604285Y-123690952D01*
X73032857Y-124262380D01*
X73651904Y-124262380D01*
%TO.C,R2*%
X83114380Y-125896666D02*
X82638190Y-126230000D01*
X83114380Y-126468095D02*
X82114380Y-126468095D01*
X82114380Y-126087142D01*
X82162000Y-125991904D01*
X82209619Y-125944285D01*
X82304857Y-125896666D01*
X82447714Y-125896666D01*
X82542952Y-125944285D01*
X82590571Y-125991904D01*
X82638190Y-126087142D01*
X82638190Y-126468095D01*
X82209619Y-125515714D02*
X82162000Y-125468095D01*
X82114380Y-125372857D01*
X82114380Y-125134761D01*
X82162000Y-125039523D01*
X82209619Y-124991904D01*
X82304857Y-124944285D01*
X82400095Y-124944285D01*
X82542952Y-124991904D01*
X83114380Y-125563333D01*
X83114380Y-124944285D01*
%TO.C,U1*%
X85685542Y-137054884D02*
X86496660Y-137054884D01*
X86592086Y-137007172D01*
X86639798Y-136959459D01*
X86687511Y-136864033D01*
X86687511Y-136673182D01*
X86639798Y-136577756D01*
X86592086Y-136530044D01*
X86496660Y-136482331D01*
X85685542Y-136482331D01*
X86687511Y-135480362D02*
X86687511Y-136052915D01*
X86687511Y-135766639D02*
X85685542Y-135766639D01*
X85828681Y-135862064D01*
X85924106Y-135957490D01*
X85971819Y-136052915D01*
%TO.C,R36*%
X98417142Y-60792380D02*
X98083809Y-60316190D01*
X97845714Y-60792380D02*
X97845714Y-59792380D01*
X98226666Y-59792380D01*
X98321904Y-59840000D01*
X98369523Y-59887619D01*
X98417142Y-59982857D01*
X98417142Y-60125714D01*
X98369523Y-60220952D01*
X98321904Y-60268571D01*
X98226666Y-60316190D01*
X97845714Y-60316190D01*
X98750476Y-59792380D02*
X99369523Y-59792380D01*
X99036190Y-60173333D01*
X99179047Y-60173333D01*
X99274285Y-60220952D01*
X99321904Y-60268571D01*
X99369523Y-60363809D01*
X99369523Y-60601904D01*
X99321904Y-60697142D01*
X99274285Y-60744761D01*
X99179047Y-60792380D01*
X98893333Y-60792380D01*
X98798095Y-60744761D01*
X98750476Y-60697142D01*
X100226666Y-59792380D02*
X100036190Y-59792380D01*
X99940952Y-59840000D01*
X99893333Y-59887619D01*
X99798095Y-60030476D01*
X99750476Y-60220952D01*
X99750476Y-60601904D01*
X99798095Y-60697142D01*
X99845714Y-60744761D01*
X99940952Y-60792380D01*
X100131428Y-60792380D01*
X100226666Y-60744761D01*
X100274285Y-60697142D01*
X100321904Y-60601904D01*
X100321904Y-60363809D01*
X100274285Y-60268571D01*
X100226666Y-60220952D01*
X100131428Y-60173333D01*
X99940952Y-60173333D01*
X99845714Y-60220952D01*
X99798095Y-60268571D01*
X99750476Y-60363809D01*
%TO.C,R11*%
X71747142Y-121722380D02*
X71413809Y-121246190D01*
X71175714Y-121722380D02*
X71175714Y-120722380D01*
X71556666Y-120722380D01*
X71651904Y-120770000D01*
X71699523Y-120817619D01*
X71747142Y-120912857D01*
X71747142Y-121055714D01*
X71699523Y-121150952D01*
X71651904Y-121198571D01*
X71556666Y-121246190D01*
X71175714Y-121246190D01*
X72699523Y-121722380D02*
X72128095Y-121722380D01*
X72413809Y-121722380D02*
X72413809Y-120722380D01*
X72318571Y-120865238D01*
X72223333Y-120960476D01*
X72128095Y-121008095D01*
X73651904Y-121722380D02*
X73080476Y-121722380D01*
X73366190Y-121722380D02*
X73366190Y-120722380D01*
X73270952Y-120865238D01*
X73175714Y-120960476D01*
X73080476Y-121008095D01*
%TO.C,R38*%
X98417142Y-89860380D02*
X98083809Y-89384190D01*
X97845714Y-89860380D02*
X97845714Y-88860380D01*
X98226666Y-88860380D01*
X98321904Y-88908000D01*
X98369523Y-88955619D01*
X98417142Y-89050857D01*
X98417142Y-89193714D01*
X98369523Y-89288952D01*
X98321904Y-89336571D01*
X98226666Y-89384190D01*
X97845714Y-89384190D01*
X98750476Y-88860380D02*
X99369523Y-88860380D01*
X99036190Y-89241333D01*
X99179047Y-89241333D01*
X99274285Y-89288952D01*
X99321904Y-89336571D01*
X99369523Y-89431809D01*
X99369523Y-89669904D01*
X99321904Y-89765142D01*
X99274285Y-89812761D01*
X99179047Y-89860380D01*
X98893333Y-89860380D01*
X98798095Y-89812761D01*
X98750476Y-89765142D01*
X99940952Y-89288952D02*
X99845714Y-89241333D01*
X99798095Y-89193714D01*
X99750476Y-89098476D01*
X99750476Y-89050857D01*
X99798095Y-88955619D01*
X99845714Y-88908000D01*
X99940952Y-88860380D01*
X100131428Y-88860380D01*
X100226666Y-88908000D01*
X100274285Y-88955619D01*
X100321904Y-89050857D01*
X100321904Y-89098476D01*
X100274285Y-89193714D01*
X100226666Y-89241333D01*
X100131428Y-89288952D01*
X99940952Y-89288952D01*
X99845714Y-89336571D01*
X99798095Y-89384190D01*
X99750476Y-89479428D01*
X99750476Y-89669904D01*
X99798095Y-89765142D01*
X99845714Y-89812761D01*
X99940952Y-89860380D01*
X100131428Y-89860380D01*
X100226666Y-89812761D01*
X100274285Y-89765142D01*
X100321904Y-89669904D01*
X100321904Y-89479428D01*
X100274285Y-89384190D01*
X100226666Y-89336571D01*
X100131428Y-89288952D01*
%TO.C,R32*%
X98417142Y-40472380D02*
X98083809Y-39996190D01*
X97845714Y-40472380D02*
X97845714Y-39472380D01*
X98226666Y-39472380D01*
X98321904Y-39520000D01*
X98369523Y-39567619D01*
X98417142Y-39662857D01*
X98417142Y-39805714D01*
X98369523Y-39900952D01*
X98321904Y-39948571D01*
X98226666Y-39996190D01*
X97845714Y-39996190D01*
X98750476Y-39472380D02*
X99369523Y-39472380D01*
X99036190Y-39853333D01*
X99179047Y-39853333D01*
X99274285Y-39900952D01*
X99321904Y-39948571D01*
X99369523Y-40043809D01*
X99369523Y-40281904D01*
X99321904Y-40377142D01*
X99274285Y-40424761D01*
X99179047Y-40472380D01*
X98893333Y-40472380D01*
X98798095Y-40424761D01*
X98750476Y-40377142D01*
X99750476Y-39567619D02*
X99798095Y-39520000D01*
X99893333Y-39472380D01*
X100131428Y-39472380D01*
X100226666Y-39520000D01*
X100274285Y-39567619D01*
X100321904Y-39662857D01*
X100321904Y-39758095D01*
X100274285Y-39900952D01*
X99702857Y-40472380D01*
X100321904Y-40472380D01*
%TO.C,U5*%
X89394075Y-48345062D02*
X89394075Y-49156180D01*
X89441787Y-49251606D01*
X89489500Y-49299318D01*
X89584926Y-49347031D01*
X89775777Y-49347031D01*
X89871203Y-49299318D01*
X89918915Y-49251606D01*
X89966628Y-49156180D01*
X89966628Y-48345062D01*
X90920884Y-48345062D02*
X90443756Y-48345062D01*
X90396044Y-48822190D01*
X90443756Y-48774477D01*
X90539182Y-48726765D01*
X90777746Y-48726765D01*
X90873172Y-48774477D01*
X90920884Y-48822190D01*
X90968597Y-48917616D01*
X90968597Y-49156180D01*
X90920884Y-49251606D01*
X90873172Y-49299318D01*
X90777746Y-49347031D01*
X90539182Y-49347031D01*
X90443756Y-49299318D01*
X90396044Y-49251606D01*
%TO.C,R8*%
X72223333Y-144582380D02*
X71890000Y-144106190D01*
X71651904Y-144582380D02*
X71651904Y-143582380D01*
X72032857Y-143582380D01*
X72128095Y-143630000D01*
X72175714Y-143677619D01*
X72223333Y-143772857D01*
X72223333Y-143915714D01*
X72175714Y-144010952D01*
X72128095Y-144058571D01*
X72032857Y-144106190D01*
X71651904Y-144106190D01*
X72794761Y-144010952D02*
X72699523Y-143963333D01*
X72651904Y-143915714D01*
X72604285Y-143820476D01*
X72604285Y-143772857D01*
X72651904Y-143677619D01*
X72699523Y-143630000D01*
X72794761Y-143582380D01*
X72985238Y-143582380D01*
X73080476Y-143630000D01*
X73128095Y-143677619D01*
X73175714Y-143772857D01*
X73175714Y-143820476D01*
X73128095Y-143915714D01*
X73080476Y-143963333D01*
X72985238Y-144010952D01*
X72794761Y-144010952D01*
X72699523Y-144058571D01*
X72651904Y-144106190D01*
X72604285Y-144201428D01*
X72604285Y-144391904D01*
X72651904Y-144487142D01*
X72699523Y-144534761D01*
X72794761Y-144582380D01*
X72985238Y-144582380D01*
X73080476Y-144534761D01*
X73128095Y-144487142D01*
X73175714Y-144391904D01*
X73175714Y-144201428D01*
X73128095Y-144106190D01*
X73080476Y-144058571D01*
X72985238Y-144010952D01*
%TO.C,R17*%
X71747142Y-106482380D02*
X71413809Y-106006190D01*
X71175714Y-106482380D02*
X71175714Y-105482380D01*
X71556666Y-105482380D01*
X71651904Y-105530000D01*
X71699523Y-105577619D01*
X71747142Y-105672857D01*
X71747142Y-105815714D01*
X71699523Y-105910952D01*
X71651904Y-105958571D01*
X71556666Y-106006190D01*
X71175714Y-106006190D01*
X72699523Y-106482380D02*
X72128095Y-106482380D01*
X72413809Y-106482380D02*
X72413809Y-105482380D01*
X72318571Y-105625238D01*
X72223333Y-105720476D01*
X72128095Y-105768095D01*
X73032857Y-105482380D02*
X73699523Y-105482380D01*
X73270952Y-106482380D01*
%TO.C,R1*%
X86162380Y-125896666D02*
X85686190Y-126230000D01*
X86162380Y-126468095D02*
X85162380Y-126468095D01*
X85162380Y-126087142D01*
X85210000Y-125991904D01*
X85257619Y-125944285D01*
X85352857Y-125896666D01*
X85495714Y-125896666D01*
X85590952Y-125944285D01*
X85638571Y-125991904D01*
X85686190Y-126087142D01*
X85686190Y-126468095D01*
X86162380Y-124944285D02*
X86162380Y-125515714D01*
X86162380Y-125230000D02*
X85162380Y-125230000D01*
X85305238Y-125325238D01*
X85400476Y-125420476D01*
X85448095Y-125515714D01*
%TO.C,Q3*%
X88479761Y-69572619D02*
X88384523Y-69525000D01*
X88289285Y-69429761D01*
X88146428Y-69286904D01*
X88051190Y-69239285D01*
X87955952Y-69239285D01*
X88003571Y-69477380D02*
X87908333Y-69429761D01*
X87813095Y-69334523D01*
X87765476Y-69144047D01*
X87765476Y-68810714D01*
X87813095Y-68620238D01*
X87908333Y-68525000D01*
X88003571Y-68477380D01*
X88194047Y-68477380D01*
X88289285Y-68525000D01*
X88384523Y-68620238D01*
X88432142Y-68810714D01*
X88432142Y-69144047D01*
X88384523Y-69334523D01*
X88289285Y-69429761D01*
X88194047Y-69477380D01*
X88003571Y-69477380D01*
X88765476Y-68477380D02*
X89384523Y-68477380D01*
X89051190Y-68858333D01*
X89194047Y-68858333D01*
X89289285Y-68905952D01*
X89336904Y-68953571D01*
X89384523Y-69048809D01*
X89384523Y-69286904D01*
X89336904Y-69382142D01*
X89289285Y-69429761D01*
X89194047Y-69477380D01*
X88908333Y-69477380D01*
X88813095Y-69429761D01*
X88765476Y-69382142D01*
%TO.C,R37*%
X98444542Y-58252380D02*
X98111209Y-57776190D01*
X97873114Y-58252380D02*
X97873114Y-57252380D01*
X98254066Y-57252380D01*
X98349304Y-57300000D01*
X98396923Y-57347619D01*
X98444542Y-57442857D01*
X98444542Y-57585714D01*
X98396923Y-57680952D01*
X98349304Y-57728571D01*
X98254066Y-57776190D01*
X97873114Y-57776190D01*
X98777876Y-57252380D02*
X99396923Y-57252380D01*
X99063590Y-57633333D01*
X99206447Y-57633333D01*
X99301685Y-57680952D01*
X99349304Y-57728571D01*
X99396923Y-57823809D01*
X99396923Y-58061904D01*
X99349304Y-58157142D01*
X99301685Y-58204761D01*
X99206447Y-58252380D01*
X98920733Y-58252380D01*
X98825495Y-58204761D01*
X98777876Y-58157142D01*
X99730257Y-57252380D02*
X100396923Y-57252380D01*
X99968352Y-58252380D01*
%TO.C,R6*%
X72223333Y-139502380D02*
X71890000Y-139026190D01*
X71651904Y-139502380D02*
X71651904Y-138502380D01*
X72032857Y-138502380D01*
X72128095Y-138550000D01*
X72175714Y-138597619D01*
X72223333Y-138692857D01*
X72223333Y-138835714D01*
X72175714Y-138930952D01*
X72128095Y-138978571D01*
X72032857Y-139026190D01*
X71651904Y-139026190D01*
X73080476Y-138502380D02*
X72890000Y-138502380D01*
X72794761Y-138550000D01*
X72747142Y-138597619D01*
X72651904Y-138740476D01*
X72604285Y-138930952D01*
X72604285Y-139311904D01*
X72651904Y-139407142D01*
X72699523Y-139454761D01*
X72794761Y-139502380D01*
X72985238Y-139502380D01*
X73080476Y-139454761D01*
X73128095Y-139407142D01*
X73175714Y-139311904D01*
X73175714Y-139073809D01*
X73128095Y-138978571D01*
X73080476Y-138930952D01*
X72985238Y-138883333D01*
X72794761Y-138883333D01*
X72699523Y-138930952D01*
X72651904Y-138978571D01*
X72604285Y-139073809D01*
%TO.C,R46*%
X98231742Y-130642380D02*
X97898409Y-130166190D01*
X97660314Y-130642380D02*
X97660314Y-129642380D01*
X98041266Y-129642380D01*
X98136504Y-129690000D01*
X98184123Y-129737619D01*
X98231742Y-129832857D01*
X98231742Y-129975714D01*
X98184123Y-130070952D01*
X98136504Y-130118571D01*
X98041266Y-130166190D01*
X97660314Y-130166190D01*
X99088885Y-129975714D02*
X99088885Y-130642380D01*
X98850790Y-129594761D02*
X98612695Y-130309047D01*
X99231742Y-130309047D01*
X100041266Y-129642380D02*
X99850790Y-129642380D01*
X99755552Y-129690000D01*
X99707933Y-129737619D01*
X99612695Y-129880476D01*
X99565076Y-130070952D01*
X99565076Y-130451904D01*
X99612695Y-130547142D01*
X99660314Y-130594761D01*
X99755552Y-130642380D01*
X99946028Y-130642380D01*
X100041266Y-130594761D01*
X100088885Y-130547142D01*
X100136504Y-130451904D01*
X100136504Y-130213809D01*
X100088885Y-130118571D01*
X100041266Y-130070952D01*
X99946028Y-130023333D01*
X99755552Y-130023333D01*
X99660314Y-130070952D01*
X99612695Y-130118571D01*
X99565076Y-130213809D01*
%TO.C,J2*%
X84956666Y-160976380D02*
X84956666Y-161690666D01*
X84909047Y-161833523D01*
X84813809Y-161928761D01*
X84670952Y-161976380D01*
X84575714Y-161976380D01*
X85385238Y-161071619D02*
X85432857Y-161024000D01*
X85528095Y-160976380D01*
X85766190Y-160976380D01*
X85861428Y-161024000D01*
X85909047Y-161071619D01*
X85956666Y-161166857D01*
X85956666Y-161262095D01*
X85909047Y-161404952D01*
X85337619Y-161976380D01*
X85956666Y-161976380D01*
%TO.C,R52*%
X98231742Y-145882380D02*
X97898409Y-145406190D01*
X97660314Y-145882380D02*
X97660314Y-144882380D01*
X98041266Y-144882380D01*
X98136504Y-144930000D01*
X98184123Y-144977619D01*
X98231742Y-145072857D01*
X98231742Y-145215714D01*
X98184123Y-145310952D01*
X98136504Y-145358571D01*
X98041266Y-145406190D01*
X97660314Y-145406190D01*
X99136504Y-144882380D02*
X98660314Y-144882380D01*
X98612695Y-145358571D01*
X98660314Y-145310952D01*
X98755552Y-145263333D01*
X98993647Y-145263333D01*
X99088885Y-145310952D01*
X99136504Y-145358571D01*
X99184123Y-145453809D01*
X99184123Y-145691904D01*
X99136504Y-145787142D01*
X99088885Y-145834761D01*
X98993647Y-145882380D01*
X98755552Y-145882380D01*
X98660314Y-145834761D01*
X98612695Y-145787142D01*
X99565076Y-144977619D02*
X99612695Y-144930000D01*
X99707933Y-144882380D01*
X99946028Y-144882380D01*
X100041266Y-144930000D01*
X100088885Y-144977619D01*
X100136504Y-145072857D01*
X100136504Y-145168095D01*
X100088885Y-145310952D01*
X99517457Y-145882380D01*
X100136504Y-145882380D01*
%TO.C,R13*%
X71493142Y-126944380D02*
X71159809Y-126468190D01*
X70921714Y-126944380D02*
X70921714Y-125944380D01*
X71302666Y-125944380D01*
X71397904Y-125992000D01*
X71445523Y-126039619D01*
X71493142Y-126134857D01*
X71493142Y-126277714D01*
X71445523Y-126372952D01*
X71397904Y-126420571D01*
X71302666Y-126468190D01*
X70921714Y-126468190D01*
X72445523Y-126944380D02*
X71874095Y-126944380D01*
X72159809Y-126944380D02*
X72159809Y-125944380D01*
X72064571Y-126087238D01*
X71969333Y-126182476D01*
X71874095Y-126230095D01*
X72778857Y-125944380D02*
X73397904Y-125944380D01*
X73064571Y-126325333D01*
X73207428Y-126325333D01*
X73302666Y-126372952D01*
X73350285Y-126420571D01*
X73397904Y-126515809D01*
X73397904Y-126753904D01*
X73350285Y-126849142D01*
X73302666Y-126896761D01*
X73207428Y-126944380D01*
X72921714Y-126944380D01*
X72826476Y-126896761D01*
X72778857Y-126849142D01*
%TO.C,R15*%
X71747142Y-101402380D02*
X71413809Y-100926190D01*
X71175714Y-101402380D02*
X71175714Y-100402380D01*
X71556666Y-100402380D01*
X71651904Y-100450000D01*
X71699523Y-100497619D01*
X71747142Y-100592857D01*
X71747142Y-100735714D01*
X71699523Y-100830952D01*
X71651904Y-100878571D01*
X71556666Y-100926190D01*
X71175714Y-100926190D01*
X72699523Y-101402380D02*
X72128095Y-101402380D01*
X72413809Y-101402380D02*
X72413809Y-100402380D01*
X72318571Y-100545238D01*
X72223333Y-100640476D01*
X72128095Y-100688095D01*
X73604285Y-100402380D02*
X73128095Y-100402380D01*
X73080476Y-100878571D01*
X73128095Y-100830952D01*
X73223333Y-100783333D01*
X73461428Y-100783333D01*
X73556666Y-100830952D01*
X73604285Y-100878571D01*
X73651904Y-100973809D01*
X73651904Y-101211904D01*
X73604285Y-101307142D01*
X73556666Y-101354761D01*
X73461428Y-101402380D01*
X73223333Y-101402380D01*
X73128095Y-101354761D01*
X73080476Y-101307142D01*
%TO.C,R27*%
X71747142Y-36632380D02*
X71413809Y-36156190D01*
X71175714Y-36632380D02*
X71175714Y-35632380D01*
X71556666Y-35632380D01*
X71651904Y-35680000D01*
X71699523Y-35727619D01*
X71747142Y-35822857D01*
X71747142Y-35965714D01*
X71699523Y-36060952D01*
X71651904Y-36108571D01*
X71556666Y-36156190D01*
X71175714Y-36156190D01*
X72128095Y-35727619D02*
X72175714Y-35680000D01*
X72270952Y-35632380D01*
X72509047Y-35632380D01*
X72604285Y-35680000D01*
X72651904Y-35727619D01*
X72699523Y-35822857D01*
X72699523Y-35918095D01*
X72651904Y-36060952D01*
X72080476Y-36632380D01*
X72699523Y-36632380D01*
X73032857Y-35632380D02*
X73699523Y-35632380D01*
X73270952Y-36632380D01*
%TO.C,J10*%
X114576380Y-61769523D02*
X115290666Y-61769523D01*
X115433523Y-61817142D01*
X115528761Y-61912380D01*
X115576380Y-62055238D01*
X115576380Y-62150476D01*
X115576380Y-60769523D02*
X115576380Y-61340952D01*
X115576380Y-61055238D02*
X114576380Y-61055238D01*
X114719238Y-61150476D01*
X114814476Y-61245714D01*
X114862095Y-61340952D01*
X114576380Y-60150476D02*
X114576380Y-60055238D01*
X114624000Y-59960000D01*
X114671619Y-59912380D01*
X114766857Y-59864761D01*
X114957333Y-59817142D01*
X115195428Y-59817142D01*
X115385904Y-59864761D01*
X115481142Y-59912380D01*
X115528761Y-59960000D01*
X115576380Y-60055238D01*
X115576380Y-60150476D01*
X115528761Y-60245714D01*
X115481142Y-60293333D01*
X115385904Y-60340952D01*
X115195428Y-60388571D01*
X114957333Y-60388571D01*
X114766857Y-60340952D01*
X114671619Y-60293333D01*
X114624000Y-60245714D01*
X114576380Y-60150476D01*
%TO.C,R41*%
X98231742Y-82382380D02*
X97898409Y-81906190D01*
X97660314Y-82382380D02*
X97660314Y-81382380D01*
X98041266Y-81382380D01*
X98136504Y-81430000D01*
X98184123Y-81477619D01*
X98231742Y-81572857D01*
X98231742Y-81715714D01*
X98184123Y-81810952D01*
X98136504Y-81858571D01*
X98041266Y-81906190D01*
X97660314Y-81906190D01*
X99088885Y-81715714D02*
X99088885Y-82382380D01*
X98850790Y-81334761D02*
X98612695Y-82049047D01*
X99231742Y-82049047D01*
X100136504Y-82382380D02*
X99565076Y-82382380D01*
X99850790Y-82382380D02*
X99850790Y-81382380D01*
X99755552Y-81525238D01*
X99660314Y-81620476D01*
X99565076Y-81668095D01*
%TO.C,R18*%
X71747142Y-78542380D02*
X71413809Y-78066190D01*
X71175714Y-78542380D02*
X71175714Y-77542380D01*
X71556666Y-77542380D01*
X71651904Y-77590000D01*
X71699523Y-77637619D01*
X71747142Y-77732857D01*
X71747142Y-77875714D01*
X71699523Y-77970952D01*
X71651904Y-78018571D01*
X71556666Y-78066190D01*
X71175714Y-78066190D01*
X72699523Y-78542380D02*
X72128095Y-78542380D01*
X72413809Y-78542380D02*
X72413809Y-77542380D01*
X72318571Y-77685238D01*
X72223333Y-77780476D01*
X72128095Y-77828095D01*
X73270952Y-77970952D02*
X73175714Y-77923333D01*
X73128095Y-77875714D01*
X73080476Y-77780476D01*
X73080476Y-77732857D01*
X73128095Y-77637619D01*
X73175714Y-77590000D01*
X73270952Y-77542380D01*
X73461428Y-77542380D01*
X73556666Y-77590000D01*
X73604285Y-77637619D01*
X73651904Y-77732857D01*
X73651904Y-77780476D01*
X73604285Y-77875714D01*
X73556666Y-77923333D01*
X73461428Y-77970952D01*
X73270952Y-77970952D01*
X73175714Y-78018571D01*
X73128095Y-78066190D01*
X73080476Y-78161428D01*
X73080476Y-78351904D01*
X73128095Y-78447142D01*
X73175714Y-78494761D01*
X73270952Y-78542380D01*
X73461428Y-78542380D01*
X73556666Y-78494761D01*
X73604285Y-78447142D01*
X73651904Y-78351904D01*
X73651904Y-78161428D01*
X73604285Y-78066190D01*
X73556666Y-78018571D01*
X73461428Y-77970952D01*
%TO.C,U3*%
X80529115Y-94067542D02*
X80529115Y-94878660D01*
X80576827Y-94974086D01*
X80624540Y-95021798D01*
X80719966Y-95069511D01*
X80910817Y-95069511D01*
X81006243Y-95021798D01*
X81053955Y-94974086D01*
X81101668Y-94878660D01*
X81101668Y-94067542D01*
X81483371Y-94067542D02*
X82103637Y-94067542D01*
X81769648Y-94449245D01*
X81912786Y-94449245D01*
X82008212Y-94496957D01*
X82055924Y-94544670D01*
X82103637Y-94640096D01*
X82103637Y-94878660D01*
X82055924Y-94974086D01*
X82008212Y-95021798D01*
X81912786Y-95069511D01*
X81626509Y-95069511D01*
X81531084Y-95021798D01*
X81483371Y-94974086D01*
%TO.C,R33*%
X98417142Y-37932380D02*
X98083809Y-37456190D01*
X97845714Y-37932380D02*
X97845714Y-36932380D01*
X98226666Y-36932380D01*
X98321904Y-36980000D01*
X98369523Y-37027619D01*
X98417142Y-37122857D01*
X98417142Y-37265714D01*
X98369523Y-37360952D01*
X98321904Y-37408571D01*
X98226666Y-37456190D01*
X97845714Y-37456190D01*
X98750476Y-36932380D02*
X99369523Y-36932380D01*
X99036190Y-37313333D01*
X99179047Y-37313333D01*
X99274285Y-37360952D01*
X99321904Y-37408571D01*
X99369523Y-37503809D01*
X99369523Y-37741904D01*
X99321904Y-37837142D01*
X99274285Y-37884761D01*
X99179047Y-37932380D01*
X98893333Y-37932380D01*
X98798095Y-37884761D01*
X98750476Y-37837142D01*
X99702857Y-36932380D02*
X100321904Y-36932380D01*
X99988571Y-37313333D01*
X100131428Y-37313333D01*
X100226666Y-37360952D01*
X100274285Y-37408571D01*
X100321904Y-37503809D01*
X100321904Y-37741904D01*
X100274285Y-37837142D01*
X100226666Y-37884761D01*
X100131428Y-37932380D01*
X99845714Y-37932380D01*
X99750476Y-37884761D01*
X99702857Y-37837142D01*
%TO.C,J6*%
X55422380Y-82578533D02*
X56136666Y-82578533D01*
X56279523Y-82626152D01*
X56374761Y-82721390D01*
X56422380Y-82864247D01*
X56422380Y-82959485D01*
X55422380Y-81673771D02*
X55422380Y-81864247D01*
X55470000Y-81959485D01*
X55517619Y-82007104D01*
X55660476Y-82102342D01*
X55850952Y-82149961D01*
X56231904Y-82149961D01*
X56327142Y-82102342D01*
X56374761Y-82054723D01*
X56422380Y-81959485D01*
X56422380Y-81769009D01*
X56374761Y-81673771D01*
X56327142Y-81626152D01*
X56231904Y-81578533D01*
X55993809Y-81578533D01*
X55898571Y-81626152D01*
X55850952Y-81673771D01*
X55803333Y-81769009D01*
X55803333Y-81959485D01*
X55850952Y-82054723D01*
X55898571Y-82102342D01*
X55993809Y-82149961D01*
%TO.C,J5*%
X55422380Y-104168533D02*
X56136666Y-104168533D01*
X56279523Y-104216152D01*
X56374761Y-104311390D01*
X56422380Y-104454247D01*
X56422380Y-104549485D01*
X55422380Y-103216152D02*
X55422380Y-103692342D01*
X55898571Y-103739961D01*
X55850952Y-103692342D01*
X55803333Y-103597104D01*
X55803333Y-103359009D01*
X55850952Y-103263771D01*
X55898571Y-103216152D01*
X55993809Y-103168533D01*
X56231904Y-103168533D01*
X56327142Y-103216152D01*
X56374761Y-103263771D01*
X56422380Y-103359009D01*
X56422380Y-103597104D01*
X56374761Y-103692342D01*
X56327142Y-103739961D01*
%TO.C,R22*%
X71747142Y-54412380D02*
X71413809Y-53936190D01*
X71175714Y-54412380D02*
X71175714Y-53412380D01*
X71556666Y-53412380D01*
X71651904Y-53460000D01*
X71699523Y-53507619D01*
X71747142Y-53602857D01*
X71747142Y-53745714D01*
X71699523Y-53840952D01*
X71651904Y-53888571D01*
X71556666Y-53936190D01*
X71175714Y-53936190D01*
X72128095Y-53507619D02*
X72175714Y-53460000D01*
X72270952Y-53412380D01*
X72509047Y-53412380D01*
X72604285Y-53460000D01*
X72651904Y-53507619D01*
X72699523Y-53602857D01*
X72699523Y-53698095D01*
X72651904Y-53840952D01*
X72080476Y-54412380D01*
X72699523Y-54412380D01*
X73080476Y-53507619D02*
X73128095Y-53460000D01*
X73223333Y-53412380D01*
X73461428Y-53412380D01*
X73556666Y-53460000D01*
X73604285Y-53507619D01*
X73651904Y-53602857D01*
X73651904Y-53698095D01*
X73604285Y-53840952D01*
X73032857Y-54412380D01*
X73651904Y-54412380D01*
%TO.C,J3*%
X55422380Y-147348533D02*
X56136666Y-147348533D01*
X56279523Y-147396152D01*
X56374761Y-147491390D01*
X56422380Y-147634247D01*
X56422380Y-147729485D01*
X55422380Y-146967580D02*
X55422380Y-146348533D01*
X55803333Y-146681866D01*
X55803333Y-146539009D01*
X55850952Y-146443771D01*
X55898571Y-146396152D01*
X55993809Y-146348533D01*
X56231904Y-146348533D01*
X56327142Y-146396152D01*
X56374761Y-146443771D01*
X56422380Y-146539009D01*
X56422380Y-146824723D01*
X56374761Y-146919961D01*
X56327142Y-146967580D01*
D11*
%TO.C,R39*%
X100794600Y-84170000D02*
X96954600Y-84170000D01*
X100794600Y-86010000D02*
X96954600Y-86010000D01*
D12*
%TO.C,U7*%
X91254600Y-133985000D02*
X91254600Y-132664200D01*
X91254600Y-136575800D02*
X91254600Y-135255000D01*
X91254600Y-136575800D02*
X101414600Y-136575800D01*
D13*
X91254600Y-136220200D02*
X101414600Y-136220200D01*
D12*
X101414600Y-136575800D02*
X101414600Y-132664200D01*
X101414600Y-132664200D02*
X91254600Y-132664200D01*
X91254600Y-135255000D02*
G75*
G03*
X91254600Y-133985000I0J635000D01*
G01*
D11*
%TO.C,R23*%
X70470000Y-57500000D02*
X74310000Y-57500000D01*
X70470000Y-59340000D02*
X74310000Y-59340000D01*
D12*
%TO.C,U2*%
X69850000Y-136575800D02*
X80010000Y-136575800D01*
X80010000Y-132664200D02*
X69850000Y-132664200D01*
X69850000Y-132664200D02*
X69850000Y-136575800D01*
X80010000Y-135255000D02*
X80010000Y-136575800D01*
D13*
X80010000Y-133019800D02*
X69850000Y-133019800D01*
D12*
X80010000Y-132664200D02*
X80010000Y-133985000D01*
X80010000Y-133985000D02*
G75*
G03*
X80010000Y-135255000I0J-635000D01*
G01*
D11*
%TO.C,R53*%
X100794600Y-141890000D02*
X96954600Y-141890000D01*
X100794600Y-140050000D02*
X96954600Y-140050000D01*
%TO.C,J4*%
X61161000Y-116530200D02*
X61207000Y-116577200D01*
X64830000Y-135645200D02*
X64830000Y-115205200D01*
X61161000Y-126690200D02*
X61207000Y-126737200D01*
X63469000Y-123919200D02*
X63504000Y-123954200D01*
X56969000Y-115205200D02*
X66890000Y-115205200D01*
X59929000Y-135645200D02*
X59929000Y-115205200D01*
X63253000Y-129192200D02*
X63299000Y-129239200D01*
X63469000Y-118839200D02*
X63504000Y-118874200D01*
X66330000Y-135645200D02*
X66330000Y-115205200D01*
X63469000Y-128999200D02*
X63504000Y-129034200D01*
X56969000Y-135645200D02*
X66890000Y-135645200D01*
X56969000Y-135645200D02*
X56969000Y-115205200D01*
X66390000Y-135885200D02*
X67130000Y-135885200D01*
X60955000Y-116735200D02*
X60991000Y-116770200D01*
X63253000Y-119032200D02*
X63299000Y-119079200D01*
X60955000Y-121815200D02*
X60991000Y-121850200D01*
X63253000Y-124112200D02*
X63299000Y-124159200D01*
X67130000Y-135885200D02*
X67130000Y-135385200D01*
X66890000Y-135645200D02*
X66890000Y-115205200D01*
X60955000Y-126895200D02*
X60991000Y-126930200D01*
X61161000Y-121610200D02*
X61207000Y-121657200D01*
X62914000Y-131510199D02*
G75*
G03*
X61546958Y-131509773I-684000J-1535001D01*
G01*
X63765000Y-133729200D02*
G75*
G03*
X63910253Y-133016395I-1535001J683999D01*
G01*
X60695000Y-132361200D02*
G75*
G03*
X60694573Y-133728242I1534993J-684001D01*
G01*
X61546000Y-134580200D02*
G75*
G03*
X62913042Y-134580627I684001J1534993D01*
G01*
X63910000Y-133045200D02*
G75*
G03*
X63764756Y-132361882I-1680000J0D01*
G01*
X63910000Y-122885200D02*
G75*
G03*
X63910000Y-122885200I-1680000J0D01*
G01*
X63910000Y-117805200D02*
G75*
G03*
X63910000Y-117805200I-1680000J0D01*
G01*
X63910000Y-127965200D02*
G75*
G03*
X63910000Y-127965200I-1680000J0D01*
G01*
%TO.C,R14*%
X70470000Y-101250000D02*
X74310000Y-101250000D01*
X70470000Y-99410000D02*
X74310000Y-99410000D01*
%TO.C,R19*%
X70470000Y-81630000D02*
X74310000Y-81630000D01*
X70470000Y-83470000D02*
X74310000Y-83470000D01*
%TO.C,R47*%
X100794600Y-126650000D02*
X96954600Y-126650000D01*
X100794600Y-124810000D02*
X96954600Y-124810000D01*
%TO.C,J7*%
X66890000Y-70875200D02*
X66890000Y-50435200D01*
X63469000Y-54069200D02*
X63504000Y-54104200D01*
X63469000Y-59149200D02*
X63504000Y-59184200D01*
X60955000Y-51965200D02*
X60991000Y-52000200D01*
X66390000Y-71115200D02*
X67130000Y-71115200D01*
X61161000Y-56840200D02*
X61207000Y-56887200D01*
X59929000Y-70875200D02*
X59929000Y-50435200D01*
X56969000Y-70875200D02*
X56969000Y-50435200D01*
X61161000Y-51760200D02*
X61207000Y-51807200D01*
X61161000Y-61920200D02*
X61207000Y-61967200D01*
X56969000Y-50435200D02*
X66890000Y-50435200D01*
X63253000Y-64422200D02*
X63299000Y-64469200D01*
X63253000Y-54262200D02*
X63299000Y-54309200D01*
X63469000Y-64229200D02*
X63504000Y-64264200D01*
X64830000Y-70875200D02*
X64830000Y-50435200D01*
X60955000Y-57045200D02*
X60991000Y-57080200D01*
X67130000Y-71115200D02*
X67130000Y-70615200D01*
X56969000Y-70875200D02*
X66890000Y-70875200D01*
X66330000Y-70875200D02*
X66330000Y-50435200D01*
X60955000Y-62125200D02*
X60991000Y-62160200D01*
X63253000Y-59342200D02*
X63299000Y-59389200D01*
X61546000Y-69810200D02*
G75*
G03*
X62913042Y-69810627I684001J1534993D01*
G01*
X63765000Y-68959200D02*
G75*
G03*
X63910253Y-68246395I-1535001J683999D01*
G01*
X63910000Y-68275200D02*
G75*
G03*
X63764756Y-67591882I-1680000J0D01*
G01*
X62914000Y-66740199D02*
G75*
G03*
X61546958Y-66739773I-684000J-1535001D01*
G01*
X60695000Y-67591200D02*
G75*
G03*
X60694573Y-68958242I1534993J-684001D01*
G01*
X63910000Y-53035200D02*
G75*
G03*
X63910000Y-53035200I-1680000J0D01*
G01*
X63910000Y-58115200D02*
G75*
G03*
X63910000Y-58115200I-1680000J0D01*
G01*
X63910000Y-63195200D02*
G75*
G03*
X63910000Y-63195200I-1680000J0D01*
G01*
%TO.C,R51*%
X100794600Y-145130000D02*
X96954600Y-145130000D01*
X100794600Y-146970000D02*
X96954600Y-146970000D01*
%TO.C,R16*%
X70470000Y-106330000D02*
X74310000Y-106330000D01*
X70470000Y-104490000D02*
X74310000Y-104490000D01*
%TO.C,R25*%
X70470000Y-62580000D02*
X74310000Y-62580000D01*
X70470000Y-64420000D02*
X74310000Y-64420000D01*
D12*
%TO.C,U4*%
X69850000Y-51485800D02*
X80010000Y-51485800D01*
X80010000Y-50165000D02*
X80010000Y-51485800D01*
X80010000Y-47574200D02*
X80010000Y-48895000D01*
D13*
X80010000Y-47929800D02*
X69850000Y-47929800D01*
D12*
X80010000Y-47574200D02*
X69850000Y-47574200D01*
X69850000Y-47574200D02*
X69850000Y-51485800D01*
X80010000Y-48895000D02*
G75*
G03*
X80010000Y-50165000I0J-635000D01*
G01*
D11*
%TO.C,R21*%
X70470000Y-86710000D02*
X74310000Y-86710000D01*
X70470000Y-88550000D02*
X74310000Y-88550000D01*
D14*
%TO.C,Q1*%
X86462960Y-112690270D02*
X85558920Y-111786240D01*
X85558920Y-111786240D02*
X86386240Y-110958920D01*
X86386240Y-110958920D02*
X87290270Y-111862960D01*
X91820000Y-114300000D02*
G75*
G03*
X91820000Y-114300000I-2920000J0D01*
G01*
D15*
X85500000Y-114300000D02*
G75*
G03*
X85500000Y-114300000I-100000J0D01*
G01*
D11*
%TO.C,R10*%
X70470000Y-119730000D02*
X74310000Y-119730000D01*
X70470000Y-121570000D02*
X74310000Y-121570000D01*
%TO.C,R29*%
X70470000Y-42260000D02*
X74310000Y-42260000D01*
X70470000Y-44100000D02*
X74310000Y-44100000D01*
%TO.C,R30*%
X100980000Y-42006000D02*
X97140000Y-42006000D01*
X100980000Y-43846000D02*
X97140000Y-43846000D01*
%TO.C,R20*%
X70470000Y-84170000D02*
X74310000Y-84170000D01*
X70470000Y-86010000D02*
X74310000Y-86010000D01*
%TO.C,R50*%
X100794600Y-147670000D02*
X96954600Y-147670000D01*
X100794600Y-149510000D02*
X96954600Y-149510000D01*
%TO.C,R49*%
X100794600Y-121570000D02*
X96954600Y-121570000D01*
X100794600Y-119730000D02*
X96954600Y-119730000D01*
%TO.C,R24*%
X70470000Y-61880000D02*
X74310000Y-61880000D01*
X70470000Y-60040000D02*
X74310000Y-60040000D01*
%TO.C,R28*%
X70470000Y-39720000D02*
X74310000Y-39720000D01*
X70470000Y-41560000D02*
X74310000Y-41560000D01*
D12*
%TO.C,U6*%
X91254600Y-95935800D02*
X101414600Y-95935800D01*
D13*
X91254600Y-95580200D02*
X101414600Y-95580200D01*
D12*
X91254600Y-95935800D02*
X91254600Y-94615000D01*
X101414600Y-92024200D02*
X91254600Y-92024200D01*
X101414600Y-95935800D02*
X101414600Y-92024200D01*
X91254600Y-93345000D02*
X91254600Y-92024200D01*
X91254600Y-94615000D02*
G75*
G03*
X91254600Y-93345000I0J635000D01*
G01*
D11*
%TO.C,J9*%
X107841000Y-45763000D02*
X107795000Y-45716000D01*
X114125000Y-49590000D02*
X104204000Y-49590000D01*
X107625000Y-40876000D02*
X107590000Y-40841000D01*
X104204000Y-29150000D02*
X104204000Y-49590000D01*
X109933000Y-38105000D02*
X109887000Y-38058000D01*
X107625000Y-35796000D02*
X107590000Y-35761000D01*
X110139000Y-42980000D02*
X110103000Y-42945000D01*
X107841000Y-40683000D02*
X107795000Y-40636000D01*
X110139000Y-37900000D02*
X110103000Y-37865000D01*
X114125000Y-29150000D02*
X104204000Y-29150000D01*
X110139000Y-48060000D02*
X110103000Y-48025000D01*
X107841000Y-35603000D02*
X107795000Y-35556000D01*
X109933000Y-48265000D02*
X109887000Y-48218000D01*
X111165000Y-29150000D02*
X111165000Y-49590000D01*
X114125000Y-29150000D02*
X114125000Y-49590000D01*
X109933000Y-43185000D02*
X109887000Y-43138000D01*
X104764000Y-29150000D02*
X104764000Y-49590000D01*
X106264000Y-29150000D02*
X106264000Y-49590000D01*
X107625000Y-45956000D02*
X107590000Y-45921000D01*
X103964000Y-28910000D02*
X103964000Y-29410000D01*
X104704000Y-28910000D02*
X103964000Y-28910000D01*
X107329000Y-31066000D02*
G75*
G03*
X107183747Y-31778805I1535001J-683999D01*
G01*
X109548000Y-30215000D02*
G75*
G03*
X108180958Y-30214573I-684001J-1534993D01*
G01*
X108180000Y-33285001D02*
G75*
G03*
X109547042Y-33285427I684000J1535001D01*
G01*
X107184000Y-31750000D02*
G75*
G03*
X107329244Y-32433318I1680000J0D01*
G01*
X110399000Y-32434000D02*
G75*
G03*
X110399427Y-31066958I-1534993J684001D01*
G01*
X110544000Y-36830000D02*
G75*
G03*
X110544000Y-36830000I-1680000J0D01*
G01*
X110544000Y-41910000D02*
G75*
G03*
X110544000Y-41910000I-1680000J0D01*
G01*
X110544000Y-46990000D02*
G75*
G03*
X110544000Y-46990000I-1680000J0D01*
G01*
%TO.C,J14*%
X111216000Y-137100000D02*
X111216000Y-157540000D01*
X114176000Y-137100000D02*
X104255000Y-137100000D01*
X109984000Y-146055000D02*
X109938000Y-146008000D01*
X114176000Y-157540000D02*
X104255000Y-157540000D01*
X109984000Y-151135000D02*
X109938000Y-151088000D01*
X107676000Y-153906000D02*
X107641000Y-153871000D01*
X107892000Y-143553000D02*
X107846000Y-143506000D01*
X110190000Y-150930000D02*
X110154000Y-150895000D01*
X107892000Y-153713000D02*
X107846000Y-153666000D01*
X110190000Y-156010000D02*
X110154000Y-155975000D01*
X107892000Y-148633000D02*
X107846000Y-148586000D01*
X106315000Y-137100000D02*
X106315000Y-157540000D01*
X107676000Y-143746000D02*
X107641000Y-143711000D01*
X110190000Y-145850000D02*
X110154000Y-145815000D01*
X107676000Y-148826000D02*
X107641000Y-148791000D01*
X109984000Y-156215000D02*
X109938000Y-156168000D01*
X104755000Y-136860000D02*
X104015000Y-136860000D01*
X104015000Y-136860000D02*
X104015000Y-137360000D01*
X104255000Y-137100000D02*
X104255000Y-157540000D01*
X114176000Y-137100000D02*
X114176000Y-157540000D01*
X104815000Y-137100000D02*
X104815000Y-157540000D01*
X107235000Y-139700000D02*
G75*
G03*
X107380244Y-140383318I1680000J0D01*
G01*
X108231000Y-141235001D02*
G75*
G03*
X109598042Y-141235427I684000J1535001D01*
G01*
X107380000Y-139016000D02*
G75*
G03*
X107234747Y-139728805I1535001J-683999D01*
G01*
X110450000Y-140384000D02*
G75*
G03*
X110450427Y-139016958I-1534993J684001D01*
G01*
X109599000Y-138165000D02*
G75*
G03*
X108231958Y-138164573I-684001J-1534993D01*
G01*
X110595000Y-144780000D02*
G75*
G03*
X110595000Y-144780000I-1680000J0D01*
G01*
X110595000Y-149860000D02*
G75*
G03*
X110595000Y-149860000I-1680000J0D01*
G01*
X110595000Y-154940000D02*
G75*
G03*
X110595000Y-154940000I-1680000J0D01*
G01*
%TO.C,J11*%
X107625000Y-78976000D02*
X107590000Y-78941000D01*
X114125000Y-72330000D02*
X104204000Y-72330000D01*
X109933000Y-91445000D02*
X109887000Y-91398000D01*
X104204000Y-72330000D02*
X104204000Y-92770000D01*
X104764000Y-72330000D02*
X104764000Y-92770000D01*
X114125000Y-92770000D02*
X104204000Y-92770000D01*
X107841000Y-83863000D02*
X107795000Y-83816000D01*
X107625000Y-89136000D02*
X107590000Y-89101000D01*
X109933000Y-86365000D02*
X109887000Y-86318000D01*
X111165000Y-72330000D02*
X111165000Y-92770000D01*
X110139000Y-86160000D02*
X110103000Y-86125000D01*
X104704000Y-72090000D02*
X103964000Y-72090000D01*
X107841000Y-78783000D02*
X107795000Y-78736000D01*
X110139000Y-81080000D02*
X110103000Y-81045000D01*
X103964000Y-72090000D02*
X103964000Y-72590000D01*
X109933000Y-81285000D02*
X109887000Y-81238000D01*
X107841000Y-88943000D02*
X107795000Y-88896000D01*
X114125000Y-72330000D02*
X114125000Y-92770000D01*
X110139000Y-91240000D02*
X110103000Y-91205000D01*
X106264000Y-72330000D02*
X106264000Y-92770000D01*
X107625000Y-84056000D02*
X107590000Y-84021000D01*
X108180000Y-76465001D02*
G75*
G03*
X109547042Y-76465427I684000J1535001D01*
G01*
X107184000Y-74930000D02*
G75*
G03*
X107329244Y-75613318I1680000J0D01*
G01*
X110399000Y-75614000D02*
G75*
G03*
X110399427Y-74246958I-1534993J684001D01*
G01*
X109548000Y-73395000D02*
G75*
G03*
X108180958Y-73394573I-684001J-1534993D01*
G01*
X107329000Y-74246000D02*
G75*
G03*
X107183747Y-74958805I1535001J-683999D01*
G01*
X110544000Y-85090000D02*
G75*
G03*
X110544000Y-85090000I-1680000J0D01*
G01*
X110544000Y-80010000D02*
G75*
G03*
X110544000Y-80010000I-1680000J0D01*
G01*
X110544000Y-90170000D02*
G75*
G03*
X110544000Y-90170000I-1680000J0D01*
G01*
%TO.C,J1*%
X76140000Y-22984000D02*
X76140000Y-32905000D01*
X95050000Y-26970000D02*
X95015000Y-27006000D01*
X92946000Y-29484000D02*
X92911000Y-29519000D01*
X76140000Y-22984000D02*
X96580000Y-22984000D01*
X92753000Y-29268000D02*
X92706000Y-29314000D01*
X87673000Y-29268000D02*
X87626000Y-29314000D01*
X76140000Y-30845000D02*
X96580000Y-30845000D01*
X75900000Y-33145000D02*
X76400000Y-33145000D01*
X76140000Y-32905000D02*
X96580000Y-32905000D01*
X89970000Y-26970000D02*
X89935000Y-27006000D01*
X76140000Y-32345000D02*
X96580000Y-32345000D01*
X90175000Y-27176000D02*
X90128000Y-27222000D01*
X82593000Y-29268000D02*
X82546000Y-29314000D01*
X87866000Y-29484000D02*
X87831000Y-29519000D01*
X82786000Y-29484000D02*
X82751000Y-29519000D01*
X75900000Y-32405000D02*
X75900000Y-33145000D01*
X76140000Y-25944000D02*
X96580000Y-25944000D01*
X84890000Y-26970000D02*
X84855000Y-27006000D01*
X96580000Y-22984000D02*
X96580000Y-32905000D01*
X95255000Y-27176000D02*
X95208000Y-27222000D01*
X85095000Y-27176000D02*
X85048000Y-27222000D01*
X78056000Y-29780000D02*
G75*
G03*
X78768805Y-29925253I683999J1535001D01*
G01*
X80275001Y-28929000D02*
G75*
G03*
X80275427Y-27561958I-1535001J684000D01*
G01*
X79424000Y-26710000D02*
G75*
G03*
X78056958Y-26709573I-684001J-1534993D01*
G01*
X78740000Y-29925000D02*
G75*
G03*
X79423318Y-29779756I0J1680000D01*
G01*
X77205000Y-27561000D02*
G75*
G03*
X77204573Y-28928042I1534993J-684001D01*
G01*
X85500000Y-28245000D02*
G75*
G03*
X85500000Y-28245000I-1680000J0D01*
G01*
X90580000Y-28245000D02*
G75*
G03*
X90580000Y-28245000I-1680000J0D01*
G01*
X95660000Y-28245000D02*
G75*
G03*
X95660000Y-28245000I-1680000J0D01*
G01*
%TO.C,R45*%
X100700600Y-101250000D02*
X96860600Y-101250000D01*
X100700600Y-99410000D02*
X96860600Y-99410000D01*
%TO.C,J12*%
X107625000Y-105646000D02*
X107590000Y-105611000D01*
X103964000Y-93680000D02*
X103964000Y-94180000D01*
X110139000Y-112830000D02*
X110103000Y-112795000D01*
X114125000Y-93920000D02*
X104204000Y-93920000D01*
X110139000Y-107750000D02*
X110103000Y-107715000D01*
X106264000Y-93920000D02*
X106264000Y-114360000D01*
X104704000Y-93680000D02*
X103964000Y-93680000D01*
X107841000Y-105453000D02*
X107795000Y-105406000D01*
X107841000Y-100373000D02*
X107795000Y-100326000D01*
X111165000Y-93920000D02*
X111165000Y-114360000D01*
X104764000Y-93920000D02*
X104764000Y-114360000D01*
X107841000Y-110533000D02*
X107795000Y-110486000D01*
X114125000Y-114360000D02*
X104204000Y-114360000D01*
X107625000Y-110726000D02*
X107590000Y-110691000D01*
X114125000Y-93920000D02*
X114125000Y-114360000D01*
X109933000Y-102875000D02*
X109887000Y-102828000D01*
X109933000Y-113035000D02*
X109887000Y-112988000D01*
X104204000Y-93920000D02*
X104204000Y-114360000D01*
X107625000Y-100566000D02*
X107590000Y-100531000D01*
X110139000Y-102670000D02*
X110103000Y-102635000D01*
X109933000Y-107955000D02*
X109887000Y-107908000D01*
X107184000Y-96520000D02*
G75*
G03*
X107329244Y-97203318I1680000J0D01*
G01*
X110399000Y-97204000D02*
G75*
G03*
X110399427Y-95836958I-1534993J684001D01*
G01*
X107329000Y-95836000D02*
G75*
G03*
X107183747Y-96548805I1535001J-683999D01*
G01*
X109548000Y-94985000D02*
G75*
G03*
X108180958Y-94984573I-684001J-1534993D01*
G01*
X108180000Y-98055001D02*
G75*
G03*
X109547042Y-98055427I684000J1535001D01*
G01*
X110544000Y-106680000D02*
G75*
G03*
X110544000Y-106680000I-1680000J0D01*
G01*
X110544000Y-111760000D02*
G75*
G03*
X110544000Y-111760000I-1680000J0D01*
G01*
X110544000Y-101600000D02*
G75*
G03*
X110544000Y-101600000I-1680000J0D01*
G01*
%TO.C,R31*%
X100980000Y-39720000D02*
X97140000Y-39720000D01*
X100980000Y-41560000D02*
X97140000Y-41560000D01*
D14*
%TO.C,Q2*%
X79858960Y-112690270D02*
X78954920Y-111786240D01*
X79782240Y-110958920D02*
X80686270Y-111862960D01*
X78954920Y-111786240D02*
X79782240Y-110958920D01*
X85216000Y-114300000D02*
G75*
G03*
X85216000Y-114300000I-2920000J0D01*
G01*
D15*
X78896000Y-114300000D02*
G75*
G03*
X78896000Y-114300000I-100000J0D01*
G01*
D11*
%TO.C,R42*%
X100794600Y-107030000D02*
X96954600Y-107030000D01*
X100794600Y-108870000D02*
X96954600Y-108870000D01*
%TO.C,R26*%
X70470000Y-36480000D02*
X74310000Y-36480000D01*
X70470000Y-34640000D02*
X74310000Y-34640000D01*
%TO.C,R44*%
X100700600Y-101950000D02*
X96860600Y-101950000D01*
X100700600Y-103790000D02*
X96860600Y-103790000D01*
%TO.C,J8*%
X67079000Y-49525200D02*
X67079000Y-49025200D01*
X63418000Y-32479200D02*
X63453000Y-32514200D01*
X60904000Y-30375200D02*
X60940000Y-30410200D01*
X59878000Y-49285200D02*
X59878000Y-28845200D01*
X66339000Y-49525200D02*
X67079000Y-49525200D01*
X66839000Y-49285200D02*
X66839000Y-28845200D01*
X63418000Y-37559200D02*
X63453000Y-37594200D01*
X61110000Y-35250200D02*
X61156000Y-35297200D01*
X64779000Y-49285200D02*
X64779000Y-28845200D01*
X56918000Y-49285200D02*
X66839000Y-49285200D01*
X56918000Y-28845200D02*
X66839000Y-28845200D01*
X63202000Y-37752200D02*
X63248000Y-37799200D01*
X56918000Y-49285200D02*
X56918000Y-28845200D01*
X63418000Y-42639200D02*
X63453000Y-42674200D01*
X63202000Y-42832200D02*
X63248000Y-42879200D01*
X60904000Y-35455200D02*
X60940000Y-35490200D01*
X66279000Y-49285200D02*
X66279000Y-28845200D01*
X61110000Y-30170200D02*
X61156000Y-30217200D01*
X63202000Y-32672200D02*
X63248000Y-32719200D01*
X61110000Y-40330200D02*
X61156000Y-40377200D01*
X60904000Y-40535200D02*
X60940000Y-40570200D01*
X63714000Y-47369200D02*
G75*
G03*
X63859253Y-46656395I-1535001J683999D01*
G01*
X63859000Y-46685200D02*
G75*
G03*
X63713756Y-46001882I-1680000J0D01*
G01*
X62863000Y-45150199D02*
G75*
G03*
X61495958Y-45149773I-684000J-1535001D01*
G01*
X60644000Y-46001200D02*
G75*
G03*
X60643573Y-47368242I1534993J-684001D01*
G01*
X61495000Y-48220200D02*
G75*
G03*
X62862042Y-48220627I684001J1534993D01*
G01*
X63859000Y-36525200D02*
G75*
G03*
X63859000Y-36525200I-1680000J0D01*
G01*
X63859000Y-31445200D02*
G75*
G03*
X63859000Y-31445200I-1680000J0D01*
G01*
X63859000Y-41605200D02*
G75*
G03*
X63859000Y-41605200I-1680000J0D01*
G01*
%TO.C,R4*%
X82900000Y-87010000D02*
X82900000Y-83170000D01*
X84740000Y-87010000D02*
X84740000Y-83170000D01*
%TO.C,R35*%
X100980000Y-61880000D02*
X97140000Y-61880000D01*
X100980000Y-60040000D02*
X97140000Y-60040000D01*
%TO.C,R43*%
X100794600Y-104490000D02*
X96954600Y-104490000D01*
X100794600Y-106330000D02*
X96954600Y-106330000D01*
%TO.C,R48*%
X100794600Y-124110000D02*
X96954600Y-124110000D01*
X100794600Y-122270000D02*
X96954600Y-122270000D01*
D14*
%TO.C,Q4*%
X78954920Y-71146240D02*
X79782240Y-70318920D01*
X79858960Y-72050270D02*
X78954920Y-71146240D01*
X79782240Y-70318920D02*
X80686270Y-71222960D01*
X85216000Y-73660000D02*
G75*
G03*
X85216000Y-73660000I-2920000J0D01*
G01*
D15*
X78896000Y-73660000D02*
G75*
G03*
X78896000Y-73660000I-100000J0D01*
G01*
D11*
%TO.C,R40*%
X100794600Y-83470000D02*
X96954600Y-83470000D01*
X100794600Y-81630000D02*
X96954600Y-81630000D01*
%TO.C,R9*%
X70470000Y-147670000D02*
X74310000Y-147670000D01*
X70470000Y-149510000D02*
X74310000Y-149510000D01*
%TO.C,R34*%
X100980000Y-62580000D02*
X97140000Y-62580000D01*
X100980000Y-64420000D02*
X97140000Y-64420000D01*
%TO.C,J13*%
X110190000Y-134420000D02*
X110154000Y-134385000D01*
X109984000Y-129545000D02*
X109938000Y-129498000D01*
X110190000Y-124260000D02*
X110154000Y-124225000D01*
X106315000Y-115510000D02*
X106315000Y-135950000D01*
X109984000Y-134625000D02*
X109938000Y-134578000D01*
X107676000Y-127236000D02*
X107641000Y-127201000D01*
X107892000Y-121963000D02*
X107846000Y-121916000D01*
X104815000Y-115510000D02*
X104815000Y-135950000D01*
X114176000Y-115510000D02*
X104255000Y-115510000D01*
X107676000Y-132316000D02*
X107641000Y-132281000D01*
X107892000Y-127043000D02*
X107846000Y-126996000D01*
X111216000Y-115510000D02*
X111216000Y-135950000D01*
X107892000Y-132123000D02*
X107846000Y-132076000D01*
X104255000Y-115510000D02*
X104255000Y-135950000D01*
X114176000Y-135950000D02*
X104255000Y-135950000D01*
X107676000Y-122156000D02*
X107641000Y-122121000D01*
X110190000Y-129340000D02*
X110154000Y-129305000D01*
X104755000Y-115270000D02*
X104015000Y-115270000D01*
X104015000Y-115270000D02*
X104015000Y-115770000D01*
X114176000Y-115510000D02*
X114176000Y-135950000D01*
X109984000Y-124465000D02*
X109938000Y-124418000D01*
X107235000Y-118110000D02*
G75*
G03*
X107380244Y-118793318I1680000J0D01*
G01*
X108231000Y-119645001D02*
G75*
G03*
X109598042Y-119645427I684000J1535001D01*
G01*
X107380000Y-117426000D02*
G75*
G03*
X107234747Y-118138805I1535001J-683999D01*
G01*
X109599000Y-116575000D02*
G75*
G03*
X108231958Y-116574573I-684001J-1534993D01*
G01*
X110450000Y-118794000D02*
G75*
G03*
X110450427Y-117426958I-1534993J684001D01*
G01*
X110595000Y-128270000D02*
G75*
G03*
X110595000Y-128270000I-1680000J0D01*
G01*
X110595000Y-123190000D02*
G75*
G03*
X110595000Y-123190000I-1680000J0D01*
G01*
X110595000Y-133350000D02*
G75*
G03*
X110595000Y-133350000I-1680000J0D01*
G01*
%TO.C,R3*%
X85948000Y-87010000D02*
X85948000Y-83170000D01*
X87788000Y-87010000D02*
X87788000Y-83170000D01*
%TO.C,R7*%
X70470000Y-144430000D02*
X74310000Y-144430000D01*
X70470000Y-142590000D02*
X74310000Y-142590000D01*
%TO.C,R12*%
X70470000Y-126650000D02*
X74310000Y-126650000D01*
X70470000Y-124810000D02*
X74310000Y-124810000D01*
%TO.C,R2*%
X83662000Y-127650000D02*
X83662000Y-123810000D01*
X85502000Y-127650000D02*
X85502000Y-123810000D01*
D12*
%TO.C,U1*%
X83642200Y-137574000D02*
X83642200Y-147734000D01*
X86233000Y-137574000D02*
X87553800Y-137574000D01*
D13*
X83997800Y-137574000D02*
X83997800Y-147734000D01*
D12*
X83642200Y-137574000D02*
X84963000Y-137574000D01*
X83642200Y-147734000D02*
X87553800Y-147734000D01*
X87553800Y-147734000D02*
X87553800Y-137574000D01*
X84963000Y-137574000D02*
G75*
G03*
X86233000Y-137574000I635000J0D01*
G01*
D11*
%TO.C,R36*%
X100980000Y-59340000D02*
X97140000Y-59340000D01*
X100980000Y-57500000D02*
X97140000Y-57500000D01*
%TO.C,R11*%
X70470000Y-124110000D02*
X74310000Y-124110000D01*
X70470000Y-122270000D02*
X74310000Y-122270000D01*
%TO.C,R38*%
X100700600Y-86638000D02*
X96860600Y-86638000D01*
X100700600Y-88478000D02*
X96860600Y-88478000D01*
%TO.C,R32*%
X100980000Y-39020000D02*
X97140000Y-39020000D01*
X100980000Y-37180000D02*
X97140000Y-37180000D01*
D12*
%TO.C,U5*%
X101600000Y-51485800D02*
X101600000Y-47574200D01*
X91440000Y-48895000D02*
X91440000Y-47574200D01*
X91440000Y-51485800D02*
X101600000Y-51485800D01*
X101600000Y-47574200D02*
X91440000Y-47574200D01*
D13*
X91440000Y-51130200D02*
X101600000Y-51130200D01*
D12*
X91440000Y-51485800D02*
X91440000Y-50165000D01*
X91440000Y-50165000D02*
G75*
G03*
X91440000Y-48895000I0J635000D01*
G01*
D11*
%TO.C,R8*%
X70470000Y-146970000D02*
X74310000Y-146970000D01*
X70470000Y-145130000D02*
X74310000Y-145130000D01*
%TO.C,R17*%
X70470000Y-107030000D02*
X74310000Y-107030000D01*
X70470000Y-108870000D02*
X74310000Y-108870000D01*
%TO.C,R1*%
X88550000Y-127650000D02*
X88550000Y-123810000D01*
X86710000Y-127650000D02*
X86710000Y-123810000D01*
D14*
%TO.C,Q3*%
X85558920Y-71146240D02*
X86386240Y-70318920D01*
X86386240Y-70318920D02*
X87290270Y-71222960D01*
X86462960Y-72050270D02*
X85558920Y-71146240D01*
D15*
X85500000Y-73660000D02*
G75*
G03*
X85500000Y-73660000I-100000J0D01*
G01*
D14*
X91820000Y-73660000D02*
G75*
G03*
X91820000Y-73660000I-2920000J0D01*
G01*
D11*
%TO.C,R37*%
X101007400Y-54960000D02*
X97167400Y-54960000D01*
X101007400Y-56800000D02*
X97167400Y-56800000D01*
%TO.C,R6*%
X70470000Y-141890000D02*
X74310000Y-141890000D01*
X70470000Y-140050000D02*
X74310000Y-140050000D01*
%TO.C,R46*%
X100794600Y-127350000D02*
X96954600Y-127350000D01*
X100794600Y-129190000D02*
X96954600Y-129190000D01*
%TO.C,J2*%
X76136000Y-157852000D02*
X76531000Y-157456000D01*
X100350000Y-160524000D02*
X100350000Y-151404000D01*
X94048000Y-155472000D02*
X94443000Y-155076000D01*
X100350000Y-151864000D02*
X70230000Y-151864000D01*
X88797000Y-155190000D02*
X89177000Y-154810000D01*
X71136000Y-157852000D02*
X71531000Y-157456000D01*
X100590000Y-151804000D02*
X100590000Y-151164000D01*
X89048000Y-155472000D02*
X89443000Y-155076000D01*
X86136000Y-157852000D02*
X86531000Y-157456000D01*
X78797000Y-155190000D02*
X79177000Y-154810000D01*
X100350000Y-152964000D02*
X70230000Y-152964000D01*
X81402000Y-158118000D02*
X81782000Y-157738000D01*
X79048000Y-155472000D02*
X79443000Y-155076000D01*
X96402000Y-158118000D02*
X96509000Y-158011000D01*
X83797000Y-155190000D02*
X84177000Y-154810000D01*
X86402000Y-158118000D02*
X86782000Y-157738000D01*
X91136000Y-157852000D02*
X91531000Y-157456000D01*
X81136000Y-157852000D02*
X81531000Y-157456000D01*
X99338000Y-155183000D02*
X99444000Y-155076000D01*
X84048000Y-155472000D02*
X84443000Y-155076000D01*
X91402000Y-158118000D02*
X91782000Y-157738000D01*
X93797000Y-155190000D02*
X94177000Y-154810000D01*
X99072000Y-154917000D02*
X99178000Y-154810000D01*
X100350000Y-151404000D02*
X70230000Y-151404000D01*
X70230000Y-160524000D02*
X70230000Y-151404000D01*
X76402000Y-158118000D02*
X76782000Y-157738000D01*
X100350000Y-160524000D02*
X70230000Y-160524000D01*
X100590000Y-151164000D02*
X100190000Y-151164000D01*
X96136000Y-157852000D02*
X96243000Y-157745000D01*
X73797000Y-155190000D02*
X74177000Y-154810000D01*
X71402000Y-158118000D02*
X71782000Y-157738000D01*
X74048000Y-155472000D02*
X74443000Y-155076000D01*
X84970000Y-156464000D02*
G75*
G03*
X84970000Y-156464000I-2180000J0D01*
G01*
X89970000Y-156464000D02*
G75*
G03*
X89970000Y-156464000I-2180000J0D01*
G01*
X79970000Y-156464000D02*
G75*
G03*
X79970000Y-156464000I-2180000J0D01*
G01*
X99970000Y-156464000D02*
G75*
G03*
X99970000Y-156464000I-2180000J0D01*
G01*
X94970000Y-156464000D02*
G75*
G03*
X94970000Y-156464000I-2180000J0D01*
G01*
X74970000Y-156464000D02*
G75*
G03*
X74970000Y-156464000I-2180000J0D01*
G01*
%TO.C,R52*%
X100794600Y-142590000D02*
X96954600Y-142590000D01*
X100794600Y-144430000D02*
X96954600Y-144430000D01*
%TO.C,R13*%
X70470000Y-129190000D02*
X74310000Y-129190000D01*
X70470000Y-127350000D02*
X74310000Y-127350000D01*
%TO.C,R15*%
X70470000Y-103790000D02*
X74310000Y-103790000D01*
X70470000Y-101950000D02*
X74310000Y-101950000D01*
%TO.C,R27*%
X70470000Y-39020000D02*
X74310000Y-39020000D01*
X70470000Y-37180000D02*
X74310000Y-37180000D01*
%TO.C,J10*%
X109933000Y-64775000D02*
X109887000Y-64728000D01*
X107625000Y-57386000D02*
X107590000Y-57351000D01*
X106264000Y-50740000D02*
X106264000Y-71180000D01*
X110139000Y-69650000D02*
X110103000Y-69615000D01*
X104204000Y-50740000D02*
X104204000Y-71180000D01*
X107625000Y-67546000D02*
X107590000Y-67511000D01*
X111165000Y-50740000D02*
X111165000Y-71180000D01*
X104764000Y-50740000D02*
X104764000Y-71180000D01*
X104704000Y-50500000D02*
X103964000Y-50500000D01*
X103964000Y-50500000D02*
X103964000Y-51000000D01*
X114125000Y-50740000D02*
X104204000Y-50740000D01*
X114125000Y-50740000D02*
X114125000Y-71180000D01*
X107841000Y-57193000D02*
X107795000Y-57146000D01*
X107841000Y-62273000D02*
X107795000Y-62226000D01*
X107625000Y-62466000D02*
X107590000Y-62431000D01*
X109933000Y-59695000D02*
X109887000Y-59648000D01*
X110139000Y-59490000D02*
X110103000Y-59455000D01*
X110139000Y-64570000D02*
X110103000Y-64535000D01*
X109933000Y-69855000D02*
X109887000Y-69808000D01*
X107841000Y-67353000D02*
X107795000Y-67306000D01*
X114125000Y-71180000D02*
X104204000Y-71180000D01*
X110399000Y-54024000D02*
G75*
G03*
X110399427Y-52656958I-1534993J684001D01*
G01*
X108180000Y-54875001D02*
G75*
G03*
X109547042Y-54875427I684000J1535001D01*
G01*
X109548000Y-51805000D02*
G75*
G03*
X108180958Y-51804573I-684001J-1534993D01*
G01*
X107329000Y-52656000D02*
G75*
G03*
X107183747Y-53368805I1535001J-683999D01*
G01*
X107184000Y-53340000D02*
G75*
G03*
X107329244Y-54023318I1680000J0D01*
G01*
X110544000Y-58420000D02*
G75*
G03*
X110544000Y-58420000I-1680000J0D01*
G01*
X110544000Y-63500000D02*
G75*
G03*
X110544000Y-63500000I-1680000J0D01*
G01*
X110544000Y-68580000D02*
G75*
G03*
X110544000Y-68580000I-1680000J0D01*
G01*
%TO.C,R41*%
X100794600Y-80930000D02*
X96954600Y-80930000D01*
X100794600Y-79090000D02*
X96954600Y-79090000D01*
%TO.C,R18*%
X70470000Y-79090000D02*
X74310000Y-79090000D01*
X70470000Y-80930000D02*
X74310000Y-80930000D01*
D12*
%TO.C,U3*%
X80010000Y-94615000D02*
X80010000Y-95935800D01*
X69850000Y-92024200D02*
X69850000Y-95935800D01*
D13*
X80010000Y-92379800D02*
X69850000Y-92379800D01*
D12*
X80010000Y-92024200D02*
X69850000Y-92024200D01*
X69850000Y-95935800D02*
X80010000Y-95935800D01*
X80010000Y-92024200D02*
X80010000Y-93345000D01*
X80010000Y-93345000D02*
G75*
G03*
X80010000Y-94615000I0J-635000D01*
G01*
D11*
%TO.C,R33*%
X100980000Y-34640000D02*
X97140000Y-34640000D01*
X100980000Y-36480000D02*
X97140000Y-36480000D01*
%TO.C,J6*%
X63253000Y-80932200D02*
X63299000Y-80979200D01*
X60955000Y-78635200D02*
X60991000Y-78670200D01*
X67130000Y-92705200D02*
X67130000Y-92205200D01*
X56969000Y-72025200D02*
X66890000Y-72025200D01*
X61161000Y-83510200D02*
X61207000Y-83557200D01*
X63469000Y-75659200D02*
X63504000Y-75694200D01*
X56969000Y-92465200D02*
X66890000Y-92465200D01*
X63253000Y-75852200D02*
X63299000Y-75899200D01*
X66330000Y-92465200D02*
X66330000Y-72025200D01*
X63253000Y-86012200D02*
X63299000Y-86059200D01*
X64830000Y-92465200D02*
X64830000Y-72025200D01*
X60955000Y-83715200D02*
X60991000Y-83750200D01*
X59929000Y-92465200D02*
X59929000Y-72025200D01*
X66890000Y-92465200D02*
X66890000Y-72025200D01*
X61161000Y-78430200D02*
X61207000Y-78477200D01*
X61161000Y-73350200D02*
X61207000Y-73397200D01*
X60955000Y-73555200D02*
X60991000Y-73590200D01*
X56969000Y-92465200D02*
X56969000Y-72025200D01*
X66390000Y-92705200D02*
X67130000Y-92705200D01*
X63469000Y-80739200D02*
X63504000Y-80774200D01*
X63469000Y-85819200D02*
X63504000Y-85854200D01*
X63910000Y-89865200D02*
G75*
G03*
X63764756Y-89181882I-1680000J0D01*
G01*
X61546000Y-91400200D02*
G75*
G03*
X62913042Y-91400627I684001J1534993D01*
G01*
X62914000Y-88330199D02*
G75*
G03*
X61546958Y-88329773I-684000J-1535001D01*
G01*
X60695000Y-89181200D02*
G75*
G03*
X60694573Y-90548242I1534993J-684001D01*
G01*
X63765000Y-90549200D02*
G75*
G03*
X63910253Y-89836395I-1535001J683999D01*
G01*
X63910000Y-79705200D02*
G75*
G03*
X63910000Y-79705200I-1680000J0D01*
G01*
X63910000Y-74625200D02*
G75*
G03*
X63910000Y-74625200I-1680000J0D01*
G01*
X63910000Y-84785200D02*
G75*
G03*
X63910000Y-84785200I-1680000J0D01*
G01*
%TO.C,J5*%
X63253000Y-107602200D02*
X63299000Y-107649200D01*
X56969000Y-93615200D02*
X66890000Y-93615200D01*
X66390000Y-114295200D02*
X67130000Y-114295200D01*
X61161000Y-100020200D02*
X61207000Y-100067200D01*
X67130000Y-114295200D02*
X67130000Y-113795200D01*
X64830000Y-114055200D02*
X64830000Y-93615200D01*
X61161000Y-94940200D02*
X61207000Y-94987200D01*
X59929000Y-114055200D02*
X59929000Y-93615200D01*
X63469000Y-107409200D02*
X63504000Y-107444200D01*
X60955000Y-100225200D02*
X60991000Y-100260200D01*
X61161000Y-105100200D02*
X61207000Y-105147200D01*
X60955000Y-95145200D02*
X60991000Y-95180200D01*
X63469000Y-97249200D02*
X63504000Y-97284200D01*
X56969000Y-114055200D02*
X66890000Y-114055200D01*
X63253000Y-102522200D02*
X63299000Y-102569200D01*
X63253000Y-97442200D02*
X63299000Y-97489200D01*
X66330000Y-114055200D02*
X66330000Y-93615200D01*
X66890000Y-114055200D02*
X66890000Y-93615200D01*
X63469000Y-102329200D02*
X63504000Y-102364200D01*
X56969000Y-114055200D02*
X56969000Y-93615200D01*
X60955000Y-105305200D02*
X60991000Y-105340200D01*
X62914000Y-109920199D02*
G75*
G03*
X61546958Y-109919773I-684000J-1535001D01*
G01*
X60695000Y-110771200D02*
G75*
G03*
X60694573Y-112138242I1534993J-684001D01*
G01*
X63910000Y-111455200D02*
G75*
G03*
X63764756Y-110771882I-1680000J0D01*
G01*
X63765000Y-112139200D02*
G75*
G03*
X63910253Y-111426395I-1535001J683999D01*
G01*
X61546000Y-112990200D02*
G75*
G03*
X62913042Y-112990627I684001J1534993D01*
G01*
X63910000Y-101295200D02*
G75*
G03*
X63910000Y-101295200I-1680000J0D01*
G01*
X63910000Y-106375200D02*
G75*
G03*
X63910000Y-106375200I-1680000J0D01*
G01*
X63910000Y-96215200D02*
G75*
G03*
X63910000Y-96215200I-1680000J0D01*
G01*
%TO.C,R22*%
X70470000Y-56800000D02*
X74310000Y-56800000D01*
X70470000Y-54960000D02*
X74310000Y-54960000D01*
%TO.C,J3*%
X61161000Y-143200200D02*
X61207000Y-143247200D01*
X56969000Y-157235200D02*
X56969000Y-136795200D01*
X56969000Y-157235200D02*
X66890000Y-157235200D01*
X56969000Y-136795200D02*
X66890000Y-136795200D01*
X66330000Y-157235200D02*
X66330000Y-136795200D01*
X63253000Y-140622200D02*
X63299000Y-140669200D01*
X64830000Y-157235200D02*
X64830000Y-136795200D01*
X60955000Y-143405200D02*
X60991000Y-143440200D01*
X59929000Y-157235200D02*
X59929000Y-136795200D01*
X63253000Y-145702200D02*
X63299000Y-145749200D01*
X61161000Y-148280200D02*
X61207000Y-148327200D01*
X67130000Y-157475200D02*
X67130000Y-156975200D01*
X66390000Y-157475200D02*
X67130000Y-157475200D01*
X63469000Y-140429200D02*
X63504000Y-140464200D01*
X63469000Y-150589200D02*
X63504000Y-150624200D01*
X63469000Y-145509200D02*
X63504000Y-145544200D01*
X66890000Y-157235200D02*
X66890000Y-136795200D01*
X60955000Y-138325200D02*
X60991000Y-138360200D01*
X60955000Y-148485200D02*
X60991000Y-148520200D01*
X61161000Y-138120200D02*
X61207000Y-138167200D01*
X63253000Y-150782200D02*
X63299000Y-150829200D01*
X61546000Y-156170200D02*
G75*
G03*
X62913042Y-156170627I684001J1534993D01*
G01*
X63910000Y-154635200D02*
G75*
G03*
X63764756Y-153951882I-1680000J0D01*
G01*
X60695000Y-153951200D02*
G75*
G03*
X60694573Y-155318242I1534993J-684001D01*
G01*
X63765000Y-155319200D02*
G75*
G03*
X63910253Y-154606395I-1535001J683999D01*
G01*
X62914000Y-153100199D02*
G75*
G03*
X61546958Y-153099773I-684000J-1535001D01*
G01*
X63910000Y-139395200D02*
G75*
G03*
X63910000Y-139395200I-1680000J0D01*
G01*
X63910000Y-144475200D02*
G75*
G03*
X63910000Y-144475200I-1680000J0D01*
G01*
X63910000Y-149555200D02*
G75*
G03*
X63910000Y-149555200I-1680000J0D01*
G01*
%TD*%
M02*
